<svg width="32" height="33" viewBox="0 0 32 33" fill="none" xmlns="http://www.w3.org/2000/svg">
<path d="M10.6836 3.51465H21.6502C25.828 3.51465 29.2224 6.90909 29.2224 11.0869V22.0535C29.2224 24.0618 28.4247 25.9878 27.0046 27.4079C25.5845 28.828 23.6585 29.6258 21.6502 29.6258H10.6836C6.50577 29.6258 3.11133 26.2313 3.11133 22.0535V11.0869C3.11133 9.07859 3.90911 7.15257 5.32918 5.7325C6.74925 4.31243 8.67527 3.51465 10.6836 3.51465ZM10.4224 6.12576C9.17592 6.12576 7.98046 6.62094 7.09904 7.50236C6.21762 8.38378 5.72244 9.57924 5.72244 10.8258V22.3146C5.72244 24.9127 7.82438 27.0146 10.4224 27.0146H21.9113C23.1578 27.0146 24.3533 26.5195 25.2347 25.6381C26.1162 24.7566 26.6113 23.5612 26.6113 22.3146V10.8258C26.6113 8.2277 24.5094 6.12576 21.9113 6.12576H10.4224ZM23.0211 8.08409C23.4539 8.08409 23.869 8.25603 24.175 8.56208C24.4811 8.86813 24.653 9.28322 24.653 9.71604C24.653 10.1489 24.4811 10.5639 24.175 10.87C23.869 11.176 23.4539 11.348 23.0211 11.348C22.5882 11.348 22.1731 11.176 21.8671 10.87C21.561 10.5639 21.3891 10.1489 21.3891 9.71604C21.3891 9.28322 21.561 8.86813 21.8671 8.56208C22.1731 8.25603 22.5882 8.08409 23.0211 8.08409ZM16.1669 10.0424C17.8982 10.0424 19.5585 10.7302 20.7827 11.9544C22.0069 13.1786 22.6947 14.8389 22.6947 16.5702C22.6947 18.3015 22.0069 19.9618 20.7827 21.186C19.5585 22.4102 17.8982 23.098 16.1669 23.098C14.4356 23.098 12.7752 22.4102 11.551 21.186C10.3269 19.9618 9.63911 18.3015 9.63911 16.5702C9.63911 14.8389 10.3269 13.1786 11.551 11.9544C12.7752 10.7302 14.4356 10.0424 16.1669 10.0424ZM16.1669 12.6535C15.1281 12.6535 14.1319 13.0662 13.3974 13.8007C12.6629 14.5352 12.2502 15.5314 12.2502 16.5702C12.2502 17.609 12.6629 18.6052 13.3974 19.3397C14.1319 20.0742 15.1281 20.4869 16.1669 20.4869C17.2056 20.4869 18.2019 20.0742 18.9364 19.3397C19.6709 18.6052 20.0836 17.609 20.0836 16.5702C20.0836 15.5314 19.6709 14.5352 18.9364 13.8007C18.2019 13.0662 17.2056 12.6535 16.1669 12.6535Z" fill="#13315C"/>
</svg>
