<svg width="64" height="69" viewBox="0 0 64 69" fill="none" xmlns="http://www.w3.org/2000/svg">
<path fill-rule="evenodd" clip-rule="evenodd" d="M47.3746 66.6864C47.3746 66.6864 44.0777 64.8609 44.0777 63.3894V52.792C44.0777 50.7691 45.4906 49.4951 45.4906 49.4951C45.4906 49.4951 44.0777 48.2316 44.0777 46.1981V44.0786H54.0299C55.8508 44.0786 61.9755 52.0242 61.9755 52.0242V35.6007C61.9755 34.1999 63.3885 32.3038 63.3885 32.3038C63.3885 32.3038 61.9755 30.4076 61.9755 29.0068V17.2319C61.9755 17.2319 60.15 20.5289 58.6785 20.5289H44.0777V5.45702C44.0777 3.63616 47.3746 2.16006 47.3746 2.16006H35.5998C34.1989 2.16006 32.3028 0.74707 32.3028 0.74707C32.3028 0.74707 30.4066 2.16006 29.0058 2.16006H17.2309C17.2309 2.16006 20.5279 3.63616 20.5279 5.45702V20.5289H5.45605C3.63518 20.5289 2.15908 17.2319 2.15908 17.2319V29.0068C2.15908 30.4076 0.746094 32.3038 0.746094 32.3038C0.746094 32.3038 2.15908 34.1999 2.15908 35.6007V52.0855C2.15908 52.0855 8.2838 44.0786 10.1047 44.0786H20.5279V46.1981C20.5279 48.2129 19.1149 49.4951 19.1149 49.4951C19.1149 49.4951 20.5279 50.6422 20.5279 52.792V63.3894C20.5279 65.2103 17.2309 66.6864 17.2309 66.6864H29.0058C30.4066 66.6864 32.3028 68.0994 32.3028 68.0994C32.3028 68.0994 34.1989 66.6864 35.5998 66.6864H47.3746ZM40.3461 60.624C40.3461 61.6351 41.1852 62.8895 41.1852 62.8895H34.5551C33.5983 62.8895 32.3031 63.8604 32.3031 63.8604C32.3031 63.8604 31.0078 62.8895 30.051 62.8895H23.4209C23.4209 62.8895 24.26 61.8752 24.26 60.624V51.6685C24.26 50.1912 23.2948 49.403 23.2948 49.403C23.2948 49.403 24.26 48.5219 24.26 47.1375V44.0786V40.3554H20.5279H10.288C9.04426 40.3554 6.10565 43.1498 6.10565 43.1498V34.5298C6.10565 33.5672 5.14048 32.2643 5.14048 32.2643C5.14048 32.2643 6.10565 30.9613 6.10565 29.9988V23.3206C6.10565 23.3206 7.11393 24.1732 8.3577 24.1732H20.5279H24.26V20.5289V8.22248C24.26 6.97127 23.4209 5.95696 23.4209 5.95696H30.051C31.0078 5.95696 32.3031 4.98603 32.3031 4.98603C32.3031 4.98603 33.5983 5.95696 34.5551 5.95696H41.1852C41.1852 5.95696 40.3461 6.97127 40.3461 8.22248V20.5289V24.1732H44.0777H55.9323C56.9374 24.1732 58.1843 23.3206 58.1843 23.3206V29.9988C58.1843 30.9613 59.1495 32.2643 59.1495 32.2643C59.1495 32.2643 58.1843 33.5672 58.1843 34.5298V43.1498C58.1843 43.1498 55.2457 40.3554 54.002 40.3554H44.0777H40.3461V44.0786V47.1375C40.3461 48.5348 41.3113 49.403 41.3113 49.403C41.3113 49.403 40.3461 50.2784 40.3461 51.6685V60.624Z" fill="#C5E3FE"/>
</svg>
