<svg width="240" height="259" viewBox="0 0 240 259" fill="none" xmlns="http://www.w3.org/2000/svg">
<path d="M5.41353 63.1579C5.41353 63.1579 11.0689 75.7895 18.0451 75.7895H75.7895V89.7518H29.1622C24.3969 89.7518 20.5339 86.4855 20.5339 86.4855V112.071C20.5339 115.759 16.8361 120.751 16.8361 120.751C16.8361 120.751 20.5339 125.743 20.5339 129.431V162.456C20.5339 162.456 31.7925 151.75 36.5578 151.75H75.7895V166.015H28.8722C21.896 166.015 5.41353 196.692 5.41353 196.692V133.534C5.41353 128.167 0 120.902 0 120.902C0 120.902 5.41353 113.638 5.41353 108.271V63.1579Z" fill="white"/>
<path d="M75.7895 75.7895H90.0882V89.7518H75.7895V75.7895Z" fill="white"/>
<path d="M178.647 5.41353C178.647 5.41353 166.015 11.0689 166.015 18.0451V75.7895H151.718V28.6403C151.718 23.8466 154.933 19.9605 154.933 19.9605H129.532C125.866 19.9605 120.903 16.2406 120.903 16.2406C120.903 16.2406 115.941 19.9605 112.275 19.9605H86.8735C86.8735 19.9605 90.0882 23.8466 90.0882 28.6403V75.7895H75.7895V18.0451C75.7895 11.0689 63.1579 5.41353 63.1579 5.41353H108.271C113.638 5.41353 120.902 0 120.902 0C120.902 0 128.167 5.41353 133.534 5.41353H178.647Z" fill="white"/>
<path d="M151.718 75.7895H166.015V89.7518H151.718V75.7895Z" fill="white"/>
<path d="M221.955 75.7895C227.593 75.7895 234.586 63.1579 234.586 63.1579V108.271C234.586 113.638 240 120.902 240 120.902C240 120.902 234.586 128.167 234.586 133.534V196.457C234.586 196.457 218.104 166.015 211.128 166.015H166.015V151.75H204.038C208.803 151.75 220.062 162.456 220.062 162.456V129.431C220.062 125.743 223.759 120.751 223.759 120.751C223.759 120.751 220.062 115.759 220.062 112.071V86.4855C220.062 86.4855 215.284 89.7518 211.433 89.7518H166.015V75.7895H221.955Z" fill="white"/>
<path d="M151.718 151.75H166.015V166.015H151.718V151.75Z" fill="white"/>
<path d="M166.015 240C166.015 245.638 178.647 252.632 178.647 252.632H133.534C128.167 252.632 120.902 258.045 120.902 258.045C120.902 258.045 113.638 252.632 108.271 252.632H63.1579C63.1579 252.632 75.7895 246.976 75.7895 240V199.398C75.7895 191.162 70.3759 186.767 70.3759 186.767C70.3759 186.767 75.7895 181.855 75.7895 174.135V166.015H90.0882V177.734C90.0882 183.039 86.3904 186.414 86.3904 186.414C86.3904 186.414 90.0882 189.434 90.0882 195.094V229.405C90.0882 234.199 86.8735 238.085 86.8735 238.085H112.275C115.941 238.085 120.903 241.805 120.903 241.805C120.903 241.805 125.866 238.085 129.532 238.085H154.933C154.933 238.085 151.718 233.279 151.718 229.405V195.094C151.718 189.768 155.416 186.414 155.416 186.414C155.416 186.414 151.718 183.088 151.718 177.734V166.015H166.015V174.135C166.015 181.926 171.429 186.767 171.429 186.767C171.429 186.767 166.015 191.648 166.015 199.398V240Z" fill="white"/>
<path d="M75.7895 151.75H90.0882V166.015H75.7895V151.75Z" fill="white"/>
</svg>
