<svg width="48" height="52" viewBox="0 0 48 52" fill="none" xmlns="http://www.w3.org/2000/svg">
<path d="M1.08271 12.6316C1.08271 12.6316 2.21378 15.1579 3.60902 15.1579H15.1579V17.9504H5.83243C4.87938 17.9504 4.10678 17.2971 4.10678 17.2971V22.4142C4.10678 23.1518 3.36722 24.1502 3.36722 24.1502C3.36722 24.1502 4.10678 25.1486 4.10678 25.8862V32.4913C4.10678 32.4913 6.35851 30.3501 7.31156 30.3501H15.1579V33.203H5.77444C4.37919 33.203 1.08271 39.3383 1.08271 39.3383V26.7068C1.08271 25.6334 0 24.1805 0 24.1805C0 24.1805 1.08271 22.7275 1.08271 21.6541V12.6316Z" fill="black"/>
<path d="M15.1579 15.1579H18.0176V17.9504H15.1579V15.1579Z" fill="black"/>
<path d="M35.7293 1.08271C35.7293 1.08271 33.203 2.21378 33.203 3.60902V15.1579H30.3437V5.72806C30.3437 4.76932 30.9866 3.9921 30.9866 3.9921H25.9063C25.1731 3.9921 24.1807 3.24812 24.1807 3.24812C24.1807 3.24812 23.1882 3.9921 22.455 3.9921H17.3747C17.3747 3.9921 18.0176 4.76932 18.0176 5.72806V15.1579H15.1579V3.60902C15.1579 2.21378 12.6316 1.08271 12.6316 1.08271H21.6541C22.7275 1.08271 24.1805 0 24.1805 0C24.1805 0 25.6334 1.08271 26.7068 1.08271H35.7293Z" fill="black"/>
<path d="M30.3437 15.1579H33.203V17.9504H30.3437V15.1579Z" fill="black"/>
<path d="M44.391 15.1579C45.5185 15.1579 46.9173 12.6316 46.9173 12.6316V21.6541C46.9173 22.7275 48 24.1805 48 24.1805C48 24.1805 46.9173 25.6334 46.9173 26.7068V37.8947C46.9173 37.8947 43.6208 33.203 42.2256 33.203H33.203V30.3501H40.8075C41.7606 30.3501 44.0123 32.4913 44.0123 32.4913V25.8862C44.0123 25.1486 44.7519 24.1502 44.7519 24.1502C44.7519 24.1502 44.0123 23.1518 44.0123 22.4142V17.2971C44.0123 17.2971 43.0569 17.9504 42.2867 17.9504H33.203V15.1579H44.391Z" fill="black"/>
<path d="M30.3437 30.3501H33.203V33.203H30.3437V30.3501Z" fill="black"/>
<path d="M33.203 48C33.203 49.1275 35.7293 50.5263 35.7293 50.5263H26.7068C25.6334 50.5263 24.1805 51.609 24.1805 51.609C24.1805 51.609 22.7275 50.5263 21.6541 50.5263H12.6316C12.6316 50.5263 15.1579 49.3952 15.1579 48V39.8797C15.1579 38.2324 14.0752 37.3534 14.0752 37.3534C14.0752 37.3534 15.1579 36.3709 15.1579 34.8271V33.203H18.0176V35.5469C18.0176 36.6077 17.2781 37.2828 17.2781 37.2828C17.2781 37.2828 18.0176 37.8868 18.0176 39.0188V45.881C18.0176 46.8397 17.3747 47.6169 17.3747 47.6169H22.455C23.1882 47.6169 24.1807 48.3609 24.1807 48.3609C24.1807 48.3609 25.1731 47.6169 25.9063 47.6169H30.9866C30.9866 47.6169 30.3437 46.6557 30.3437 45.881V39.0188C30.3437 37.9536 31.0833 37.2828 31.0833 37.2828C31.0833 37.2828 30.3437 36.6176 30.3437 35.5469V33.203H33.203V34.8271C33.203 36.3853 34.2857 37.3534 34.2857 37.3534C34.2857 37.3534 33.203 38.3296 33.203 39.8797V48Z" fill="black"/>
<path d="M15.1579 30.3501H18.0176V33.203H15.1579V30.3501Z" fill="black"/>
</svg>
