<svg width="58" height="63" viewBox="0 0 58 63" fill="none" xmlns="http://www.w3.org/2000/svg">
<path fill-rule="evenodd" clip-rule="evenodd" d="M43.1625 61.0379C43.1625 61.0379 40.1106 59.3481 40.1106 57.986V48.1764C40.1106 46.3038 41.4186 45.1245 41.4186 45.1245C41.4186 45.1245 40.1106 43.9549 40.1106 42.0726V40.1106H49.3231C51.0086 40.1106 56.6781 47.4656 56.6781 47.4656V32.2629C56.6781 30.9662 57.986 29.211 57.986 29.211C57.986 29.211 56.6781 27.4558 56.6781 26.1591V15.2595C56.6781 15.2595 54.9883 18.3114 53.6262 18.3114H40.1106V4.35985C40.1106 2.67434 43.1625 1.30796 43.1625 1.30796H32.2629C30.9662 1.30796 29.211 0 29.211 0C29.211 0 27.4558 1.30796 26.1591 1.30796H15.2595C15.2595 1.30796 18.3114 2.67434 18.3114 4.35985V18.3114H4.35985C2.67434 18.3114 1.30796 15.2595 1.30796 15.2595V26.1591C1.30796 27.4558 0 29.211 0 29.211C0 29.211 1.30796 30.9662 1.30796 32.2629V47.5224C1.30796 47.5224 6.97741 40.1106 8.66293 40.1106H18.3114V42.0726C18.3114 43.9376 17.0034 45.1245 17.0034 45.1245C17.0034 45.1245 18.3114 46.1863 18.3114 48.1764V57.986C18.3114 59.6715 15.2595 61.0379 15.2595 61.0379H26.1591C27.4558 61.0379 29.211 62.3459 29.211 62.3459C29.211 62.3459 30.9662 61.0379 32.2629 61.0379H43.1625ZM36.6565 55.4261C36.6565 56.3621 37.4332 57.5232 37.4332 57.5232H31.2959C30.4102 57.5232 29.2113 58.422 29.2113 58.422C29.2113 58.422 28.0123 57.5232 27.1266 57.5232H20.9894C20.9894 57.5232 21.7661 56.5843 21.7661 55.4261V47.1363C21.7661 45.7689 20.8726 45.0392 20.8726 45.0392C20.8726 45.0392 21.7661 44.2237 21.7661 42.9421V40.1106V36.6642H18.3114H8.83267C7.68135 36.6642 4.96117 39.2508 4.96117 39.2508V31.2716C4.96117 30.3806 4.06774 29.1745 4.06774 29.1745C4.06774 29.1745 4.96117 27.9684 4.96117 27.0774V20.8956C4.96117 20.8956 5.8945 21.6848 7.04582 21.6848H18.3114H21.7661V18.3114V6.91974C21.7661 5.76154 20.9894 4.82263 20.9894 4.82263H27.1266C28.0123 4.82263 29.2113 3.92387 29.2113 3.92387C29.2113 3.92387 30.4102 4.82263 31.2959 4.82263H37.4332C37.4332 4.82263 36.6565 5.76154 36.6565 6.91974V18.3114V21.6848H40.1106H51.0841C52.0145 21.6848 53.1687 20.8956 53.1687 20.8956V27.0774C53.1687 27.9684 54.0622 29.1745 54.0622 29.1745C54.0622 29.1745 53.1687 30.3806 53.1687 31.2716V39.2508C53.1687 39.2508 50.4486 36.6642 49.2972 36.6642H40.1106H36.6565V40.1106V42.9421C36.6565 44.2356 37.5499 45.0392 37.5499 45.0392C37.5499 45.0392 36.6565 45.8496 36.6565 47.1363V55.4261Z" fill="#CBCBCB"/>
</svg>
