<svg width="1599" height="526" viewBox="0 0 1599 526" fill="none" xmlns="http://www.w3.org/2000/svg">
<path d="M104.186 403.799C79.2903 380.34 55.1131 368.61 31.6541 368.61C20.6427 368.61 12.5038 372.68 7.23753 380.819V370.765C7.23753 369.329 9.15255 363.823 12.9826 354.248C19.6852 339.885 28.7815 329.592 40.2717 323.368V149.58H28.0634C24.7121 151.495 20.8821 152.931 16.5733 153.888C16.0945 154.367 13.9401 155.085 10.1101 156.043L9.39193 157.479H7.95566L0.0561901 161.788V156.761C0.0561901 154.846 0.295568 153.41 0.774324 152.452V150.298L1.49246 148.862C1.49246 146.946 1.73184 145.51 2.21059 144.553V139.526C2.21059 138.089 2.21059 136.653 2.21059 135.217C2.68935 133.781 3.1681 132.105 3.64686 130.19V125.881L2.92873 123.727V117.264C1.0137 111.997 0.0561901 103.38 0.0561901 91.4108C6.28001 94.7621 11.307 97.1559 15.137 98.5921C19.4458 100.028 22.7971 100.986 25.1909 101.465C26.1484 100.986 29.2603 100.747 34.5266 100.747H40.2717V68.4305L39.5535 66.9943V59.0948C39.0748 58.616 38.596 57.8979 38.1173 56.9404C37.6385 55.9829 37.1598 55.0254 36.681 54.0678C36.681 52.6316 36.4416 51.4347 35.9629 50.4772V49.7591C35.0054 48.8015 34.5266 46.8865 34.5266 44.014L39.5535 42.5777L40.2717 44.014H43.8623V44.7321C70.6727 44.7321 96.0467 29.8907 119.985 0.207837V9.54358L119.266 10.2617C118.788 11.2192 118.309 12.6555 117.83 14.5705C117.83 16.4855 117.351 18.8793 116.394 21.7518V22.47C116.394 23.9062 116.154 25.1031 115.676 26.0607C113.761 33.7207 112.803 39.4658 112.803 43.2959V100.747H135.065L136.502 101.465C144.162 101.465 152.54 98.1134 161.636 91.4108V99.3103C161.157 100.268 160.918 101.704 160.918 103.619C159.482 106.013 158.764 111.997 158.764 121.572H159.482C159.482 131.626 160.679 145.031 163.073 161.788L155.173 157.479L154.455 156.761H153.737C148.47 154.846 142.486 153.41 135.783 152.452C129.081 151.016 121.421 150.058 112.803 149.58V314.75C116.154 318.102 119.985 319.777 124.293 319.777L126.448 320.495C127.884 320.974 128.841 321.453 129.32 321.932C130.757 323.368 132.193 324.086 133.629 324.086C134.108 324.565 134.587 325.044 135.065 325.522C136.023 325.522 136.741 325.762 137.22 326.241H136.502C137.938 327.198 139.613 328.634 141.529 330.549C143.922 331.986 146.555 333.422 149.428 334.858L156.609 327.677L170.972 344.194L104.186 403.799ZM249.849 77.7663C279.532 95.4802 296.767 108.167 301.554 115.827H303.709C305.624 115.827 308.496 115.109 312.326 113.673C324.295 109.364 342.009 99.3103 365.468 83.5113L375.522 76.33C399.939 98.8315 422.44 112.955 443.027 118.7C441.591 128.754 435.845 137.611 425.792 145.271C416.695 152.452 404.966 156.761 390.603 158.197C387.252 158.676 384.14 158.915 381.267 158.915C365.468 158.915 347.276 156.043 326.689 150.298C322.38 149.34 318.55 148.862 315.199 148.862C307.06 148.862 302.991 151.734 302.991 157.479V354.248H333.871C302.273 372.919 280.729 390.633 269.238 407.39C260.621 420.316 255.594 426.779 254.158 426.779V425.343L253.44 424.625C252.961 423.189 252.482 421.752 252.003 420.316C250.088 416.007 247.216 411.22 243.386 405.953C231.896 390.154 213.463 374.834 188.089 359.993L187.371 355.684H215.378V168.969C207.24 145.51 195.271 133.302 179.472 132.344L249.849 77.7663ZM563.505 417.443C555.845 416.965 548.185 415.289 540.525 412.417C532.865 410.023 525.683 405.953 518.981 400.208C504.618 388.718 497.437 375.552 497.437 360.711V179.741C490.255 179.262 484.75 174.954 480.92 166.815L470.866 172.56L460.812 158.197L462.966 154.607L463.684 155.325L465.121 153.888L466.557 153.17C471.344 148.861 476.611 144.074 482.356 138.808C488.101 133.063 495.761 126.121 505.336 117.982C510.602 114.63 517.066 109.364 524.726 102.183L527.598 100.028C529.035 98.5921 530.471 97.1559 531.907 95.7196V87.102C551.536 114.87 568.771 128.754 583.613 128.754C586.964 128.754 594.624 125.402 606.593 118.7V127.317C605.635 130.19 605.157 133.541 605.157 137.371C601.327 148.383 596.3 157.479 590.076 164.66C583.852 171.363 577.389 176.151 570.686 179.023V331.986C570.686 334.858 571.883 338.688 574.277 343.476C578.586 352.572 588.4 357.12 603.72 357.12C608.987 357.12 615.211 355.684 622.392 352.811L625.264 357.838L563.505 417.443ZM544.115 80.6388H538.37V79.9207H531.189L529.753 79.2025C511.56 79.2025 500.309 71.7818 496 56.9404L484.51 62.6855L475.175 46.8865C479.005 43.0565 483.074 40.1839 487.383 38.2689C491.692 35.8751 495.761 33.7207 499.591 31.8057L498.155 33.242C499.591 32.2845 501.506 30.8482 503.9 28.9332C506.772 26.5394 509.406 24.385 511.799 22.47C515.151 20.0762 518.981 17.2037 523.289 13.8524C528.077 10.5011 533.104 6.91043 538.37 3.08038C550.818 21.2731 563.744 30.3694 577.15 30.3694C579.543 29.4119 581.458 28.9332 582.895 28.9332C584.81 28.4544 586.964 27.7363 589.358 26.7788H588.64L590.076 25.3425H590.794L591.512 24.6244H592.23L592.948 23.9062H597.975V30.3694C597.975 37.072 596.3 43.5352 592.948 49.7591C590.076 55.5041 586.006 60.7704 580.74 65.558C575.953 69.8668 570.208 73.4575 563.505 76.33C557.281 79.2025 550.818 80.6388 544.115 80.6388ZM903.934 130.19C905.37 130.669 906.088 132.105 906.088 134.499C906.088 138.329 903.216 145.51 897.471 156.043V364.302H925.478C920.69 364.302 898.907 386.564 860.128 431.088C858.213 422.949 836.669 399.251 795.496 359.993H812.013V160.352L784.006 136.653L747.381 164.66V361.429H778.261C746.663 380.101 725.358 397.814 714.347 414.571C705.729 427.019 700.942 433.242 699.984 433.242C699.505 433.242 699.266 433.003 699.266 432.524L699.984 431.088C695.675 411.938 673.413 390.633 633.198 367.174L631.761 362.865H659.769V176.151C653.066 149.819 641.815 136.174 626.016 135.217L689.212 87.8201C719.852 105.534 737.566 118.221 742.354 125.881C753.365 124.924 778.021 111.758 816.322 86.3839L825.657 79.2025C858.213 105.055 884.305 122.051 903.934 130.19ZM1044.6 417.443C1036.94 416.965 1029.28 415.289 1021.62 412.417C1013.96 410.023 1006.78 405.953 1000.07 400.208C985.711 388.718 978.53 375.552 978.53 360.711V179.741C971.349 179.262 965.843 174.954 962.013 166.815L951.959 172.56L941.905 158.197L944.06 154.607L944.778 155.325L946.214 153.888L947.65 153.17C952.438 148.861 957.704 144.074 963.449 138.808C969.194 133.063 976.854 126.121 986.43 117.982C991.696 114.63 998.159 109.364 1005.82 102.183L1008.69 100.028C1010.13 98.5921 1011.56 97.1559 1013 95.7196V87.102C1032.63 114.87 1049.86 128.754 1064.71 128.754C1068.06 128.754 1075.72 125.402 1087.69 118.7V127.317C1086.73 130.19 1086.25 133.541 1086.25 137.371C1082.42 148.383 1077.39 157.479 1071.17 164.66C1064.95 171.363 1058.48 176.151 1051.78 179.023V331.986C1051.78 334.858 1052.98 338.688 1055.37 343.476C1059.68 352.572 1069.49 357.12 1084.81 357.12C1090.08 357.12 1096.3 355.684 1103.49 352.811L1106.36 357.838L1044.6 417.443ZM1025.21 80.6388H1019.46V79.9207H1012.28L1010.85 79.2025C992.653 79.2025 981.403 71.7818 977.094 56.9404L965.604 62.6855L956.268 46.8865C960.098 43.0565 964.167 40.1839 968.476 38.2689C972.785 35.8751 976.854 33.7207 980.684 31.8057L979.248 33.242C980.684 32.2845 982.599 30.8482 984.993 28.9332C987.866 26.5394 990.499 24.385 992.893 22.47C996.244 20.0762 1000.07 17.2037 1004.38 13.8524C1009.17 10.5011 1014.2 6.91043 1019.46 3.08038C1031.91 21.2731 1044.84 30.3694 1058.24 30.3694C1060.64 29.4119 1062.55 28.9332 1063.99 28.9332C1065.9 28.4544 1068.06 27.7363 1070.45 26.7788H1069.73L1071.17 25.3425H1071.89L1072.61 24.6244H1073.32L1074.04 23.9062H1079.07V30.3694C1079.07 37.072 1077.39 43.5352 1074.04 49.7591C1071.17 55.5041 1067.1 60.7704 1061.83 65.558C1057.05 69.8668 1051.3 73.4575 1044.6 76.33C1038.37 79.2025 1031.91 80.6388 1025.21 80.6388ZM1224.17 403.799C1199.27 380.34 1175.09 368.61 1151.63 368.61C1140.62 368.61 1132.48 372.68 1127.22 380.819V370.765C1127.22 369.329 1129.13 363.823 1132.96 354.248C1139.67 339.885 1148.76 329.592 1160.25 323.368V149.58H1148.04C1144.69 151.495 1140.86 152.931 1136.55 153.888C1136.07 154.367 1133.92 155.085 1130.09 156.043L1129.37 157.479H1127.94L1120.04 161.788V156.761C1120.04 154.846 1120.28 153.41 1120.75 152.452V150.298L1121.47 148.862C1121.47 146.946 1121.71 145.51 1122.19 144.553V139.526C1122.19 138.089 1122.19 136.653 1122.19 135.217C1122.67 133.781 1123.15 132.105 1123.63 130.19V125.881L1122.91 123.727V117.264C1120.99 111.997 1120.04 103.38 1120.04 91.4108C1126.26 94.7621 1131.29 97.1559 1135.12 98.5921C1139.43 100.028 1142.78 100.986 1145.17 101.465C1146.13 100.986 1149.24 100.747 1154.51 100.747H1160.25V68.4305L1159.53 66.9943V59.0948C1159.05 58.616 1158.58 57.8979 1158.1 56.9404C1157.62 55.9829 1157.14 55.0254 1156.66 54.0678C1156.66 52.6316 1156.42 51.4347 1155.94 50.4772V49.7591C1154.99 48.8015 1154.51 46.8865 1154.51 44.014L1159.53 42.5777L1160.25 44.014H1163.84V44.7321C1190.65 44.7321 1216.03 29.8907 1239.96 0.207837V9.54358L1239.25 10.2617C1238.77 11.2192 1238.29 12.6555 1237.81 14.5705C1237.81 16.4855 1237.33 18.8793 1236.37 21.7518V22.47C1236.37 23.9062 1236.13 25.1031 1235.66 26.0607C1233.74 33.7207 1232.78 39.4658 1232.78 43.2959V100.747H1255.05L1256.48 101.465C1264.14 101.465 1272.52 98.1134 1281.62 91.4108V99.3103C1281.14 100.268 1280.9 101.704 1280.9 103.619C1279.46 106.013 1278.74 111.997 1278.74 121.572H1279.46C1279.46 131.626 1280.66 145.031 1283.05 161.788L1275.15 157.479L1274.43 156.761H1273.72C1268.45 154.846 1262.47 153.41 1255.76 152.452C1249.06 151.016 1241.4 150.058 1232.78 149.58V314.75C1236.13 318.102 1239.96 319.777 1244.27 319.777L1246.43 320.495C1247.86 320.974 1248.82 321.453 1249.3 321.932C1250.74 323.368 1252.17 324.086 1253.61 324.086C1254.09 324.565 1254.57 325.044 1255.05 325.522C1256 325.522 1256.72 325.762 1257.2 326.241H1256.48C1257.92 327.198 1259.59 328.634 1261.51 330.549C1263.9 331.986 1266.54 333.422 1269.41 334.858L1276.59 327.677L1290.95 344.194L1224.17 403.799ZM1597.48 125.881V129.472L1596.76 130.19C1596.76 133.541 1595.56 137.371 1593.17 141.68C1591.25 145.51 1588.86 149.34 1585.99 153.17C1583.11 157 1579.76 160.591 1575.93 163.942C1572.1 166.815 1568.51 168.969 1565.16 170.406V362.147C1565.16 387.042 1544.34 404.278 1502.68 413.853C1496.94 414.81 1491.43 415.528 1486.17 416.007C1481.38 416.965 1477.07 417.443 1473.24 417.443H1468.93C1468.45 417.443 1466.3 417.683 1462.47 418.162C1411.72 421.992 1386.35 433.482 1386.35 452.632C1386.35 459.813 1390.89 463.404 1399.99 463.404C1404.3 463.404 1418.9 456.462 1443.8 442.578C1467.73 429.173 1489.28 422.47 1508.43 422.47C1525.18 422.47 1539.55 427.737 1551.52 438.269C1563.49 448.802 1569.47 461.968 1569.47 477.767C1569.47 491.651 1564.2 503.141 1553.67 512.237C1543.62 521.333 1531.17 525.882 1516.33 525.882C1502.92 525.882 1494.31 523.967 1490.48 520.137V495.72C1498.14 500.029 1505.56 502.183 1512.74 502.183H1513.46L1514.89 501.465H1517.05C1519.92 501.465 1523.27 500.268 1527.1 497.874C1530.93 495.481 1532.85 492.848 1532.85 489.975C1532.85 485.187 1529.73 482.794 1523.51 482.794L1522.07 482.076H1521.35C1510.34 482.076 1495.5 487.821 1476.83 499.311C1465.82 506.492 1456.24 511.998 1448.11 515.828C1440.45 519.658 1434.46 522.052 1430.15 523.009C1427.76 523.488 1424.89 523.727 1421.53 523.727C1418.18 524.206 1413.87 524.445 1408.61 524.445C1400.47 524.445 1392.57 522.77 1384.91 519.418C1377.25 516.546 1370.55 512.476 1364.8 507.21C1359.06 501.944 1354.27 495.72 1350.44 488.539C1347.09 481.836 1345.41 474.415 1345.41 466.277V462.686H1346.13C1347.09 438.269 1359.3 420.316 1382.76 408.826C1373.18 404.517 1364.56 398.533 1356.9 390.873C1345.41 380.34 1339.67 369.568 1339.67 358.557V171.124C1339.67 160.112 1328.18 153.41 1305.2 151.016V145.989L1382.04 85.6657C1385.39 87.5808 1388.98 90.2139 1392.81 93.5652C1396.64 96.9165 1400.23 100.747 1403.58 105.055C1411.72 116.067 1415.79 124.206 1415.79 129.472L1416.51 130.908V135.217L1417.23 135.935V163.942L1524.95 91.4108C1539.79 111.519 1556.06 121.572 1573.78 121.572H1575.21L1575.93 120.854C1584.07 120.854 1591.49 118.221 1598.2 112.955V124.445L1597.48 125.881ZM1486.17 373.637V177.587C1484.25 177.108 1482.34 176.39 1480.42 175.432C1478.51 174.475 1476.35 173.517 1473.96 172.56L1461.75 166.815L1417.94 196.976V369.329C1417.94 378.904 1426.32 385.367 1443.08 388.718H1445.95C1446.43 388.718 1446.91 388.718 1447.39 388.718C1447.87 389.197 1448.58 389.436 1449.54 389.436C1450.02 389.436 1450.26 389.436 1450.26 389.436C1450.74 389.915 1451.22 390.154 1451.7 390.154H1456L1457.44 389.436C1464.14 389.436 1470.61 388.239 1476.83 385.846C1483.05 382.973 1486.17 378.904 1486.17 373.637Z" fill="#C5E3FE"/>
</svg>
