<svg width="844" height="829" viewBox="0 0 844 829" fill="none" xmlns="http://www.w3.org/2000/svg">
<g filter="url(#filter0_d_1283_452)">
<path fill-rule="evenodd" clip-rule="evenodd" d="M401.425 88.2185C511.495 98.0645 610.15 154.955 672.629 244.613C707.097 294.073 728.683 351.21 736.087 412.578C738.513 432.684 738.513 475.472 736.087 495.578C725.929 579.775 689.507 654.737 629.903 714.124C572.588 771.23 499.006 807.243 417.425 818.117C400.595 820.36 360.736 821.164 341.861 819.64C175.153 806.187 38.1494 680.886 9.95636 516.084C6.22136 494.248 5.00043 478.975 5.00043 454.078C5.00043 420.634 8.12435 394.89 15.9724 363.665C50.0783 227.959 161.23 122.065 298.424 94.5735C324.793 89.2905 334.621 88.3575 366.925 88.0765C383.425 87.9335 398.95 87.9965 401.425 88.2185ZM385.925 326.186C426.414 332.182 457.838 351.677 479.141 384.012C499.793 415.361 505.408 457.224 493.768 493.078C479.208 537.93 443.281 570.076 396.425 580.177C384.658 582.714 358.302 582.739 346.657 580.224C316.858 573.79 291.322 558.594 273.055 536.424C260.144 520.755 252.172 505.162 246.665 484.799C244.218 475.752 244.035 473.622 244.035 454.078C244.035 434.534 244.218 432.404 246.665 423.357C260.098 373.693 296.303 338.919 345.925 328.017C352.721 326.524 379.827 325.283 385.925 326.186ZM376.099 429.718C384.192 431.133 390.642 436.384 394.346 444.578C399.738 456.502 393.306 471.969 380.78 477.203C376.547 478.972 366.303 478.972 362.07 477.203C357.357 475.234 351.655 469.926 349.146 465.173C346.14 459.478 346.124 448.695 349.113 443.078C354.465 433.022 365.041 427.786 376.099 429.718Z" fill="#070F19"/>
<path fill-rule="evenodd" clip-rule="evenodd" d="M401.425 88.2185C511.495 98.0645 610.15 154.955 672.629 244.613C707.097 294.073 728.683 351.21 736.087 412.578C738.513 432.684 738.513 475.472 736.087 495.578C725.929 579.775 689.507 654.737 629.903 714.124C572.588 771.23 499.006 807.243 417.425 818.117C400.595 820.36 360.736 821.164 341.861 819.64C175.153 806.187 38.1494 680.886 9.95636 516.084C6.22136 494.248 5.00043 478.975 5.00043 454.078C5.00043 420.634 8.12435 394.89 15.9724 363.665C50.0783 227.959 161.23 122.065 298.424 94.5735C324.793 89.2905 334.621 88.3575 366.925 88.0765C383.425 87.9335 398.95 87.9965 401.425 88.2185ZM385.925 326.186C426.414 332.182 457.838 351.677 479.141 384.012C499.793 415.361 505.408 457.224 493.768 493.078C479.208 537.93 443.281 570.076 396.425 580.177C384.658 582.714 358.302 582.739 346.657 580.224C316.858 573.79 291.322 558.594 273.055 536.424C260.144 520.755 252.172 505.162 246.665 484.799C244.218 475.752 244.035 473.622 244.035 454.078C244.035 434.534 244.218 432.404 246.665 423.357C260.098 373.693 296.303 338.919 345.925 328.017C352.721 326.524 379.827 325.283 385.925 326.186ZM376.099 429.718C384.192 431.133 390.642 436.384 394.346 444.578C399.738 456.502 393.306 471.969 380.78 477.203C376.547 478.972 366.303 478.972 362.07 477.203C357.357 475.234 351.655 469.926 349.146 465.173C346.14 459.478 346.124 448.695 349.113 443.078C354.465 433.022 365.041 427.786 376.099 429.718Z" stroke="#C5E3FE"/>
</g>
<circle cx="218" cy="218" r="219.5" transform="matrix(-1 0 0 1 584.424 237)" stroke="#272727" stroke-width="3"/>
<circle cx="268" cy="268" r="269.844" transform="matrix(-1 0 0 1 634.424 187)" stroke="#272727" stroke-width="3.68807"/>
<circle cx="322.5" cy="322.5" r="324.719" transform="matrix(-1 0 0 1 688.424 121)" stroke="#272727" stroke-width="4.43807"/>
<g filter="url(#filter1_d_1283_452)">
<path d="M813.935 157.65L790.077 215.958C787.568 222.092 780.561 225.03 774.427 222.52L766.097 219.112L746.661 211.159L725.405 202.462L705.954 194.504L697.608 191.089C691.474 188.579 688.536 181.572 691.046 175.439L714.903 117.13L738.76 58.8224C741.27 52.6885 748.277 49.7506 754.411 52.2603L792.82 67.9757L831.23 83.6911C837.363 86.2008 840.301 93.2078 837.792 99.3417L813.935 157.65Z" fill="#C5E3FE"/>
<path d="M454.004 647.399C453.561 647.868 459.976 654.933 468.602 663.471L481.174 675.916C482.727 677.453 482.731 679.961 481.182 681.502V681.502C479.636 683.04 478.137 684.659 477.849 685.098C477.562 685.538 482.346 690.899 488.482 697.012C494.617 703.125 500.375 708.914 501.276 709.878V709.878C502.183 710.847 502.138 712.366 501.175 713.28L499.365 714.998C497.411 716.851 495.612 718.453 495.364 718.556C495.118 718.66 489.173 713.011 482.156 706.001L471.808 695.666C470.48 694.339 468.324 694.35 467.009 695.689V695.689C412.208 751.519 396.48 766.952 395.274 766.081C391.339 763.238 336.85 708.38 337.172 707.584C337.636 706.434 422.428 620.703 423.75 620.046C424.264 619.791 426.983 621.998 429.792 624.95C432.602 627.901 435.431 630.534 436.079 630.799L454.004 647.399Z" fill="#C5E3FE"/>
<path d="M746.661 211.159L736.911 234.992L730.098 251.645C728.31 256.015 729.251 261.027 732.502 264.451L732.634 264.59C746.134 278.807 749.572 297.147 742.118 315.186C734.463 333.718 715.662 345.548 696.371 343.974V343.974C694.037 343.783 691.848 345.126 690.961 347.294L670.486 397.335L649.424 448.811C648.828 450.269 647.951 451.594 646.843 452.713L551.659 548.79C498.385 602.564 454.44 646.938 454.004 647.399L436.079 630.799C436.727 631.064 439.066 629.469 441.275 627.253C443.485 625.036 486.634 581.53 537.162 530.571L627.349 439.614C628.459 438.495 629.337 437.168 629.934 435.71L650.075 386.485L669.197 339.748C670.353 336.923 669.637 333.677 667.399 331.601V331.601C655.943 320.974 650.381 304.632 653.033 289.389C654.366 281.723 659.861 270.641 665.08 265.09C673.607 256.02 686.551 250.439 698.986 250.469V250.469C702.738 250.478 706.128 248.233 707.585 244.775L715.293 226.473L725.405 202.462L746.661 211.159Z" fill="#C5E3FE"/>
<path d="M746.661 211.159L766.097 219.112L774.427 222.52C780.561 225.03 787.568 222.092 790.077 215.958L813.935 157.65L837.792 99.3417C840.301 93.2078 837.363 86.2008 831.23 83.6911L792.82 67.9757L754.411 52.2603C748.277 49.7506 741.27 52.6885 738.76 58.8224L714.903 117.13L691.046 175.439C688.536 181.572 691.474 188.579 697.608 191.089L705.954 194.504L725.405 202.462M746.661 211.159L736.911 234.992L730.098 251.645C728.31 256.015 729.251 261.027 732.502 264.451L732.634 264.59C746.134 278.807 749.572 297.147 742.118 315.186C734.463 333.718 715.662 345.548 696.371 343.974V343.974C694.037 343.783 691.848 345.126 690.961 347.294L670.486 397.335L649.424 448.811C648.828 450.269 647.951 451.594 646.843 452.713L551.659 548.79C498.385 602.564 454.44 646.938 454.004 647.399M746.661 211.159L725.405 202.462M454.004 647.399C453.561 647.868 459.976 654.933 468.602 663.471L481.174 675.916C482.727 677.453 482.731 679.961 481.182 681.502V681.502C479.636 683.04 478.137 684.659 477.849 685.098C477.562 685.538 482.346 690.899 488.482 697.012C494.617 703.125 500.375 708.914 501.276 709.878V709.878C502.183 710.847 502.138 712.366 501.175 713.28L499.365 714.998C497.411 716.851 495.612 718.453 495.364 718.556C495.118 718.66 489.173 713.011 482.156 706.001L471.808 695.666C470.48 694.339 468.324 694.35 467.009 695.689V695.689C412.208 751.519 396.48 766.952 395.274 766.081C391.339 763.238 336.85 708.38 337.172 707.584C337.636 706.434 422.428 620.703 423.75 620.046C424.264 619.791 426.983 621.998 429.792 624.95C432.602 627.901 435.431 630.534 436.079 630.799M454.004 647.399L436.079 630.799M436.079 630.799C436.727 631.064 439.066 629.469 441.275 627.253C443.485 625.036 486.634 581.53 537.162 530.571L627.349 439.614C628.459 438.495 629.337 437.168 629.934 435.71L650.075 386.485L669.197 339.748C670.353 336.923 669.637 333.677 667.399 331.601V331.601C655.943 320.974 650.381 304.632 653.033 289.389C654.366 281.723 659.861 270.641 665.08 265.09C673.607 256.02 686.551 250.439 698.986 250.469V250.469C702.738 250.478 706.128 248.233 707.585 244.775L715.293 226.473L725.405 202.462" stroke="#C5E3FE"/>
</g>
<defs>
<filter id="filter0_d_1283_452" x="0.5" y="87.5" width="741.906" height="741.423" filterUnits="userSpaceOnUse" color-interpolation-filters="sRGB">
<feFlood flood-opacity="0" result="BackgroundImageFix"/>
<feColorMatrix in="SourceAlpha" type="matrix" values="0 0 0 0 0 0 0 0 0 0 0 0 0 0 0 0 0 0 127 0" result="hardAlpha"/>
<feOffset dy="4"/>
<feGaussianBlur stdDeviation="2"/>
<feComposite in2="hardAlpha" operator="out"/>
<feColorMatrix type="matrix" values="0 0 0 0 0 0 0 0 0 0 0 0 0 0 0 0 0 0 0.25 0"/>
<feBlend mode="normal" in2="BackgroundImageFix" result="effect1_dropShadow_1283_452"/>
<feBlend mode="normal" in="SourceGraphic" in2="effect1_dropShadow_1283_452" result="shape"/>
</filter>
<filter id="filter1_d_1283_452" x="332.67" y="50.8633" width="510.52" height="723.752" filterUnits="userSpaceOnUse" color-interpolation-filters="sRGB">
<feFlood flood-opacity="0" result="BackgroundImageFix"/>
<feColorMatrix in="SourceAlpha" type="matrix" values="0 0 0 0 0 0 0 0 0 0 0 0 0 0 0 0 0 0 127 0" result="hardAlpha"/>
<feOffset dy="4"/>
<feGaussianBlur stdDeviation="2"/>
<feComposite in2="hardAlpha" operator="out"/>
<feColorMatrix type="matrix" values="0 0 0 0 0 0 0 0 0 0 0 0 0 0 0 0 0 0 0.25 0"/>
<feBlend mode="normal" in2="BackgroundImageFix" result="effect1_dropShadow_1283_452"/>
<feBlend mode="normal" in="SourceGraphic" in2="effect1_dropShadow_1283_452" result="shape"/>
</filter>
</defs>
</svg>
