<svg width="1000" height="895" viewBox="0 0 1000 895" fill="none" xmlns="http://www.w3.org/2000/svg">
<g clip-path="url(#clip0_1216_261)">
<path fill-rule="evenodd" clip-rule="evenodd" d="M134.25 9.66206C130.262 11.0401 127 12.6911 127 13.3311C127 14.4821 133.985 36.1631 134.581 36.8611C135.003 37.3561 152.999 31.6241 152.983 31.0001C152.975 30.7251 152.576 29.8791 152.096 29.1211C151.368 27.9721 150.166 28.0981 144.913 29.8721C141.442 31.0441 138.224 31.6241 137.762 31.1621C137.299 30.6991 136.826 29.0181 136.71 27.4261C136.514 24.7301 136.895 24.4051 142.25 22.6951C148.166 20.8071 148.564 20.4381 147.13 18.1761C146.436 17.0821 145.7 17.0971 142.895 18.2621C135.556 21.3111 134.29 21.2711 133.134 17.9561C131.963 14.5961 131.977 14.5851 140.809 11.9391C143.759 11.0551 145 10.1381 145 8.84206C145 6.44106 143.172 6.58006 134.25 9.66206ZM121.5 13.9951C119.723 14.6171 119.444 15.8391 119 24.9611L118.5 35.2271L112.697 27.1131C107.058 19.2281 105.773 18.2211 103.329 19.7761C101.775 20.7641 117.587 42.0061 119.86 41.9851C123.771 41.9481 124.068 40.7991 123.779 26.8211C123.51 13.7861 123.427 13.3211 121.5 13.9951ZM414.846 25.1881C403.524 29.8651 381.95 36.3781 312.5 56.0851C230.969 79.2201 216.523 83.6711 116 116.63C56.3248 136.196 7.35084 152.345 7.16884 152.517C6.98684 152.689 9.12184 161.53 11.9128 172.165C14.7048 182.799 23.2498 215.35 30.9028 244.5C38.5548 273.65 48.0518 309.875 52.0068 325C55.9618 340.125 59.7158 352.831 60.3488 353.235C60.9818 353.639 72.5638 353.976 86.0858 353.985C99.6078 353.993 132.345 354.298 158.836 354.663L207 355.327V625.163V895H503H799V625V355L826.25 354.859C841.237 354.781 874.425 354.444 900 354.109L946.5 353.5L948.618 345.5C949.782 341.1 957.353 312.3 965.442 281.5C973.53 250.7 984.23 209.975 989.219 191C994.208 172.025 998.484 155.583 998.721 154.462C999.119 152.582 990.723 149.661 890.326 116.745C791.192 84.2421 773.707 78.8421 694 56.1041C632.654 38.6041 601.997 29.3771 591.435 25.2371L576.37 19.3311L572.935 21.7231C557.59 32.4081 529.948 37.8301 496.565 36.7021C469.098 35.7751 449.02 31.2011 434.786 22.6301L429.193 19.2621L414.846 25.1881ZM90.9998 23.7161C86.8748 25.1231 83.3648 26.3851 83.1988 26.5211C83.0338 26.6571 84.5948 32.2201 86.6688 38.8841C89.3298 47.4381 90.8878 51.0001 91.9658 51.0001C94.2408 51.0001 109.002 45.9421 108.985 45.1681C108.976 44.8011 108.612 43.9381 108.176 43.2511C107.56 42.2801 105.987 42.4731 101.111 44.1201C94.3258 46.4111 93.3088 46.0981 92.8178 41.5681C92.5178 38.8011 92.8098 38.5441 97.9948 37.0231C101.535 35.9851 103.607 34.8051 103.818 33.7061C104.239 31.5191 101.833 31.4971 95.5678 33.6311C91.5298 35.0071 90.6398 35.0471 89.8848 33.8811C87.8228 30.7031 89.3938 28.6911 95.4998 26.6911C102.666 24.3441 102.193 24.6681 101.417 22.6431C100.618 20.5631 100.083 20.6181 90.9998 23.7161ZM576.811 36.1031C574.851 50.0891 570.091 64.6901 563.915 75.6581C557.63 86.8221 544.022 100.298 534 105.283C497.04 123.67 457.141 107.587 437.91 66.5491C433.365 56.8501 429.302 42.1031 428.349 31.8411C427.999 28.0781 427.309 25.0001 426.816 25.0001C425.473 25.0001 403.64 34.0551 402.602 35.0421C400.475 37.0651 408.872 65.6251 415.851 80.1061C427.426 104.12 445.507 122.037 466.233 130.03C478.848 134.895 486.897 136.267 503 136.299C524.999 136.343 538.587 132.487 555.586 121.377C564.484 115.56 574.538 105.516 581.031 95.9541C586.563 87.8081 594.182 71.7251 597.828 60.5001C600.843 51.2151 604.603 35.2051 603.899 34.6491C603.679 34.4751 597.866 32.0861 590.98 29.3391L578.459 24.3451L576.811 36.1031ZM431.49 31.9121C431.867 35.1631 432.709 40.2241 433.361 43.1591L434.545 48.4941L444.319 51.8111C463.19 58.2141 479.5 60.5361 504.5 60.3791C528.083 60.2301 546.653 57.1631 564.871 50.4111L571.74 47.8651L572.93 40.1821C574.974 26.9941 575.1 26.0001 574.735 26.0001C574.54 26.0001 571.257 27.5301 567.44 29.4001C552.274 36.8301 535.918 40.0561 510 40.7321C480.326 41.5051 457.394 37.8631 439.303 29.5041C435.131 27.5771 431.513 26.0001 431.261 26.0001C431.009 26.0001 431.112 28.6601 431.49 31.9121ZM69.8198 30.8281C65.5958 32.2981 61.8448 33.8011 61.4848 34.1681C60.9708 34.6931 67.1438 55.3811 68.6398 58.1461C68.9918 58.7971 85.5158 53.8171 86.5998 52.7331C86.9208 52.4121 86.8048 51.4901 86.3418 50.6831C85.6128 49.4131 84.6458 49.4801 79.1248 51.1831C72.3378 53.2761 71.5238 53.0511 70.4698 48.7821C69.8238 46.1651 70.0248 46.0011 75.8998 44.3681C81.5568 42.7951 83.4368 41.0061 81.0078 39.5051C80.4628 39.1681 77.5088 39.6831 74.4428 40.6491C69.6108 42.1731 68.7468 42.2131 67.9498 40.9531C65.8098 37.5711 66.9228 36.1891 73.5668 33.9781C78.4578 32.3501 79.9888 31.4151 79.5668 30.3141C79.2548 29.5011 78.9998 28.6481 78.9998 28.4181C78.9998 27.7321 77.8628 28.0311 69.8198 30.8281ZM359.5 46.9591C338.6 52.9121 300.575 63.7051 275 70.9451C249.425 78.1841 227.781 84.3161 226.903 84.5721C225.466 84.9911 225.545 86.3701 227.688 98.2691C230.083 111.564 236.359 153.169 237.378 162.5C237.679 165.25 238.399 171.55 238.978 176.5C243.242 212.92 244.077 275.713 240.606 298.807C235.935 329.876 227.647 347.657 215.507 352.65L211.007 354.5L211.004 623.25L211 892H503H795V642.281V392.563L789.081 398.42C784.746 402.709 782.693 404.096 781.408 403.603C779.91 403.028 780.295 402.275 784.035 398.465L788.416 394H703.708H619V638.712V883.425L623.964 878.536C628.192 874.371 629.028 873.91 629.608 875.42C630.114 876.739 628.642 878.839 623.865 883.616L617.443 890.039L611.248 883.12C606.227 877.512 605.311 875.987 606.415 875.07C607.488 874.18 608.651 874.932 611.889 878.611L616 883.282V638.641V394H417.292H218.584L222.965 398.465C226.725 402.295 227.096 403.026 225.577 403.609C224.267 404.111 222.218 402.698 217.683 398.163L211.557 392.037L215.529 387.935C220.825 382.463 224.744 379.724 226.087 380.554C226.771 380.977 225.562 382.889 222.885 385.617L218.584 390H417.292H616V216.859V43.7181L611.889 48.3891C608.633 52.0881 607.491 52.8231 606.404 51.9201C605.284 50.9911 606.045 49.6601 610.539 44.6931C616.35 38.2731 616.342 37.8361 610.397 36.5681L607.293 35.9061L606.008 42.2031C603.984 52.1211 596.639 73.7781 592.51 82.0031C584.052 98.8521 572.01 113.61 559.348 122.646C551.059 128.56 538.432 134.301 527.5 137.124C519.824 139.106 516.146 139.437 502.5 139.377C488.58 139.316 485.23 138.969 476.732 136.707C439.054 126.676 413.211 96.4351 401.61 48.8031C399.899 41.7811 398.275 36.0581 398 36.0851C397.725 36.1121 380.4 41.0051 359.5 46.9591ZM42.7498 39.7461C41.7878 39.9661 40.9998 40.3881 40.9998 40.6841C40.9998 43.2431 48.4608 64.2401 49.5138 64.6441C51.3678 65.3551 65.5248 60.3721 65.3998 59.0521C65.3448 58.4731 65.2328 57.5801 65.1498 57.0661C65.0668 56.5521 62.2638 57.0551 58.9188 58.1851C55.5748 59.3141 52.5078 59.8471 52.1038 59.3691C51.6998 58.8911 50.0868 54.4501 48.5188 49.5001C45.3228 39.4121 45.1898 39.1871 42.7498 39.7461ZM625.424 44.9231C628.92 48.4731 630.085 50.3351 629.6 51.6001C629.031 53.0831 628.162 52.5991 623.964 48.4641L619 43.5751V216.788V390H703.708H788.416L784.16 385.663C780.558 381.993 780.126 381.14 781.354 380.121C782.152 379.459 782.972 379.273 783.175 379.708C783.379 380.144 786.122 382.96 789.272 385.966L795 391.432V372.795V354.159L792.067 353.515C784.795 351.918 775.928 339.911 771.109 325.137C762.16 297.699 760.463 244.004 766.586 182C769.021 157.338 773.367 126.339 777.902 101.288C779.474 92.6051 780.636 85.3591 780.484 85.1871C780.087 84.7381 622.748 40.0001 621.564 40.0001C621.02 40.0001 622.757 42.2151 625.424 44.9231ZM23.7748 45.5591C18.9078 48.2001 17.6258 53.0811 20.7768 56.9731C22.2908 58.8431 23.6548 59.1911 30.0268 59.3331C37.1368 59.4921 37.5168 59.6191 37.8448 61.9441C38.4688 66.3621 31.0798 68.9371 27.6428 65.5001C24.0398 61.8971 20.5868 64.8671 24.0698 68.5741C28.0648 72.8271 37.3868 71.5551 41.7498 66.1631C43.6298 63.8401 43.2538 59.2541 40.9998 57.0001C39.3788 55.3791 37.6668 55.0001 31.9688 55.0001C24.5138 55.0001 22.4858 53.6381 24.6918 50.1141C26.0228 47.9871 31.3298 47.4881 32.8718 49.3461C34.2748 51.0361 37.9998 50.3781 37.9998 48.4401C37.9998 44.5301 29.0218 42.7111 23.7748 45.5591ZM198 47.5551C198 48.4801 200.047 49.9611 203.047 51.2081C205.823 52.3621 207.736 53.6391 207.297 54.0461C206.488 54.7961 195.37 58.4951 74.9998 98.0591C37.8748 110.262 7.08984 120.487 6.58884 120.781C6.08784 121.076 7.10284 118.686 8.84384 115.471C11.1508 111.213 11.6828 109.422 10.8028 108.878C10.1388 108.468 9.27384 108.331 8.87984 108.574C7.98884 109.125 -0.167163 124.167 0.218837 124.549C0.372837 124.701 4.06684 126.451 8.42584 128.437C14.1338 131.036 16.6528 131.742 17.4258 130.956C18.7128 129.649 16.2678 127.588 11.2968 125.79C9.48384 125.135 7.99984 124.336 7.99984 124.016C7.99984 123.696 37.5878 113.706 73.7498 101.816C165.657 71.5971 206.669 58.0641 208.648 57.3051C209.915 56.8191 209.506 58.1191 207.038 62.4341C204.38 67.0791 204.001 68.3821 205.107 69.0661C206.844 70.1401 206.927 70.0401 211.893 60.8941L216.022 53.2891L208.05 49.6441C199.123 45.5641 198 45.3301 198 47.5551ZM436.461 54.7011C438.57 63.1041 438.968 63.4401 449.618 65.8051C468.7 70.0441 480.562 71.2881 502.5 71.3491C527.243 71.4181 544.443 69.4201 561.671 64.4741C566.615 63.0551 566.916 62.7671 568.523 57.9301C569.448 55.1471 569.982 52.6481 569.71 52.3771C569.438 52.1051 567.532 52.5871 565.473 53.4471C559.539 55.9261 544.348 59.8061 534 61.4851C518.209 64.0471 496.572 64.4821 480.116 62.5681C466.228 60.9541 446.925 56.6671 439.418 53.5301L435.786 52.0131L436.461 54.7011ZM443.194 70.4311C452.675 89.2511 471.709 104.569 490.5 108.501C515.171 113.663 541.247 103.036 556.405 81.6421C560.111 76.4101 565 67.9221 565 66.7171C565 66.5181 561.962 67.1241 558.25 68.0661C526.25 76.1781 480.717 76.2131 448.322 68.1491L441.144 66.3621L443.194 70.4311ZM181 99.5011C158.725 106.834 111.558 122.349 76.1848 133.98L11.8688 155.127L12.5668 158.314C12.9508 160.066 20.1268 187.6 28.5128 219.5C36.8998 251.4 47.9268 293.475 53.0188 313C58.1108 332.525 62.5518 348.782 62.8888 349.126C63.2248 349.47 96.9878 350.018 137.917 350.343C220.853 351.003 216.063 351.357 222.077 344.12C229.125 335.638 234.22 320.429 237.591 297.807C239.885 282.415 240.386 229.181 238.46 205.5C236.706 183.934 233.534 155.378 230.962 138C227.642 115.573 222.805 87.5421 222.132 86.8341C221.785 86.4681 203.275 92.1681 181 99.5011ZM783.632 87.5171C782.661 90.0471 776.009 130.947 773.55 149.5C767.751 193.267 766.488 211.815 766.539 252.5C766.598 300.656 771.466 327.668 782.742 342.415C789.796 351.641 783.243 351.044 868.417 350.223L943.317 349.5L947.051 335.5C949.105 327.8 956.501 299.675 963.486 273C970.471 246.325 980.207 209.237 985.12 190.582C990.034 171.926 993.917 156.251 993.749 155.747C993.581 155.242 953.856 141.816 905.472 125.91C782.754 85.5671 784.205 86.0241 783.632 87.5171ZM450.449 327.496C446.226 329.657 443.997 333.87 444.015 339.654C444.033 345.697 445.554 348.778 450.015 351.806C452.699 353.628 454.387 354.056 457.362 353.666C461.761 353.09 466.559 349.088 467.262 345.408C467.64 343.43 467.313 343 465.429 343C464.015 343 462.892 343.765 462.502 344.994C460.884 350.093 456.105 351.444 451.766 348.031C447.496 344.672 447.174 336.337 451.15 332.069C453.971 329.041 459.474 329.268 461.592 332.5C463.617 335.59 468.087 336.048 467.312 333.086C465.835 327.436 456.568 324.364 450.449 327.496ZM472 339.5C472 352.333 472.099 353 474 353C475.778 353 476 352.333 476 347V341H482H488V347C488 352.733 488.111 353 490.5 353H493V339.43C493 325.93 492.988 325.863 490.75 326.18C488.79 326.459 488.461 327.176 488.198 331.75L487.895 337H481.948H476V331.5C476 326.667 475.758 326 474 326C472.099 326 472 326.667 472 339.5ZM498.702 326.632C498.316 327.018 498 333.108 498 340.167V353H508C517.333 353 518 352.867 518 351C518 349.176 517.333 349 510.44 349H502.879L503.19 345.25L503.5 341.5L510.314 341.203C516.104 340.95 517.08 340.65 516.804 339.203C516.543 337.836 515.148 337.442 509.74 337.204C503.032 336.91 503 336.895 503 333.998V331.088L510.25 330.794C516.735 330.531 517.5 330.289 517.5 328.5C517.5 326.668 516.738 326.476 508.452 326.215C503.475 326.058 499.087 326.246 498.702 326.632ZM525.321 327.189C524.123 327.768 522.58 329.599 521.893 331.258C519.884 336.108 522.135 338.933 530.001 341.434C535.693 343.244 536.5 343.807 536.5 345.976C536.5 351.029 526.605 351.029 525.283 345.976C524.951 344.705 523.916 344 522.383 344C519.711 344 519.489 344.785 521.139 348.405C524.558 355.91 539.682 355.1 541.638 347.307C542.782 342.75 540.276 339.931 533 337.591C528.413 336.115 526.397 334.947 526.152 333.62C525.376 329.435 532.992 328.532 535.592 332.5C537.556 335.498 541 335.873 541 333.089C541 332.038 539.615 330.013 537.923 328.589C534.62 325.81 529.379 325.227 525.321 327.189ZM543 328.466C543 330.756 543.386 331 547 331H551V342V353H553.5H556V342.057V331.115L560.25 330.807C563.731 330.556 564.5 330.138 564.5 328.5C564.5 326.642 563.739 326.48 553.75 326.216L543 325.932V328.466ZM709.5 471.403C701.916 474.75 699.382 484.371 703.873 492.763C706.401 497.487 715.303 499.577 719.719 496.484C721.681 495.11 721.976 495.133 722.879 496.734C724.717 499.992 726.122 496.706 725.802 489.898L725.5 483.5H720.014C715.584 483.5 714.463 483.837 714.19 485.25C713.92 486.653 714.562 487 717.427 487C720.289 487 721 487.384 721 488.929C721 493.78 712.9 495.9 709.056 492.056C704.507 487.507 706.082 477.06 711.636 474.948C714.999 473.67 719.65 475.321 720.534 478.108C721.367 480.731 725 480.605 725 477.952C725 475.236 720.738 471.398 716.861 470.622C712.938 469.838 713.079 469.823 709.5 471.403ZM631.221 484.25L631.5 497.5H640.5C648.833 497.5 649.5 497.352 649.5 495.5C649.5 493.727 648.735 493.466 642.75 493.204L636 492.909V481.954V471H633.471H630.942L631.221 484.25ZM653 484.5V498H662.5C671.967 498 672 497.991 672 495.5C672 493.071 671.8 493 665 493H658V489.5V486H664.5C670.333 486 671 485.795 671 484C671 482.205 670.333 482 664.5 482H658V478.5V475H665C671.333 475 672 474.81 672 473C672 471.14 671.333 471 662.5 471H653V484.5ZM676 484.5C676 497.25 676.109 498 677.964 498C679.762 498 679.952 497.176 680.214 488.25L680.5 478.5L685.428 486.5C691.593 496.508 692.855 498 695.155 498C696.857 498 697 496.955 697 484.5C697 471.75 696.891 471 695.036 471C693.243 471 693.048 471.822 692.786 480.483L692.5 489.967L686.668 480.483C681.898 472.729 680.394 471 678.418 471H676V484.5ZM728 473C728 474.704 728.667 475 732.5 475H737V486.5C737 497.333 737.116 498 739 498C740.884 498 741 497.333 741 486.5V475H745.5C749.333 475 750 474.704 750 473C750 471.121 749.333 471 739 471C728.667 471 728 471.121 728 473ZM752.221 484.25C752.492 497.132 752.562 497.509 754.75 497.82C756.871 498.121 757 497.792 757 492.07V486H762.95H768.9L769.2 491.75C769.46 496.733 769.767 497.5 771.5 497.5C773.385 497.5 773.516 496.74 773.779 484.25L774.058 471H771.529C769.161 471 769 471.318 769 476V481H763H757V476C757 471.318 756.839 471 754.471 471H751.942L752.221 484.25Z" fill="#C5E3FE"/>
</g>
<defs>
<clipPath id="clip0_1216_261">
<rect width="1000" height="895" fill="white"/>
</clipPath>
</defs>
</svg>
