<svg width="100" height="130" viewBox="0 0 100 130" fill="none" xmlns="http://www.w3.org/2000/svg">
<path fill-rule="evenodd" clip-rule="evenodd" d="M49.0633 1.16105C48.2446 1.87754 47.9366 2.25164 47.7992 2.69628C47.6195 3.27838 47.6056 5.20039 47.7601 8.12509C47.8024 8.92553 47.8372 9.79785 47.8373 10.0636C47.8379 10.7495 47.8057 10.7815 47.0335 10.8657C46.6326 10.9093 46.3061 10.9042 44.2951 10.8232C42.6748 10.758 41.8757 10.7092 40.427 10.5873C39.1886 10.483 38.8312 10.4675 37.5929 10.4646C36.8135 10.4628 36.1317 10.4737 36.0778 10.4889C35.9931 10.5128 35.9708 10.5547 35.9143 10.7953C35.7426 11.5269 35.7548 11.7149 35.9909 11.9763C36.2275 12.2382 36.4741 12.3876 37.0999 12.6481C37.4342 12.7873 37.8931 12.9858 38.1196 13.0893C39.3105 13.6331 42.4142 14.1609 46.4171 14.5004C48.0602 14.6397 48.1096 14.6552 48.2535 15.0749C48.34 15.3269 48.7378 18.3888 48.8533 19.6912C48.8869 20.0704 48.9728 20.6822 49.0442 21.0508C49.2421 22.0726 49.2514 22.1337 49.3147 22.8278C49.3559 23.2796 49.4127 23.6272 49.5024 23.977C49.739 24.8993 49.8595 25.6353 49.9451 26.6807C50.0716 28.2251 50.4602 30.3021 50.729 30.8703C50.9425 31.3217 51.2761 31.5361 51.897 31.6212C52.3035 31.6768 52.4815 31.6471 52.6024 31.5034C52.7334 31.3478 52.7549 31.1068 52.7287 30.0901C52.7053 29.1837 52.6583 28.6428 52.4695 27.102C52.4063 26.5859 52.2867 25.5777 52.2038 24.8615C52.1208 24.1453 51.8967 22.284 51.7057 20.7253C51.2269 16.8186 51.0552 15.3252 51.055 15.0648C51.0548 14.8024 51.1233 14.6502 51.2721 14.5822C51.3764 14.5348 52.5623 14.4479 54.4444 14.3498C55.5206 14.2937 55.9457 14.3576 56.4024 14.6436C56.8244 14.9079 56.8704 14.9231 57.25 14.9231C57.6583 14.9231 57.7951 14.8732 57.9118 14.6818C58.0131 14.5158 58.0064 14.3993 57.8732 14.0015C57.4529 12.747 56.5882 11.7094 55.6315 11.3116C54.8326 10.9794 53.8521 10.8751 52.1846 10.945C51.1689 10.9876 50.9775 10.9745 50.8086 10.851C50.7405 10.8012 50.736 10.6807 50.714 8.31294C50.6764 4.26074 50.6796 4.05113 50.7838 3.62804C50.9272 3.04664 50.8882 2.87345 50.4215 2.0166C50.1979 1.60619 50.1945 1.60236 50.0265 1.57191C49.6843 1.50995 49.4846 1.35752 49.4846 1.15848C49.4846 1.08702 49.4037 0.905138 49.3731 0.907743C49.3607 0.908815 49.2213 1.02279 49.0633 1.16105ZM17.0741 21.4595C16.4838 21.9957 16.1599 22.3228 16.1228 22.4201C16.0487 22.6142 15.9754 23.3817 15.8977 24.7778C15.8552 25.54 15.7944 26.4065 15.7625 26.7033C15.7306 27.0001 15.662 27.776 15.6101 28.4274C15.5583 29.0788 15.4368 30.3526 15.3401 31.258C15.1652 32.8973 15.1645 32.9081 15.1899 33.8425C15.2104 34.5955 15.202 34.9283 15.1472 35.5276C15.0838 36.2206 15.0528 37.7586 15.085 38.6107C15.0913 38.7792 15.085 39.5633 15.0711 40.3532C15.0377 42.2311 15.0388 42.6933 15.0827 45.4469L15.1196 47.764L15.2593 48.7981C15.3605 49.5474 15.4162 50.1605 15.4616 51.0247C15.5224 52.1837 15.5221 52.2215 15.452 52.3652C15.3293 52.6165 15.1922 52.657 14.3464 52.692C12.8287 52.7547 9.55148 52.9892 8.77812 53.0903C8.14026 53.1737 6.81402 53.4622 5.09664 53.8912C4.33603 54.0812 4.04454 54.1353 3.5449 54.179C3.05189 54.2223 2.32563 54.1814 1.80971 54.0813C0.964314 53.9174 0.718706 53.933 0.459694 54.167C0.257708 54.3495 0.181647 54.5813 0.0808452 55.3217C-0.0818849 56.5168 -0.0839914 56.5125 0.90296 57.0039C1.65583 57.3787 2.02269 57.5164 2.85618 57.7369C3.90376 58.0141 4.2067 58.0599 4.82855 58.0357C5.28373 58.018 5.43861 57.9922 6.12289 57.8207C6.99406 57.6023 9.85297 57.0032 10.9946 56.7998C12.4545 56.5396 15.0061 56.2969 15.2537 56.3946C15.5239 56.5011 15.7501 57.3409 15.802 58.4301C15.8156 58.7145 15.8679 59.3263 15.9183 59.7897C15.9687 60.2531 16.0705 61.3475 16.1445 62.2217C16.2185 63.0958 16.2876 63.8628 16.298 63.926C16.3084 63.9891 16.3776 64.8767 16.4518 65.8983C16.599 67.9271 16.7092 69.1539 16.7976 69.7473C16.8289 69.958 16.8545 70.188 16.8544 70.2586C16.8542 70.4435 16.7478 70.6407 16.5844 70.7591L16.4424 70.862L16.5903 70.9861C16.699 71.0773 16.7531 71.1632 16.7944 71.3097C16.9052 71.7023 16.9848 72.5553 16.9826 73.3282C16.9809 73.9698 16.9665 74.1478 16.8808 74.5914C16.7828 75.0982 16.7823 75.1091 16.8534 75.185C16.975 75.3149 17.0048 75.451 17.0659 76.1547C17.1308 76.9036 17.1918 77.3291 17.3339 78.0242C17.4417 78.5518 17.4548 78.9749 17.3717 79.2488C17.2945 79.5034 17.2985 79.6273 17.4106 80.4709C17.4639 80.8711 17.5239 81.5088 17.544 81.8879C17.5642 82.2671 17.5974 82.6549 17.6179 82.7497C17.6652 82.9681 17.6663 83.5351 17.6205 84.0432C17.5876 84.4072 17.5921 84.4611 17.6792 84.7619C17.7937 85.1571 17.796 85.2554 17.6953 85.4434L17.6171 85.5893L17.7385 85.7274C17.8577 85.8632 17.8593 85.87 17.8281 86.1172C17.7759 86.5315 17.7959 86.7915 17.9403 87.5753C18.0988 88.4352 18.1456 88.9927 18.1782 90.4093C18.193 91.05 18.2241 91.5584 18.2624 91.7881C18.3051 92.0437 18.3246 92.4311 18.3279 93.0902C18.3321 93.9197 18.3423 94.0662 18.416 94.3529C18.5336 94.81 18.5582 95.1685 18.5008 95.5873L18.4519 95.9435L18.6668 96.5969C18.9165 97.3562 18.9436 97.5448 18.9977 98.8925C19.0238 99.5418 19.063 99.9858 19.1313 100.405C19.231 101.017 19.2557 101.646 19.1928 101.972C19.1678 102.102 19.1819 102.246 19.2527 102.585C19.4689 103.621 19.5465 104.62 19.463 105.294C19.4238 105.611 19.4266 105.661 19.4916 105.812C19.6205 106.113 19.657 106.385 19.6913 107.299C19.7099 107.794 19.7509 108.363 19.7825 108.563C19.814 108.763 19.8577 109.366 19.8797 109.903C19.9232 110.969 20.0101 112.003 20.1905 113.599C20.268 114.285 20.3182 114.968 20.3395 115.629C20.3664 116.46 20.3855 116.675 20.4545 116.931C20.5156 117.157 20.5391 117.363 20.5441 117.716C20.5506 118.17 20.5565 118.203 20.6565 118.351C20.7152 118.438 20.7804 118.607 20.8036 118.734C20.8852 119.179 20.951 119.481 21.0104 119.686L21.0707 119.893L21.423 119.726C21.7668 119.562 21.776 119.56 21.8052 119.639C21.8595 119.786 22.0194 120.639 22.0692 121.048C22.136 121.596 22.1354 122.732 22.0681 122.994C22.0394 123.106 22.0074 123.188 21.997 123.178C21.9866 123.168 21.8975 122.542 21.7991 121.788C21.7007 121.033 21.6041 120.416 21.5845 120.416C21.5273 120.416 21.377 120.663 21.3306 120.834C21.2739 121.042 21.3119 121.533 21.411 121.872C21.4934 122.153 21.5094 122.411 21.6599 125.893C21.6927 126.651 21.7291 127.332 21.7408 127.406C21.7704 127.591 21.9485 127.894 21.9867 127.823C22.0026 127.794 22.1067 127.554 22.2181 127.291C22.4365 126.775 22.4378 126.772 22.4622 126.796C22.5021 126.836 22.605 127.749 22.635 128.33C22.6537 128.69 22.6884 129.006 22.7149 129.057C22.7704 129.165 22.9073 129.321 22.9463 129.321C22.994 129.321 23.0953 129.022 23.1186 128.813C23.1309 128.703 23.1161 128.379 23.0858 128.095C23.0299 127.571 23.0456 127.228 23.1332 127.065C23.2019 126.936 23.2369 126.997 23.2611 127.287C23.2734 127.433 23.3119 127.608 23.3467 127.675C23.459 127.893 23.4973 127.763 23.5082 127.127C23.5137 126.806 23.544 126.285 23.5755 125.969C23.6406 125.317 23.649 124.556 23.5949 124.189C23.5747 124.052 23.5149 123.112 23.4619 122.101C23.27 118.438 22.8818 112.223 22.7889 111.325C22.7684 111.127 22.7087 110.153 22.6562 109.161C22.5376 106.92 22.5063 106.461 22.1771 102.148C22.0308 100.231 21.8849 98.1801 21.8528 97.5903C21.7871 96.3818 21.7736 96.197 21.5641 93.6647C21.4814 92.6642 21.3787 91.0786 21.336 90.1413C21.253 88.3168 21.2048 87.5766 21.0284 85.4114C20.8529 83.2579 20.8043 82.6252 20.7622 81.9454C20.6784 80.5937 20.6006 78.7211 20.5687 77.2921C20.5357 75.8139 20.5096 75.527 20.3765 75.1851C20.3483 75.1129 20.3282 74.7395 20.3218 74.1708C20.3137 73.4521 20.2915 73.1242 20.2113 72.5431C20.1423 72.043 20.1107 71.6448 20.1103 71.2698C20.1099 70.966 20.025 69.6677 19.9188 68.34C19.7535 66.2756 19.6349 64.6236 19.2308 58.7557C19.1162 57.0924 19.0939 56.4045 19.1491 56.2372C19.2121 56.0465 19.3789 55.916 19.6209 55.8683C19.7317 55.8464 21.7957 55.6291 24.2076 55.3853C26.6194 55.1415 29.8164 54.7967 31.3119 54.619C39.2107 53.6809 40.6139 53.5058 42.8206 53.1828C43.5263 53.0796 44.8447 52.8987 45.7505 52.7811C47.6082 52.5396 48.4787 52.413 50.7293 52.0567C53.8944 51.5557 58.0506 50.9551 59.6337 50.77C60.1919 50.7048 61.3035 50.5571 62.1039 50.4417C64.3478 50.1184 64.7622 50.0629 67.3891 49.7343C71.2268 49.2542 77.0402 48.5132 77.4517 48.4517C77.9875 48.3716 78.117 48.3776 78.2268 48.4874C78.2771 48.5377 78.329 48.6368 78.3423 48.7076C78.385 48.936 78.1198 52.6414 77.8807 55.1556C77.4206 59.9943 77.0074 62.4591 76.2176 65.0749C75.79 66.4914 75.5123 66.9692 74.9448 67.265C74.663 67.412 74.2218 67.418 73.9381 67.2789C73.6399 67.1326 73.407 66.8648 73.1923 66.4212C72.9513 65.9235 72.8787 65.6993 72.7364 65.0149C72.325 63.0358 72.0957 61.0736 71.9649 58.4143C71.9128 57.3541 71.8067 56.8655 71.4775 56.1705C71.2589 55.7088 70.7577 55.2631 70.2329 55.0636C70.1451 55.0302 70.1121 55.0394 70.0086 55.1265C69.8483 55.2614 69.7974 55.3942 69.7279 55.8591C69.6595 56.3165 69.6099 56.4255 69.3841 56.6142C69.2159 56.7548 69.1766 56.8404 69.1127 57.2046C69.0998 57.2783 69.0743 57.8987 69.056 58.5833C69.0262 59.6938 69.0077 59.9354 68.8838 60.8238C68.5966 62.8832 68.2822 64.7339 68.0958 65.4619C67.9608 65.9891 67.4264 67.6251 67.3218 67.8316C67.0551 68.3578 66.6104 68.5611 66.2646 68.315C66.136 68.2233 65.8089 67.7933 65.6937 67.5643C65.4515 67.0828 64.88 65.2531 64.6292 64.1557C64.1292 61.9685 63.8926 61.0659 63.5651 60.0961C62.8597 58.0072 62.1886 56.9582 61.0901 56.2268C60.6617 55.9416 60.3956 55.8258 60.1685 55.8258C59.8339 55.8258 59.3062 56.0933 58.9012 56.4684C58.5858 56.7603 57.97 57.7039 57.5485 58.5408C57.0502 59.5304 56.5458 61.0611 56.42 61.9657C56.3703 62.323 56.3322 62.404 56.1983 62.4376C56.1161 62.4583 56.0771 62.4406 55.9901 62.3432C55.884 62.2245 55.8538 62.1358 55.696 61.4822C55.5394 60.8336 55.2329 60.2079 54.6097 59.2647C54.2605 58.7362 54.0111 58.4746 53.6606 58.2694C53.1977 57.9984 52.8458 58.0004 52.5839 58.2755C52.4483 58.4179 52.3648 58.6079 52.2011 59.1473C52.1355 59.3634 52.0715 59.4767 51.9094 59.6639C51.6755 59.9339 51.5064 60.2541 51.4179 60.594C51.3784 60.746 51.3394 61.2258 51.3027 62.011C51.1921 64.3753 50.9043 67.3496 50.63 68.9622C50.3597 70.5516 49.8939 72.0693 49.4873 72.6854C49.1253 73.2338 48.8397 73.3902 48.478 73.2381C48.3238 73.1732 47.9314 72.7946 47.7644 72.5495C47.5599 72.2497 47.5053 72.0306 47.419 71.1644C47.2484 69.4533 47.2707 68.7667 47.5384 67.4877C47.7734 66.365 47.8674 65.7708 47.896 65.2281C47.9289 64.6022 47.8823 64.3246 47.6842 63.9643C47.6031 63.8168 47.4899 63.5269 47.4325 63.32C47.3018 62.8484 47.1467 62.6025 46.5707 61.9532C46.0908 61.4123 46.0588 61.3935 45.6705 61.4257C45.3593 61.4515 45.2874 61.5245 44.9974 62.1092C44.3061 63.5036 44.161 64.0994 44.0836 65.86C44.0259 67.1743 43.9815 67.7275 43.9136 67.9807C43.829 68.2957 42.8877 70.4059 42.4421 71.2793C42.238 71.6795 41.8656 72.3602 41.6146 72.792C41.0654 73.737 40.8474 73.9825 40.3305 74.2378C39.7467 74.5261 39.4719 74.5313 38.9154 74.2645C38.1353 73.8907 37.4202 73.1727 37.004 72.3456C36.7518 71.8442 36.6267 70.6142 36.732 69.6707C36.8111 68.9619 36.9532 68.4141 37.4473 66.9132C37.9209 65.475 38.2516 64.6529 38.9421 63.1983C39.1521 62.7559 39.424 62.1707 39.5463 61.8979L39.7688 61.4017L39.6322 61.1511C39.5571 61.0132 39.4662 60.797 39.4303 60.6706C39.2863 60.163 38.9239 59.6339 38.4383 59.2219C37.7721 58.6567 37.5133 58.6526 37.0355 59.1997C35.8963 60.5039 35.0686 60.9946 33.5332 61.2758C33.0987 61.3554 32.9673 61.36 31.1204 61.36C29.0354 61.36 28.9588 61.3541 28.5544 61.1649C28.4491 61.1156 28.2808 61.007 28.1804 60.9237C27.8203 60.6248 27.452 60.5776 27.0541 60.7792C26.8495 60.8828 26.6036 61.1285 26.5378 61.2949C26.5154 61.3518 26.4946 61.5985 26.4917 61.8433C26.4865 62.2733 26.4817 62.2973 26.3499 62.5542C26.2152 62.8168 26.2142 62.8223 26.2698 62.989C26.3822 63.3262 26.9842 63.7628 27.6161 63.9654C27.9023 64.0571 28.1314 64.2213 28.2459 64.4167C28.3562 64.6049 29.0321 66.5528 29.168 67.0741C29.3035 67.5941 29.3877 68.2651 29.3879 68.8282C29.3882 69.3592 29.2566 70.3265 29.1057 70.9027C28.8722 71.7942 28.4332 72.587 27.7857 73.2863C27.2243 73.8927 26.8517 73.9512 26.3048 73.519C25.9053 73.2032 25.7493 73.122 25.5418 73.122C25.2886 73.122 25.0788 73.2734 24.911 73.5772C24.7338 73.8978 24.715 74.0748 24.8155 74.4745C24.8609 74.655 24.9241 74.9822 24.9559 75.2016C25.0501 75.8503 25.1553 76.0047 25.7204 76.3229C26.0695 76.5196 26.2243 76.58 26.7353 76.719C26.9354 76.7734 27.2628 76.8711 27.4629 76.9361C27.7691 77.0356 27.8874 77.0544 28.2098 77.0552C28.9112 77.0567 29.36 76.8213 30.1526 76.036C30.8863 75.3091 31.1184 74.9743 31.751 73.7304C32.4661 72.3242 32.6862 71.5792 32.7863 70.226C32.8415 69.4801 32.8333 68.6919 32.766 68.2728C32.6904 67.8016 32.4994 67.0801 32.2303 66.2485C32.044 65.6728 31.9056 65.1244 31.9056 64.9622C31.9056 64.9134 32.2442 64.874 33.3907 64.789C33.7762 64.7604 33.897 64.7647 34.0609 64.8127C34.1709 64.8449 34.2752 64.8848 34.2926 64.9014C34.3101 64.918 34.2103 65.3747 34.0708 65.9163C33.607 67.718 33.5166 68.2909 33.4872 69.6133C33.4582 70.9237 33.5265 71.4876 33.8237 72.3899C34.1993 73.5306 35.3724 75.4995 36.1071 76.2226C36.5814 76.6893 36.9302 76.865 37.8181 77.0841C40.068 77.6394 40.955 77.7049 41.8485 77.3818C42.6635 77.0871 43.4152 76.3616 44.1211 75.1884C44.4281 74.6783 44.8673 74.0559 44.9203 74.0559C44.9345 74.0559 45.1013 74.2383 45.2909 74.4612C45.9481 75.2338 46.3828 75.5028 47.5156 75.8378C49.9722 76.5644 50.3747 76.5648 51.2354 75.8412C51.7599 75.4002 52.1272 74.9065 52.4059 74.2679C53.0138 72.8749 53.4368 71.0724 53.756 68.5152C53.8313 67.9115 53.9077 67.3901 53.9257 67.3565C53.9823 67.2506 54.1186 67.1465 54.1512 67.1842C54.168 67.2036 54.2127 67.3575 54.2503 67.526C54.3303 67.8836 54.8049 69.6428 55.0822 70.609C55.313 71.4134 55.4126 71.6353 55.6242 71.8174C56.1055 72.2314 57.0148 72.5606 57.6989 72.5686C58.1917 72.5743 58.3738 72.4033 58.4452 71.8682C58.4866 71.5579 58.792 67.6088 58.8878 66.1473C58.98 64.7374 59.1541 63.6124 59.4995 62.1936C59.6652 61.5133 60.0067 60.4035 60.1215 60.1727C60.2189 59.9767 60.4905 59.7323 60.6108 59.7323C60.7288 59.7323 61.3227 61.7141 62.137 64.826C62.5224 66.2986 62.5829 66.5083 62.8292 67.2251C63.0872 67.976 63.3536 68.6063 63.6596 69.1901C63.9328 69.7112 64.086 69.9276 64.3576 70.1756C64.6596 70.4513 64.9116 70.5607 66.5657 71.134C67.3626 71.4101 67.399 71.4189 67.6964 71.4067C68.1364 71.3887 68.4298 71.2376 68.8679 70.8033C69.4026 70.2733 69.7424 69.6864 70.2221 68.4643C70.4515 67.8799 70.5756 67.6511 70.6987 67.5852C70.7642 67.5501 70.7903 67.574 70.9168 67.7846C71.556 68.8486 71.9667 69.2347 72.7524 69.5108C72.9622 69.5845 73.2869 69.7172 73.474 69.8056C73.9578 70.0343 74.7537 70.2314 75.2211 70.2383C75.6732 70.245 75.9114 70.1892 76.3509 69.9737C77.127 69.5932 77.7434 68.8881 78.1762 67.8856C78.2616 67.6879 78.4927 67.0455 78.6898 66.4582C78.8869 65.8709 79.0774 65.3582 79.113 65.3188C79.2549 65.162 79.434 65.297 79.434 65.5607C79.434 65.7343 79.7464 68.3787 79.8585 69.1537C79.9383 69.7058 80.2236 70.794 80.383 71.1543C80.4808 71.3753 80.7439 71.6643 80.9372 71.7628C81.018 71.8041 81.3118 71.9132 81.59 72.0053C81.8681 72.0974 82.2422 72.2256 82.4212 72.2904C83.0163 72.5055 83.4778 72.4381 83.8789 72.0777C84.1 71.8789 84.4546 71.429 84.6374 71.115C84.8248 70.7932 85.1176 70.0514 85.5249 68.8665C85.6987 68.3609 85.8809 67.8671 85.9298 67.7692C86.0115 67.6055 86.1792 67.4303 86.2542 67.4303C86.2712 67.4303 86.462 67.6673 86.678 67.9569C87.5014 69.0607 88.3049 69.7477 89.4566 70.3326C91.1857 71.2107 92.5727 71.3918 93.9522 70.9194C94.8882 70.5989 95.3831 70.2306 95.8838 69.4819C96.0992 69.1598 96.2102 69.0305 96.3281 68.9642C96.5056 68.8645 96.5044 68.8637 96.6381 69.1522C96.7471 69.3874 96.7683 69.7647 96.8245 72.4798C96.872 74.772 96.8502 77.0219 96.7434 80.8539C96.6463 84.337 96.3905 87.9628 96.072 90.371C96.0205 90.7607 95.9015 91.6742 95.8075 92.4009C95.3683 95.8 94.5615 99.0509 93.498 101.707C92.7373 103.608 92.2655 104.503 91.0957 106.265C90.0107 107.9 89.5355 108.492 88.4856 109.52C87.1386 110.839 86.0604 111.647 84.2947 112.66C83.3973 113.175 81.8286 113.899 81.1382 114.117C81.0466 114.146 80.914 114.239 80.8083 114.348C80.6628 114.499 80.6018 114.535 80.4636 114.55C79.2725 114.685 78.8747 114.774 78.6419 114.957C78.5631 115.019 78.4863 115.035 78.2679 115.035C77.9684 115.035 77.6445 115.11 76.9175 115.346C76.4315 115.504 76.0185 115.571 75.5259 115.571C75.3671 115.571 75.031 115.599 74.7791 115.633C74.4769 115.673 74.1974 115.686 73.9573 115.672C73.56 115.647 73.2407 115.685 72.8279 115.807C72.6094 115.872 72.5328 115.917 72.4106 116.053L72.2608 116.22L72.1486 116.125C72.0079 116.007 71.8761 116.007 71.6708 116.124L71.5099 116.216L71.4668 116.085C71.4298 115.973 71.4064 115.954 71.3021 115.954C71.2353 115.954 71.0341 115.919 70.8551 115.875C70.3939 115.764 70.0941 115.77 69.8707 115.895L69.6936 115.994L69.6095 115.915C69.4906 115.804 69.1607 115.686 68.9653 115.686C68.8743 115.686 68.7016 115.706 68.5817 115.73C68.3729 115.772 68.355 115.769 68.1636 115.663C67.9658 115.554 67.9563 115.552 67.3083 115.549L66.653 115.545L66.2742 115.369C65.7904 115.144 65.5294 115.073 64.3922 114.862C62.7999 114.565 62.8111 114.568 62.1118 114.251C61.7573 114.09 61.0868 113.833 60.6182 113.678C60.1504 113.523 59.6126 113.324 59.423 113.236C59.2334 113.147 58.7423 112.937 58.3315 112.769C57.9208 112.601 57.3693 112.351 57.106 112.213C56.8426 112.075 56.0624 111.672 55.372 111.317C53.8673 110.544 53.6188 110.4 52.5293 109.671C51.7842 109.171 51.3412 108.868 50.0016 107.94C49.812 107.809 49.4861 107.532 49.2772 107.325C49.0684 107.118 48.7754 106.866 48.6261 106.765C48.1458 106.44 47.6339 106.029 47.3638 105.751C47.1162 105.496 45.2003 103.362 44.7314 102.818C44.4435 102.484 44.0779 101.985 43.8897 101.668C43.6532 101.27 42.8423 99.4008 42.6316 98.7679C42.1558 97.3391 42.0589 96.0508 42.324 94.6796C42.6882 92.7959 43.7996 91.1189 45.5615 89.7947C47.6413 88.2314 51.0143 87.0481 55.5357 86.2955C58.4775 85.8058 61.4153 85.4697 64.4401 85.2769C65.3764 85.2172 66.2203 85.1315 66.5182 85.0661C66.79 85.0063 67.3385 84.9703 69.4381 84.8745C70.9858 84.8039 73.572 84.6465 74.4935 84.5668C74.8621 84.535 75.6204 84.4497 76.1786 84.3773C77.494 84.2068 77.6783 84.1886 79.4535 84.0527C80.8432 83.9464 81.1431 83.9113 81.8731 83.7701C82.1218 83.722 82.3745 83.5909 82.3808 83.5065C82.382 83.491 82.3183 83.4511 82.2393 83.4178C82.0815 83.3512 81.9446 83.3548 78.4191 83.5173C77.5344 83.5582 76.035 83.6092 75.0871 83.6308C74.1392 83.6523 73.0276 83.6872 72.6168 83.7081C71.3606 83.7721 70.1376 83.8189 68.6146 83.8613C67.8142 83.8836 66.7974 83.9192 66.355 83.9404C65.8961 83.9624 64.9833 83.968 64.2295 83.9534C62.2638 83.9153 59.9862 84.0218 59.1865 84.1893C58.7996 84.2703 58.569 84.2892 57.6038 84.3192C56.5364 84.3522 56.2233 84.3843 55.7223 84.5114C55.575 84.5488 55.5259 84.5466 55.4322 84.4981C55.2849 84.4219 55.2068 84.3271 55.2531 84.2807C55.3226 84.2113 57.3275 83.9294 58.7719 83.7861C60.9464 83.5703 62.833 83.4541 66.2593 83.3251C67.3652 83.2835 68.3906 83.2401 68.538 83.2288C68.8988 83.2011 69.5636 83.0907 69.6076 83.0513C69.6279 83.0331 69.5823 82.9941 69.5011 82.9602C69.3741 82.9071 69.3258 82.9068 69.0443 82.9574C68.8446 82.9933 68.2073 83.0298 67.3006 83.0571C65.6958 83.1054 65.7353 83.1106 65.6201 82.8328C65.5881 82.7555 65.5569 82.6868 65.5508 82.6803C65.5446 82.6737 65.3957 82.7451 65.2197 82.839C65.0437 82.9328 64.8394 83.028 64.7657 83.0504C64.5659 83.1114 63.6993 83.1995 62.8111 83.2492C61.8864 83.301 61.7814 83.2843 61.5209 83.0441L61.347 82.8837L60.3946 82.8722C59.8546 82.8658 59.4422 82.8756 59.4422 82.8949C59.4422 82.9449 59.7125 83.0175 59.9062 83.0194C60.2563 83.0229 60.5732 83.1362 60.6192 83.2743C60.6404 83.3379 60.3147 83.3949 59.7869 83.4202C59.0181 83.457 58.4362 83.5102 57.6996 83.6112C57.3204 83.6631 56.6569 83.7323 56.2251 83.765C55.2432 83.8392 54.5939 83.9233 53.129 84.1663C51.9348 84.3644 51.7989 84.3796 51.7121 84.3246C51.6359 84.2763 52.1406 84.148 53.008 83.9951C53.4188 83.9228 54.0995 83.7948 54.5208 83.7108C54.9421 83.6267 55.5259 83.5309 55.8181 83.4977C56.3807 83.434 56.7926 83.3465 56.8998 83.2681C56.9554 83.2274 56.9367 83.217 56.7681 83.1946C56.633 83.1767 56.3765 83.1986 55.9483 83.2647C55.6055 83.3176 55.0235 83.3964 54.6549 83.4399C52.2503 83.7237 50.2033 84.1591 48.2855 84.7947C45.6555 85.6664 43.9841 86.6213 42.3462 88.188C41.5148 88.9833 41.1098 89.5339 40.5853 90.5817C40.097 91.5569 39.8506 92.2286 39.6579 93.1094C39.5578 93.5672 39.537 95.3392 39.6208 96.2714C39.7037 97.1927 39.7578 97.4826 39.9893 98.2483C40.2472 99.1016 40.5163 99.8213 40.7938 100.401C41.0901 101.019 41.1979 101.195 41.8381 102.11C43.2841 104.175 43.3047 104.201 44.3346 105.333C45.8659 107.015 46.2952 107.42 47.7641 108.57C49.643 110.04 50.3349 110.535 51.725 111.405C52.1463 111.668 52.7634 112.061 53.0963 112.276C53.8147 112.742 54.4888 113.111 55.7847 113.751C58.1826 114.934 59.6127 115.466 62.2571 116.16C62.6994 116.277 63.5937 116.511 64.2444 116.682C66.5472 117.287 66.9528 117.356 70.07 117.68C71.2392 117.801 71.5427 117.804 71.7955 117.699C72.1266 117.56 72.4788 117.521 73.7046 117.486C74.3807 117.466 75.0606 117.433 75.2154 117.411C75.5293 117.366 76.5804 117.073 77.3582 116.813C77.6384 116.72 78.0348 116.618 78.239 116.587C78.7556 116.51 79.2223 116.41 80.045 116.204C80.4338 116.106 80.9508 115.984 81.194 115.933C81.4372 115.881 81.6706 115.831 81.7127 115.821C81.7548 115.812 81.8837 115.733 81.9992 115.646C82.2783 115.435 82.4104 115.371 83.1103 115.105C83.437 114.981 83.9723 114.736 84.2998 114.56C85.108 114.126 85.3695 114.016 85.9722 113.851C86.1097 113.814 86.1472 113.78 86.2239 113.627C86.2982 113.478 86.3674 113.413 86.6177 113.26C86.905 113.084 88.8556 111.549 89.8156 110.742C90.6724 110.023 90.9376 109.676 92.2299 107.579C92.9657 106.386 93.6564 105.21 93.7431 105.004C93.7747 104.929 93.8432 104.703 93.8953 104.503C93.9474 104.303 94.0859 103.941 94.2031 103.699C94.3203 103.457 94.5594 102.871 94.7342 102.397C95.1234 101.342 95.165 101.237 95.4294 100.639C95.7559 99.9015 95.9456 99.362 96.3839 97.9238C96.8765 96.3079 97.0299 95.7126 97.299 94.3732C97.5381 93.1833 97.6615 92.413 97.799 91.2519C97.8526 90.799 97.9291 90.2475 97.9691 90.0264C98.009 89.8052 98.0516 89.5553 98.0638 89.471C98.1062 89.1783 98.3287 86.1295 98.4691 83.9177C98.4919 83.5597 98.5439 82.9651 98.5847 82.5965C98.6255 82.2278 98.6759 81.7618 98.6966 81.5608C98.7842 80.7089 99.0411 68.9468 99.0428 65.7068C99.0441 63.1319 99.1115 62.392 99.8097 57.2848C99.9145 56.5179 100 55.7596 100 55.5996C99.9997 55.2463 99.9174 54.6796 99.7886 54.1451C99.7041 53.7942 99.6688 53.7152 99.4893 53.4749C99.3773 53.325 99.2131 53.0946 99.1244 52.9629C98.9237 52.6647 98.8281 52.6007 98.5781 52.5969C98.4059 52.5944 98.3687 52.6083 98.2783 52.7095C98.2189 52.776 98.1132 53.0027 98.0294 53.2435C97.8215 53.841 97.7515 53.976 97.5365 54.1951C97.4314 54.3021 97.3139 54.4608 97.2752 54.5478C97.202 54.7126 96.9802 55.9945 96.8817 56.8216C96.8049 57.467 96.7537 58.3532 96.706 59.8663C96.6494 61.6591 96.6047 62.3114 96.5143 62.6658C96.4227 63.0253 95.3245 65.789 95.0535 66.3422C94.8178 66.8233 94.3581 67.4406 93.9488 67.8257C93.7153 68.0454 93.5484 68.1627 93.2855 68.2918C92.803 68.5286 92.5266 68.5944 92.015 68.5941C91.4815 68.5938 91.1856 68.5206 90.6363 68.2529C89.39 67.6457 88.3643 66.4092 87.8642 64.9114C87.6202 64.1806 87.4069 63.1625 87.3216 62.3223C87.2575 61.6906 87.2936 60.5347 87.3961 59.9349C87.6044 58.7167 87.5112 57.8393 87.1136 57.2738C87.0202 57.1409 86.8751 56.9288 86.7911 56.8024C86.477 56.3293 86.3697 56.2471 86.066 56.2471C85.7841 56.2471 85.6834 56.4054 85.5051 57.128C85.4714 57.2649 85.3763 57.4889 85.2939 57.6259C84.8807 58.3122 84.8073 58.6534 84.7586 60.1153C84.7253 61.1178 84.7223 61.144 84.5133 62.26C84.1089 64.419 83.7963 65.7772 83.4777 66.76C83.1202 67.8627 82.618 69.242 82.5495 69.3093C82.5106 69.3475 82.4284 69.3842 82.367 69.3908C82.2566 69.4025 82.2544 69.3988 82.1665 69.0579C82.0521 68.6143 81.8011 66.0972 81.714 64.5196C81.4166 59.136 81.3405 57.1698 81.2343 52.1109C81.1689 48.9958 81.1825 48.1556 81.3001 48.0492C81.3164 48.0345 81.5452 47.9839 81.8085 47.9369C82.0718 47.8899 82.5199 47.8097 82.8042 47.7588C83.0886 47.7078 83.7004 47.6241 84.1638 47.5727C84.6272 47.5213 85.5665 47.4101 86.2511 47.3257C86.9357 47.2413 88.1162 47.1023 88.8745 47.0168C90.9036 46.7881 91.8683 46.6268 92.8959 46.3446C93.2381 46.2506 93.5374 46.1965 93.8533 46.1715C94.3529 46.1319 94.7852 46.0553 95.1746 45.9374C95.5131 45.8349 96.3302 45.443 96.3111 45.3922C96.3026 45.3697 96.2467 45.2004 96.1868 45.0161L96.078 44.681H95.7292H95.3803L95.3155 44.5451L95.2507 44.4091L95.0307 44.4305C94.9098 44.4423 94.2938 44.4868 93.6618 44.5295C92.2301 44.6263 91.6306 44.682 89.966 44.8732C89.2393 44.9566 88.1708 45.0689 87.5915 45.1226C87.0123 45.1763 86.2626 45.2617 85.9256 45.3125C85.0181 45.4491 84.7046 45.484 83.8585 45.5428C83.4366 45.5721 82.945 45.6238 82.7659 45.6577C82.3722 45.7322 81.6645 45.7433 81.3971 45.6791L81.202 45.6323L81.1792 45.3194C81.1666 45.1473 81.1495 42.1025 81.1412 38.5532C81.1313 34.3546 81.111 31.8724 81.083 31.4489C80.9981 30.1644 80.8757 29.6424 80.5195 29.0451C80.3066 28.688 79.5829 27.9062 79.4654 27.9062C79.3406 27.9062 79.1701 28.0168 79.1072 28.1385C79.0741 28.2024 79.0304 28.4018 79.01 28.5818C78.9649 28.978 78.9178 29.0758 78.6737 29.2802C78.3056 29.5884 78.2106 30.0276 78.2801 31.1011C78.3034 31.4609 78.3441 32.1085 78.3707 32.5404C78.4413 33.687 78.4402 45.3741 78.3695 45.6812C78.3209 45.8923 78.2385 46.0051 78.0695 46.0921C77.9444 46.1564 77.2717 46.2346 75.2131 46.4239C74.1748 46.5193 72.8256 46.6476 72.2147 46.7088C71.6038 46.77 70.8714 46.8308 70.587 46.8439C69.0544 46.9145 68.0886 46.9962 67.1402 47.1354C66.8558 47.1771 65.9889 47.2624 65.2138 47.3248C63.5283 47.4606 63.0791 47.509 61.8741 47.6848C60.4294 47.8955 60.1086 47.9324 59.3407 47.976C58.8485 48.0039 58.3888 48.0581 57.8851 48.1476C56.8413 48.333 55.8965 48.4318 54.7697 48.4734C53.8787 48.5063 53.3312 48.5615 52.8692 48.6651C52.7748 48.6862 52.4788 48.7207 52.2113 48.7416C51.5956 48.7899 51.0148 48.8986 50.5751 49.0478C50.3058 49.1393 50.1195 49.1728 49.7144 49.2028C49.43 49.2238 48.8957 49.2749 48.5271 49.3164C48.1585 49.3578 47.7039 49.3916 47.517 49.3916C47.33 49.3917 46.408 49.4859 45.468 49.6011C43.4953 49.8429 42.9655 49.8999 40.4844 50.1377C39.4839 50.2336 37.7863 50.4074 36.712 50.5239C35.6378 50.6405 34.1302 50.804 33.3619 50.8873C31.1683 51.1251 29.1275 51.332 27.7119 51.4602C23.9013 51.8051 20.25 52.157 19.7197 52.2306C18.882 52.3467 18.8519 52.33 18.7452 51.6896C18.5835 50.7192 18.4717 42.972 18.5786 40.1426C18.5985 39.616 18.6316 38.513 18.6523 37.6915C18.6729 36.87 18.708 36.0428 18.7302 35.8532C18.7525 35.6636 18.8051 34.6037 18.8472 33.4978C18.8892 32.392 18.9482 30.9443 18.9783 30.2808C19.0645 28.3796 19.1284 25.88 19.1002 25.5132C19.086 25.3291 19.0446 25.0468 19.008 24.886C18.9567 24.66 18.9442 24.4584 18.9531 23.9998C18.9629 23.4987 18.9524 23.3587 18.8858 23.102C18.7758 22.6782 18.5615 22.2639 18.3308 22.0291C18.1547 21.8499 17.3854 21.2423 17.3345 21.2423C17.3228 21.2423 17.2056 21.34 17.0741 21.4595ZM94.5194 44.6213C94.51 44.6306 94.1927 44.6661 93.814 44.7002C93.4354 44.7342 92.9964 44.7883 92.8384 44.8205C92.5064 44.8879 92.1289 45.0281 92.1355 45.0814C92.1381 45.1016 92.2307 45.1692 92.3413 45.2317C92.584 45.3688 93.0044 45.409 93.3844 45.3314C93.5159 45.3045 93.7859 45.2721 93.9843 45.2594C94.3435 45.2364 94.3453 45.2358 94.3832 45.1214C94.4041 45.0582 94.4702 44.927 94.5299 44.8299C94.5896 44.7328 94.6384 44.6423 94.6384 44.6288C94.6384 44.6012 94.5454 44.5953 94.5194 44.6213ZM88.7979 45.4309C87.3411 45.7259 86.6991 45.8347 86.5571 45.8107C86.2231 45.7543 85.1914 45.9491 84.9711 46.1102C84.9031 46.16 84.9061 46.1655 85.0239 46.2066C85.2137 46.2728 87.538 46.1015 88.8849 45.9221C89.4799 45.8428 90.5359 45.6498 90.787 45.5744C90.8602 45.5525 90.8602 45.5514 90.7876 45.4983C90.7471 45.4687 90.6042 45.4105 90.47 45.3691C90.09 45.2517 89.5922 45.2702 88.7979 45.4309ZM83.733 46.24C83.6319 46.2594 83.6156 46.3663 83.7138 46.3657C83.888 46.3646 84.0681 46.3136 84.0681 46.2653C84.0681 46.2133 83.9269 46.2026 83.733 46.24ZM81.6135 46.3511C81.5701 46.4034 81.5735 46.4208 81.636 46.4665C81.7009 46.5139 81.7188 46.5111 81.7877 46.4419C81.8552 46.3743 81.858 46.3586 81.8085 46.3271C81.7255 46.2745 81.6716 46.2811 81.6135 46.3511ZM9.28768 77.1624C9.2732 77.1858 9.28466 77.2193 9.31311 77.2369C9.36769 77.2706 9.4341 77.2048 9.40043 77.1503C9.37347 77.1067 9.31843 77.1126 9.28768 77.1624ZM11.301 77.5005C11.301 77.5203 11.3182 77.5472 11.3393 77.5602C11.3604 77.5732 11.3776 77.557 11.3776 77.5242C11.3776 77.4913 11.3604 77.4645 11.3393 77.4645C11.3182 77.4645 11.301 77.4807 11.301 77.5005ZM58.3985 83.0456C58.3022 83.0557 58.2549 83.0798 58.2549 83.1188C58.2549 83.1629 58.2828 83.1716 58.3698 83.1548C58.433 83.1426 58.5364 83.1226 58.5996 83.1105C58.6628 83.0982 58.7145 83.0724 58.7145 83.053C58.7145 83.0179 58.6727 83.017 58.3985 83.0456ZM50.9481 84.442C50.8762 84.5138 50.8929 84.5562 50.9878 84.5428C51.0352 84.5361 51.0739 84.5061 51.0739 84.4763C51.0739 84.4033 51.0054 84.3846 50.9481 84.442ZM54.5878 84.428C54.5149 84.4743 54.6241 84.608 54.7084 84.5756C54.7602 84.5557 54.7648 84.5355 54.7318 84.4736C54.6869 84.3897 54.661 84.3816 54.5878 84.428ZM50.0211 84.6067C49.9791 84.6573 49.9828 84.6757 50.0438 84.7214C50.1075 84.7692 50.1225 84.768 50.1649 84.7122C50.2582 84.5894 50.1198 84.4878 50.0211 84.6067ZM21.0288 109.922C21.0288 110.108 21.0381 110.133 21.1054 110.133C21.1664 110.133 21.1819 110.108 21.1815 110.009C21.1807 109.827 21.1421 109.712 21.0818 109.712C21.0431 109.712 21.0288 109.769 21.0288 109.922ZM21.1825 111.272C21.1828 111.373 21.2087 111.756 21.24 112.124C21.2751 112.536 21.2965 113.239 21.2957 113.95C21.2944 115.059 21.3153 115.823 21.3587 116.251C21.3767 116.43 21.3888 116.452 21.4677 116.452C21.5166 116.452 21.5972 116.419 21.6469 116.379C21.7351 116.307 21.7371 116.292 21.7268 115.776C21.7169 115.279 21.5699 112.908 21.4887 111.936C21.46 111.592 21.4306 111.454 21.3525 111.294C21.2978 111.182 21.237 111.091 21.2175 111.091C21.198 111.091 21.1822 111.172 21.1825 111.272ZM21.5641 117.336C21.5219 117.493 21.5402 117.671 21.6129 117.809C21.6507 117.881 21.653 117.881 21.7041 117.811C21.7724 117.718 21.7709 117.48 21.701 117.313C21.6705 117.24 21.6366 117.18 21.6259 117.18C21.6151 117.18 21.5873 117.25 21.5641 117.336ZM21.4634 118.656C21.4412 118.714 21.5462 118.865 21.6083 118.865C21.6256 118.865 21.669 118.821 21.7047 118.766C21.7599 118.682 21.7615 118.662 21.7151 118.633C21.6293 118.578 21.4882 118.591 21.4634 118.656ZM22.112 124.461C22.1241 124.511 22.1727 124.764 22.22 125.022C22.2674 125.28 22.3203 125.491 22.3377 125.491C22.355 125.491 22.3691 125.34 22.3689 125.156C22.3686 124.883 22.3514 124.784 22.2771 124.624C22.1754 124.406 22.0751 124.306 22.112 124.461Z" fill="#C5E3FE"/>
<path d="M88.7979 45.4309C87.3411 45.7259 86.6991 45.8347 86.5571 45.8107C86.2231 45.7543 85.1914 45.9491 84.9711 46.1102C84.9031 46.16 84.9061 46.1655 85.0239 46.2066C85.2137 46.2728 87.538 46.1015 88.8849 45.9221C89.4799 45.8428 90.5359 45.6498 90.787 45.5744C90.8602 45.5525 90.8602 45.5514 90.7876 45.4983C90.7471 45.4687 90.6042 45.4105 90.47 45.3691C90.09 45.2517 89.5922 45.2702 88.7979 45.4309Z" fill="#C5E3FE"/>
<path d="M94.5194 44.6213C94.51 44.6306 94.1927 44.6661 93.814 44.7002C93.4354 44.7342 92.9964 44.7883 92.8384 44.8205C92.5064 44.8879 92.1289 45.0281 92.1355 45.0814C92.1381 45.1016 92.2307 45.1692 92.3413 45.2317C92.584 45.3688 93.0044 45.409 93.3844 45.3314C93.5159 45.3045 93.7859 45.2721 93.9843 45.2594C94.3435 45.2364 94.3453 45.2358 94.3832 45.1214C94.4041 45.0582 94.4702 44.927 94.5299 44.8299C94.5896 44.7328 94.6384 44.6423 94.6384 44.6288C94.6384 44.6012 94.5454 44.5953 94.5194 44.6213Z" fill="#C5E3FE"/>
<path d="M83.733 46.24C83.6319 46.2594 83.6156 46.3663 83.7138 46.3657C83.888 46.3646 84.0681 46.3136 84.0681 46.2653C84.0681 46.2133 83.9269 46.2026 83.733 46.24Z" fill="#C5E3FE"/>
<path d="M81.6135 46.3511C81.5701 46.4034 81.5735 46.4208 81.636 46.4665C81.7009 46.5139 81.7188 46.5111 81.7877 46.4419C81.8552 46.3743 81.858 46.3586 81.8085 46.3271C81.7255 46.2745 81.6716 46.2811 81.6135 46.3511Z" fill="#C5E3FE"/>
<path d="M21.1825 111.272C21.1828 111.373 21.2087 111.756 21.24 112.124C21.2751 112.536 21.2965 113.239 21.2957 113.95C21.2944 115.059 21.3153 115.823 21.3587 116.251C21.3767 116.43 21.3888 116.452 21.4677 116.452C21.5166 116.452 21.5972 116.419 21.6469 116.379C21.7351 116.307 21.7371 116.292 21.7268 115.776C21.7169 115.279 21.5699 112.908 21.4887 111.936C21.46 111.592 21.4306 111.454 21.3525 111.294C21.2978 111.182 21.237 111.091 21.2175 111.091C21.198 111.091 21.1822 111.172 21.1825 111.272Z" fill="#C5E3FE"/>
<path d="M21.0288 109.922C21.0288 110.108 21.0381 110.133 21.1054 110.133C21.1664 110.133 21.1819 110.108 21.1815 110.009C21.1807 109.827 21.1421 109.712 21.0818 109.712C21.0431 109.712 21.0288 109.769 21.0288 109.922Z" fill="#C5E3FE"/>
<path d="M21.5641 117.336C21.5219 117.493 21.5402 117.671 21.6129 117.809C21.6507 117.881 21.653 117.881 21.7041 117.811C21.7724 117.718 21.7709 117.48 21.701 117.313C21.6705 117.24 21.6366 117.18 21.6259 117.18C21.6151 117.18 21.5873 117.25 21.5641 117.336Z" fill="#C5E3FE"/>
<path d="M21.4634 118.656C21.4412 118.714 21.5462 118.865 21.6083 118.865C21.6256 118.865 21.669 118.821 21.7047 118.766C21.7599 118.682 21.7615 118.662 21.7151 118.633C21.6293 118.578 21.4882 118.591 21.4634 118.656Z" fill="#C5E3FE"/>
<path d="M22.112 124.461C22.1241 124.511 22.1727 124.764 22.22 125.022C22.2674 125.28 22.3203 125.491 22.3377 125.491C22.355 125.491 22.3691 125.34 22.3689 125.156C22.3686 124.883 22.3514 124.784 22.2771 124.624C22.1754 124.406 22.0751 124.306 22.112 124.461Z" fill="#C5E3FE"/>
</svg>
