<svg width="820" height="1053" viewBox="0 0 820 1053" fill="none" xmlns="http://www.w3.org/2000/svg">
<g clip-path="url(#clip0_1153_257)">
<path fill-rule="evenodd" clip-rule="evenodd" d="M401.481 3.59788C394.119 10.045 392.365 12.6031 391.368 18.3433C390.71 22.1267 390.9 45.5562 391.707 60.2562C392.08 67.054 392.385 74.1978 392.385 76.131C392.385 81.2885 392.014 81.6213 385.562 82.2533C379.505 82.8467 349.445 81.536 330.285 79.8436C320.879 79.0124 301.754 78.4808 297.534 78.9328C295.076 79.1959 295.192 79.0237 294.197 83.8971C293.343 88.082 293.525 89.3716 295.229 91.2202C297.378 93.5515 299.304 94.7273 304.629 96.9567C307.441 98.1338 311.177 99.7449 312.933 100.537C322.926 105.045 348.673 109.393 381.878 112.179C387.053 112.614 391.79 113.111 392.403 113.284C393.733 113.66 394.995 114.9 395.653 116.474C396.224 117.84 399.296 140.443 400.209 149.986C401.104 159.356 401.366 161.291 402.583 167.55C403.694 173.269 404.071 175.933 404.623 181.977C404.817 184.098 405.457 187.587 406.176 190.446C408.147 198.275 408.592 201.057 409.631 212.021C411.019 226.676 413.722 241.114 415.975 245.912C417.02 248.137 418.725 250.015 420.542 250.942C421.881 251.625 426.27 252.546 428.185 252.546C428.861 252.546 429.88 252.352 430.448 252.114C432.25 251.362 432.378 250.619 432.345 241.098C432.313 231.928 432.161 230.082 429.874 211.146C429.113 204.85 428.333 198.287 428.139 196.562C427.945 194.837 426.309 181.287 424.503 166.452C420.201 131.113 418.734 118.47 418.732 116.709C418.73 114.679 419.272 113.351 420.324 112.807C421.205 112.352 431.201 111.602 447.115 110.798C455.526 110.373 459.405 111.054 463.117 113.609C465.436 115.204 466.541 115.53 469.581 115.515C472.77 115.5 473.942 115.057 474.885 113.51C475.711 112.156 475.661 111.294 474.562 107.863C471.467 98.2009 464.348 89.4689 456.87 86.1615C450.214 83.218 441.787 82.2542 428.085 82.8699C420.914 83.192 419.817 83.1766 418.289 82.7322C417.342 82.4571 416.476 82.0849 416.365 81.9051C416.16 81.5733 415.729 45.761 415.778 33.1556C415.8 27.4984 415.912 25.8318 416.397 23.9032C416.731 22.5737 416.992 20.43 416.997 18.9725L417.006 16.394L414.695 11.9156C413.424 9.45258 412.173 7.19658 411.915 6.9027C411.657 6.60882 410.655 6.19168 409.689 5.97527C407.418 5.46686 406.277 4.4353 405.784 2.44306C405.573 1.59372 405.26 0.857299 405.088 0.806176C404.915 0.755367 403.292 2.01149 401.481 3.59788ZM137.899 171.302C135.502 173.523 133.285 175.744 132.973 176.236C131.998 177.777 131.318 184.926 130.324 204.089C130.225 205.986 129.875 210.15 129.544 213.341C129.214 216.533 128.796 221.19 128.615 223.691C128.097 230.871 127.422 237.999 126.061 250.664C124.827 262.146 124.802 262.605 125.001 269.953C125.17 276.197 125.089 278.925 124.526 285.949C123.962 292.995 123.882 295.708 124.051 302.101C124.163 306.328 124.245 310.279 124.234 310.883C123.783 335.427 123.774 337.67 124.028 364.515L124.192 381.922L125.453 391.802C126.334 398.705 126.87 404.58 127.232 411.3C127.734 420.632 127.732 420.955 127.163 422.121C126.158 424.177 125.084 424.485 117.905 424.774C106.887 425.217 83.3928 426.839 74.9823 427.737C68.669 428.412 61.5695 429.888 43.4615 434.293C33.5853 436.696 31.6956 436.993 26.2113 437.01C21.3067 437.025 18.4886 436.743 12.7672 435.666C7.41086 434.657 4.71921 435.427 3.09236 438.432C2.19253 440.094 1.90461 441.438 0.963066 448.369C-0.0399527 455.755 0.182731 456.132 7.80668 459.975C14.4784 463.337 17.5 464.451 25.9463 466.661L32.7978 468.454L38.6001 468.463L44.4024 468.472L50.2047 466.979C59.0312 464.708 88.6544 458.617 96.1529 457.532C102.193 456.659 116.394 455.163 120.623 454.954C125.644 454.707 126.293 454.942 127.346 457.39C128.839 460.859 129.518 464.588 130.013 472.022C130.274 475.943 130.766 481.621 131.107 484.639C131.447 487.658 132.086 494.362 132.526 499.537C132.966 504.712 133.609 511.981 133.955 515.69C134.3 519.398 135.004 528.29 135.519 535.449C136.573 550.117 137.483 560.144 138.181 564.774C138.441 566.499 138.653 568.313 138.652 568.804C138.65 570.206 137.722 571.814 136.415 572.679L135.218 573.471L136.59 574.805C138.156 576.328 138.351 576.995 139.1 583.436C140.145 592.424 140.029 597.931 138.645 605.044C138.082 607.934 138.063 608.364 138.475 608.82C139.438 609.883 139.922 611.78 140.222 615.661C140.683 621.622 141.102 624.718 142.285 630.889C143.464 637.035 143.593 639.475 142.885 642.193C142.252 644.625 142.284 645.66 143.213 652.593C143.652 655.871 144.064 660.476 144.129 662.826C144.193 665.177 144.498 668.674 144.804 670.598C145.3 673.706 145.322 674.706 145.003 679.575C144.647 684.992 144.652 685.082 145.411 687.619C146.332 690.698 146.342 691.092 145.543 692.853L144.922 694.222L145.864 695.295C146.918 696.496 146.954 696.787 146.459 700.109C146.089 702.595 146.004 701.912 148.221 714.223C148.807 717.478 149.278 725.162 149.462 734.453C149.569 739.92 149.78 743.196 150.158 745.274C150.581 747.601 150.686 749.757 150.636 755.13C150.582 760.961 150.663 762.393 151.172 764.539C152.361 769.563 152.575 772.056 152.142 775.832L151.744 779.303L153.49 784.478C155.495 790.421 155.758 792.195 156.065 801.885C156.202 806.191 156.551 810.177 157.18 814.597C158.135 821.305 158.314 825.277 157.785 828.062C157.547 829.316 157.588 830.235 157.955 831.947C159.965 841.328 160.602 848.081 160.066 854.356C159.728 858.317 159.739 858.488 160.473 860.51C161.409 863.089 161.854 866.833 161.858 872.159C161.859 874.42 162.147 878.497 162.5 881.255C162.851 884.005 163.269 889.642 163.429 893.782C163.588 897.922 163.804 902.297 163.908 903.505C164.355 908.705 165.699 921.802 166.29 926.714C166.699 930.126 166.975 934.7 167.054 939.416C167.166 946.058 167.261 947.128 168.009 950.237C168.666 952.964 168.838 954.442 168.829 957.294C168.819 960.772 168.852 960.954 169.76 962.386C170.481 963.524 170.836 964.671 171.278 967.298C171.594 969.183 172.149 971.716 172.51 972.928L173.166 975.13L174.919 974.355C175.883 973.928 177.21 973.305 177.867 972.97L179.062 972.361L179.71 975.256C181.792 984.544 182.442 995.224 181.255 1000.64C180.907 1002.23 180.881 1002.26 180.658 1001.36C180.529 1000.84 179.823 995.691 179.088 989.912C178.352 984.133 177.704 979.347 177.648 979.276C177.391 978.953 176.281 980.385 175.648 981.856C175.032 983.288 174.972 983.826 175.133 986.46C175.234 988.1 175.603 990.358 175.953 991.477C176.621 993.613 176.669 994.393 178.006 1024.73C178.268 1030.68 178.564 1036.04 178.663 1036.64C178.849 1037.77 180.304 1040.57 180.568 1040.31C180.649 1040.23 181.539 1038.23 182.545 1035.87C183.552 1033.51 184.445 1031.69 184.529 1031.84C184.679 1032.09 185.169 1035.06 185.53 1037.9C185.629 1038.68 185.83 1041.57 185.976 1044.34C186.25 1049.54 186.518 1050.61 187.841 1051.81C188.192 1052.13 188.611 1052.31 188.77 1052.21C188.929 1052.11 189.309 1051.14 189.613 1050.06C190.075 1048.42 190.121 1047.6 189.895 1045.11C189.488 1040.66 189.56 1035.08 190.038 1033.98C190.583 1032.72 190.886 1033.32 191.136 1036.14C191.346 1038.51 192.09 1040.1 192.705 1039.49C192.94 1039.25 193.144 1036.89 193.284 1032.79C193.404 1029.3 193.649 1025.18 193.828 1023.63C194.236 1020.09 194.25 1012.68 193.852 1009.99C193.687 1008.86 193.125 999.76 192.603 989.755C191.495 968.512 191.19 963.348 189.299 933.771C188.521 921.609 187.671 909.347 187.41 906.521C187.149 903.696 186.587 894.733 186.161 886.605C185.204 868.373 184.952 864.685 182.241 829.329C181.043 813.717 179.846 796.922 179.579 792.006C179.073 782.676 178.478 774.613 176.915 755.937C176.402 749.813 175.698 738.522 175.349 730.846C174.65 715.451 174.394 711.636 172.374 686.466C170.297 660.591 169.543 646.74 169.073 625.777C168.811 614.074 168.683 612.628 167.617 609.358C167.232 608.178 167.107 606.207 167.057 600.576C167.005 594.697 166.831 592.124 166.143 587.053C165.532 582.548 165.302 579.555 165.321 576.389C165.338 573.681 164.798 565.253 163.917 554.486C163.129 544.859 161.497 522.771 160.291 505.401C159.085 488.031 157.943 471.631 157.755 468.957C157.566 466.284 157.389 461.744 157.362 458.869C157.316 454.041 157.362 453.575 157.96 452.753C159.299 450.914 159.145 450.939 185.56 448.254C199.177 446.87 215.893 445.17 222.706 444.476C233.973 443.329 258.618 440.455 304.723 434.911C326.575 432.283 330.362 431.79 351.612 428.805C361.358 427.435 375.19 425.542 382.349 424.598C389.508 423.653 403.057 421.667 412.458 420.185C443.26 415.327 474.891 410.743 489.3 409.049C493.871 408.512 503.892 407.166 511.568 406.059C528.575 403.607 537.27 402.453 558.614 399.815C572.005 398.16 626.063 391.29 637.126 389.837C640.48 389.397 641.343 389.719 641.98 391.652C642.406 392.945 642.264 395.652 640.454 420.814C638.329 450.341 634.563 482.857 631.37 499.257C628.324 514.899 623.594 531.708 620.623 537.456C619.106 540.389 616.794 542.871 614.427 544.108C612.967 544.872 612.35 545.004 610.208 545.009C608.2 545.014 607.4 544.868 606.203 544.278C603.209 542.804 600.876 539.704 598.744 534.367C597.457 531.146 596.528 527.333 595.185 519.767C592.274 503.368 590.958 491.118 589.991 471.391C589.815 467.814 589.448 463.806 589.175 462.486C588.568 459.546 586.876 454.8 585.543 452.3C584.169 449.722 580.883 446.698 577.734 445.115C575.042 443.761 574.748 443.765 573.473 445.17C572.409 446.343 572.12 447.121 571.782 449.727C571.225 454.007 570.899 454.814 568.945 456.745C567.283 458.386 567.14 458.646 566.782 460.672C566.571 461.865 566.28 467.358 566.134 472.878C565.885 482.295 565.78 483.544 564.443 493.108C561.902 511.279 559.595 524.438 557.808 530.96C556.416 536.038 552.761 547.156 551.966 548.731C551.63 549.395 550.766 550.581 550.045 551.365C546.372 555.363 543.024 554.083 538.943 547.121C538.08 545.649 534.124 534.35 532.427 528.512C531.839 526.487 530.141 519.583 528.655 513.169C525.568 499.851 523.603 492.47 521.354 485.737C515.689 468.788 510.118 459.978 501.232 453.92C494.753 449.503 491.916 449.399 485.953 453.364C482.198 455.859 479.376 459.387 474.863 467.222C468.809 477.734 464.15 490.53 462.639 500.792C462.087 504.545 460.709 505.705 459.088 503.779C458.191 502.713 457.797 501.614 457.309 498.826C456.369 493.453 453.337 486.913 448.189 479.157C444.435 473.501 442.455 471.501 438.986 469.86C436.33 468.605 434.81 468.439 433.059 469.214C431.089 470.085 429.893 471.866 428.717 475.682C427.507 479.604 427.142 480.331 425.4 482.274C423.756 484.108 422.427 486.619 421.729 489.207C421.391 490.461 421.079 494.143 420.772 500.478C419.551 525.7 416.812 551.26 413.838 565.177C410.368 581.42 405.208 592.49 400.715 593.333C398.528 593.743 397.523 593.287 394.752 590.627C392.105 588.086 390.554 585.725 389.924 583.279C389.183 580.399 388.195 568.456 388.186 562.265C388.175 555.15 388.484 552.658 390.646 542.436C392.577 533.308 392.801 531.591 392.83 525.713L392.856 520.524L391.241 517.244C390.353 515.441 389.326 512.858 388.96 511.505C388.168 508.579 387.712 507.626 386.011 505.339C384.718 503.602 379.204 497.365 378.316 496.636C378.032 496.403 376.925 496.244 375.592 496.244C372.179 496.244 371.699 496.676 368.967 502.203C363.399 513.467 362.265 518.057 361.645 531.842C361.102 543.892 360.765 548.039 360.152 550.19C359.399 552.831 352.3 568.806 348.65 576.074C344.937 583.466 338.015 595.353 336.313 597.257C333.592 600.303 328.203 602.971 324.784 602.964C319.455 602.955 310.747 596.783 306.049 589.686C302.228 583.914 301.34 580.2 301.33 569.949C301.323 561.998 301.806 559.061 304.689 549.537C309.135 534.851 312.887 525.018 318.964 512.129C321.171 507.446 323.735 501.935 324.66 499.881L326.343 496.148L325.219 494.079C324.601 492.941 323.852 491.171 323.556 490.144C322.841 487.669 321.411 484.884 319.739 482.708C317.711 480.071 313.767 476.595 311.557 475.496C308.256 473.857 306.731 474.55 302.458 479.635C294.086 489.597 284.601 494.326 270.38 495.63C267.841 495.862 261.65 495.942 252.816 495.856C241.299 495.744 238.89 495.642 237.36 495.201C235.005 494.523 233.303 493.644 231.175 492.006C229.208 490.493 227.882 489.971 226.009 489.971C223.924 489.971 221.892 490.842 220.05 492.526C217.877 494.512 217.274 496.148 217.564 499.267C217.797 501.779 217.194 504.428 215.955 506.331C215.154 507.561 215.201 508.278 216.213 510.235C217.337 512.408 221.885 515.42 226.372 516.965C229.057 517.888 230.695 518.978 231.717 520.522C232.595 521.846 237.408 535.419 239.124 541.408C240.77 547.154 241.612 554.966 241.16 560.312C240.795 564.629 239.494 572.131 238.529 575.482C237.478 579.132 234.832 584.606 232.409 588.145C230.048 591.592 225.853 595.979 224.052 596.885C221.336 598.251 218.851 597.637 215.203 594.697C213.011 592.93 211.06 591.918 209.847 591.918C208.374 591.918 206.451 593.064 205.384 594.577C203.183 597.701 202.875 599.515 203.883 603.438C204.225 604.771 204.715 607.376 204.973 609.229C205.463 612.768 206.194 614.664 207.548 615.919C207.978 616.318 209.695 617.423 211.363 618.374C213.734 619.727 215.489 620.422 219.413 621.561C222.173 622.363 225.349 623.304 226.47 623.652C227.852 624.081 229.469 624.297 231.488 624.321C237.349 624.391 241.125 622.415 247.711 615.834C253.943 609.606 256.021 606.531 261.445 595.511C267.524 583.16 268.987 577.114 269.343 562.892C269.593 552.909 268.948 549.17 264.764 536.321C263.088 531.175 262.402 528.613 262.085 526.316L261.885 524.868L264.643 524.651C266.159 524.531 269.721 524.249 272.557 524.023C277.072 523.663 277.932 523.671 279.457 524.09C280.416 524.353 281.317 524.671 281.46 524.796C281.604 524.921 280.982 527.828 280.079 531.256C277.704 540.27 276.495 545.724 275.664 551.182C275.015 555.438 274.931 557.113 274.929 565.715C274.927 576.543 275.104 578.051 277.151 584.64C279.65 592.682 283.663 600.47 289.97 609.519C294.832 616.496 297.758 619.468 302.057 621.797C304.67 623.212 306.599 623.787 315.253 625.727C325.522 628.029 329.144 628.6 333.475 628.6C341.781 628.6 347.523 626.185 353.525 620.169C356.766 616.919 359.222 613.65 362.443 608.295C364.924 604.17 368.172 599.659 368.551 599.814C368.669 599.862 370.13 601.477 371.799 603.401C375.141 607.257 378.2 609.776 381.598 611.472C384.083 612.712 391.526 615.041 400.069 617.252C405.259 618.594 406.02 618.713 409.495 618.716C413.23 618.72 413.302 618.706 415.611 617.557C418.577 616.079 422.429 612.786 425.125 609.423C431.981 600.873 437.53 581.52 440.851 554.581C441.994 545.312 442.241 544.282 443.487 543.615C444.19 543.239 444.072 542.956 445.191 547.688C446.179 551.869 451.332 570.556 452.763 575.146C454.362 580.277 455.691 581.81 460.759 584.37C463.787 585.9 466.737 586.805 470.582 587.383C475.905 588.184 477.984 587.255 479.065 583.592C479.37 582.56 481.89 550.796 482.872 535.606C483.433 526.933 483.695 524.522 484.784 518.042C486.476 507.97 488.514 499.282 490.918 491.894C492.562 486.839 493.228 485.31 494.26 484.219C495.025 483.411 496.509 482.444 496.986 482.444C497.969 482.444 503.502 501.161 510.477 528.078C513.786 540.847 517.116 550.326 521.053 558.183C524.219 564.501 526.558 567.581 529.737 569.621C531.967 571.052 549.421 577.438 552.883 578.09C556.743 578.817 560.452 577.205 564.751 572.932C567.758 569.943 569.654 567.29 571.721 563.181C573.116 560.405 575.926 553.811 576.855 551.131C577.557 549.105 578.744 547.213 579.6 546.755C580.145 546.463 580.443 546.821 582.505 550.25C584.212 553.088 585.528 554.808 587.626 556.943C590.786 560.158 592.67 561.349 596.564 562.594C598.031 563.063 599.796 563.774 600.488 564.174C602.363 565.26 605.647 566.426 609.88 567.509C617.99 569.584 623.805 568.533 630.008 563.87C634.11 560.787 637.459 556.451 640.144 550.75C641.39 548.105 644.894 538.341 647.525 530.184C648.438 527.352 650.392 526.784 650.883 529.207C651.002 529.794 651.325 532.391 651.601 534.978C652.584 544.206 654.324 558.244 654.905 561.638C655.571 565.528 658.064 574.416 659.033 576.355C659.795 577.881 661.903 580.151 663.213 580.857C663.73 581.136 666.482 582.164 669.329 583.141C672.175 584.118 675.351 585.234 676.386 585.621C680.802 587.274 684.98 586.255 688.392 582.694C693.681 577.174 695.286 573.952 700.995 557.404C703.971 548.778 704.878 546.781 706.221 545.901C706.991 545.396 707.038 545.408 707.781 546.295C708.202 546.799 709.208 548.128 710.016 549.249C716.623 558.415 723.961 564.687 733.822 569.598C744.727 575.029 753.449 576.966 762.174 575.896C767.721 575.216 774.008 573.039 778.025 570.409C780.788 568.599 784.075 565.161 786.295 561.755C787.73 559.556 788.606 558.545 789.521 558.03C790.939 557.233 790.936 557.231 792.017 559.561C792.873 561.407 793.088 565.271 793.546 587.043C793.904 604.037 793.859 611.064 793.202 641.459C792.359 680.473 790.075 715.199 786.941 736.648C786.613 738.891 785.841 744.748 785.225 749.664C781.875 776.42 775.291 803.231 766.769 824.826C760.041 841.873 756.368 848.884 746.088 864.3C737.67 876.922 733.447 882.179 725.426 890.018C714.675 900.525 705.389 907.535 692.068 915.201C684.174 919.744 672.992 925.02 666.349 927.335C664.448 927.999 663.574 928.503 662.742 929.416C661.428 930.861 659.821 931.575 657.886 931.575C656.254 931.575 648.956 932.689 647.5 933.16C646.966 933.333 645.868 933.894 645.059 934.407C643.777 935.219 643.297 935.339 641.319 935.339C638.894 935.339 636.829 935.824 630.437 937.896C627.086 938.983 625.903 939.21 622.283 939.457C619.954 939.616 616.426 939.917 614.442 940.125C612.458 940.333 608.577 940.51 605.817 940.518C601.59 940.531 600.41 940.645 598.339 941.237C595.154 942.146 594.345 942.585 593.287 943.971L592.417 945.112L591.572 944.303C590.533 943.307 588.963 943.235 587.626 944.121C586.412 944.924 586.36 944.916 585.916 943.845C585.598 943.077 585.322 942.916 584.075 942.77C583.268 942.676 581.267 942.305 579.628 941.945C576.23 941.2 574.816 941.301 572.755 942.433C571.391 943.182 571.361 943.184 570.716 942.596C568.861 940.903 566.194 940.374 562.513 940.968C560.438 941.302 560.065 941.289 559.594 940.862C558.347 939.734 556.436 939.394 551.724 939.459C547.054 939.524 545.755 939.31 543.742 938.147C541.736 936.987 537.089 935.633 531.406 934.551C514.285 931.292 514.922 931.456 509.001 928.77C505.801 927.319 501.058 925.506 497.454 924.358C494.091 923.286 489.786 921.7 487.888 920.834C485.991 919.968 481.549 918.069 478.017 916.615C474.485 915.16 470.251 913.26 468.608 912.391C466.965 911.522 460.885 908.376 455.098 905.4C441.418 898.363 440.799 898.004 430.649 891.21C410.087 877.446 406.103 874.554 403.488 871.492C402.717 870.59 400.997 869.099 399.666 868.18C395.368 865.211 390.729 861.539 388.83 859.603C386.312 857.034 369.585 838.359 366.49 834.661C361.331 828.496 359.561 825.537 355.515 816.313C350.368 804.579 348.633 799.638 347.252 792.79C343.859 775.963 347.832 758.026 357.97 744.397C369.891 728.373 387.807 717.494 416.692 708.739C433.339 703.694 452.416 699.994 481.302 696.209C497.005 694.152 510.739 692.81 526.466 691.795C536.152 691.17 543.018 690.496 545.679 689.91C547.867 689.428 551.91 689.167 570.062 688.335C579.773 687.89 602.006 686.59 607.385 686.152C613.12 685.685 617.124 685.25 624.792 684.26C634.96 682.948 636.605 682.787 651.765 681.618C665.67 680.546 672.161 679.562 674.125 678.23C674.78 677.786 675.381 677.317 675.46 677.188C675.54 677.059 674.979 676.715 674.214 676.422C672.677 675.835 671.678 675.86 642.042 677.224C634.711 677.561 622.785 677.974 615.54 678.141C600.253 678.495 594.586 678.7 588.723 679.113C586.395 679.277 578.42 679.552 571.003 679.725C563.585 679.897 554.694 680.196 551.244 680.389C547.793 680.582 536.22 680.772 525.525 680.812C500.145 680.906 490.625 681.386 484.282 682.89C482.12 683.402 479.837 683.575 472.206 683.802C463.011 684.076 460.738 684.299 457.389 685.256C456.484 685.514 455.473 685.639 455.141 685.534C454.365 685.288 452.918 684.152 452.918 683.79C452.918 683.329 454.897 682.932 462.954 681.782C484.455 678.71 505.505 677.12 544.03 675.655C553 675.314 561.186 674.963 562.221 674.875C565.35 674.609 570.846 673.671 570.846 673.404C570.846 673.266 570.409 672.927 569.876 672.651C568.993 672.194 568.634 672.192 565.877 672.631C562.055 673.238 540.862 673.915 539.684 673.467C539.215 673.289 538.598 672.602 538.202 671.816C537.829 671.076 537.486 670.428 537.442 670.377C537.397 670.325 535.967 670.995 534.265 671.866C531.569 673.245 530.747 673.507 527.877 673.901C523.658 674.48 515.64 675.053 510.799 675.122C506.617 675.181 506.314 675.089 504.126 673.092L502.8 671.882H494.952C490.636 671.882 487.104 671.96 487.104 672.055C487.104 672.446 489.374 673.137 490.658 673.137C493.701 673.137 496.684 674.12 497.06 675.247C497.232 675.764 494.412 676.213 489.613 676.433C483.674 676.706 479.362 677.108 472.834 677.999C469.729 678.423 464.295 678.99 460.759 679.258C453.406 679.815 449.444 680.293 441.47 681.582C438.365 682.084 433.455 682.878 430.56 683.347C426.711 683.971 425.109 684.115 424.601 683.884C423.974 683.599 424.074 683.518 425.631 683.049C426.58 682.764 429.332 682.172 431.747 681.732C434.162 681.294 439.775 680.229 444.22 679.366C448.665 678.504 454.522 677.521 457.236 677.182C462.176 676.565 464.798 676.036 466.561 675.303L467.502 674.911L465.73 674.62C464.312 674.387 462.905 674.491 458.674 675.14C455.767 675.585 450.918 676.24 447.899 676.594C412.471 680.752 381.536 690.412 362.308 703.322C354.137 708.808 343.994 718.058 339.346 724.263C334.377 730.897 328.406 743.563 326.231 752.081C324.852 757.48 324.575 760.394 324.611 769.105C324.667 782.64 325.554 789.794 328.246 798.435C332.534 812.201 335.587 818.712 341.996 827.761C343.768 830.262 346.974 834.829 349.121 837.911C354.398 845.485 356.305 847.818 364.88 857.192C377.612 871.108 381.986 875.04 400.179 888.92C409.837 896.289 414.503 899.572 421.554 903.959C425.09 906.16 430.387 909.515 433.325 911.415C440.843 916.278 443.65 917.861 454.329 923.264C472.235 932.322 485.606 937.696 501.061 942.044C507.371 943.819 535.442 951.179 539.639 952.158C546.996 953.874 555.192 955.024 574.139 956.997C584.186 958.043 586.137 958.044 589.135 957.005C592.239 955.929 594.285 955.72 604.763 955.41C610.345 955.244 615.83 954.96 616.951 954.778C619.269 954.402 627.916 951.968 634.201 949.924C636.769 949.089 640.291 948.24 643.149 947.767C645.742 947.339 652.251 945.92 657.613 944.613C662.976 943.307 668.027 942.147 668.838 942.036C669.9 941.891 670.718 941.498 671.77 940.629C673.611 939.107 676.593 937.638 681.457 935.855C683.557 935.086 688.285 932.905 691.964 931.009C698.45 927.667 700.43 926.823 704.224 925.78C705.877 925.325 706.085 925.167 706.676 923.909C707.297 922.589 708.19 921.814 710.753 920.373C711.369 920.026 716.097 916.381 721.26 912.273C740.73 896.776 742.706 894.906 747.876 887.086C754.687 876.782 767.481 855.498 768.548 852.695C768.811 852.005 769.325 850.241 769.692 848.775C770.059 847.308 771.261 844.203 772.365 841.874C773.468 839.546 775.583 834.326 777.063 830.276C778.544 826.226 780.722 820.721 781.903 818.044C783.083 815.367 784.702 811.375 785.499 809.174C787.326 804.131 793.209 784.762 794.619 779.147C797.349 768.276 800.096 753.106 801.52 741.039C801.968 737.244 802.68 732.163 803.102 729.748C803.916 725.088 804.829 714.2 806.377 690.7C807.435 674.657 807.363 675.521 808.425 665.923C809.059 660.193 809.293 655.592 809.671 641.459C810.664 604.302 811.352 569.744 811.729 538.115C812.024 513.423 812.188 509.047 813.152 500.008C813.674 495.113 816.713 471.805 818.478 459.151C819.074 454.879 819.562 450.185 819.562 448.72C819.562 445.491 818.894 440.858 817.796 436.476C817.103 433.712 816.763 432.942 815.56 431.406C814.779 430.41 813.525 428.653 812.773 427.5C811.14 424.999 810.233 424.229 808.591 423.951C807.157 423.709 805.941 424.197 805.083 425.361C804.765 425.793 803.896 427.854 803.151 429.942C801.608 434.27 800.498 436.338 799.237 437.236C797.429 438.523 796.757 440.444 795.585 447.666C793.507 460.471 793.198 464.286 792.423 486.678C791.93 500.904 791.719 503.607 790.834 507.022C790.136 509.717 780.57 533.486 778.752 537.042C775.167 544.06 769.591 550.08 764.145 552.814C759.407 555.193 752.9 555.718 747.645 554.146C742.043 552.47 737.253 549.428 732.038 544.234C723.404 535.634 718.968 525.292 716.164 507.221C715.288 501.569 715.369 489.893 716.324 484.482C718.087 474.49 717.364 467.171 714.15 462.468C713.465 461.466 712.421 459.94 711.83 459.078C711.238 458.215 710.403 456.988 709.973 456.351C708.919 454.788 707.856 454.15 706.012 453.972C703.248 453.707 702.255 454.972 701.003 460.354C700.569 462.22 699.942 463.835 699.126 465.194C695.735 470.833 695.127 473.595 694.741 485.11C694.434 494.273 694.106 496.57 690.644 513.808C687.37 530.107 685.872 535.575 680.419 551.131C677.041 560.768 676.668 561.481 674.992 561.481C674.17 561.481 674.113 561.369 673.443 558.453C672.001 552.176 670.473 533.821 668.865 503.458C667.239 472.74 666.737 458.561 665.876 418.932C665.357 395.058 665.515 387.396 666.539 386.763C666.824 386.587 671.047 385.783 679.836 384.233C681.733 383.898 686.391 383.281 690.186 382.861C693.981 382.442 702.237 381.466 708.534 380.692C714.83 379.919 723.933 378.85 728.763 378.316C744.141 376.618 753.389 375.055 762.211 372.662C765.059 371.889 767.487 371.416 768.601 371.416C771.654 371.416 776.909 370.488 780.357 369.34C784.085 368.1 789.461 365.54 789.436 365.019C789.426 364.828 788.958 363.416 788.394 361.882L787.37 359.091L784.648 359.157L781.927 359.222L781.256 358.085L780.585 356.947L778.667 357.128C777.613 357.227 773.433 357.523 769.38 357.784C758.044 358.516 751.773 359.087 738.486 360.599C731.759 361.365 722.373 362.354 717.629 362.796C712.885 363.238 706.746 363.94 703.986 364.355C696.632 365.462 694.141 365.741 687.113 366.248C683.628 366.5 679.647 366.911 678.267 367.162C675.296 367.703 669.366 367.788 667.188 367.321L665.643 366.989L665.446 364.263C665.338 362.763 665.235 339.448 665.217 312.451C665.176 249.516 664.916 242.762 662.272 235.738C660.602 231.299 657.111 226.383 653.238 223.012L651.556 221.549L650.27 222.125C648.634 222.858 648.069 223.949 647.668 227.151C647.237 230.591 647.004 231.073 644.718 233.259C643.057 234.849 642.631 235.477 642.161 237.035C641.41 239.522 641.421 244.887 642.203 257.094C642.754 265.7 642.807 270.721 642.816 315.901C642.827 367.599 642.813 368.147 641.494 369.63C640.138 371.154 638.311 371.43 616.258 373.453C607.755 374.233 597.482 375.217 593.428 375.64C589.374 376.062 583.446 376.558 580.255 376.741C566.342 377.54 563.529 377.731 559.084 378.18C556.497 378.442 552.565 378.931 550.346 379.268C548.128 379.605 541.776 380.236 536.232 380.671C522.037 381.784 517.755 382.244 506.707 383.843C494.738 385.575 489.445 386.149 485.379 386.153C483.268 386.156 480.595 386.46 477.197 387.083C465.989 389.14 459.932 389.811 448.835 390.225C441.663 390.492 437.592 390.914 433.65 391.797C432.932 391.958 430.447 392.239 428.126 392.422C422.816 392.839 419.621 393.425 415.006 394.826C412.154 395.693 410.473 395.997 407.283 396.223C405.041 396.382 400.736 396.793 397.717 397.136C394.698 397.48 390.976 397.761 389.445 397.761C387.914 397.761 380.363 398.535 372.665 399.48C358.203 401.256 348.595 402.281 328.403 404.201C316.887 405.296 312.8 405.726 280.886 409.207C255.535 411.971 242.22 413.321 222.079 415.168C183.85 418.675 166.615 420.345 162.017 420.99C155.393 421.919 155.027 421.713 154.187 416.577C152.837 408.336 151.913 347.483 152.769 323.272C152.922 318.959 153.192 309.715 153.37 302.729C153.547 295.742 153.842 288.756 154.025 287.203C154.207 285.651 154.634 277.112 154.974 268.228C155.314 259.344 155.796 247.559 156.046 242.039C156.756 226.32 157.27 206.171 157.055 202.454C156.947 200.593 156.622 198.153 156.332 197.032C155.941 195.517 155.793 193.464 155.756 189.034C155.711 183.712 155.63 182.857 154.991 181.036C153.863 177.824 152.436 175.394 150.569 173.511C148.79 171.716 143.027 167.225 142.535 167.25C142.383 167.258 140.296 169.082 137.899 171.302ZM774.678 358.695C774.602 358.771 772.073 359.057 769.058 359.33C766.044 359.604 762.448 360.046 761.068 360.314C758.229 360.864 755.103 362.007 755.148 362.477C755.165 362.649 755.988 363.208 756.978 363.718C759.275 364.903 761.706 365.08 766.191 364.391C768.031 364.108 770.37 363.844 771.388 363.804C773.22 363.732 773.244 363.719 773.64 362.571C773.861 361.932 774.403 360.876 774.847 360.224C775.29 359.572 775.652 358.93 775.652 358.797C775.652 358.541 774.91 358.463 774.678 358.695ZM730.332 364.854C728.779 365.188 723.802 366.166 719.271 367.027C712.415 368.33 710.435 368.593 707.471 368.593C703.716 368.593 699.137 369.485 696.889 370.656L695.831 371.206L696.821 371.613C697.648 371.954 699.226 371.92 706.387 371.407C717.286 370.626 724.157 369.972 729.704 369.187C734.339 368.532 742.689 366.934 743.981 366.457L744.745 366.174L743.749 365.658C740.758 364.112 735.297 363.784 730.332 364.854ZM686.5 371.954C685.561 372.096 685.289 372.986 686.187 372.98C687.613 372.971 689.088 372.553 689.088 372.159C689.088 371.731 688.355 371.673 686.5 371.954ZM669.048 372.922C668.582 373.793 669.707 374.405 670.389 373.652C670.774 373.226 670.803 373.015 670.516 372.728C669.981 372.193 669.397 372.27 669.048 372.922ZM76.6856 625.185C76.4153 625.622 77.2317 626.162 77.6027 625.791C77.9041 625.49 77.6137 624.836 77.1777 624.836C77.0256 624.836 76.8042 624.993 76.6856 625.185ZM93.2204 627.957C93.2894 628.164 93.4481 628.322 93.5732 628.31C93.9483 628.271 93.8756 627.841 93.4713 627.706C93.2643 627.637 93.1514 627.75 93.2204 627.957ZM478.714 673.363C478.068 673.444 477.695 673.664 477.695 673.965C477.695 674.325 477.924 674.397 478.636 674.259C479.154 674.159 480 673.996 480.518 673.896C481.035 673.796 481.459 673.584 481.459 673.425C481.459 673.138 480.67 673.121 478.714 673.363ZM417.787 685.061C417.463 685.665 417.501 685.722 418.158 685.629C418.559 685.572 418.888 685.325 418.888 685.081C418.888 684.352 418.173 684.339 417.787 685.061ZM447.664 684.686C447.064 685.067 447.913 686.091 448.608 685.825C449.025 685.665 449.072 685.488 448.824 685.023C448.475 684.372 448.258 684.309 447.664 684.686ZM410.266 686.149C409.922 686.563 409.952 686.714 410.451 687.089C410.973 687.48 411.096 687.47 411.443 687.013C412.207 686.007 411.074 685.175 410.266 686.149ZM172.838 893.468C172.838 894.984 172.914 895.193 173.465 895.193C173.965 895.193 174.091 894.985 174.088 894.174C174.082 892.684 173.766 891.743 173.271 891.743C172.955 891.743 172.838 892.209 172.838 893.468ZM174.092 904.231C174.092 904.932 174.305 908.031 174.565 911.117C174.849 914.485 175.09 922.048 175.167 930.033C175.314 945.084 175.444 946.944 176.352 946.944C177.387 946.944 178.131 946.35 178.42 945.293C178.578 944.714 178.586 941.787 178.438 938.475C178.154 932.14 176.716 910.414 176.414 907.896C176.197 906.086 175.368 904.01 174.614 903.388C174.142 902.999 174.092 903.08 174.092 904.231ZM177.373 953.55C176.792 955.33 177.38 958.88 178.173 958.389C178.983 957.889 178.899 954.533 178.049 953.369C177.642 952.813 177.61 952.821 177.373 953.55ZM176.397 964.99C176.215 965.462 177.075 966.703 177.584 966.703C177.725 966.703 178.081 966.338 178.373 965.892C178.825 965.202 178.838 965.039 178.458 964.799C177.755 964.354 176.599 964.461 176.397 964.99ZM181.648 1012.02C181.677 1013.13 183.419 1020.94 183.597 1020.76C184.085 1020.27 183.806 1015.48 183.215 1014.22C182.571 1012.84 181.635 1011.53 181.648 1012.02Z" fill="white"/>
</g>
<defs>
<clipPath id="clip0_1153_257">
<rect width="819.539" height="1052.26" fill="white" transform="translate(0.335938 0.379883)"/>
</clipPath>
</defs>
</svg>
