<svg width="390" height="163" viewBox="0 0 390 163" fill="none" xmlns="http://www.w3.org/2000/svg">
<g filter="url(#filter0_d_811_1280)">
<rect width="390" height="160" transform="translate(0 0.5)" fill="white"/>
<path d="M65.8436 39.7555C65.8436 37.8926 65.5297 36.6472 64.9017 36.0193C64.2948 35.3705 63.1436 35.046 61.4482 35.046H60.5063V51.3721H62.704V52H53.5991V51.3721H55.7968V35.046H54.855C53.1805 35.046 52.0293 35.3705 51.4014 36.0193C50.7944 36.6472 50.4909 37.8926 50.4909 39.7555H49.863V34.4181H66.4716V39.7555H65.8436ZM103.844 35.046V43.1463C105.937 43.1463 107.339 42.8428 108.051 42.2358C108.762 41.6288 109.118 40.6136 109.118 39.1903C109.118 37.767 108.752 36.7205 108.019 36.0507C107.287 35.3809 105.895 35.046 103.844 35.046ZM116.182 52.314H114.801C112.185 52.314 110.364 51.7488 109.338 50.6186C108.522 49.7395 107.967 48.5778 107.674 47.1336C107.548 46.5266 107.412 45.9719 107.266 45.4696C106.931 44.3393 106.251 43.7742 105.225 43.7742H103.844V51.3721H105.413V52H97.5644V51.3721H99.1342V35.046H97.5644V34.4181H105.822C111.159 34.4181 113.828 35.9775 113.828 39.0961C113.828 40.3311 113.378 41.3357 112.478 42.1102C111.578 42.8846 110.426 43.2718 109.024 43.2718V43.4916C111.117 43.4916 112.572 44.8731 113.388 47.6359C113.807 49.1011 114.225 50.1476 114.644 50.7755C115.083 51.3825 115.596 51.686 116.182 51.686V52.314ZM155.108 52H147.259V51.3721H148.829V35.046H147.259V34.4181H155.108V35.046H153.538V51.3721H155.108V52ZM189.018 51.3721H191.53V52H186.506V51.3721H188.39V36.4275C187.72 35.5065 187.093 35.046 186.506 35.046V34.4181H192.378L201.2 44.8731V35.046H198.688V34.4181H204.026V35.046H201.828V52.314H201.2L189.018 37.2124V51.3721ZM243.26 52H235.411V51.3721H236.981V35.046H235.411V34.4181H243.26V35.046H241.69V51.3721H243.26V52ZM290.639 39.7555C290.639 37.8926 290.325 36.6472 289.698 36.0193C289.091 35.3705 287.939 35.046 286.244 35.046H285.302V51.3721H287.5V52H278.395V51.3721H280.593V35.046H279.651C277.976 35.046 276.825 35.3705 276.197 36.0193C275.59 36.6472 275.287 37.8926 275.287 39.7555H274.659V34.4181H291.267V39.7555H290.639ZM334.95 52H327.729V51.3721H328.985V44.7475L323.365 35.046H321.732V34.4181H330.523V35.046H328.985L333.38 42.9579L337.462 35.046H334.95V34.4181H340.444V35.046H338.247L333.694 43.8998V51.3721H334.95V52ZM72.034 84.4257H72.9365V93H51.7265V92.0974H53.9829V68.631H51.7265V67.7285H63.4597V68.631H60.752V92.0974H65.2648C66.2877 92.0974 67.1301 92.0222 67.7919 91.8718C68.4839 91.7214 69.1909 91.4055 69.9129 90.9241C71.3269 89.9915 72.034 87.8254 72.034 84.4257ZM95.5244 80.3191C95.5244 76.4682 94.9979 73.4747 93.9449 71.3387C92.922 69.1726 91.4929 68.0895 89.6577 68.0895C87.8526 68.0895 86.4236 69.1726 85.3706 71.3387C84.3176 73.5048 83.7911 76.5284 83.7911 80.4094C83.7911 84.2903 84.2875 87.2838 85.2804 89.3898C86.3032 91.4957 87.7624 92.5487 89.6577 92.5487C93.5688 92.5487 95.5244 88.4722 95.5244 80.3191ZM102.79 80.5899C102.79 84.7115 101.571 87.8855 99.1346 90.1118C96.6977 92.3381 93.5237 93.4513 89.6126 93.4513C85.7015 93.4513 82.5426 92.3532 80.1358 90.157C77.729 87.9306 76.5256 84.7567 76.5256 80.635C76.5256 76.4832 77.729 73.204 80.1358 70.7971C82.5426 68.3903 85.7316 67.1869 89.7029 67.1869C93.7042 67.1869 96.8782 68.3903 99.2248 70.7971C101.602 73.1739 102.79 76.4381 102.79 80.5899ZM109.562 93H108.66V82.4852H109.562C109.562 85.3132 110.57 87.7201 112.586 89.7057C114.632 91.6913 117.114 92.6841 120.032 92.6841C121.235 92.6841 122.198 92.3381 122.92 91.6462C123.672 90.9241 124.048 89.9764 124.048 88.8031C124.048 87.4794 123.191 86.3512 121.476 85.4185C120.543 84.9372 118.934 84.185 116.647 83.1622C114.361 82.1092 112.751 81.2217 111.819 80.4996C109.953 79.0555 109.126 77.1451 109.337 74.7684C109.577 72.3917 110.48 70.5565 112.044 69.2628C113.609 67.9391 115.369 67.2772 117.324 67.2772C119.31 67.2772 121.085 67.548 122.649 68.0895C124.244 68.6009 125.146 68.8567 125.357 68.8567C125.959 68.8567 126.26 68.3302 126.26 67.2772H127.162V75.5356H126.26C126.26 73.3694 125.462 71.6094 123.868 70.2556C122.273 68.8717 120.227 68.1797 117.73 68.1797C116.617 68.1797 115.745 68.5107 115.113 69.1726C114.481 69.8043 114.165 70.5113 114.165 71.2936C114.165 72.0758 114.271 72.6775 114.481 73.0987C114.692 73.5199 115.053 73.911 115.564 74.272C116.106 74.6029 116.572 74.8737 116.963 75.0843C117.354 75.2949 117.971 75.5807 118.813 75.9417C119.686 76.3027 120.288 76.5585 120.619 76.7089C122.273 77.461 123.251 77.9123 123.552 78.0627C123.853 78.1831 124.289 78.3937 124.861 78.6945C125.432 78.9954 125.853 79.2661 126.124 79.5068C126.425 79.7475 126.801 80.0483 127.252 80.4094C127.704 80.7704 128.035 81.1464 128.245 81.5376C128.456 81.8986 128.666 82.3198 128.877 82.8011C129.298 83.7639 129.449 84.892 129.328 86.1857C129.088 88.6226 128.17 90.4879 126.575 91.7816C125.011 93.0451 122.89 93.6769 120.212 93.6769C117.806 93.6769 115.414 93.0602 113.037 91.8267C112.225 91.4055 111.623 91.1949 111.232 91.1949C110.119 91.1949 109.562 91.7966 109.562 93ZM173.89 92.0974V93H162.021V92.0974H164.684L161.66 85.8247H152.545L149.927 92.0974H153.492V93H145.776V92.0974H148.799L159.133 67.2772H160.262L171.724 92.0974H173.89ZM152.951 84.877H161.209L156.787 75.6709L152.951 84.877ZM181.091 92.0974H184.702V93H177.481V92.0974H180.189V70.6166C179.226 69.2929 178.324 68.631 177.481 68.631V67.7285H185.92L198.601 82.756V68.631H194.991V67.7285H202.663V68.631H199.504V93.4513H198.601L181.091 71.7448V92.0974ZM229.363 93C229.363 92.308 229.167 91.7364 228.776 91.2851C228.385 90.8038 227.873 90.5631 227.242 90.5631C226.64 90.5631 226.008 90.8188 225.346 91.3303C224.715 91.8417 223.962 92.3682 223.09 92.9097C222.248 93.4212 221.225 93.6769 220.021 93.6769C215.93 93.6769 212.756 92.6239 210.499 90.518C208.273 88.412 207.16 85.1779 207.16 80.8155C207.16 71.6997 211.417 67.1418 219.931 67.1418C221.465 67.1418 223.03 67.5179 224.624 68.27C226.249 69.0221 227.242 69.3982 227.603 69.3982C227.964 69.3982 228.265 69.2177 228.505 68.8567C228.746 68.4655 228.866 68.0895 228.866 67.7285H229.724V76.8894H228.821C228.821 74.6029 227.919 72.5571 226.113 70.752C224.338 68.9469 222.278 68.0444 219.931 68.0444C218.126 68.0444 216.757 69.0221 215.824 70.9777C214.892 72.9031 214.425 76.1072 214.425 80.5899C214.425 85.0425 214.892 88.1864 215.824 90.0216C216.787 91.8568 218.186 92.7744 220.021 92.7744C222.909 92.7744 224.353 90.2021 224.353 85.0575V81.7181H221.51V80.8155H232.341V81.7181H230.22V93H229.363ZM250.861 92.0974C255.374 92.0974 257.631 89.5402 257.631 84.4257H258.533V93H237.323V92.0974H239.58V68.631H237.323V67.7285H258.082V75.4002H257.179C257.179 72.7226 256.638 70.9325 255.555 70.03C254.502 69.0973 252.787 68.631 250.41 68.631H246.349V79.4617H248.154C250.32 79.4617 251.689 79.1909 252.26 78.6494C252.832 78.1078 253.118 77.0248 253.118 75.4002H254.02V84.4257H253.118C253.118 82.741 252.832 81.6429 252.26 81.1314C251.689 80.62 250.32 80.3642 248.154 80.3642H246.349V92.0974H250.861ZM284.478 84.4257H285.381V93H264.171V92.0974H266.427V68.631H264.171V67.7285H275.904V68.631H273.196V92.0974H277.709C278.732 92.0974 279.574 92.0222 280.236 91.8718C280.928 91.7214 281.635 91.4055 282.357 90.9241C283.771 89.9915 284.478 87.8254 284.478 84.4257ZM303.411 92.0974C307.923 92.0974 310.18 89.5402 310.18 84.4257H311.082V93H289.872V92.0974H292.129V68.631H289.872V67.7285H310.631V75.4002H309.728C309.728 72.7226 309.187 70.9325 308.104 70.03C307.051 69.0973 305.336 68.631 302.959 68.631H298.898V79.4617H300.703C302.869 79.4617 304.238 79.1909 304.81 78.6494C305.381 78.1078 305.667 77.0248 305.667 75.4002H306.57V84.4257H305.667C305.667 82.741 305.381 81.6429 304.81 81.1314C304.238 80.62 302.869 80.3642 300.703 80.3642H298.898V92.0974H303.411ZM318.525 93H317.622V82.4852H318.525C318.525 85.3132 319.533 87.7201 321.548 89.7057C323.594 91.6913 326.076 92.6841 328.994 92.6841C330.198 92.6841 331.161 92.3381 331.883 91.6462C332.635 90.9241 333.011 89.9764 333.011 88.8031C333.011 87.4794 332.153 86.3512 330.439 85.4185C329.506 84.9372 327.896 84.185 325.61 83.1622C323.323 82.1092 321.714 81.2217 320.781 80.4996C318.916 79.0555 318.089 77.1451 318.299 74.7684C318.54 72.3917 319.442 70.5565 321.007 69.2628C322.571 67.9391 324.331 67.2772 326.287 67.2772C328.272 67.2772 330.047 67.548 331.612 68.0895C333.206 68.6009 334.109 68.8567 334.32 68.8567C334.921 68.8567 335.222 68.3302 335.222 67.2772H336.125V75.5356H335.222C335.222 73.3694 334.425 71.6094 332.83 70.2556C331.236 68.8717 329.19 68.1797 326.693 68.1797C325.58 68.1797 324.707 68.5107 324.076 69.1726C323.444 69.8043 323.128 70.5113 323.128 71.2936C323.128 72.0758 323.233 72.6775 323.444 73.0987C323.654 73.5199 324.015 73.911 324.527 74.272C325.068 74.6029 325.535 74.8737 325.926 75.0843C326.317 75.2949 326.934 75.5807 327.776 75.9417C328.649 76.3027 329.25 76.5585 329.581 76.7089C331.236 77.461 332.214 77.9123 332.514 78.0627C332.815 78.1831 333.252 78.3937 333.823 78.6945C334.395 78.9954 334.816 79.2661 335.087 79.5068C335.388 79.7475 335.764 80.0483 336.215 80.4094C336.666 80.7704 336.997 81.1464 337.208 81.5376C337.418 81.8986 337.629 82.3198 337.84 82.8011C338.261 83.7639 338.411 84.892 338.291 86.1857C338.05 88.6226 337.133 90.4879 335.538 91.7816C333.974 93.0451 331.853 93.6769 329.175 93.6769C326.768 93.6769 324.376 93.0602 322 91.8267C321.187 91.4055 320.586 91.1949 320.195 91.1949C319.081 91.1949 318.525 91.7966 318.525 93Z" fill="#134074"/>
<path d="M159.445 125.958L161.923 125.328L160.033 119.784L164.527 116.802H159.025L157.051 110.838L154.783 111.51L153.019 116.802H148.945L147.475 117.222L151.801 120.372L150.079 125.412L152.431 125.328L155.581 122.976L159.445 125.958ZM160.789 124.152L156.841 121.212L152.893 124.152L154.489 119.658L150.835 117.306H155.245L156.841 112.014L158.479 117.306H162.847L159.193 119.658L160.789 124.152Z" fill="#134074"/>
<path d="M198.445 125.958L200.923 125.328L199.033 119.784L203.527 116.802H198.025L196.051 110.838L193.783 111.51L192.019 116.802H187.945L186.475 117.222L190.801 120.372L189.079 125.412L191.431 125.328L194.581 122.976L198.445 125.958ZM199.789 124.152L195.841 121.212L191.893 124.152L193.489 119.658L189.835 117.306H194.245L195.841 112.014L197.479 117.306H201.847L198.193 119.658L199.789 124.152Z" fill="#134074"/>
<path d="M237.445 125.958L239.923 125.328L238.033 119.784L242.527 116.802H237.025L235.051 110.838L232.783 111.51L231.019 116.802H226.945L225.475 117.222L229.801 120.372L228.079 125.412L230.431 125.328L233.581 122.976L237.445 125.958ZM238.789 124.152L234.841 121.212L230.893 124.152L232.489 119.658L228.835 117.306H233.245L234.841 112.014L236.479 117.306H240.847L237.193 119.658L238.789 124.152Z" fill="#134074"/>
</g>
<defs>
<filter id="filter0_d_811_1280" x="-1" y="0.5" width="392" height="162" filterUnits="userSpaceOnUse" color-interpolation-filters="sRGB">
<feFlood flood-opacity="0" result="BackgroundImageFix"/>
<feColorMatrix in="SourceAlpha" type="matrix" values="0 0 0 0 0 0 0 0 0 0 0 0 0 0 0 0 0 0 127 0" result="hardAlpha"/>
<feOffset dy="1"/>
<feGaussianBlur stdDeviation="0.5"/>
<feComposite in2="hardAlpha" operator="out"/>
<feColorMatrix type="matrix" values="0 0 0 0 0.492839 0 0 0 0 0.492839 0 0 0 0 0.492839 0 0 0 0.1 0"/>
<feBlend mode="normal" in2="BackgroundImageFix" result="effect1_dropShadow_811_1280"/>
<feBlend mode="normal" in="SourceGraphic" in2="effect1_dropShadow_811_1280" result="shape"/>
</filter>
</defs>
</svg>
