<svg width="224" height="74" viewBox="0 0 224 74" fill="none" xmlns="http://www.w3.org/2000/svg">
<path d="M15.0953 56.2C11.6286 52.9333 8.26198 51.3 4.99531 51.3C3.46198 51.3 2.32865 51.8667 1.59531 53V51.6C1.59531 51.4 1.86198 50.6333 2.39531 49.3C3.32865 47.3 4.59531 45.8667 6.19531 45V20.8H4.49531C4.02865 21.0667 3.49531 21.2667 2.89531 21.4C2.82865 21.4667 2.52865 21.5667 1.99531 21.7L1.89531 21.9H1.69531L0.595313 22.5V21.8C0.595313 21.5333 0.628646 21.3333 0.695313 21.2V20.9L0.795313 20.7C0.795313 20.4333 0.828646 20.2333 0.895313 20.1V19.4C0.895313 19.2 0.895313 19 0.895313 18.8C0.961979 18.6 1.02865 18.3667 1.09531 18.1V17.5L0.995313 17.2V16.3C0.728646 15.5667 0.595313 14.3667 0.595313 12.7C1.46198 13.1667 2.16198 13.5 2.69531 13.7C3.29531 13.9 3.76198 14.0333 4.09531 14.1C4.22865 14.0333 4.66198 14 5.39531 14H6.19531V9.5L6.09531 9.3V8.2C6.02865 8.13333 5.96198 8.03333 5.89531 7.9C5.82865 7.76666 5.76198 7.63333 5.69531 7.5C5.69531 7.3 5.66198 7.13333 5.59531 7V6.9C5.46198 6.76666 5.39531 6.5 5.39531 6.1L6.09531 5.9L6.19531 6.1H6.69531V6.2C10.4286 6.2 13.962 4.13333 17.2953 -2.14577e-06V1.3L17.1953 1.4C17.1286 1.53333 17.062 1.73333 16.9953 2C16.9953 2.26666 16.9286 2.6 16.7953 2.99999V3.1C16.7953 3.3 16.762 3.46666 16.6953 3.6C16.4286 4.66666 16.2953 5.46666 16.2953 6V14H19.3953L19.5953 14.1C20.662 14.1 21.8286 13.6333 23.0953 12.7V13.8C23.0286 13.9333 22.9953 14.1333 22.9953 14.4C22.7953 14.7333 22.6953 15.5667 22.6953 16.9H22.7953C22.7953 18.3 22.962 20.1667 23.2953 22.5L22.1953 21.9L22.0953 21.8H21.9953C21.262 21.5333 20.4286 21.3333 19.4953 21.2C18.562 21 17.4953 20.8667 16.2953 20.8V43.8C16.762 44.2667 17.2953 44.5 17.8953 44.5L18.1953 44.6C18.3953 44.6667 18.5286 44.7333 18.5953 44.8C18.7953 45 18.9953 45.1 19.1953 45.1C19.262 45.1667 19.3286 45.2333 19.3953 45.3C19.5286 45.3 19.6286 45.3333 19.6953 45.4H19.5953C19.7953 45.5333 20.0286 45.7333 20.2953 46C20.6286 46.2 20.9953 46.4 21.3953 46.6L22.3953 45.6L24.3953 47.9L15.0953 56.2ZM35.3789 10.8C39.5122 13.2667 41.9122 15.0333 42.5789 16.1H42.8789C43.1456 16.1 43.5456 16 44.0789 15.8C45.7456 15.2 48.2122 13.8 51.4789 11.6L52.8789 10.6C56.2789 13.7333 59.4122 15.7 62.2789 16.5C62.0789 17.9 61.2789 19.1333 59.8789 20.2C58.6122 21.2 56.9789 21.8 54.9789 22C54.5122 22.0667 54.0789 22.1 53.6789 22.1C51.4789 22.1 48.9456 21.7 46.0789 20.9C45.4789 20.7667 44.9456 20.7 44.4789 20.7C43.3456 20.7 42.7789 21.1 42.7789 21.9V49.3H47.0789C42.6789 51.9 39.6789 54.3667 38.0789 56.7C36.8789 58.5 36.1789 59.4 35.9789 59.4V59.2L35.8789 59.1C35.8122 58.9 35.7456 58.7 35.6789 58.5C35.4122 57.9 35.0122 57.2333 34.4789 56.5C32.8789 54.3 30.3122 52.1667 26.7789 50.1L26.6789 49.5H30.5789V23.5C29.4456 20.2333 27.7789 18.5333 25.5789 18.4L35.3789 10.8ZM79.0555 58.1C77.9888 58.0333 76.9221 57.8 75.8555 57.4C74.7888 57.0667 73.7888 56.5 72.8555 55.7C70.8555 54.1 69.8555 52.2667 69.8555 50.2V25C68.8555 24.9333 68.0888 24.3333 67.5555 23.2L66.1555 24L64.7555 22L65.0555 21.5L65.1555 21.6L65.3555 21.4L65.5555 21.3C66.2221 20.7 66.9555 20.0333 67.7555 19.3C68.5555 18.5 69.6221 17.5333 70.9555 16.4C71.6888 15.9333 72.5888 15.2 73.6555 14.2L74.0555 13.9C74.2555 13.7 74.4555 13.5 74.6555 13.3V12.1C77.3888 15.9667 79.7888 17.9 81.8555 17.9C82.3221 17.9 83.3888 17.4333 85.0555 16.5V17.7C84.9221 18.1 84.8555 18.5667 84.8555 19.1C84.3221 20.6333 83.6221 21.9 82.7555 22.9C81.8888 23.8333 80.9888 24.5 80.0555 24.9V46.2C80.0555 46.6 80.2221 47.1333 80.5555 47.8C81.1555 49.0667 82.5221 49.7 84.6555 49.7C85.3888 49.7 86.2555 49.5 87.2555 49.1L87.6555 49.8L79.0555 58.1ZM76.3555 11.2H75.5555V11.1H74.5555L74.3555 11C71.8221 11 70.2555 9.96667 69.6555 7.9L68.0555 8.7L66.7555 6.5C67.2888 5.96667 67.8555 5.56667 68.4555 5.3C69.0555 4.96667 69.6221 4.66667 70.1555 4.4L69.9555 4.6C70.1555 4.46666 70.4221 4.26667 70.7555 4C71.1555 3.66667 71.5221 3.36667 71.8555 3.1C72.3221 2.76667 72.8555 2.36667 73.4555 1.9C74.1221 1.43333 74.8221 0.933333 75.5555 0.399999C77.2888 2.93333 79.0888 4.2 80.9555 4.2C81.2888 4.06667 81.5555 4 81.7555 4C82.0221 3.93333 82.3221 3.83333 82.6555 3.7H82.5555L82.7555 3.5H82.8555L82.9555 3.4H83.0555L83.1555 3.3H83.8555V4.2C83.8555 5.13333 83.6221 6.03333 83.1555 6.9C82.7555 7.7 82.1888 8.43333 81.4555 9.1C80.7888 9.7 79.9888 10.2 79.0555 10.6C78.1888 11 77.2888 11.2 76.3555 11.2ZM126.46 18.1C126.66 18.1667 126.76 18.3667 126.76 18.7C126.76 19.2333 126.36 20.2333 125.56 21.7V50.7H129.46C128.793 50.7 125.76 53.8 120.36 60C120.093 58.8667 117.093 55.5667 111.36 50.1H113.66V22.3L109.76 19L104.66 22.9V50.3H108.96C104.56 52.9 101.593 55.3667 100.06 57.7C98.8602 59.4333 98.1935 60.3 98.0602 60.3C97.9935 60.3 97.9602 60.2667 97.9602 60.2L98.0602 60C97.4602 57.3333 94.3602 54.3667 88.7602 51.1L88.5602 50.5H92.4602V24.5C91.5268 20.8333 89.9602 18.9333 87.7602 18.8L96.5602 12.2C100.827 14.6667 103.293 16.4333 103.96 17.5C105.493 17.3667 108.927 15.5333 114.26 12L115.56 11C120.093 14.6 123.727 16.9667 126.46 18.1ZM146.048 58.1C144.981 58.0333 143.914 57.8 142.848 57.4C141.781 57.0667 140.781 56.5 139.848 55.7C137.848 54.1 136.848 52.2667 136.848 50.2V25C135.848 24.9333 135.081 24.3333 134.548 23.2L133.148 24L131.748 22L132.048 21.5L132.148 21.6L132.348 21.4L132.548 21.3C133.214 20.7 133.948 20.0333 134.748 19.3C135.548 18.5 136.614 17.5333 137.948 16.4C138.681 15.9333 139.581 15.2 140.648 14.2L141.048 13.9C141.248 13.7 141.448 13.5 141.648 13.3V12.1C144.381 15.9667 146.781 17.9 148.848 17.9C149.314 17.9 150.381 17.4333 152.048 16.5V17.7C151.914 18.1 151.848 18.5667 151.848 19.1C151.314 20.6333 150.614 21.9 149.748 22.9C148.881 23.8333 147.981 24.5 147.048 24.9V46.2C147.048 46.6 147.214 47.1333 147.548 47.8C148.148 49.0667 149.514 49.7 151.648 49.7C152.381 49.7 153.248 49.5 154.248 49.1L154.648 49.8L146.048 58.1ZM143.348 11.2H142.548V11.1H141.548L141.348 11C138.814 11 137.248 9.96667 136.648 7.9L135.048 8.7L133.748 6.5C134.281 5.96667 134.848 5.56667 135.448 5.3C136.048 4.96667 136.614 4.66667 137.148 4.4L136.948 4.6C137.148 4.46666 137.414 4.26667 137.748 4C138.148 3.66667 138.514 3.36667 138.848 3.1C139.314 2.76667 139.848 2.36667 140.448 1.9C141.114 1.43333 141.814 0.933333 142.548 0.399999C144.281 2.93333 146.081 4.2 147.948 4.2C148.281 4.06667 148.548 4 148.748 4C149.014 3.93333 149.314 3.83333 149.648 3.7H149.548L149.748 3.5H149.848L149.948 3.4H150.048L150.148 3.3H150.848V4.2C150.848 5.13333 150.614 6.03333 150.148 6.9C149.748 7.7 149.181 8.43333 148.448 9.1C147.781 9.7 146.981 10.2 146.048 10.6C145.181 11 144.281 11.2 143.348 11.2ZM171.052 56.2C167.586 52.9333 164.219 51.3 160.952 51.3C159.419 51.3 158.286 51.8667 157.552 53V51.6C157.552 51.4 157.819 50.6333 158.352 49.3C159.286 47.3 160.552 45.8667 162.152 45V20.8H160.452C159.986 21.0667 159.452 21.2667 158.852 21.4C158.786 21.4667 158.486 21.5667 157.952 21.7L157.852 21.9H157.652L156.552 22.5V21.8C156.552 21.5333 156.586 21.3333 156.652 21.2V20.9L156.752 20.7C156.752 20.4333 156.786 20.2333 156.852 20.1V19.4C156.852 19.2 156.852 19 156.852 18.8C156.919 18.6 156.986 18.3667 157.052 18.1V17.5L156.952 17.2V16.3C156.686 15.5667 156.552 14.3667 156.552 12.7C157.419 13.1667 158.119 13.5 158.652 13.7C159.252 13.9 159.719 14.0333 160.052 14.1C160.186 14.0333 160.619 14 161.352 14H162.152V9.5L162.052 9.3V8.2C161.986 8.13333 161.919 8.03333 161.852 7.9C161.786 7.76666 161.719 7.63333 161.652 7.5C161.652 7.3 161.619 7.13333 161.552 7V6.9C161.419 6.76666 161.352 6.5 161.352 6.1L162.052 5.9L162.152 6.1H162.652V6.2C166.386 6.2 169.919 4.13333 173.252 -2.14577e-06V1.3L173.152 1.4C173.086 1.53333 173.019 1.73333 172.952 2C172.952 2.26666 172.886 2.6 172.752 2.99999V3.1C172.752 3.3 172.719 3.46666 172.652 3.6C172.386 4.66666 172.252 5.46666 172.252 6V14H175.352L175.552 14.1C176.619 14.1 177.786 13.6333 179.052 12.7V13.8C178.986 13.9333 178.952 14.1333 178.952 14.4C178.752 14.7333 178.652 15.5667 178.652 16.9H178.752C178.752 18.3 178.919 20.1667 179.252 22.5L178.152 21.9L178.052 21.8H177.952C177.219 21.5333 176.386 21.3333 175.452 21.2C174.519 21 173.452 20.8667 172.252 20.8V43.8C172.719 44.2667 173.252 44.5 173.852 44.5L174.152 44.6C174.352 44.6667 174.486 44.7333 174.552 44.8C174.752 45 174.952 45.1 175.152 45.1C175.219 45.1667 175.286 45.2333 175.352 45.3C175.486 45.3 175.586 45.3333 175.652 45.4H175.552C175.752 45.5333 175.986 45.7333 176.252 46C176.586 46.2 176.952 46.4 177.352 46.6L178.352 45.6L180.352 47.9L171.052 56.2ZM223.036 17.5V18L222.936 18.1C222.936 18.5667 222.769 19.1 222.436 19.7C222.169 20.2333 221.836 20.7667 221.436 21.3C221.036 21.8333 220.569 22.3333 220.036 22.8C219.503 23.2 219.003 23.5 218.536 23.7V50.4C218.536 53.8667 215.636 56.2667 209.836 57.6C209.036 57.7333 208.269 57.8333 207.536 57.9C206.869 58.0333 206.269 58.1 205.736 58.1H205.136C205.069 58.1 204.769 58.1333 204.236 58.2C197.169 58.7333 193.636 60.3333 193.636 63C193.636 64 194.269 64.5 195.536 64.5C196.136 64.5 198.169 63.5333 201.636 61.6C204.969 59.7333 207.969 58.8 210.636 58.8C212.969 58.8 214.969 59.5333 216.636 61C218.303 62.4667 219.136 64.3 219.136 66.5C219.136 68.4333 218.403 70.0333 216.936 71.3C215.536 72.5667 213.803 73.2 211.736 73.2C209.869 73.2 208.669 72.9333 208.136 72.4V69C209.203 69.6 210.236 69.9 211.236 69.9H211.336L211.536 69.8H211.836C212.236 69.8 212.703 69.6333 213.236 69.3C213.769 68.9667 214.036 68.6 214.036 68.2C214.036 67.5333 213.603 67.2 212.736 67.2L212.536 67.1H212.436C210.903 67.1 208.836 67.9 206.236 69.5C204.703 70.5 203.369 71.2667 202.236 71.8C201.169 72.3333 200.336 72.6667 199.736 72.8C199.403 72.8667 199.003 72.9 198.536 72.9C198.069 72.9667 197.469 73 196.736 73C195.603 73 194.503 72.7667 193.436 72.3C192.369 71.9 191.436 71.3333 190.636 70.6C189.836 69.8667 189.169 69 188.636 68C188.169 67.0667 187.936 66.0333 187.936 64.9V64.4H188.036C188.169 61 189.869 58.5 193.136 56.9C191.803 56.3 190.603 55.4667 189.536 54.4C187.936 52.9333 187.136 51.4333 187.136 49.9V23.8C187.136 22.2667 185.536 21.3333 182.336 21V20.3L193.036 11.9C193.503 12.1667 194.003 12.5333 194.536 13C195.069 13.4667 195.569 14 196.036 14.6C197.169 16.1333 197.736 17.2667 197.736 18L197.836 18.2V18.8L197.936 18.9V22.8L212.936 12.7C215.003 15.5 217.269 16.9 219.736 16.9H219.936L220.036 16.8C221.169 16.8 222.203 16.4333 223.136 15.7V17.3L223.036 17.5ZM207.536 52V24.7C207.269 24.6333 207.003 24.5333 206.736 24.4C206.469 24.2667 206.169 24.1333 205.836 24L204.136 23.2L198.036 27.4V51.4C198.036 52.7333 199.203 53.6333 201.536 54.1H201.936C202.003 54.1 202.069 54.1 202.136 54.1C202.203 54.1667 202.303 54.2 202.436 54.2C202.503 54.2 202.536 54.2 202.536 54.2C202.603 54.2667 202.669 54.3 202.736 54.3H203.336L203.536 54.2C204.469 54.2 205.369 54.0333 206.236 53.7C207.103 53.3 207.536 52.7333 207.536 52Z" fill="#C5E3FE"/>
</svg>
