<svg width="976" height="546" viewBox="0 0 976 546" fill="none" xmlns="http://www.w3.org/2000/svg">
<path fill-rule="evenodd" clip-rule="evenodd" d="M215.999 1.05834C160.268 7.84734 113.406 30.6773 73.4582 70.5003C66.2862 77.6503 57.3592 87.3253 53.6222 92.0003C20.5752 133.339 3.01721 179.555 1.29021 229.75C0.71721 246.393 0.765211 247 2.64821 247C3.72121 247 5.04921 246.55 5.59921 246C6.26121 245.338 87.4202 245.085 246.013 245.25L485.427 245.5L485.712 254C486.968 291.41 495.667 325.264 512.18 357C535.89 402.57 576.427 442.337 622.058 464.791C652.287 479.665 678.007 486.534 712.999 489.076C756.936 492.267 807.469 482.331 840.499 464.006C843.249 462.48 848.148 459.802 851.386 458.054C880.559 442.305 916.625 408.186 936.535 377.5C957.036 345.904 968.788 312.393 973.532 272.006C975.541 254.902 975.501 243.13 973.432 242.336C972.57 242.005 971.355 242.244 970.732 242.867C969.894 243.705 907.072 244 729.799 244H489.999V236.674C489.999 219.126 485.57 190.592 480.079 172.766C468.262 134.399 450.238 104.541 420.546 74.1433C398.21 51.2753 378.23 36.6043 351.636 23.5423C330.463 13.1433 309.269 6.48134 284.499 2.44134C272.761 0.526342 227.813 -0.380661 215.999 1.05834ZM214.499 6.16534C200.177 7.78134 181.803 11.9703 166.674 17.0663C152.155 21.9583 125.999 34.1003 125.999 35.9493C125.999 36.4633 152.083 82.0553 183.963 137.265C234.83 225.357 248.605 249.718 241.207 238.5C240.119 236.85 213.683 191.175 182.46 137C151.237 82.8253 125.315 38.0773 124.856 37.5613C123.653 36.2083 103.524 50.0703 90.4772 61.2383C77.6262 72.2373 64.5402 85.8743 54.7202 98.5003C46.8922 108.564 36.4682 123.847 37.0922 124.344C37.3162 124.522 47.3992 130.318 59.4992 137.224C71.5992 144.129 112.999 167.897 151.499 190.041C189.999 212.184 226.095 232.926 231.712 236.133C237.33 239.341 242.505 241.743 243.212 241.472C244.251 241.073 244.499 218.255 244.499 122.989V5.00034L233.499 5.13134C227.449 5.20334 218.899 5.66834 214.499 6.16534ZM246.029 123.75C246.052 213.655 246.339 242.014 247.208 240.5C254.316 228.122 328.277 99.8223 344.263 72.1403C360.972 43.2073 364.979 35.5813 363.88 34.8083C363.12 34.2733 356.649 30.9783 349.499 27.4863C321.032 13.5813 285.177 5.00034 255.538 5.00034H245.999L246.029 123.75ZM166.999 33.1683C166.999 34.0863 166.768 35.4363 166.485 36.1683C166.075 37.2333 167.863 37.4363 175.388 37.1843L184.805 36.8673L185.958 42.1843C188.929 55.8803 188.132 91.9513 184.81 94.1903C184.089 94.6763 179.561 94.9453 174.748 94.7873L165.998 94.5003V97.2503L165.999 100H201.886H237.772L238.212 97.0003L238.653 94.0003H228.861C219.732 94.0003 218.987 93.8483 217.858 91.7503C216.279 88.8153 215.548 66.9343 216.459 49.8623L217.172 36.5003L226.086 36.8213L234.999 37.1423V34.3013V31.4593L200.999 31.4803C169.928 31.4983 166.999 31.6443 166.999 33.1683ZM291.487 35.9313C282.852 39.0073 277.826 42.0433 272.42 47.4493C260.134 59.7353 256.449 76.7484 264.17 85.5424C266.864 88.6114 267.763 89.0003 272.152 89.0003C280.527 89.0003 285.678 85.1013 287.057 77.7183C288.093 72.1743 286.714 65.9993 283.938 63.7503C281.076 61.4323 274.406 61.4983 269.71 63.8923L265.999 65.7843L266.003 63.6423C266.014 56.9963 278.149 45.5613 290.531 40.5293C293.666 39.2543 297.18 37.2643 298.338 36.1063C300.385 34.0583 300.389 34.0023 298.471 34.0733C297.386 34.1133 294.244 34.9493 291.487 35.9313ZM302.558 36.2663C297.599 39.0773 293.849 45.9633 293.751 52.4403C293.694 56.2083 294.206 57.6063 296.527 60.0293C298.871 62.4753 300.179 62.9993 303.936 62.9963C306.719 62.9943 309.767 62.2203 311.749 61.0113C313.537 59.9213 314.999 59.3873 314.999 59.8243C314.999 61.0913 308.066 72.2783 305.736 74.7693C302.308 78.4353 294.856 82.7743 289.831 84.0303C287.264 84.6713 284.114 86.3293 282.831 87.7153L280.499 90.2333L283.999 89.5303C285.924 89.1433 290.199 87.4633 293.499 85.7973C317.857 73.4993 329.134 50.6363 317.089 37.9743C312.59 33.2453 308.697 32.7873 302.558 36.2663ZM195.353 42.7503C194.309 50.3593 194.307 72.0733 195.35 84.2503L196.186 94.0003H200.99H205.794L206.896 87.6683C209.197 74.4553 207.639 39.6653 204.662 37.7703C204.022 37.3643 201.844 37.0243 199.821 37.0153L196.143 37.0003L195.353 42.7503ZM365.253 38.2503C364.708 38.9383 349.508 65.1503 331.475 96.5003C313.442 127.85 288.009 171.984 274.959 194.576C250.416 237.062 247.649 242 248.382 242C248.621 242 273.72 227.542 304.158 209.871C334.595 192.199 379.299 166.245 403.499 152.195C427.699 138.144 448.734 125.94 450.243 125.074C451.752 124.208 452.989 123.218 452.993 122.873C453.006 121.594 437.544 100.214 430.666 92.0003C421.131 80.6133 405.606 65.3503 394.542 56.4863C386.587 50.1133 367.831 37.0003 366.669 37.0003C366.435 37.0003 365.798 37.5633 365.253 38.2503ZM302.544 41.9533C300.445 44.1443 299.591 46.1913 299.237 49.8793C298.815 54.2683 299.072 55.1643 301.429 57.5213C304.823 60.9153 308.203 60.3053 312.749 55.4803C315.387 52.6803 315.999 51.2113 315.999 47.6893C315.999 39.3993 308.183 36.0673 302.544 41.9533ZM271.628 67.0783C265.459 71.9303 264.567 79.4253 269.564 84.4223C273.368 88.2273 279.99 85.2084 282.552 78.5014C286.215 68.9104 278.953 61.3163 271.628 67.0783ZM374.712 77.4223C369.017 78.9543 363.416 83.2333 360.854 88.0093C358.51 92.3813 358.393 100.69 360.632 103.886C362.217 106.149 362.143 106.324 358.135 109.858C354.049 113.462 350.999 119.057 350.999 122.948C350.999 126.529 354.102 132.837 356.701 134.541C360.293 136.894 370.059 136.782 373.395 134.35C381.678 128.311 380.062 117.24 369.062 104.669C362.586 97.2693 361.183 93.0833 363.721 88.7363C366.127 84.6163 369.299 83.0333 375.184 83.0153C380.729 82.9973 384.628 84.3223 387.844 87.3173C393.331 92.4253 394.227 98.1403 391.945 113.476C390.947 120.186 390.949 122.749 391.955 126.342C393.201 130.794 398.338 136.994 399.674 135.658C400.372 134.96 403.088 127.645 402.704 127.498C402.591 127.455 401.149 126.972 399.499 126.424L396.499 125.429L396.484 108.465C396.476 99.1343 396.364 90.2643 396.234 88.7533C395.907 84.9303 389.605 78.2633 385.151 77.0253C380.753 75.8043 380.726 75.8053 374.712 77.4223ZM131.344 88.4803C129.609 89.2193 127.896 90.7483 127.537 91.8793C127.178 93.0103 124.844 96.7623 122.349 100.218C111.437 115.331 107.233 114.92 92.8662 97.3373C84.9822 87.6893 80.0872 86.5193 75.9642 93.2983C74.2102 96.1823 74.1892 96.5533 75.6882 98.2093C77.7812 100.521 78.7152 100.47 79.4992 98.0003C80.6842 94.2663 83.6672 95.9813 92.2862 105.353L100.888 114.706L97.8402 116.959C90.4382 122.432 88.7882 136.465 94.6892 143.756C100.265 150.645 108.703 152.822 116.767 149.452C129.431 144.161 132.461 128.88 122.903 118.511L119.035 114.315L121.281 112.205C122.516 111.044 124.811 107.641 126.38 104.643C130.14 97.4563 134.58 92.6303 136.789 93.3293C142.964 95.2813 142.722 95.3373 143.255 91.8343C143.534 90.0003 143.703 88.4513 143.63 88.3913C143.558 88.3313 141.474 88.0243 138.999 87.7093C136.218 87.3553 133.294 87.6493 131.344 88.4803ZM361.666 114.825C356.694 120.016 355.956 127.841 360.086 131.579C364.46 135.537 371.999 128.574 371.999 120.575C371.999 112.422 366.761 109.507 361.666 114.825ZM103.24 118.995C97.8932 122.255 95.8262 126.523 96.2682 133.391C96.6182 138.831 96.9732 139.586 100.909 143.257C104.989 147.063 105.403 147.214 110.57 146.786C116.608 146.285 119.504 144.321 121.637 139.282C127.406 125.651 114.915 111.876 103.24 118.995ZM31.6272 133.213C16.2932 161.344 7.80821 193.579 5.42621 232.75L4.74221 244H123.537C188.874 244 242.145 243.817 241.916 243.594C241.316 243.01 203.308 221.112 71.9992 145.698C55.7742 136.38 41.0692 127.894 39.3212 126.841L36.1442 124.926L31.6272 133.213ZM426.999 139.854C369.591 173.202 276.566 227.224 262.999 235.091L248.499 243.5L365.999 243.757C430.624 243.899 483.979 243.832 484.566 243.609C486.881 242.729 483.727 208.958 479.507 189.438C476.661 176.275 471.519 160.549 465.822 147.584C460.609 135.722 454.757 125.01 453.499 125.027C452.949 125.034 441.024 131.706 426.999 139.854ZM426.794 167.105C423.307 171.445 421.999 171.967 421.999 169.019C421.999 166.994 420.878 166.526 413.999 165.676C411.053 165.312 410.062 165.739 407.741 168.372L404.983 171.5L405.568 168.876C406.099 166.494 405.815 166.188 402.505 165.567C400.499 165.191 398.326 164.684 397.678 164.441C397.03 164.199 395.479 165.79 394.232 167.977L391.966 171.954L394.482 172.585L396.999 173.217V193.408C396.999 208.222 396.666 213.936 395.749 214.862C394.747 215.874 395.182 216.683 397.946 218.946L401.392 221.769L404.252 219.655C406.455 218.026 406.938 217.076 406.353 215.52C405.936 214.409 405.443 204.387 405.257 193.25L404.92 173H408.305C414.549 173 414.999 174.437 414.999 194.394C414.999 205.708 414.588 212.899 413.865 214.251C412.882 216.087 413.167 216.761 415.994 219.287L419.258 222.203L422.319 219.141C425.193 216.268 425.28 215.967 423.731 214.257C422.335 212.714 422.062 209.612 421.954 194.08C421.838 177.208 421.983 175.572 423.751 173.804C425.146 172.408 426.405 172.064 428.337 172.549L430.999 173.217V193.608C430.999 206.303 430.628 214 430.016 214C429.475 214 427.893 216.25 426.499 219C423.812 224.302 424.402 225.128 428.999 222.5C433.88 219.709 434.351 220.308 433.664 228.433L433.036 235.866L437.648 234.294L442.26 232.723L441.623 225.861C440.881 217.877 440.879 217.878 451.232 220.56L457.253 222.121L460.144 218.81C462.97 215.575 463.018 215.331 462.267 208C461.845 203.875 461.499 192.589 461.499 182.92V165.34L456.965 165.777C454.471 166.017 450.761 165.752 448.722 165.189C445.067 164.18 444.977 164.225 442.43 168.333L439.847 172.5L440.25 169.25C440.554 166.799 440.265 165.989 439.076 165.956C438.209 165.932 435.795 165.304 433.712 164.561L429.924 163.21L426.794 167.105ZM441.857 175.572L437.999 180.682V196.822C437.999 215.192 436.854 213.154 448.116 214.823C455.757 215.955 456.25 215.076 454.846 202.83C454.257 197.699 454.032 188.481 454.346 182.347L454.915 171.195L450.315 170.829C445.806 170.47 445.638 170.565 441.857 175.572ZM34.7672 174.059C30.5702 176.275 27.9992 180.412 27.9992 184.95C27.9992 187.463 28.4032 188 30.2922 188C32.1632 188 32.8052 187.175 33.7862 183.505C36.0392 175.082 41.3812 172.655 46.4692 177.742C53.0742 184.348 56.9992 197.866 56.9992 214.014V224.133L59.6432 223.816L62.2872 223.5L62.1002 214C61.6852 192.851 67.9562 177 76.7372 177C79.6502 177 80.3012 177.48 81.5942 180.573C82.4152 182.539 82.8122 185.014 82.4762 186.073C81.9632 187.688 82.3582 188 84.9132 188C91.3232 188 89.2832 178.749 82.0152 174.863C72.7392 169.904 63.9162 174.236 60.3932 185.479C59.4032 188.637 59.1152 188.964 59.0492 187C58.9252 183.264 54.9162 176.861 51.0862 174.28C46.8202 171.405 39.9692 171.312 34.7672 174.059ZM490.445 246.088C489.463 247.676 490.83 266.413 493.079 282.203C496.924 309.198 505.847 336.597 517.689 357.774L521.203 364.057L525.351 361.717C527.632 360.43 549.749 347.751 574.499 333.541C599.249 319.331 636.374 298.029 656.999 286.203C715.131 252.871 725.426 246.899 726.449 245.915C727.023 245.362 680.683 245 609.258 245C525.201 245 490.923 245.314 490.445 246.088ZM733.28 246.75C733.212 248.989 850.153 451.946 851.528 451.977C853.156 452.013 868.599 441.48 878.999 433.239C891.642 423.22 911.698 402.866 921.111 390.5C929.088 380.022 938.001 366.732 937.996 365.325C937.995 364.871 932.707 361.511 926.246 357.857C919.785 354.204 890.424 337.391 860.999 320.494C831.574 303.598 790.963 280.298 770.752 268.717C750.542 257.136 734.206 247.459 734.452 247.214C734.697 246.968 757.083 259.502 784.199 275.065C911.146 347.93 939.315 364.016 939.537 363.767C941.01 362.124 950.976 340.65 954.347 331.857C964.023 306.623 969.999 276.81 969.999 253.78V245H851.666C739.654 245 733.33 245.093 733.28 246.75ZM699.999 262.842C684.874 271.525 646.174 293.732 613.999 312.191C526.611 362.327 523.557 364.09 522.796 364.826C521.838 365.753 534.138 384.015 543.318 395.297C552.633 406.745 572.737 426.447 583.999 435.164C594.724 443.465 608.028 452.157 609.34 451.72C609.891 451.536 612.795 447.136 615.793 441.943C618.791 436.749 631.248 415.175 643.476 394C655.704 372.825 674.143 340.875 684.451 323C694.759 305.125 708.26 281.725 714.454 271C726.301 250.485 728.249 246.983 727.784 247.027C727.627 247.043 715.124 254.159 699.999 262.842ZM725.25 254.75C702.763 292.917 611.711 451.59 611.619 452.77C611.54 453.789 615.608 456.388 623.574 460.407C652.338 474.92 682.776 482.78 717.371 484.63L729.999 485.305V366.652C729.999 301.394 729.825 248 729.613 248C729.401 248 727.437 251.038 725.25 254.75ZM731.003 366.25L730.999 485L737.249 484.989C761.539 484.948 795.721 477.988 820.499 468.039C827.402 465.267 844.884 456.695 848.791 454.166C849.773 453.53 848.907 451.315 845.174 444.915C840.994 437.749 813.99 390.977 748.266 277.066C740.83 264.177 733.904 252.252 732.876 250.566C731.043 247.56 731.006 249.835 731.003 366.25ZM928.708 259.75C924.122 266.987 919.281 278.485 918.316 284.435L917.722 288.092L912.299 287.796L906.875 287.5L903.487 279.698C899.654 270.871 889.035 254.65 886.8 254.208C885.989 254.047 884.259 254.779 882.957 255.833L880.589 257.75L885.273 262.96C890.301 268.552 896.867 278.717 897.468 281.839C897.67 282.891 898.312 285.473 898.893 287.577C901.157 295.778 895.369 310.882 886.82 319.079L881.817 323.875L885.571 324.58C890.413 325.488 891.55 324.707 897.15 316.628C901.075 310.965 903.716 304.709 906.616 294.2C906.869 293.283 908.623 292.988 912.568 293.2L918.161 293.5L920.025 298.806C922.704 306.429 928.502 316.393 933.03 321.154C936.483 324.783 937.312 325.187 940.146 324.621C941.91 324.268 943.567 323.766 943.827 323.505C944.088 323.244 942.302 320.886 939.859 318.265C921.636 298.719 920.269 279.862 935.842 262.853L941.012 257.205L937.448 255.103C935.488 253.946 933.682 253 933.435 253C933.188 253 931.061 256.038 928.708 259.75ZM521.127 281.202C521.247 289.912 521.459 291.031 522.881 290.441C528.421 288.141 540.054 287.261 546.874 288.625C549.504 289.151 549.999 289.705 549.999 292.125C549.999 298.016 557.606 301.301 561.439 297.066C562.402 296.002 563.259 293.64 563.344 291.816C563.529 287.863 565.035 287.283 575.499 287.142C582.072 287.053 587.192 287.817 591.249 289.492C592.841 290.149 592.999 289.383 592.999 280.976V271.738L589.249 272.38C571.407 275.431 537.136 275.602 526.245 272.694L520.991 271.291L521.127 281.202ZM525.999 280.111V282.722L556.499 282.734L586.999 282.747V280.123V277.5H556.499H525.999V280.111ZM340.791 313C340.506 313.825 339.501 317.65 338.556 321.5C337.612 325.35 335.031 332.325 332.821 337C328.491 346.161 326.934 355.254 328.853 360.182L329.897 362.863L341.94 362.889L353.982 362.915L354.713 360.207C356.36 354.109 355.269 348.206 350.662 338.277C346.614 329.553 342.858 319.154 341.714 313.5C341.407 311.988 341.182 311.866 340.791 313ZM86.6242 316.491C66.3082 320.713 50.6512 328.817 35.8672 342.763C8.87921 368.222 -2.07779 403.593 5.55221 440.622C9.30221 458.818 18.1602 475.077 32.2802 489.68C49.3042 507.285 64.9542 515.746 90.2052 520.997C98.7522 522.775 101.26 522.897 111.205 522.023C126.473 520.681 133.049 519.369 142.499 515.781C173.999 503.82 197.536 477.852 207.211 444.384C209.216 437.448 209.491 434.274 209.495 418C209.499 400.627 209.328 398.93 206.699 390.139C195.873 353.94 167.465 326.371 131.754 317.409C122.858 315.177 95.6182 314.623 86.6242 316.491ZM93.4992 318.167C65.8702 321.092 39.0512 337.861 22.1582 362.775C8.4572 382.982 3.08021 409.663 7.40121 436C12.4672 466.871 33.1532 494.52 61.9992 508.978C74.1712 515.078 75.0812 514.944 67.7892 508.122C53.9202 495.148 48.1192 475.839 52.5052 457.24C57.6162 435.561 76.0192 419.338 98.7492 416.474L103.999 415.812V367.647C103.999 312.145 105.018 316.948 93.4992 318.167ZM132.725 323.013C143.929 330.413 153.195 343.193 155.914 355C157.495 361.866 157.222 375.886 155.387 382.068C149.885 400.602 135.523 414.763 117.457 419.469C114.224 420.311 110.094 421 108.279 421H104.98L105.239 469.75L105.499 518.5L111.499 518.808C122.139 519.355 139.832 515.141 151.422 509.3C165.2 502.356 182.791 486.669 191.351 473.692C209.392 446.344 212.748 410.212 200.106 379.42C189.291 353.077 166.123 331.256 139.806 322.629C126.808 318.367 125.775 318.423 132.725 323.013ZM104.999 342.304C104.999 354.722 105.355 365.102 105.789 365.37C106.555 365.844 143.124 345.275 145.19 343.209C146.409 341.99 132.159 327 129.782 327C128.886 327 123.902 334.632 117.391 345.971C111.4 356.405 106.376 364.586 106.226 364.152C106.076 363.717 110.897 354.843 116.939 344.431L127.926 325.5L122.831 323.124C119.93 321.771 114.995 320.529 111.368 320.237L104.999 319.726V342.304ZM307.507 353.935C307.621 363.621 308.806 369.058 310.784 368.967C313.585 368.839 322.558 364.858 322.811 363.631C323.307 361.226 320.983 357.732 313.941 350.296L307.384 343.37L307.507 353.935ZM370.771 350.426C365.157 356.542 361.999 361.276 361.999 363.578C361.999 364.094 372.866 369 374.009 369C374.428 369 375.469 367.529 376.323 365.731C377.422 363.414 377.845 359.624 377.775 352.731C377.721 347.379 377.637 343.022 377.588 343.048C377.539 343.075 374.471 346.395 370.771 350.426ZM127.499 355.108C117.049 361.186 108.071 366.573 107.549 367.08C106.97 367.641 115.429 368 129.24 368C141.693 368 152.08 367.663 152.324 367.25C153.259 365.666 150.878 353.448 148.74 348.864L146.499 344.057L127.499 355.108ZM599.794 347.283C598.337 349.177 598.082 349.245 598.044 347.75C598.008 346.351 597.103 346 593.531 346C589.71 346 588.832 346.398 587.467 348.75C586.59 350.262 586.091 350.766 586.359 349.868C586.728 348.631 585.959 348.092 583.172 347.636C580.139 347.14 579.198 347.425 577.771 349.268C575.542 352.148 575.573 352.73 577.999 353.5C579.882 354.098 579.999 355.013 579.999 369.133C579.999 378.146 579.559 384.953 578.897 386.191C577.978 387.908 578.226 388.682 580.395 390.85L582.995 393.451L584.66 391.074C586.085 389.039 586.29 386.135 586.088 370.849L585.852 353H589.5H593.148L592.905 370.553C592.674 387.202 592.769 388.215 594.753 390.199L596.845 392.29L599.343 389.395C601.526 386.865 601.662 386.301 600.42 384.921C599.325 383.704 598.999 379.889 598.999 368.278C598.999 351.951 599.241 351.27 604.578 352.609C606.984 353.213 607 353.301 607.111 366.858C607.246 383.363 607.532 386.333 609.485 391.535C611.11 395.864 615.19 399 619.195 399C621.554 399 627.789 393.372 631.351 388.027L632.999 385.555V389.246C632.999 392.116 633.333 392.809 634.499 392.362C635.667 391.913 635.999 389.932 635.999 383.4V375.013L631.662 378.257C629.277 380.04 626.046 382.425 624.481 383.557C622.49 384.996 621.836 386.132 622.3 387.341C622.919 388.956 623.128 388.961 625.481 387.42C626.866 386.512 627.999 386.24 627.999 386.814C627.999 388.569 621.165 395.219 619.79 394.802C619.08 394.586 617.374 392.18 615.999 389.455C613.637 384.773 613.48 383.441 613.157 365.25L612.815 346H608.489C606.109 346 603.563 345.79 602.831 345.533C602.098 345.277 600.732 346.064 599.794 347.283ZM420.085 349.577C415 352.745 406.974 356.32 395.573 360.496C390.307 362.424 381.999 369.821 381.999 372.58C381.999 373.479 384.168 376.303 386.819 378.857C389.47 381.411 393.017 385.226 394.702 387.336C397.743 391.144 397.788 391.161 400.782 389.612C406.149 386.837 410.415 380.633 414.41 369.793C416.496 364.132 419.804 356.8 421.761 353.5C425.989 346.37 426.208 345.97 425.808 346.102C425.638 346.158 423.063 347.721 420.085 349.577ZM259.999 347.541C259.999 347.755 261.334 350.035 262.965 352.607C265.757 357.01 269.412 365.274 273.468 376.355C275.468 381.82 279.948 387.405 284.021 389.511C286.681 390.887 286.895 390.773 293.122 384.629C296.629 381.168 300.623 377.578 301.997 376.65L304.496 374.964L302.497 371.271C299.733 366.162 293.354 361.605 285.301 358.985C281.56 357.768 274.336 354.608 269.249 351.962C264.162 349.316 259.999 347.327 259.999 347.541ZM831.499 366.386C827.988 367.916 826.515 369.513 825.044 373.383L823.972 376.2L827.062 373.6C831.209 370.111 835.66 370.227 842.345 374C849.734 378.17 854.043 377.889 859.563 372.876C861.593 371.032 861.671 371.049 864.416 373.914L867.206 376.826L872.249 373.853L877.291 370.88L881.096 374.594L884.9 378.309L889.368 374.905C891.826 373.032 894.035 370.488 894.279 369.25C894.874 366.227 893.733 366.416 889.629 370.02L886.189 373.04L882.641 368.895L879.093 364.749L874.374 367.875C871.779 369.594 869.367 371 869.015 371C868.662 371 867.08 369.65 865.5 368.001C862.672 365.049 862.594 365.031 860.563 366.876C857.894 369.299 854.562 371 852.481 371C851.574 371 847.461 369.65 843.34 368C834.784 364.574 835.449 364.664 831.499 366.386ZM326.499 369.872C304.369 376.25 288.209 392.643 282.546 414.46C280.577 422.048 280.558 436.836 282.508 444.54C288.045 466.418 305.835 484.047 327.987 489.608C337.541 492.007 353.125 491.147 362.976 487.676C392.401 477.31 409.141 446.923 402.552 415.835C397.838 393.593 379.336 374.827 356.911 369.541C348.381 367.53 334.083 367.686 326.499 369.872ZM108.087 369.422C109.218 370.553 145.255 391 146.118 391C147.559 391 150.809 383.149 151.517 377.958C151.851 375.506 152.33 372.488 152.581 371.25L153.037 369H130.351C117.874 369 107.855 369.19 108.087 369.422ZM107.598 373.061C108.709 374.952 113.866 383.809 119.058 392.743C124.251 401.676 129.077 408.988 129.783 408.993C131.553 409.003 144.999 395.413 144.999 393.614C144.999 392.773 137.087 387.641 126.249 381.453C115.937 375.565 107.067 370.494 106.539 370.185C106.011 369.875 106.487 371.17 107.598 373.061ZM104.999 393.978V416.289L111.336 415.697C117.511 415.121 121.291 413.945 125.627 411.252C127.71 409.958 127.53 409.545 116.952 391.374C111.011 381.168 105.891 372.559 105.575 372.242C105.258 371.926 104.999 381.707 104.999 393.978ZM331.434 374.479C310.605 379.012 292.896 396.833 288.472 417.713C286.655 426.287 286.653 432.702 288.463 441.246C292.447 460.047 306.656 476.188 324.886 482.623C332.888 485.448 337.304 485.776 331.434 483.11C318.094 477.051 312.139 463.521 316.581 449.363C317.933 445.054 319.691 442.227 323.216 438.697C329.067 432.835 332.709 431.239 344.121 429.534C353.911 428.072 359.991 425.166 364.552 419.77C374.44 408.071 373.298 390.849 361.958 380.653C353.989 373.488 344.658 371.601 331.434 374.479ZM829.359 377.491C827.325 378.346 825.555 380.285 824.14 383.208C821.272 389.132 821.416 389.383 825.399 385.4C829.769 381.03 833.552 380.96 842.365 385.084C849.68 388.507 852.906 388.434 857.603 384.74L860.301 382.617L863.566 386.507C867.168 390.797 868.116 390.732 874.332 385.764L877.165 383.5L880.179 387.25C881.837 389.313 883.712 390.995 884.346 390.989C886.624 390.968 894.999 382.267 894.999 379.921V377.626L892.249 380.113C886.053 385.717 886.286 385.686 881.961 381.463L878.011 377.606L873.476 380.803C870.981 382.561 868.735 384 868.483 384C868.232 384 866.557 382.418 864.762 380.484L861.499 376.968L856.58 379.484C850.493 382.597 848.746 382.618 843.587 379.642C838.354 376.625 833.254 375.853 829.359 377.491ZM701.749 387.353C692.242 389.372 691.999 389.494 691.999 392.212C691.999 395.544 692.051 395.549 698.873 392.957C701.828 391.833 704.426 391.093 704.644 391.312C704.996 391.664 670.058 425.469 664.222 430.425C661.957 432.348 661.952 432.347 658.38 428.925C656.414 427.041 654.39 424.436 653.884 423.136L652.962 420.772L649.785 423.222C646.162 426.016 645.14 428 647.324 428C648.144 428 650.964 430.088 653.589 432.639L658.363 437.279L654.924 440.389C653.032 442.1 649.7 444.913 647.518 446.64L643.552 449.78L646.652 452.676L649.753 455.573L654.684 449.036C657.437 445.388 660.519 442.367 661.66 442.2C663.658 441.906 666.817 444.821 671.506 451.285L673.512 454.052L676.972 451.164L680.432 448.275L677.465 446.663C675.834 445.776 672.587 443.352 670.251 441.275L666.003 437.5L686.751 416.237C698.162 404.542 707.815 394.98 708.201 394.987C708.587 394.994 708.255 397.137 707.462 399.75C705.455 406.364 705.604 408.74 708.074 409.524C709.216 409.886 710.368 409.964 710.635 409.698C710.901 409.431 711.555 406.138 712.087 402.379C712.62 398.621 713.675 393.173 714.432 390.273C716.07 384.001 716.769 384.162 701.749 387.353ZM336.922 392.923C333.196 396.65 333.081 400.756 336.588 404.923C343.4 413.019 356.339 404.36 351.478 394.959C348.473 389.148 341.651 388.194 336.922 392.923ZM801.916 391.387C801.141 392.106 778.596 393.976 762.999 394.614C754.06 394.98 747.219 395.69 746.838 396.29C746.031 397.559 744.701 406.035 745.225 406.56C745.432 406.767 748.953 405.795 753.05 404.402C757.147 403.008 763.649 401.652 767.499 401.388C771.349 401.124 776.412 400.772 778.749 400.604C781.086 400.437 782.997 400.571 782.996 400.9C782.994 401.23 780.263 404.65 776.927 408.5C770.545 415.866 764.079 427.982 763.256 434.119C762.867 437.023 761.572 438.811 756.85 442.967C750.343 448.695 740.999 460.411 740.999 462.842C740.999 463.69 745.882 459.573 751.85 453.692C757.817 447.812 762.985 443 763.333 443C763.681 443 765.08 445.2 766.442 447.888C771.032 456.946 780.83 463.005 788.546 461.557C793.777 460.576 798.32 456.925 799.212 452.986C802.56 438.197 788.773 427.064 773.749 432.426C770.4 433.621 770.001 433.59 770.018 432.132C770.056 428.843 776.248 420.78 790.038 406.064C797.801 397.779 803.743 391 803.242 391C802.742 391 802.145 391.174 801.916 391.387ZM263.626 400.901C269.575 406.886 276.27 411.242 277.402 409.866C277.567 409.665 278.854 406.946 280.261 403.824C282.82 398.148 282.82 398.148 280.808 396.324C279.172 394.842 276.712 394.435 267.687 394.156L256.578 393.812L263.626 400.901ZM408.499 394.74C407.399 394.996 405.78 395.842 404.902 396.619C403.445 397.909 403.489 398.555 405.402 404.016C408.326 412.365 409.804 412.08 421.881 400.847L429.033 394.194L419.766 394.233C414.669 394.255 409.599 394.483 408.499 394.74ZM411.642 415.819C409.996 416.512 409.767 417.94 409.623 428.389C409.432 442.313 409.538 442.451 419.88 441.783C425.204 441.439 428.386 440.437 436.147 436.658C441.453 434.075 449.103 431.111 453.147 430.071C457.19 429.031 459.824 427.966 458.999 427.705C458.174 427.444 454.677 426.499 451.228 425.605C447.779 424.711 440.804 422.094 435.728 419.788C428.463 416.489 425.116 415.537 419.999 415.317C416.424 415.163 412.663 415.389 411.642 415.819ZM259.999 417.939C258.624 418.362 254.349 420.285 250.499 422.213C243.955 425.49 234.443 428.922 227.499 430.509C224.785 431.13 225.187 431.372 231.713 433.043C235.68 434.06 241.755 436.097 245.213 437.571C258.863 443.39 264.965 445.128 269.41 444.461C271.752 444.11 274.151 443.524 274.741 443.159C275.373 442.769 275.955 437.669 276.157 430.757L276.499 419.018L273.6 418.009C270.272 416.851 263.655 416.817 259.999 417.939ZM92.4992 422.455C85.7972 424.238 80.9992 426.252 80.9992 427.282C80.9992 428 102.523 465.69 103.645 466.936C103.861 467.176 103.916 457.051 103.768 444.436L103.499 421.5L100.499 421.312C98.8492 421.209 95.2492 421.723 92.4992 422.455ZM75.3782 430.84C70.4812 434.388 62.8252 442.978 63.2982 444.396C63.6712 445.516 100.957 467.376 101.524 466.808C101.83 466.503 80.8982 429.566 79.7952 428.463C79.5332 428.201 77.5452 429.271 75.3782 430.84ZM774.59 438.31C772.289 439.992 772.215 446.154 774.453 449.571C779.985 458.013 794.023 458.101 793.984 449.693C793.964 445.295 792.082 441.973 788.087 439.28C784.258 436.7 777.46 436.211 774.59 438.31ZM58.9972 451.681C57.7892 454.881 56.5572 460.087 56.2602 463.25L55.7212 469H79.0552H102.389L82.9442 457.881C72.2492 451.766 62.9812 446.56 62.3472 446.312C61.6812 446.051 60.2672 448.317 58.9972 451.681ZM339.241 449.471C333.442 452.032 332.269 459.424 336.922 464.077C340.749 467.904 344.9 467.954 349.076 464.223C357.07 457.08 349.096 445.12 339.241 449.471ZM272.363 451.285C271.188 451.953 267.093 455.466 263.263 459.091L256.299 465.681L266.399 465.27C275.758 464.889 281.973 463.639 282.017 462.129C282.028 461.783 281.24 458.916 280.267 455.759C278.378 449.623 276.828 448.746 272.363 451.285ZM405.567 455.265C404.154 458.251 402.999 461.201 402.999 461.821C402.999 464.234 408.664 465.803 418.632 466.149L428.757 466.5L420.932 458.75C416.628 454.487 412.669 451 412.134 451C411.6 451 410.481 450.739 409.648 450.419C408.558 450 407.416 451.356 405.567 455.265ZM281.004 472.614C276.222 476.935 274.698 479.6 270.919 490.253C269.406 494.517 266.443 501.042 264.334 504.753C262.225 508.464 260.353 511.825 260.175 512.222C259.997 512.618 262.448 511.38 265.621 509.469C268.795 507.558 275.015 504.653 279.445 503.014C292.177 498.304 298.174 494.808 301.414 490.207L304.33 486.068L296.437 477.784C292.095 473.228 287.777 469.36 286.841 469.19C285.905 469.019 283.278 470.56 281.004 472.614ZM393.541 473.679C391.363 476.149 387.886 479.369 385.812 480.835C381.505 483.879 381.226 485.22 383.964 489.71C386.59 494.017 392.15 497.539 401.73 500.963C410.296 504.025 418.846 508.09 423.249 511.196C426.466 513.466 426.732 512.847 424.126 509.154C421.221 505.039 416.463 495.076 414.501 489C413.524 485.975 411.919 481.894 410.934 479.932C408.741 475.561 401.628 468.966 399.246 469.094C398.285 469.146 395.718 471.209 393.541 473.679ZM56.2602 475.75C56.5572 478.913 57.7892 484.119 58.9972 487.319C60.7212 491.885 61.5492 493.003 62.8422 492.507C64.8652 491.731 99.1282 471.979 100.449 470.828C100.971 470.373 91.1222 470 78.5602 470H55.7212L56.2602 475.75ZM82.0522 482.92C71.9062 488.84 63.4472 494.156 63.2542 494.734C62.7922 496.121 72.9652 507.017 76.8132 509.257L79.8322 511.014L90.5422 492.257C96.4322 481.941 101.446 473.163 101.684 472.75C102.639 471.096 99.7502 472.592 82.0522 482.92ZM92.1772 491.713C81.6382 510.059 80.9802 511.513 82.6632 512.743C85.3002 514.672 96.6602 518 100.604 518H103.999V495C103.999 482.35 103.886 472.001 103.749 472.002C103.612 472.003 98.4042 480.873 92.1772 491.713ZM309.41 492.496C308.202 494.34 307.728 497.671 307.597 505.246L307.42 515.5L314.22 508.788C320.216 502.869 322.999 498.818 322.999 496.008C322.999 495.317 312.736 490 311.401 490C311.205 490 310.309 491.123 309.41 492.496ZM368.512 492.173C365.769 493.255 363.362 494.304 363.162 494.503C362.013 495.652 365.705 502.397 369.3 505.718C371.609 507.851 374.737 511.072 376.249 512.875L378.999 516.153V506.545C378.999 496.596 377.291 489.906 374.8 490.102C374.084 490.159 371.255 491.09 368.512 492.173ZM331.146 497.937C330.79 498.797 330.522 502.425 330.549 506C330.592 511.5 331.184 513.642 334.399 519.923C336.488 524.005 339.666 531.832 341.46 537.316C344.71 547.249 344.725 547.272 345.444 543.394C346.48 537.805 349.599 528.853 353.07 521.505C357.165 512.838 358.569 505.624 357.158 500.5L356.056 496.5L343.924 496.437C333.825 496.384 331.685 496.635 331.146 497.937Z" fill="#134074"/>
</svg>
