<svg width="671" height="605" viewBox="0 0 671 605" fill="none" xmlns="http://www.w3.org/2000/svg">
<path fill-rule="evenodd" clip-rule="evenodd" d="M120.338 56.3537C78.5987 80.9335 50.0687 97.7058 39.4227 103.919C32.379 108.032 26.0338 112.145 25.3236 113.06C24.6122 113.975 23.3641 114.724 22.5503 114.724C21.7353 114.724 19.3288 115.799 17.2006 117.115C13.9488 119.125 13.4925 119.914 14.3389 122.063C14.8931 123.47 27.6847 149.616 42.7665 180.168L70.1882 235.715L74.015 234.448C76.1211 233.75 78.4636 232.409 79.2204 231.466C79.9783 230.523 81.1624 230.1 81.8517 230.526C82.5409 230.951 86.6356 229.937 90.9515 228.271C102.766 223.711 112.463 220.063 127.906 214.368L141.877 209.216L144.419 201.137C151.367 179.054 156.054 146.155 154.814 128.181C153.852 114.236 149.112 94.8265 142.858 79.2139C137.235 65.1799 130.894 52.7713 129.07 52.2381C128.43 52.0506 124.501 53.9029 120.338 56.3537ZM28.0188 122.442C27.6707 122.788 26.8022 121.98 26.0873 120.645C25.1862 118.96 25.1687 118.216 26.0291 118.216C27.4413 118.216 28.9781 121.482 28.0188 122.442ZM32.5955 130.671C31.7048 131.562 29.5766 128.994 29.544 126.99C29.5347 126.372 30.4125 126.753 31.4941 127.836C32.5769 128.918 33.0728 130.194 32.5955 130.671ZM36.0521 138.858C35.768 139.14 34.952 138.28 34.2371 136.945C33.5223 135.608 33.4233 134.516 34.0182 134.516C35.215 134.516 36.8659 138.043 36.0521 138.858ZM40.0048 146.323C40.0048 148.221 37.9988 146.355 37.3433 143.849C37.0057 142.558 37.1489 141.502 37.6611 141.502C38.6263 141.502 40.0048 144.337 40.0048 146.323ZM43.6221 155.473C42.5021 155.473 41.1458 152.641 41.2064 150.429C41.2261 149.682 42.012 150.087 42.9527 151.329C44.8935 153.895 45.1485 155.473 43.6221 155.473ZM46.371 161.945C45.4315 160.701 44.6618 159.197 44.6618 158.6C44.6618 158.004 45.4477 158.168 46.4083 158.965C47.3688 159.763 48.1383 161.267 48.1174 162.309C48.0859 163.902 47.8077 163.844 46.371 161.945ZM50.4832 170.026C49.8428 169.63 49.327 168.42 49.3364 167.338C49.3527 165.641 49.511 165.61 50.4832 167.115C51.9571 169.395 51.9571 170.936 50.4832 170.026ZM54.054 178.223C53.3705 177.802 52.8279 176.57 52.8489 175.487C52.8815 173.758 53.0922 173.792 54.5825 175.762C56.3929 178.155 56.1054 179.491 54.054 178.223ZM58.7692 186.908C58.2033 186.908 57.4664 185.86 57.1311 184.579C56.4128 181.829 58.0647 181.419 59.0904 184.092C60.0288 186.536 59.9858 186.908 58.7692 186.908ZM62.9465 194.625C62.5984 194.972 61.7299 194.164 61.015 192.829C60.1139 191.144 60.0963 190.4 60.9567 190.4C62.369 190.4 63.9058 193.666 62.9465 194.625ZM66.9073 203.207C65.7873 203.207 64.4309 200.376 64.4914 198.164C64.5112 197.416 65.2971 197.821 66.2378 199.064C68.1787 201.63 68.4336 203.207 66.9073 203.207ZM71.0963 210.925C70.7482 211.272 69.8796 210.464 69.1648 209.129C68.2637 207.444 68.2461 206.7 69.1065 206.7C70.5187 206.7 72.0557 209.966 71.0963 210.925ZM73.8462 218.972C73.1628 218.551 72.6226 217.057 72.6447 215.654C72.6855 213.194 72.7437 213.207 74.2968 216.012C76.0199 219.126 75.8534 220.213 73.8462 218.972ZM77.8059 225.979C76.8663 224.735 76.1131 223.164 76.134 222.486C76.1538 221.807 76.9396 222.271 77.8804 223.513C78.8199 224.756 79.5733 226.328 79.5523 227.006C79.5325 227.684 78.7466 227.221 77.8059 225.979Z" fill="#484848"/>
<path fill-rule="evenodd" clip-rule="evenodd" d="M235.6 18.0008C232.078 19.1895 221.076 22.6264 211.15 25.6371C201.225 28.6491 189.175 32.3467 184.373 33.8556C175.981 36.4915 165.887 39.607 142.75 46.7043C136.828 48.5217 131.981 50.4695 131.981 51.033C131.981 51.5965 133.766 55.2861 135.949 59.2329C144.448 74.6022 152.772 98.8665 155.386 115.888C156.233 121.4 156.479 131.704 156.054 143.83C155.35 163.962 152.668 180.205 146.576 201.212C143.693 211.151 143.641 211.941 144.725 229.154C147.976 280.804 148.597 327.306 147.187 413.355C146.411 460.741 145.343 516.8 144.815 537.931C144.102 566.428 144.2 576.776 145.194 577.996C146.214 579.247 146.186 579.758 145.079 580.13C144.179 580.433 143.624 582.802 143.624 586.344V592.069H335.726H527.828V586.247C527.828 582.72 527.314 580.426 526.522 580.426C525.56 580.426 525.564 580.006 526.532 578.839C527.514 577.656 527.369 550.995 525.97 474.347C524.014 367.229 524.267 286.922 526.714 237.929L528.09 210.364L523.904 194.851C513.267 155.441 512.687 121.819 522.154 93.3258C526.792 79.3664 533.026 64.3556 537.325 56.8054L540.803 50.6954L537.517 49.445C534.407 48.2621 518.034 43.1277 498.722 37.2785C490.186 34.6939 477.479 30.7762 446.912 21.3084C425.22 14.5883 427.444 14.5488 419.807 21.7928C400.128 40.4616 375.93 49.9957 344.458 51.4801C309.219 53.1415 277.98 42.8856 252.865 21.4085C249.233 18.3023 245.304 15.7794 244.133 15.8003C242.961 15.8224 239.122 16.8121 235.6 18.0008ZM152.356 580.426C150.755 580.426 149.445 579.902 149.445 579.262C149.445 578.622 150.755 578.098 152.356 578.098C153.956 578.098 155.266 578.622 155.266 579.262C155.266 579.902 153.956 580.426 152.356 580.426ZM161.087 580.426C159.807 580.426 158.759 579.902 158.759 579.262C158.759 578.622 159.807 578.098 161.087 578.098C162.368 578.098 163.416 578.622 163.416 579.262C163.416 579.902 162.368 580.426 161.087 580.426ZM169.819 580.426C168.219 580.426 166.909 579.902 166.909 579.262C166.909 578.622 168.219 578.098 169.819 578.098C171.42 578.098 172.73 578.622 172.73 579.262C172.73 579.902 171.42 580.426 169.819 580.426ZM178.551 580.426C177.271 580.426 176.223 579.902 176.223 579.262C176.223 578.622 177.271 578.098 178.551 578.098C179.832 578.098 180.88 578.622 180.88 579.262C180.88 579.902 179.832 580.426 178.551 580.426ZM187.283 580.426C185.682 580.426 184.373 579.902 184.373 579.262C184.373 578.622 185.682 578.098 187.283 578.098C188.884 578.098 190.194 578.622 190.194 579.262C190.194 579.902 188.884 580.426 187.283 580.426ZM196.015 580.426C194.734 580.426 193.687 579.902 193.687 579.262C193.687 578.622 194.734 578.098 196.015 578.098C197.296 578.098 198.344 578.622 198.344 579.262C198.344 579.902 197.296 580.426 196.015 580.426ZM204.678 580.426C202.989 580.426 202.01 579.922 202.419 579.262C202.814 578.622 204.154 578.098 205.398 578.098C206.641 578.098 207.658 578.622 207.658 579.262C207.658 579.902 206.316 580.426 204.678 580.426ZM213.479 580.426C212.198 580.426 211.15 579.902 211.15 579.262C211.15 578.622 212.198 578.098 213.479 578.098C214.76 578.098 215.807 578.622 215.807 579.262C215.807 579.902 214.76 580.426 213.479 580.426ZM222.211 580.426C220.61 580.426 219.3 579.902 219.3 579.262C219.3 578.622 220.61 578.098 222.211 578.098C223.812 578.098 225.122 578.622 225.122 579.262C225.122 579.902 223.812 580.426 222.211 580.426ZM230.943 580.426C229.662 580.426 228.614 579.902 228.614 579.262C228.614 578.622 229.662 578.098 230.943 578.098C232.223 578.098 233.271 578.622 233.271 579.262C233.271 579.902 232.223 580.426 230.943 580.426ZM239.606 580.426C237.917 580.426 236.938 579.922 237.346 579.262C237.742 578.622 239.082 578.098 240.326 578.098C241.569 578.098 242.585 578.622 242.585 579.262C242.585 579.902 241.244 580.426 239.606 580.426ZM249.057 580.426C247.419 580.426 246.078 579.902 246.078 579.262C246.078 578.622 247.094 578.098 248.338 578.098C249.581 578.098 250.921 578.622 251.317 579.262C251.726 579.922 250.747 580.426 249.057 580.426ZM257.07 580.426C255.381 580.426 254.401 579.922 254.81 579.262C255.206 578.622 256.546 578.098 257.789 578.098C259.033 578.098 260.049 578.622 260.049 579.262C260.049 579.902 258.708 580.426 257.07 580.426ZM266.521 580.426C264.883 580.426 263.542 579.902 263.542 579.262C263.542 578.622 264.558 578.098 265.802 578.098C267.045 578.098 268.385 578.622 268.781 579.262C269.19 579.922 268.211 580.426 266.521 580.426ZM275.185 580.426C273.904 580.426 272.856 579.902 272.856 579.262C272.856 578.622 273.904 578.098 275.185 578.098C276.465 578.098 277.513 578.622 277.513 579.262C277.513 579.902 276.465 580.426 275.185 580.426ZM283.985 580.426C282.347 580.426 281.006 579.902 281.006 579.262C281.006 578.622 282.022 578.098 283.266 578.098C284.509 578.098 285.849 578.622 286.245 579.262C286.654 579.922 285.674 580.426 283.985 580.426ZM291.998 580.426C290.308 580.426 289.329 579.922 289.738 579.262C290.134 578.622 291.474 578.098 292.717 578.098C293.961 578.098 294.977 578.622 294.977 579.262C294.977 579.902 293.636 580.426 291.998 580.426ZM301.449 580.426C299.811 580.426 298.47 579.902 298.47 579.262C298.47 578.622 299.486 578.098 300.729 578.098C301.973 578.098 303.313 578.622 303.709 579.262C304.117 579.922 303.138 580.426 301.449 580.426ZM310.112 580.426C308.832 580.426 307.784 579.902 307.784 579.262C307.784 578.622 308.832 578.098 310.112 578.098C311.393 578.098 312.441 578.622 312.441 579.262C312.441 579.902 311.393 580.426 310.112 580.426ZM318.913 580.426C317.275 580.426 315.934 579.902 315.934 579.262C315.934 578.622 316.95 578.098 318.193 578.098C319.437 578.098 320.777 578.622 321.173 579.262C321.581 579.922 320.602 580.426 318.913 580.426ZM327.576 580.426C326.295 580.426 325.248 579.902 325.248 579.262C325.248 578.622 326.295 578.098 327.576 578.098C328.857 578.098 329.905 578.622 329.905 579.262C329.905 579.902 328.857 580.426 327.576 580.426ZM336.308 580.426C334.572 580.426 333.57 579.924 333.979 579.262C334.375 578.622 335.423 578.098 336.308 578.098C337.193 578.098 338.241 578.622 338.637 579.262C339.046 579.924 338.044 580.426 336.308 580.426ZM345.04 580.426C343.759 580.426 342.711 579.902 342.711 579.262C342.711 578.622 343.759 578.098 345.04 578.098C346.321 578.098 347.368 578.622 347.368 579.262C347.368 579.902 346.321 580.426 345.04 580.426ZM353.772 580.426C352.171 580.426 350.861 579.902 350.861 579.262C350.861 578.622 352.171 578.098 353.772 578.098C355.373 578.098 356.682 578.622 356.682 579.262C356.682 579.902 355.373 580.426 353.772 580.426ZM362.504 580.426C361.223 580.426 360.175 579.902 360.175 579.262C360.175 578.622 361.223 578.098 362.504 578.098C363.784 578.098 364.832 578.622 364.832 579.262C364.832 579.902 363.784 580.426 362.504 580.426ZM371.167 580.426C369.478 580.426 368.499 579.922 368.907 579.262C369.303 578.622 370.643 578.098 371.887 578.098C373.13 578.098 374.146 578.622 374.146 579.262C374.146 579.902 372.805 580.426 371.167 580.426ZM379.968 580.426C378.687 580.426 377.639 579.902 377.639 579.262C377.639 578.622 378.687 578.098 379.968 578.098C381.248 578.098 382.296 578.622 382.296 579.262C382.296 579.902 381.248 580.426 379.968 580.426ZM388.7 580.426C387.099 580.426 385.789 579.902 385.789 579.262C385.789 578.622 387.099 578.098 388.7 578.098C390.3 578.098 391.61 578.622 391.61 579.262C391.61 579.902 390.3 580.426 388.7 580.426ZM397.431 580.426C396.151 580.426 395.103 579.902 395.103 579.262C395.103 578.622 396.151 578.098 397.431 578.098C398.712 578.098 399.76 578.622 399.76 579.262C399.76 579.902 398.712 580.426 397.431 580.426ZM406.095 580.426C404.405 580.426 403.426 579.922 403.835 579.262C404.231 578.622 405.571 578.098 406.814 578.098C408.058 578.098 409.074 578.622 409.074 579.262C409.074 579.902 407.733 580.426 406.095 580.426ZM414.895 580.426C413.615 580.426 412.567 579.902 412.567 579.262C412.567 578.622 413.615 578.098 414.895 578.098C416.176 578.098 417.224 578.622 417.224 579.262C417.224 579.902 416.176 580.426 414.895 580.426ZM423.558 580.426C421.869 580.426 420.89 579.922 421.299 579.262C421.694 578.622 423.035 578.098 424.278 578.098C425.521 578.098 426.538 578.622 426.538 579.262C426.538 579.902 425.197 580.426 423.558 580.426ZM433.01 580.426C431.372 580.426 430.031 579.902 430.031 579.262C430.031 578.622 431.047 578.098 432.29 578.098C433.534 578.098 434.874 578.622 435.27 579.262C435.678 579.922 434.699 580.426 433.01 580.426ZM441.022 580.426C439.333 580.426 438.354 579.922 438.763 579.262C439.158 578.622 440.498 578.098 441.742 578.098C442.985 578.098 444.002 578.622 444.002 579.262C444.002 579.902 442.66 580.426 441.022 580.426ZM450.474 580.426C448.836 580.426 447.494 579.902 447.494 579.262C447.494 578.622 448.511 578.098 449.754 578.098C450.998 578.098 452.338 578.622 452.734 579.262C453.142 579.922 452.163 580.426 450.474 580.426ZM458.486 580.426C456.797 580.426 455.818 579.922 456.226 579.262C456.622 578.622 457.962 578.098 459.206 578.098C460.449 578.098 461.466 578.622 461.466 579.262C461.466 579.902 460.124 580.426 458.486 580.426ZM467.938 580.426C466.3 580.426 464.958 579.902 464.958 579.262C464.958 578.622 465.975 578.098 467.218 578.098C468.462 578.098 469.802 578.622 470.197 579.262C470.606 579.922 469.627 580.426 467.938 580.426ZM476.601 580.426C475.32 580.426 474.272 579.902 474.272 579.262C474.272 578.622 475.32 578.098 476.601 578.098C477.882 578.098 478.929 578.622 478.929 579.262C478.929 579.902 477.882 580.426 476.601 580.426ZM485.401 580.426C483.763 580.426 482.422 579.902 482.422 579.262C482.422 578.622 483.439 578.098 484.682 578.098C485.925 578.098 487.265 578.622 487.661 579.262C488.07 579.922 487.091 580.426 485.401 580.426ZM493.414 580.426C491.725 580.426 490.745 579.922 491.154 579.262C491.55 578.622 492.89 578.098 494.133 578.098C495.377 578.098 496.393 578.622 496.393 579.262C496.393 579.902 495.052 580.426 493.414 580.426ZM502.797 580.426C501.061 580.426 500.058 579.924 500.468 579.262C500.864 578.622 501.912 578.098 502.797 578.098C503.682 578.098 504.729 578.622 505.125 579.262C505.535 579.924 504.533 580.426 502.797 580.426ZM511.529 580.426C510.248 580.426 509.2 579.902 509.2 579.262C509.2 578.622 510.248 578.098 511.529 578.098C512.809 578.098 513.857 578.622 513.857 579.262C513.857 579.902 512.809 580.426 511.529 580.426ZM520.329 580.426C518.691 580.426 517.35 579.902 517.35 579.262C517.35 578.622 518.366 578.098 519.61 578.098C520.853 578.098 522.193 578.622 522.589 579.262C522.998 579.922 522.018 580.426 520.329 580.426Z" fill="#484848"/>
<path fill-rule="evenodd" clip-rule="evenodd" d="M534.851 66.116C519.373 98.6348 514.799 124.535 518.566 158.322C519.898 170.272 526.833 201.461 529.231 206.291C530.493 208.832 534.253 210.634 552.278 217.341C564.124 221.749 577.301 226.722 581.561 228.391C585.821 230.062 589.881 231.072 590.584 230.638C591.287 230.203 591.862 230.323 591.862 230.904C591.862 231.862 601.215 236.161 601.864 235.502C602.635 234.722 658.225 121.262 658.225 120.468C658.225 118.909 651.61 114.724 649.147 114.724C647.873 114.724 646.566 114.031 646.241 113.185C645.916 112.338 637.346 106.761 627.197 100.792C604.909 87.685 590.671 79.2767 564.344 63.6757C553.371 57.1733 543.774 51.8538 543.016 51.8538C542.259 51.8538 538.585 58.2724 534.851 66.116ZM645.463 121.675C644.088 123.85 642.794 122.67 643.768 120.129C644.172 119.077 644.971 118.216 645.543 118.216C646.87 118.216 646.841 119.498 645.463 121.675ZM641.872 128.795C640.427 131.495 638.916 130.985 639.998 128.163C640.378 127.174 641.247 126.366 641.93 126.366C642.79 126.366 642.773 127.11 641.872 128.795ZM636.473 138.767C636.153 138.447 636.25 137.058 636.686 135.68C637.123 134.303 637.743 133.438 638.063 133.758C638.384 134.078 638.287 135.467 637.85 136.845C637.414 138.222 636.793 139.087 636.473 138.767ZM631.768 146.869C631.488 146.588 631.913 145.135 632.712 143.641C633.632 141.923 634.348 141.474 634.663 142.417C635.174 143.951 632.683 147.783 631.768 146.869ZM629.738 153.795C627.993 156.103 627.388 154.81 628.661 151.493C629.391 149.591 631.447 148.926 631.447 150.593C631.447 151.111 630.677 152.552 629.738 153.795ZM624.457 162.458C623.596 162.458 623.614 161.714 624.515 160.03C625.23 158.694 626.098 157.886 626.446 158.233C627.406 159.192 625.869 162.458 624.457 162.458ZM620.803 170.608C620.208 170.608 620.307 169.516 621.022 168.179C621.737 166.844 622.553 165.984 622.837 166.266C623.651 167.081 622 170.608 620.803 170.608ZM618.586 176.529C617.104 179.299 615.882 178.904 616.99 176.014C617.394 174.961 618.212 174.101 618.805 174.101C619.4 174.101 619.301 175.193 618.586 176.529ZM612.814 186.908C611.954 186.908 611.971 186.164 612.872 184.479C613.587 183.144 614.456 182.336 614.804 182.682C615.763 183.642 614.226 186.908 612.814 186.908ZM610.536 193.859C609.161 196.034 607.866 194.854 608.841 192.313C609.245 191.261 610.043 190.4 610.615 190.4C611.942 190.4 611.913 191.682 610.536 193.859ZM606.944 200.979C605.499 203.679 603.988 203.169 605.071 200.347C605.45 199.358 606.319 198.55 607.002 198.55C607.863 198.55 607.845 199.294 606.944 200.979ZM601.123 211.357C600.539 211.357 600.659 210.045 601.39 208.442C602.12 206.837 602.944 205.751 603.218 206.025C604.04 206.848 602.268 211.357 601.123 211.357ZM596.841 219.053C596.56 218.772 596.985 217.319 597.785 215.825C598.705 214.107 599.42 213.658 599.735 214.601C600.246 216.135 597.756 219.967 596.841 219.053ZM595.264 225.498C593.703 228.416 592.537 227.539 593.586 224.235C594.011 222.896 594.846 222.103 595.442 222.471C596.094 222.874 596.023 224.08 595.264 225.498Z" fill="#484848"/>
<path d="M250.86 13.5312L248.074 14.6454L252.606 18.7017C277.364 40.8598 312.362 51.9959 349.115 49.4101C375.392 47.5612 399.053 37.948 417.515 21.6193C423.837 16.0285 424.397 13.9724 419.843 13.0713C417.268 12.5614 415.73 13.3007 411.985 16.8458C401.41 26.8549 385.905 34.5798 367.161 39.1786C357.803 41.4745 353.144 41.8878 336.89 41.8599C319.673 41.8296 316.412 41.492 305.455 38.5976C290.341 34.6066 274.666 27.1984 263.396 18.7191C258.68 15.1716 254.557 12.3029 254.234 12.3425C253.91 12.3832 252.392 12.9188 250.86 13.5312Z" fill="#484848"/>
<path fill-rule="evenodd" clip-rule="evenodd" d="M249.571 11.6626C247.33 12.5439 237.375 15.7107 227.45 18.6993C217.525 21.6891 202.069 26.4207 193.104 29.216C184.14 32.0114 167.374 37.1365 155.848 40.606C129.36 48.5788 130.075 48.2644 106.101 62.4358C95.0416 68.9731 78.3962 78.7959 69.1113 84.2632C59.8263 89.7318 45.4187 98.2238 37.0942 103.136C28.7698 108.048 19.4697 113.5 16.4286 115.252C13.3876 117.004 10.8984 118.674 10.8984 118.963C10.8984 120.183 68.9797 238.135 69.5804 238.135C70.3349 238.135 104.668 225.349 130.235 215.547C135.998 213.337 141.027 211.883 141.413 212.316C141.797 212.749 143.052 233.798 144.201 259.091C146.677 313.573 146.701 356.605 144.314 466.329C143.347 510.833 142.431 557.723 142.281 570.53L142.006 593.815L335.535 594.11C515.085 594.383 529.117 594.265 529.806 592.468C530.215 591.403 529.927 564.812 529.167 533.379C526.094 406.317 525.297 332.56 526.568 292.819C527.715 256.984 530.022 212.456 530.778 211.566C530.952 211.363 533.634 212.259 536.738 213.559C539.842 214.859 549.716 218.589 558.681 221.848C574.514 227.604 578.394 229.059 594.099 235.133C598.211 236.724 602.009 237.758 602.537 237.432C603.066 237.104 608.667 226.258 614.985 213.328C621.304 200.398 634.192 174.221 643.627 155.156C653.064 136.092 660.509 119.781 660.175 118.909C659.84 118.036 656.775 115.784 653.365 113.903C649.955 112.023 636.686 104.279 623.879 96.6963C611.072 89.1135 595.093 79.7063 588.369 75.7921C581.646 71.8767 574.835 67.8496 573.234 66.8413C556.387 56.2326 540.995 48.2889 531.903 45.511C526.14 43.7506 512.518 39.543 501.632 36.162C490.747 32.781 476.601 28.4209 470.197 26.4707C437.329 16.4663 430.056 14.2309 423.781 12.2051L416.948 10L410.769 15.5011C385.483 38.0108 343.89 45.908 303.127 35.9408C289.638 32.6413 269.772 22.3877 259.135 13.232C254.777 9.48191 255.018 9.52149 249.571 11.6626ZM248.074 14.6454L250.86 13.5312C252.392 12.9188 253.91 12.3832 254.234 12.3425C254.557 12.3029 258.68 15.1716 263.396 18.7191C274.666 27.1984 290.341 34.6066 305.455 38.5976C316.412 41.492 319.673 41.8296 336.89 41.8599C353.144 41.8878 357.803 41.4745 367.161 39.1786C385.905 34.5798 401.41 26.8549 411.985 16.8458C415.73 13.3007 417.268 12.5614 419.843 13.0713C424.397 13.9724 423.837 16.0285 417.515 21.6193C399.053 37.948 375.392 47.5612 349.115 49.4101C312.362 51.9959 277.364 40.8598 252.606 18.7017L248.074 14.6454ZM211.15 25.6371C221.076 22.6264 232.078 19.1895 235.6 18.0008C239.122 16.8121 242.961 15.8224 244.133 15.8003C245.304 15.7794 249.233 18.3023 252.865 21.4085C277.98 42.8856 309.219 53.1415 344.458 51.4801C375.93 49.9957 400.128 40.4616 419.807 21.7928C427.444 14.5488 425.22 14.5883 446.912 21.3084C477.479 30.7762 490.186 34.6939 498.722 37.2785C518.034 43.1277 534.407 48.2621 537.517 49.445L540.803 50.6954L537.325 56.8054C533.026 64.3556 526.792 79.3664 522.154 93.3258C512.687 121.819 513.267 155.441 523.904 194.851L528.09 210.364L526.714 237.929C524.267 286.922 524.014 367.229 525.97 474.347C527.369 550.995 527.514 577.656 526.532 578.839C525.564 580.006 525.56 580.426 526.522 580.426C527.314 580.426 527.828 582.72 527.828 586.247V592.069H335.726H143.624V586.344C143.624 582.802 144.179 580.433 145.079 580.13C146.186 579.758 146.214 579.247 145.194 577.996C144.2 576.776 144.102 566.428 144.815 537.931C145.343 516.8 146.411 460.741 147.187 413.355C148.597 327.306 147.976 280.804 144.725 229.154C143.641 211.941 143.693 211.151 146.576 201.212C152.668 180.205 155.35 163.962 156.054 143.83C156.479 131.704 156.233 121.4 155.386 115.888C152.772 98.8665 144.448 74.6022 135.949 59.2329C133.766 55.2861 131.981 51.5965 131.981 51.033C131.981 50.4695 136.828 48.5217 142.75 46.7043C165.887 39.607 175.981 36.4915 184.373 33.8556C189.175 32.3467 201.225 28.6491 211.15 25.6371ZM39.4227 103.919C50.0687 97.7058 78.5987 80.9335 120.338 56.3537C124.501 53.9029 128.43 52.0506 129.07 52.2381C130.894 52.7713 137.235 65.1799 142.858 79.2139C149.112 94.8265 153.852 114.236 154.814 128.181C156.054 146.155 151.367 179.054 144.419 201.137L141.877 209.216L127.906 214.368C112.463 220.063 102.766 223.711 90.9515 228.271C86.6356 229.937 82.5409 230.951 81.8517 230.526C81.1624 230.1 79.9783 230.523 79.2204 231.466C78.4636 232.409 76.1211 233.75 74.015 234.448L70.1882 235.715L42.7665 180.168C27.6847 149.616 14.8931 123.47 14.3389 122.063C13.4925 119.914 13.9488 119.125 17.2006 117.115C19.3288 115.799 21.7353 114.724 22.5503 114.724C23.3641 114.724 24.6122 113.975 25.3236 113.06C26.0338 112.145 32.379 108.032 39.4227 103.919ZM518.566 158.322C514.799 124.535 519.373 98.6348 534.851 66.116C538.585 58.2724 542.259 51.8538 543.016 51.8538C543.774 51.8538 553.371 57.1733 564.344 63.6757C590.671 79.2767 604.909 87.685 627.197 100.792C637.346 106.761 645.916 112.338 646.241 113.185C646.566 114.031 647.873 114.724 649.147 114.724C651.61 114.724 658.225 118.909 658.225 120.468C658.225 121.262 602.635 234.722 601.864 235.502C601.215 236.161 591.862 231.862 591.862 230.904C591.862 230.323 591.287 230.203 590.584 230.638C589.881 231.072 585.821 230.062 581.561 228.391C577.301 226.722 564.124 221.749 552.278 217.341C534.253 210.634 530.493 208.832 529.231 206.291C526.833 201.461 519.898 170.272 518.566 158.322Z" fill="black"/>
<path fill-rule="evenodd" clip-rule="evenodd" d="M28.0188 122.442C27.6707 122.788 26.8022 121.98 26.0873 120.645C25.1862 118.96 25.1687 118.216 26.0291 118.216C27.4413 118.216 28.9781 121.482 28.0188 122.442ZM645.463 121.675C644.088 123.85 642.794 122.67 643.768 120.129C644.172 119.077 644.971 118.216 645.543 118.216C646.87 118.216 646.841 119.498 645.463 121.675ZM32.5955 130.671C31.7048 131.562 29.5766 128.994 29.544 126.99C29.5347 126.372 30.4125 126.753 31.4941 127.836C32.5769 128.918 33.0728 130.194 32.5955 130.671ZM641.872 128.795C640.427 131.495 638.916 130.985 639.998 128.163C640.378 127.174 641.247 126.366 641.93 126.366C642.79 126.366 642.773 127.11 641.872 128.795ZM636.473 138.767C636.153 138.447 636.25 137.058 636.686 135.68C637.123 134.303 637.743 133.438 638.063 133.758C638.384 134.078 638.287 135.467 637.85 136.845C637.414 138.222 636.793 139.087 636.473 138.767ZM631.768 146.869C631.488 146.588 631.913 145.135 632.712 143.641C633.632 141.923 634.348 141.474 634.663 142.417C635.174 143.951 632.683 147.783 631.768 146.869ZM43.6221 155.473C42.5021 155.473 41.1458 152.641 41.2064 150.429C41.2261 149.682 42.012 150.087 42.9527 151.329C44.8935 153.895 45.1485 155.473 43.6221 155.473ZM629.738 153.795C627.993 156.103 627.388 154.81 628.661 151.493C629.391 149.591 631.447 148.926 631.447 150.593C631.447 151.111 630.677 152.552 629.738 153.795ZM46.371 161.945C45.4315 160.701 44.6618 159.197 44.6618 158.6C44.6618 158.004 45.4477 158.168 46.4083 158.965C47.3688 159.763 48.1383 161.267 48.1174 162.309C48.0859 163.902 47.8077 163.844 46.371 161.945ZM624.457 162.458C623.596 162.458 623.614 161.714 624.515 160.03C625.23 158.694 626.098 157.886 626.446 158.233C627.406 159.192 625.869 162.458 624.457 162.458ZM50.4832 170.026C49.8428 169.63 49.327 168.42 49.3364 167.338C49.3527 165.641 49.511 165.61 50.4832 167.115C51.9571 169.395 51.9571 170.936 50.4832 170.026ZM620.803 170.608C620.208 170.608 620.307 169.516 621.022 168.179C621.737 166.844 622.553 165.984 622.837 166.266C623.651 167.081 622 170.608 620.803 170.608ZM54.054 178.223C53.3705 177.802 52.8279 176.57 52.8489 175.487C52.8815 173.758 53.0922 173.792 54.5825 175.762C56.3929 178.155 56.1054 179.491 54.054 178.223ZM618.586 176.529C617.104 179.299 615.882 178.904 616.99 176.014C617.394 174.961 618.212 174.101 618.805 174.101C619.4 174.101 619.301 175.193 618.586 176.529ZM58.7692 186.908C58.2033 186.908 57.4664 185.86 57.1311 184.579C56.4128 181.829 58.0647 181.419 59.0904 184.092C60.0288 186.536 59.9858 186.908 58.7692 186.908ZM612.814 186.908C611.954 186.908 611.971 186.164 612.872 184.479C613.587 183.144 614.456 182.336 614.804 182.682C615.763 183.642 614.226 186.908 612.814 186.908ZM62.9465 194.625C62.5984 194.972 61.7299 194.164 61.015 192.829C60.1139 191.144 60.0963 190.4 60.9567 190.4C62.369 190.4 63.9058 193.666 62.9465 194.625ZM610.536 193.859C609.161 196.034 607.866 194.854 608.841 192.313C609.245 191.261 610.043 190.4 610.615 190.4C611.942 190.4 611.913 191.682 610.536 193.859ZM66.9073 203.207C65.7873 203.207 64.4309 200.376 64.4914 198.164C64.5112 197.416 65.2971 197.821 66.2378 199.064C68.1787 201.63 68.4336 203.207 66.9073 203.207ZM606.944 200.979C605.499 203.679 603.988 203.169 605.071 200.347C605.45 199.358 606.319 198.55 607.002 198.55C607.863 198.55 607.845 199.294 606.944 200.979ZM601.123 211.357C600.539 211.357 600.659 210.045 601.39 208.442C602.12 206.837 602.944 205.751 603.218 206.025C604.04 206.848 602.268 211.357 601.123 211.357ZM71.0963 210.925C70.7482 211.272 69.8796 210.464 69.1648 209.129C68.2637 207.444 68.2461 206.7 69.1065 206.7C70.5187 206.7 72.0557 209.966 71.0963 210.925ZM73.8462 218.972C73.1628 218.551 72.6226 217.057 72.6447 215.654C72.6855 213.194 72.7437 213.207 74.2968 216.012C76.0199 219.126 75.8534 220.213 73.8462 218.972ZM596.841 219.053C596.56 218.772 596.985 217.319 597.785 215.825C598.705 214.107 599.42 213.658 599.735 214.601C600.246 216.135 597.756 219.967 596.841 219.053ZM77.8059 225.979C76.8663 224.735 76.1131 223.164 76.134 222.486C76.1538 221.807 76.9396 222.271 77.8804 223.513C78.8199 224.756 79.5733 226.328 79.5523 227.006C79.5325 227.684 78.7466 227.221 77.8059 225.979ZM595.264 225.498C593.703 228.416 592.537 227.539 593.586 224.235C594.011 222.896 594.846 222.103 595.442 222.471C596.094 222.874 596.023 224.08 595.264 225.498ZM152.356 580.426C150.755 580.426 149.445 579.902 149.445 579.262C149.445 578.622 150.755 578.098 152.356 578.098C153.956 578.098 155.266 578.622 155.266 579.262C155.266 579.902 153.956 580.426 152.356 580.426ZM161.087 580.426C159.807 580.426 158.759 579.902 158.759 579.262C158.759 578.622 159.807 578.098 161.087 578.098C162.368 578.098 163.416 578.622 163.416 579.262C163.416 579.902 162.368 580.426 161.087 580.426ZM169.819 580.426C168.219 580.426 166.909 579.902 166.909 579.262C166.909 578.622 168.219 578.098 169.819 578.098C171.42 578.098 172.73 578.622 172.73 579.262C172.73 579.902 171.42 580.426 169.819 580.426ZM178.551 580.426C177.271 580.426 176.223 579.902 176.223 579.262C176.223 578.622 177.271 578.098 178.551 578.098C179.832 578.098 180.88 578.622 180.88 579.262C180.88 579.902 179.832 580.426 178.551 580.426ZM187.283 580.426C185.682 580.426 184.373 579.902 184.373 579.262C184.373 578.622 185.682 578.098 187.283 578.098C188.884 578.098 190.194 578.622 190.194 579.262C190.194 579.902 188.884 580.426 187.283 580.426ZM196.015 580.426C194.734 580.426 193.687 579.902 193.687 579.262C193.687 578.622 194.734 578.098 196.015 578.098C197.296 578.098 198.344 578.622 198.344 579.262C198.344 579.902 197.296 580.426 196.015 580.426ZM204.678 580.426C202.989 580.426 202.01 579.922 202.419 579.262C202.814 578.622 204.154 578.098 205.398 578.098C206.641 578.098 207.658 578.622 207.658 579.262C207.658 579.902 206.316 580.426 204.678 580.426ZM213.479 580.426C212.198 580.426 211.15 579.902 211.15 579.262C211.15 578.622 212.198 578.098 213.479 578.098C214.76 578.098 215.807 578.622 215.807 579.262C215.807 579.902 214.76 580.426 213.479 580.426ZM222.211 580.426C220.61 580.426 219.3 579.902 219.3 579.262C219.3 578.622 220.61 578.098 222.211 578.098C223.812 578.098 225.122 578.622 225.122 579.262C225.122 579.902 223.812 580.426 222.211 580.426ZM230.943 580.426C229.662 580.426 228.614 579.902 228.614 579.262C228.614 578.622 229.662 578.098 230.943 578.098C232.223 578.098 233.271 578.622 233.271 579.262C233.271 579.902 232.223 580.426 230.943 580.426ZM239.606 580.426C237.917 580.426 236.938 579.922 237.346 579.262C237.742 578.622 239.082 578.098 240.326 578.098C241.569 578.098 242.585 578.622 242.585 579.262C242.585 579.902 241.244 580.426 239.606 580.426ZM249.057 580.426C247.419 580.426 246.078 579.902 246.078 579.262C246.078 578.622 247.094 578.098 248.338 578.098C249.581 578.098 250.921 578.622 251.317 579.262C251.726 579.922 250.747 580.426 249.057 580.426ZM257.07 580.426C255.381 580.426 254.401 579.922 254.81 579.262C255.206 578.622 256.546 578.098 257.789 578.098C259.033 578.098 260.049 578.622 260.049 579.262C260.049 579.902 258.708 580.426 257.07 580.426ZM266.521 580.426C264.883 580.426 263.542 579.902 263.542 579.262C263.542 578.622 264.558 578.098 265.802 578.098C267.045 578.098 268.385 578.622 268.781 579.262C269.19 579.922 268.211 580.426 266.521 580.426ZM275.185 580.426C273.904 580.426 272.856 579.902 272.856 579.262C272.856 578.622 273.904 578.098 275.185 578.098C276.465 578.098 277.513 578.622 277.513 579.262C277.513 579.902 276.465 580.426 275.185 580.426ZM283.985 580.426C282.347 580.426 281.006 579.902 281.006 579.262C281.006 578.622 282.022 578.098 283.266 578.098C284.509 578.098 285.849 578.622 286.245 579.262C286.654 579.922 285.674 580.426 283.985 580.426ZM291.998 580.426C290.308 580.426 289.329 579.922 289.738 579.262C290.134 578.622 291.474 578.098 292.717 578.098C293.961 578.098 294.977 578.622 294.977 579.262C294.977 579.902 293.636 580.426 291.998 580.426ZM301.449 580.426C299.811 580.426 298.47 579.902 298.47 579.262C298.47 578.622 299.486 578.098 300.729 578.098C301.973 578.098 303.313 578.622 303.709 579.262C304.117 579.922 303.138 580.426 301.449 580.426ZM310.112 580.426C308.832 580.426 307.784 579.902 307.784 579.262C307.784 578.622 308.832 578.098 310.112 578.098C311.393 578.098 312.441 578.622 312.441 579.262C312.441 579.902 311.393 580.426 310.112 580.426ZM318.913 580.426C317.275 580.426 315.934 579.902 315.934 579.262C315.934 578.622 316.95 578.098 318.193 578.098C319.437 578.098 320.777 578.622 321.173 579.262C321.581 579.922 320.602 580.426 318.913 580.426ZM327.576 580.426C326.295 580.426 325.248 579.902 325.248 579.262C325.248 578.622 326.295 578.098 327.576 578.098C328.857 578.098 329.905 578.622 329.905 579.262C329.905 579.902 328.857 580.426 327.576 580.426ZM336.308 580.426C334.572 580.426 333.57 579.924 333.979 579.262C334.375 578.622 335.423 578.098 336.308 578.098C337.193 578.098 338.241 578.622 338.637 579.262C339.046 579.924 338.044 580.426 336.308 580.426ZM345.04 580.426C343.759 580.426 342.711 579.902 342.711 579.262C342.711 578.622 343.759 578.098 345.04 578.098C346.321 578.098 347.368 578.622 347.368 579.262C347.368 579.902 346.321 580.426 345.04 580.426ZM353.772 580.426C352.171 580.426 350.861 579.902 350.861 579.262C350.861 578.622 352.171 578.098 353.772 578.098C355.373 578.098 356.682 578.622 356.682 579.262C356.682 579.902 355.373 580.426 353.772 580.426ZM362.504 580.426C361.223 580.426 360.175 579.902 360.175 579.262C360.175 578.622 361.223 578.098 362.504 578.098C363.784 578.098 364.832 578.622 364.832 579.262C364.832 579.902 363.784 580.426 362.504 580.426ZM371.167 580.426C369.478 580.426 368.499 579.922 368.907 579.262C369.303 578.622 370.643 578.098 371.887 578.098C373.13 578.098 374.146 578.622 374.146 579.262C374.146 579.902 372.805 580.426 371.167 580.426ZM379.968 580.426C378.687 580.426 377.639 579.902 377.639 579.262C377.639 578.622 378.687 578.098 379.968 578.098C381.248 578.098 382.296 578.622 382.296 579.262C382.296 579.902 381.248 580.426 379.968 580.426ZM388.7 580.426C387.099 580.426 385.789 579.902 385.789 579.262C385.789 578.622 387.099 578.098 388.7 578.098C390.3 578.098 391.61 578.622 391.61 579.262C391.61 579.902 390.3 580.426 388.7 580.426ZM397.431 580.426C396.151 580.426 395.103 579.902 395.103 579.262C395.103 578.622 396.151 578.098 397.431 578.098C398.712 578.098 399.76 578.622 399.76 579.262C399.76 579.902 398.712 580.426 397.431 580.426ZM406.095 580.426C404.405 580.426 403.426 579.922 403.835 579.262C404.231 578.622 405.571 578.098 406.814 578.098C408.058 578.098 409.074 578.622 409.074 579.262C409.074 579.902 407.733 580.426 406.095 580.426ZM414.895 580.426C413.615 580.426 412.567 579.902 412.567 579.262C412.567 578.622 413.615 578.098 414.895 578.098C416.176 578.098 417.224 578.622 417.224 579.262C417.224 579.902 416.176 580.426 414.895 580.426ZM423.558 580.426C421.869 580.426 420.89 579.922 421.299 579.262C421.694 578.622 423.035 578.098 424.278 578.098C425.521 578.098 426.538 578.622 426.538 579.262C426.538 579.902 425.197 580.426 423.558 580.426ZM433.01 580.426C431.372 580.426 430.031 579.902 430.031 579.262C430.031 578.622 431.047 578.098 432.29 578.098C433.534 578.098 434.874 578.622 435.27 579.262C435.678 579.922 434.699 580.426 433.01 580.426ZM441.022 580.426C439.333 580.426 438.354 579.922 438.763 579.262C439.158 578.622 440.498 578.098 441.742 578.098C442.985 578.098 444.002 578.622 444.002 579.262C444.002 579.902 442.66 580.426 441.022 580.426ZM450.474 580.426C448.836 580.426 447.494 579.902 447.494 579.262C447.494 578.622 448.511 578.098 449.754 578.098C450.998 578.098 452.338 578.622 452.734 579.262C453.142 579.922 452.163 580.426 450.474 580.426ZM458.486 580.426C456.797 580.426 455.818 579.922 456.226 579.262C456.622 578.622 457.962 578.098 459.206 578.098C460.449 578.098 461.466 578.622 461.466 579.262C461.466 579.902 460.124 580.426 458.486 580.426ZM467.938 580.426C466.3 580.426 464.958 579.902 464.958 579.262C464.958 578.622 465.975 578.098 467.218 578.098C468.462 578.098 469.802 578.622 470.197 579.262C470.606 579.922 469.627 580.426 467.938 580.426ZM476.601 580.426C475.32 580.426 474.272 579.902 474.272 579.262C474.272 578.622 475.32 578.098 476.601 578.098C477.882 578.098 478.929 578.622 478.929 579.262C478.929 579.902 477.882 580.426 476.601 580.426ZM485.401 580.426C483.763 580.426 482.422 579.902 482.422 579.262C482.422 578.622 483.439 578.098 484.682 578.098C485.925 578.098 487.265 578.622 487.661 579.262C488.07 579.922 487.091 580.426 485.401 580.426ZM493.414 580.426C491.725 580.426 490.745 579.922 491.154 579.262C491.55 578.622 492.89 578.098 494.133 578.098C495.377 578.098 496.393 578.622 496.393 579.262C496.393 579.902 495.052 580.426 493.414 580.426ZM502.797 580.426C501.061 580.426 500.058 579.924 500.468 579.262C500.864 578.622 501.912 578.098 502.797 578.098C503.682 578.098 504.729 578.622 505.125 579.262C505.535 579.924 504.533 580.426 502.797 580.426ZM511.529 580.426C510.248 580.426 509.2 579.902 509.2 579.262C509.2 578.622 510.248 578.098 511.529 578.098C512.809 578.098 513.857 578.622 513.857 579.262C513.857 579.902 512.809 580.426 511.529 580.426ZM520.329 580.426C518.691 580.426 517.35 579.902 517.35 579.262C517.35 578.622 518.366 578.098 519.61 578.098C520.853 578.098 522.193 578.622 522.589 579.262C522.998 579.922 522.018 580.426 520.329 580.426Z" fill="black"/>
<path d="M34.2371 136.945C34.952 138.28 35.768 139.14 36.0521 138.858C36.8659 138.043 35.215 134.516 34.0182 134.516C33.4233 134.516 33.5223 135.608 34.2371 136.945Z" fill="black"/>
<path d="M37.3433 143.849C37.9988 146.355 40.0048 148.221 40.0048 146.323C40.0048 144.337 38.6263 141.502 37.6611 141.502C37.1489 141.502 37.0057 142.558 37.3433 143.849Z" fill="black"/>
<path d="M227.185 83.3413L227.779 84.0842C227.086 86.5608 225.55 88.6907 223.173 90.4738C220.795 92.1579 218.368 93.0494 215.892 93.1485C215.693 93.2476 215.149 93.2971 214.257 93.2971C210.096 93.2971 206.976 92.2074 204.896 90.028L204.747 90.3252L204.45 90.4738C204.153 90.771 203.657 90.9691 202.964 91.0682H203.112L202.964 91.2168V108.008L203.112 108.157C209.353 108.157 212.821 107.958 213.514 107.562C213.811 107.562 214.257 107.562 214.851 107.562C215.545 107.463 216.288 107.315 217.08 107.116V108.454L216.932 108.602V109.048L216.783 109.345V110.088C216.486 112.07 216.337 114.051 216.337 116.032V116.775L216.486 117.072V118.558L217.378 119.598H215.446L215.297 119.45C214.505 119.45 212.623 119.153 209.651 118.558H209.056C208.858 118.558 208.66 118.509 208.462 118.41C208.462 118.311 208.412 118.261 208.313 118.261H205.341C204.549 118.261 203.756 118.162 202.964 117.964V154.815C203.558 155.112 204.351 155.261 205.341 155.261C206.134 155.756 206.926 156.004 207.719 156.004C207.917 156.202 208.363 156.499 209.056 156.896C209.75 157.292 210.592 157.837 211.582 158.53L214.851 155.112L217.972 158.084L202.072 173.39C195.336 167.545 189.194 164.622 183.647 164.622H183.349L183.052 164.771C182.557 164.771 182.012 164.821 181.418 164.92C180.922 165.019 180.378 165.167 179.783 165.365C180.972 160.709 183.548 157.49 187.51 155.707V117.667C186.618 117.964 184.835 118.112 182.161 118.112L181.863 118.261H180.823C180.823 116.676 180.873 115.636 180.972 115.14V111.277L180.823 110.831V109.94L180.675 109.642V106.968C181.368 107.265 182.408 107.414 183.795 107.414C183.894 107.513 184.588 107.562 185.876 107.562C185.975 107.661 186.47 107.711 187.361 107.711H187.51L187.361 92.8513V92.9999C187.262 92.8018 187.163 92.5046 187.064 92.1083C186.965 91.7121 186.817 91.2663 186.618 90.771L186.47 90.4738V88.9879C186.965 89.186 187.461 89.285 187.956 89.285H189.442C197.664 89.285 205.639 84.6291 213.366 75.3172C213.564 75.5153 213.861 75.862 214.257 76.3573C214.752 76.7536 215.396 77.447 216.189 78.4376C219.359 81.8058 222.628 83.4899 225.996 83.4899H225.699L225.996 83.3413H227.185ZM226.782 161.205L226.931 161.353C226.732 161.651 226.584 161.799 226.485 161.799C226.485 161.7 226.584 161.502 226.782 161.205ZM276.264 154.964C277.354 158.233 279.236 160.066 281.911 160.462L287.409 161.205L274.184 176.213L262.89 165.663L252.935 176.213C243.821 167.297 235.153 162.344 226.931 161.353L227.376 160.61C227.674 160.313 227.971 159.967 228.268 159.57L229.902 157.193V117.964C228.417 115.983 227.674 114.447 227.674 113.357V113.06C235.896 110.485 243.87 106.918 251.597 102.361C259.72 105.234 267.943 108.008 276.264 110.683V154.964ZM258.878 159.273V118.707C250.755 115.14 246.396 113.357 245.802 113.357V113.506L246.396 113.952V151.695C251.251 154.072 255.411 156.598 258.878 159.273ZM308.284 170.269C303.132 165.415 298.13 162.988 293.276 162.988C290.997 162.988 289.313 163.83 288.223 165.514V163.434C288.223 163.137 288.62 161.997 289.412 160.016C290.799 157.044 292.681 154.914 295.059 153.626V117.667H292.533C291.839 118.063 291.047 118.36 290.155 118.558C290.056 118.657 289.61 118.806 288.818 119.004L288.669 119.301H288.372L286.738 120.193V119.153C286.738 118.756 286.787 118.459 286.886 118.261V117.815L287.035 117.518C287.035 117.122 287.084 116.825 287.183 116.626V115.586C287.183 115.289 287.183 114.992 287.183 114.695C287.282 114.398 287.381 114.051 287.481 113.655V112.763L287.332 112.317V110.98C286.936 109.89 286.738 108.107 286.738 105.63C288.025 106.324 289.066 106.819 289.858 107.116C290.75 107.414 291.443 107.612 291.938 107.711C292.136 107.612 292.78 107.562 293.87 107.562H295.059V100.875L294.91 100.578V98.9437C294.811 98.8446 294.712 98.696 294.613 98.4979C294.514 98.2998 294.415 98.1017 294.316 97.9035C294.316 97.6063 294.266 97.3587 294.167 97.1606V97.012C293.969 96.8138 293.87 96.4176 293.87 95.8232L294.91 95.526L295.059 95.8232H295.802V95.9718C301.349 95.9718 306.6 92.9008 311.553 86.7589V88.6907L311.404 88.8393C311.305 89.0374 311.206 89.3346 311.107 89.7308C311.107 90.1271 311.008 90.6224 310.81 91.2168V91.3654C310.81 91.6626 310.76 91.9102 310.661 92.1083C310.265 93.6933 310.067 94.8821 310.067 95.6746V107.562H314.673L314.971 107.711C316.556 107.711 318.289 107.017 320.171 105.63V107.265C320.072 107.463 320.023 107.76 320.023 108.157C319.726 108.652 319.577 109.89 319.577 111.871H319.726C319.726 113.952 319.973 116.726 320.469 120.193L318.834 119.301L318.685 119.153H318.537C317.447 118.756 316.209 118.459 314.822 118.261C313.435 117.964 311.85 117.766 310.067 117.667V151.843C310.76 152.537 311.553 152.884 312.444 152.884L312.89 153.032C313.187 153.131 313.386 153.23 313.485 153.329C313.782 153.626 314.079 153.775 314.376 153.775C314.475 153.874 314.574 153.973 314.673 154.072C314.871 154.072 315.02 154.122 315.119 154.221H314.971C315.268 154.419 315.614 154.716 316.011 155.112C316.506 155.41 317.051 155.707 317.645 156.004L319.131 154.518L322.103 157.936L308.284 170.269ZM384.786 111.723C384.786 112.02 384.736 112.416 384.637 112.912C383.547 116.676 381.814 119.252 379.436 120.638L379.585 159.273V159.124C380.377 161.403 381.467 163.434 382.854 165.217V165.068L383.151 165.365V165.514L383.448 165.811L382.705 166.851C380.823 165.861 378.247 165.365 374.978 165.365C369.827 165.365 367.103 166.207 366.806 167.892L367.846 168.932H366.954C367.152 169.229 367.499 169.625 367.994 170.12C368.589 170.616 369.282 171.21 370.075 171.904C374.929 175.866 377.356 179.878 377.356 183.94C377.356 187.704 375.573 190.676 372.006 192.855C370.62 193.747 369.629 194.193 369.035 194.193L368.737 194.341H367.846L367.697 194.49H367.103C364.131 194.49 362.051 193.054 360.862 190.181C364.032 188.992 365.617 187.308 365.617 185.129C365.617 183.345 365.072 181.81 363.982 180.522C363.685 180.423 363.487 179.928 363.388 179.036L363.537 179.185C361.654 176.411 360.713 173.39 360.713 170.12C360.713 167.842 361.308 166.356 362.496 165.663V165.514C363.586 164.424 364.131 163.236 364.131 161.948V123.462C363.14 123.462 361.753 122.867 359.97 121.679C357.989 120.391 356.8 119.549 356.404 119.153L356.255 119.004L349.717 123.908V154.667C350.114 154.766 350.559 154.914 351.055 155.112C351.55 155.311 352.144 155.509 352.838 155.707C354.423 156.499 355.76 157.341 356.85 158.233C358.039 159.124 359.029 160.066 359.822 161.056L346.151 173.538C340.603 168.189 335.551 165.514 330.994 165.514H330.251C330.053 165.514 329.756 165.564 329.36 165.663C328.964 165.762 328.369 166.009 327.577 166.406C327.081 166.604 326.537 166.752 325.942 166.851C325.348 166.95 324.952 167 324.753 167C326.14 161.552 329.261 157.787 334.115 155.707V93.4457C334.115 91.5635 333.174 88.5916 331.292 84.53C334.164 84.53 337.037 83.9356 339.91 82.7469C342.783 81.5581 345.804 79.8245 348.974 77.5461C349.172 77.447 350.262 76.5554 352.243 74.8714L352.095 75.02L353.284 75.1686C353.085 75.7629 352.838 76.4068 352.541 77.1003C352.342 77.7937 352.194 78.289 352.095 78.5862L351.649 79.4778C351.253 80.2703 350.856 81.7563 350.46 83.9356C350.361 84.0347 350.312 84.1338 350.312 84.2328V84.3814C350.114 85.4711 349.965 86.3627 349.866 87.0561C349.767 87.7496 349.717 88.2449 349.717 88.5421V116.478L368.44 102.213C371.115 107.661 373.938 110.385 376.91 110.385C377.009 110.485 377.306 110.534 377.802 110.534C379.089 110.534 381.566 109.395 385.231 107.116V109.197C385.231 109.494 385.182 109.742 385.083 109.94C385.083 110.138 385.033 110.385 384.934 110.683C384.835 110.98 384.786 111.327 384.786 111.723ZM435.127 128.514C433.938 129.108 431.56 130.446 427.994 132.526C424.527 134.507 419.772 137.281 413.729 140.847C412.837 141.343 411.847 141.987 410.757 142.779V153.924C413.828 154.419 416.651 155.063 419.227 155.855C421.902 156.648 424.378 157.589 426.657 158.679L430.223 154.964L433.938 158.382L420.416 173.241L418.93 172.498C416.849 171.408 414.819 170.368 412.837 169.378C410.856 168.486 408.578 167.793 406.002 167.297C401.643 166.406 397.879 165.96 394.709 165.96C393.52 165.96 392.331 166.059 391.143 166.257C389.954 166.356 388.765 166.505 387.576 166.703C387.774 166.207 387.973 165.811 388.171 165.514C388.369 165.118 388.567 164.821 388.765 164.622V164.771C389.459 163.681 390.003 162.79 390.4 162.096C390.895 161.403 391.192 161.007 391.291 160.908C391.985 160.016 393.322 158.827 395.303 157.341V121.381C395.303 119.896 394.511 117.419 392.926 113.952V111.871L394.263 113.209H395.155L395.303 113.357H395.749L396.195 113.506H396.789C404.615 113.506 413.432 110.237 423.239 103.699C423.734 105.482 424.378 107.414 425.171 109.494C425.963 111.574 427.053 113.902 428.44 116.478C429.728 118.756 430.916 120.886 432.006 122.867C433.195 124.75 434.285 126.384 435.275 127.771L435.127 128.514ZM411.946 116.775L410.757 117.072V136.092L418.781 130.892C418.385 130.297 417.89 129.554 417.295 128.663C416.8 127.672 416.206 126.434 415.512 124.948C414.819 123.66 414.175 122.323 413.58 120.936C412.986 119.549 412.441 118.162 411.946 116.775ZM451.902 102.807C458.043 106.472 461.61 109.098 462.6 110.683H463.046C463.442 110.683 464.037 110.534 464.829 110.237C467.306 109.345 470.971 107.265 475.825 103.996L477.906 102.51C482.958 107.166 487.614 110.088 491.874 111.277C491.576 113.357 490.388 115.19 488.307 116.775C486.425 118.261 483.998 119.153 481.026 119.45C480.333 119.549 479.689 119.598 479.094 119.598C475.825 119.598 472.061 119.004 467.801 117.815C466.91 117.617 466.117 117.518 465.424 117.518C463.74 117.518 462.898 118.112 462.898 119.301V160.016H469.287C462.749 163.88 458.291 167.545 455.914 171.012C454.13 173.687 453.09 175.024 452.793 175.024V174.727L452.645 174.578C452.545 174.281 452.446 173.984 452.347 173.687C451.951 172.795 451.357 171.805 450.564 170.715C448.187 167.446 444.373 164.276 439.122 161.205L438.974 160.313H444.769V121.679C443.085 116.825 440.608 114.298 437.339 114.1L451.902 102.807Z" fill="#C5E3FE"/>
<path d="M303.249 216.327C300.673 224.252 295.225 232.475 286.904 240.994L300.872 240.697C300.872 240.796 300.822 240.994 300.723 241.291C300.723 241.588 300.723 241.787 300.723 241.886C300.624 242.084 300.574 242.331 300.574 242.629L300.426 242.777V243.074L300.129 243.372V243.669L299.98 243.966C299.98 244.164 299.93 244.313 299.831 244.412C299.831 244.511 299.831 244.61 299.831 244.709V244.56C299.732 244.858 299.633 245.204 299.534 245.6L299.386 246.195V271.456C299.386 271.654 299.435 271.803 299.534 271.902V272.347L299.683 272.645V272.496C299.782 272.595 299.831 272.694 299.831 272.793L299.98 273.536L299.831 273.239L299.683 273.09C299.683 273.19 299.782 273.388 299.98 273.685C300.277 274.18 300.574 274.675 300.872 275.171L301.466 276.36C300.376 276.36 299.732 276.31 299.534 276.211H299.683C299.584 276.112 299.435 276.062 299.237 276.062C298.048 276.062 297.058 276.062 296.265 276.062C295.473 275.963 294.829 275.765 294.333 275.468C292.847 275.468 291.956 275.418 291.659 275.319H290.767C283.238 275.319 277.047 277.895 272.193 283.046L267.884 278.737C267.091 278.044 266.348 277.499 265.655 277.103C264.961 276.805 264.169 276.657 263.277 276.657C262.683 276.36 261.841 276.211 260.751 276.211C256.194 276.211 253.024 278.39 251.241 282.749H246.932C247.724 279.282 249.111 275.765 251.092 272.199C253.074 268.534 255.748 264.621 259.116 260.46L259.711 259.866C260.008 259.568 260.355 259.172 260.751 258.677C261.246 258.181 261.791 257.637 262.386 257.042L252.578 256.596L253.618 255.556L253.47 256.002C254.361 254.813 254.807 253.575 254.807 252.287L254.956 251.99L254.807 226.135C254.807 226.036 254.758 225.986 254.659 225.986C254.659 225.887 254.659 225.788 254.659 225.689V225.837C254.56 225.738 254.51 225.491 254.51 225.094L254.064 224.054V223.906C253.866 223.708 253.767 223.41 253.767 223.014V221.677C254.758 222.568 255.798 223.014 256.888 223.014C257.581 223.41 259.315 223.608 262.088 223.608C262.187 223.708 262.683 223.757 263.574 223.757C268.131 223.757 272.54 222.618 276.799 220.339C277.195 220.141 279.177 218.259 282.743 214.693C285.913 218.358 288.885 220.191 291.659 220.191C294.532 220.191 296.86 218.754 298.643 215.882L302.655 215.584L303.249 216.327ZM284.08 270.267V251.544L283.783 251.247H276.205L268.478 258.974C267.785 259.667 266.992 260.559 266.1 261.649C265.209 262.639 264.119 263.779 262.831 265.066C264.02 264.868 265.06 264.72 265.952 264.621C266.843 264.422 267.537 264.323 268.032 264.323C273.183 264.323 277.592 266.602 281.257 271.159L281.851 270.862L282.297 270.713C282.495 270.713 282.842 270.614 283.337 270.416H283.932L284.08 270.267ZM288.984 230.89C287.3 231.583 285.517 231.93 283.635 231.93C280.762 231.93 277.493 230.493 273.827 227.621C273.53 227.72 273.332 227.819 273.233 227.918H272.639C272.044 228.215 271.499 228.364 271.004 228.364V247.086H272.639C273.431 246.591 274.521 245.65 275.908 244.263C277.394 242.876 279.276 241.044 281.554 238.765C284.922 235.199 287.399 232.574 288.984 230.89ZM358.142 265.958C358.736 268.831 359.876 270.663 361.56 271.456C350.861 273.041 342.292 277.35 335.853 284.384C330.107 278.44 320.102 274.725 305.837 273.239C305.44 273.239 305.242 273.09 305.242 272.793C305.242 272.199 305.837 271.159 307.025 269.673C308.71 267.394 309.948 265.859 310.74 265.066V227.472C309.155 225.491 308.363 223.906 308.363 222.717V222.568C318.665 221.974 326.987 219.002 333.327 213.653C344.719 219.299 353.932 222.469 360.965 223.163C359.083 225.342 358.142 226.878 358.142 227.769V265.958ZM340.756 229.849C332.732 226.481 328.225 224.797 327.234 224.797C327.036 224.797 326.937 224.847 326.937 224.946V264.026C328.522 265.71 333.129 267.345 340.756 268.93V229.849ZM420.178 223.311C420.475 223.41 420.624 223.708 420.624 224.203C420.624 224.995 420.029 226.481 418.841 228.661V271.753H424.636C423.645 271.753 419.138 276.36 411.114 285.572C410.717 283.888 406.26 278.985 397.74 270.862H401.158V229.552L395.363 224.649L387.784 230.444V271.159H394.174C387.636 275.022 383.227 278.688 380.949 282.155C379.166 284.73 378.175 286.018 377.977 286.018C377.878 286.018 377.828 285.969 377.828 285.87L377.977 285.572C377.085 281.61 372.479 277.202 364.158 272.347L363.861 271.456H369.656V232.821C368.269 227.373 365.941 224.55 362.672 224.351L375.748 214.544C382.088 218.21 385.753 220.835 386.744 222.42C389.023 222.222 394.124 219.497 402.049 214.247L403.981 212.761C410.717 218.11 416.116 221.627 420.178 223.311Z" fill="#C5E3FE"/>
<path d="M286.964 335.753C286.964 336.05 286.914 336.446 286.815 336.942C285.726 340.706 283.992 343.282 281.615 344.669L281.763 383.303V383.155C282.556 385.433 283.645 387.464 285.032 389.247V389.098L285.329 389.395V389.544L285.627 389.841L284.884 390.881C283.001 389.891 280.426 389.395 277.157 389.395C272.005 389.395 269.281 390.238 268.984 391.922L270.024 392.962H269.133C269.331 393.259 269.677 393.655 270.173 394.151C270.767 394.646 271.461 395.24 272.253 395.934C277.107 399.896 279.534 403.908 279.534 407.97C279.534 411.734 277.751 414.706 274.185 416.885C272.798 417.777 271.807 418.223 271.213 418.223L270.916 418.371H270.024L269.876 418.52H269.281C266.309 418.52 264.229 417.084 263.04 414.211C266.21 413.022 267.795 411.338 267.795 409.159C267.795 407.375 267.25 405.84 266.161 404.552C265.864 404.453 265.665 403.958 265.566 403.066L265.715 403.215C263.833 400.441 262.892 397.42 262.892 394.151C262.892 391.872 263.486 390.386 264.675 389.693V389.544C265.764 388.454 266.309 387.266 266.309 385.978V347.492C265.319 347.492 263.932 346.897 262.149 345.709C260.167 344.421 258.979 343.579 258.582 343.183L258.434 343.034L251.896 347.938V378.697C252.292 378.796 252.738 378.944 253.233 379.142C253.728 379.341 254.323 379.539 255.016 379.737C256.601 380.529 257.938 381.371 259.028 382.263C260.217 383.155 261.208 384.096 262 385.086L248.329 397.568C242.782 392.219 237.73 389.544 233.173 389.544H232.43C232.232 389.544 231.934 389.594 231.538 389.693C231.142 389.792 230.548 390.039 229.755 390.436C229.26 390.634 228.715 390.782 228.12 390.881C227.526 390.98 227.13 391.03 226.932 391.03C228.319 385.582 231.439 381.817 236.293 379.737V317.476C236.293 315.594 235.352 312.622 233.47 308.56C236.343 308.56 239.216 307.966 242.088 306.777C244.961 305.588 247.983 303.855 251.153 301.576C251.351 301.477 252.44 300.585 254.422 298.901L254.273 299.05L255.462 299.199C255.264 299.793 255.016 300.437 254.719 301.13C254.521 301.824 254.372 302.319 254.273 302.616L253.827 303.508C253.431 304.3 253.035 305.786 252.639 307.966C252.54 308.065 252.49 308.164 252.49 308.263V308.411C252.292 309.501 252.143 310.393 252.044 311.086C251.945 311.78 251.896 312.275 251.896 312.572V340.508L270.619 326.243C273.293 331.691 276.117 334.416 279.088 334.416C279.187 334.515 279.485 334.564 279.98 334.564C281.268 334.564 283.744 333.425 287.41 331.146V333.227C287.41 333.524 287.36 333.772 287.261 333.97C287.261 334.168 287.212 334.415 287.113 334.713C287.013 335.01 286.964 335.357 286.964 335.753ZM342.06 380.331C342.654 383.204 343.794 385.037 345.478 385.829C334.779 387.414 326.21 391.723 319.771 398.757C314.025 392.813 304.02 389.098 289.755 387.612C289.358 387.612 289.16 387.464 289.16 387.167C289.16 386.572 289.755 385.532 290.943 384.046C292.628 381.768 293.866 380.232 294.658 379.44V341.845C293.073 339.864 292.281 338.279 292.281 337.09V336.942C302.583 336.347 310.905 333.375 317.245 328.026C328.637 333.673 337.85 336.843 344.883 337.536C343.001 339.715 342.06 341.251 342.06 342.142V380.331ZM324.674 344.223C316.65 340.855 312.143 339.171 311.152 339.171C310.954 339.171 310.855 339.22 310.855 339.319V378.399C312.44 380.084 317.047 381.718 324.674 383.303V344.223ZM367.244 397.271C362.093 392.813 356.001 389.742 348.967 388.058C351.246 384.393 353.623 381.916 356.1 380.628V320.002L355.208 315.395C355.208 315.296 355.159 315.247 355.06 315.247C355.06 315.148 355.06 315.049 355.06 314.95V315.098C354.961 314.9 354.911 314.553 354.911 314.058L354.614 313.612L354.465 313.464C354.465 313.166 354.416 312.919 354.317 312.721L354.168 312.424V310.492C354.763 310.789 355.208 310.987 355.505 311.086C355.803 311.086 356.1 311.086 356.397 311.086C359.864 311.086 365.313 308.114 372.742 302.17L373.485 302.765C373.089 303.557 372.742 304.498 372.445 305.588C372.148 306.678 371.801 307.916 371.405 309.303C370.712 312.077 370.365 314.207 370.365 315.693V379.142C371.554 379.737 373.139 380.777 375.12 382.263L374.971 382.114H375.12L375.417 382.263C375.912 382.758 376.21 383.105 376.309 383.303L376.755 383.749L378.983 381.669L381.955 385.532L367.244 397.271ZM445.444 336.793V337.536L445.295 337.685C445.295 338.378 445.047 339.171 444.552 340.062C444.156 340.855 443.66 341.647 443.066 342.44C442.472 343.232 441.778 343.975 440.986 344.669C440.193 345.263 439.45 345.709 438.757 346.006V385.681C438.757 390.832 434.448 394.398 425.829 396.379C424.64 396.578 423.501 396.726 422.411 396.825C421.421 397.023 420.529 397.122 419.737 397.122H418.845C418.746 397.122 418.3 397.172 417.508 397.271C407.007 398.064 401.757 400.441 401.757 404.404C401.757 405.889 402.698 406.632 404.58 406.632C405.472 406.632 408.493 405.196 413.644 402.323C418.597 399.549 423.055 398.163 427.018 398.163C430.485 398.163 433.457 399.252 435.933 401.432C438.41 403.611 439.648 406.335 439.648 409.604C439.648 412.477 438.559 414.855 436.379 416.737C434.299 418.619 431.723 419.56 428.652 419.56C425.879 419.56 424.095 419.164 423.303 418.371V413.319C424.888 414.211 426.423 414.657 427.909 414.657H428.058L428.355 414.508H428.801C429.395 414.508 430.089 414.26 430.881 413.765C431.674 413.27 432.07 412.725 432.07 412.13C432.07 411.14 431.426 410.645 430.138 410.645L429.841 410.496H429.692C427.414 410.496 424.343 411.685 420.48 414.062C418.201 415.548 416.22 416.687 414.536 417.48C412.951 418.272 411.713 418.768 410.821 418.966C410.326 419.065 409.731 419.114 409.038 419.114C408.344 419.213 407.453 419.263 406.363 419.263C404.679 419.263 403.045 418.916 401.46 418.223C399.875 417.628 398.488 416.786 397.299 415.697C396.11 414.607 395.119 413.319 394.327 411.833C393.634 410.446 393.287 408.911 393.287 407.227V406.484H393.435C393.634 401.432 396.16 397.717 401.014 395.339C399.032 394.448 397.249 393.209 395.664 391.624C393.287 389.445 392.098 387.216 392.098 384.938V346.154C392.098 343.876 389.721 342.489 384.966 341.994V340.954L400.865 328.472C401.559 328.868 402.302 329.413 403.094 330.106C403.887 330.8 404.63 331.592 405.323 332.484C407.007 334.762 407.849 336.446 407.849 337.536L407.998 337.833V338.725L408.146 338.873V344.669L430.435 329.66C433.506 333.821 436.875 335.901 440.54 335.901H440.837L440.986 335.753C442.67 335.753 444.205 335.208 445.592 334.118V336.496L445.444 336.793ZM422.411 388.058V347.492C422.015 347.393 421.619 347.244 421.223 347.046C420.826 346.848 420.381 346.65 419.885 346.452L417.359 345.263L408.295 351.504V387.167C408.295 389.148 410.028 390.485 413.496 391.179H414.09C414.189 391.179 414.288 391.179 414.387 391.179C414.486 391.278 414.635 391.327 414.833 391.327C414.932 391.327 414.982 391.327 414.982 391.327C415.081 391.426 415.18 391.476 415.279 391.476H416.17L416.468 391.327C417.854 391.327 419.192 391.08 420.48 390.584C421.767 389.99 422.411 389.148 422.411 388.058Z" fill="#C5E3FE"/>
<path d="M246.249 449.671C243.673 457.596 238.225 465.818 229.904 474.337L243.872 474.04C243.872 474.139 243.822 474.337 243.723 474.634C243.723 474.932 243.723 475.13 243.723 475.229C243.624 475.427 243.574 475.675 243.574 475.972L243.426 476.12V476.418L243.129 476.715V477.012L242.98 477.309C242.98 477.507 242.93 477.656 242.831 477.755C242.831 477.854 242.831 477.953 242.831 478.052V477.904C242.732 478.201 242.633 478.547 242.534 478.944L242.386 479.538V504.799C242.386 504.997 242.435 505.146 242.534 505.245V505.691L242.683 505.988V505.839C242.782 505.938 242.831 506.037 242.831 506.137L242.98 506.88L242.831 506.582L242.683 506.434C242.683 506.533 242.782 506.731 242.98 507.028C243.277 507.523 243.574 508.019 243.872 508.514L244.466 509.703C243.376 509.703 242.732 509.653 242.534 509.554H242.683C242.584 509.455 242.435 509.406 242.237 509.406C241.048 509.406 240.058 509.406 239.265 509.406C238.473 509.307 237.829 509.108 237.333 508.811C235.847 508.811 234.956 508.762 234.659 508.663H233.767C226.238 508.663 220.047 511.238 215.193 516.39L210.884 512.08C210.091 511.387 209.348 510.842 208.655 510.446C207.961 510.149 207.169 510 206.277 510C205.683 509.703 204.841 509.554 203.751 509.554C199.194 509.554 196.024 511.734 194.241 516.092H189.932C190.724 512.625 192.111 509.108 194.092 505.542C196.074 501.877 198.748 497.964 202.116 493.803L202.711 493.209C203.008 492.912 203.355 492.515 203.751 492.02C204.246 491.525 204.791 490.98 205.386 490.386L195.578 489.94L196.618 488.9L196.47 489.345C197.361 488.157 197.807 486.918 197.807 485.63L197.956 485.333L197.807 459.478C197.807 459.379 197.758 459.329 197.659 459.329C197.659 459.23 197.659 459.131 197.659 459.032V459.181C197.56 459.082 197.51 458.834 197.51 458.438L197.064 457.398V457.249C196.866 457.051 196.767 456.754 196.767 456.357V455.02C197.758 455.912 198.798 456.357 199.888 456.357C200.581 456.754 202.315 456.952 205.088 456.952C205.187 457.051 205.683 457.1 206.574 457.1C211.131 457.1 215.54 455.961 219.799 453.683C220.195 453.485 222.177 451.602 225.743 448.036C228.913 451.701 231.885 453.534 234.659 453.534C237.532 453.534 239.86 452.098 241.643 449.225L245.655 448.928L246.249 449.671ZM227.08 503.61V484.888L226.783 484.59H219.205L211.478 492.317C210.785 493.011 209.992 493.902 209.1 494.992C208.209 495.983 207.119 497.122 205.831 498.41C207.02 498.211 208.06 498.063 208.952 497.964C209.843 497.766 210.537 497.667 211.032 497.667C216.183 497.667 220.592 499.945 224.257 504.502L224.851 504.205L225.297 504.056C225.495 504.056 225.842 503.957 226.337 503.759H226.932L227.08 503.61ZM231.984 464.233C230.3 464.926 228.517 465.273 226.635 465.273C223.762 465.273 220.493 463.837 216.827 460.964C216.53 461.063 216.332 461.162 216.233 461.261H215.639C215.044 461.558 214.499 461.707 214.004 461.707V480.43H215.639C216.431 479.934 217.521 478.993 218.908 477.606C220.394 476.22 222.276 474.387 224.554 472.108C227.922 468.542 230.399 465.917 231.984 464.233ZM306.194 464.381V502.57C306.194 503.165 306.343 503.66 306.64 504.056C306.64 504.552 307.135 505.493 308.126 506.88L308.572 507.771C307.68 507.771 306.888 507.771 306.194 507.771C305.501 507.672 304.906 507.474 304.411 507.177H303.668C296.04 507.177 288.264 510.198 280.339 516.241L279.744 515.795L279.596 515.498L279.744 515.647C279.15 514.953 278.457 514.21 277.664 513.418C276.971 512.724 276.129 511.981 275.138 511.189V523.076C275.138 525.85 276.129 528.723 278.11 531.695C277.515 531.497 276.872 531.348 276.178 531.249C275.485 531.15 274.89 531.1 274.395 531.1C271.423 531.1 267.262 532.388 261.913 534.964V534.815C261.319 535.212 260.477 535.707 259.387 536.301C258.396 536.896 257.406 537.44 256.415 537.936L255.821 537.193C257.406 535.013 258.297 533.082 258.495 531.398C258.594 531.199 258.644 531.051 258.644 530.952C258.644 530.853 258.693 530.556 258.793 530.06V529.466L258.941 529.169V507.325H258.347C257.851 507.523 257.307 507.722 256.712 507.92C256.217 508.019 255.623 508.167 254.929 508.365H255.078L252.997 509.406C252.898 509.406 252.502 509.554 251.809 509.851C251.61 509.95 251.264 510.149 250.768 510.446C250.273 510.743 249.877 510.991 249.58 511.189C249.58 508.415 250.471 505.592 252.254 502.719C254.038 499.846 256.266 497.815 258.941 496.626V467.056C258.941 465.768 258.248 464.728 256.861 463.936C255.573 463.143 254.137 462.747 252.552 462.747L252.403 462.896H251.214L251.066 463.044H249.58V461.855L265.479 445.064C269.64 447.045 272.364 449.621 273.652 452.791C274.147 453.98 274.494 455.466 274.692 457.249C274.989 458.933 275.138 460.964 275.138 463.341L297.279 445.659C297.774 446.451 298.368 447.343 299.062 448.333C299.854 449.324 300.795 450.414 301.885 451.602C304.064 453.98 305.947 455.169 307.532 455.169C307.631 455.268 308.027 455.317 308.72 455.317C309.117 455.317 309.364 455.268 309.463 455.169C310.355 455.169 310.999 454.97 311.395 454.574H311.692L311.989 454.277H313.03V455.466C313.03 457.15 312.287 458.933 310.801 460.815C309.414 462.697 307.878 463.886 306.194 464.381ZM288.957 504.205L289.997 503.759V464.53C288.313 464.53 286.58 463.638 284.797 461.855L275.138 469.582L275.584 495.141C276.277 495.24 277.763 495.784 280.042 496.775C283.905 498.756 286.877 501.233 288.957 504.205ZM337.286 516.092C335.701 515.993 334.116 515.647 332.531 515.052C330.946 514.557 329.46 513.715 328.074 512.526C325.102 510.149 323.616 507.424 323.616 504.353V466.908C322.13 466.809 320.991 465.917 320.198 464.233L318.118 465.422L316.037 462.45L316.483 461.707L316.632 461.855L316.929 461.558L317.226 461.41C318.217 460.518 319.307 459.527 320.495 458.438C321.684 457.249 323.269 455.813 325.25 454.128C326.34 453.435 327.677 452.345 329.262 450.859L329.857 450.414C330.154 450.116 330.451 449.819 330.748 449.522V447.739C334.81 453.485 338.376 456.357 341.447 456.357C342.141 456.357 343.726 455.664 346.202 454.277V456.06C346.004 456.655 345.905 457.348 345.905 458.14C345.112 460.419 344.072 462.301 342.784 463.787C341.497 465.174 340.159 466.165 338.772 466.759V498.41C338.772 499.004 339.02 499.797 339.515 500.787C340.407 502.669 342.438 503.61 345.608 503.61C346.697 503.61 347.985 503.313 349.471 502.719L350.066 503.759L337.286 516.092ZM333.274 446.402H332.086V446.253H330.6L330.303 446.104C326.538 446.104 324.21 444.569 323.319 441.498L320.941 442.687L319.009 439.418C319.802 438.625 320.644 438.031 321.535 437.634C322.427 437.139 323.269 436.693 324.062 436.297L323.764 436.594C324.062 436.396 324.458 436.099 324.953 435.703C325.547 435.207 326.092 434.762 326.588 434.365C327.281 433.87 328.074 433.276 328.965 432.582C329.956 431.889 330.996 431.146 332.086 430.353C334.661 434.118 337.336 436 340.11 436C340.605 435.802 341.001 435.703 341.299 435.703C341.695 435.604 342.141 435.455 342.636 435.257H342.487L342.784 434.96H342.933L343.082 434.811H343.23L343.379 434.663H344.419V436C344.419 437.387 344.072 438.724 343.379 440.012C342.784 441.201 341.942 442.29 340.853 443.281C339.862 444.173 338.673 444.916 337.286 445.51C335.999 446.104 334.661 446.402 333.274 446.402ZM366.418 445.807C372.56 449.472 376.126 452.098 377.117 453.683H377.563C377.959 453.683 378.553 453.534 379.346 453.237C381.822 452.345 385.488 450.265 390.342 446.996L392.422 445.51C397.474 450.166 402.13 453.088 406.39 454.277C406.093 456.357 404.904 458.19 402.824 459.775C400.941 461.261 398.514 462.153 395.542 462.45C394.849 462.549 394.205 462.598 393.611 462.598C390.342 462.598 386.577 462.004 382.318 460.815C381.426 460.617 380.633 460.518 379.94 460.518C378.256 460.518 377.414 461.112 377.414 462.301V503.016H383.804C377.265 506.88 372.808 510.545 370.43 514.012C368.647 516.687 367.607 518.024 367.31 518.024V517.727L367.161 517.578C367.062 517.281 366.963 516.984 366.864 516.687C366.467 515.795 365.873 514.805 365.081 513.715C362.703 510.446 358.889 507.276 353.639 504.205L353.49 503.313H359.285V464.679C357.601 459.825 355.125 457.298 351.856 457.1L366.418 445.807ZM431.319 516.092C429.734 515.993 428.149 515.647 426.564 515.052C424.979 514.557 423.493 513.715 422.106 512.526C419.134 510.149 417.648 507.424 417.648 504.353V466.908C416.162 466.809 415.023 465.917 414.231 464.233L412.15 465.422L410.07 462.45L410.516 461.707L410.664 461.855L410.962 461.558L411.259 461.41C412.249 460.518 413.339 459.527 414.528 458.438C415.717 457.249 417.302 455.813 419.283 454.128C420.372 453.435 421.71 452.345 423.295 450.859L423.889 450.414C424.186 450.116 424.484 449.819 424.781 449.522V447.739C428.842 453.485 432.409 456.357 435.48 456.357C436.173 456.357 437.758 455.664 440.235 454.277V456.06C440.037 456.655 439.937 457.348 439.937 458.14C439.145 460.419 438.105 462.301 436.817 463.787C435.529 465.174 434.192 466.165 432.805 466.759V498.41C432.805 499.004 433.053 499.797 433.548 500.787C434.439 502.669 436.47 503.61 439.64 503.61C440.73 503.61 442.018 503.313 443.504 502.719L444.098 503.759L431.319 516.092ZM427.307 446.402H426.118V446.253H424.632L424.335 446.104C420.571 446.104 418.243 444.569 417.351 441.498L414.974 442.687L413.042 439.418C413.834 438.625 414.676 438.031 415.568 437.634C416.459 437.139 417.302 436.693 418.094 436.297L417.797 436.594C418.094 436.396 418.49 436.099 418.986 435.703C419.58 435.207 420.125 434.762 420.62 434.365C421.314 433.87 422.106 433.276 422.998 432.582C423.988 431.889 425.028 431.146 426.118 430.353C428.694 434.118 431.368 436 434.142 436C434.638 435.802 435.034 435.703 435.331 435.703C435.727 435.604 436.173 435.455 436.668 435.257H436.52L436.817 434.96H436.966L437.114 434.811H437.263L437.411 434.663H438.451V436C438.451 437.387 438.105 438.724 437.411 440.012C436.817 441.201 435.975 442.29 434.885 443.281C433.895 444.173 432.706 444.916 431.319 445.51C430.031 446.104 428.694 446.402 427.307 446.402ZM468.475 513.269C463.323 508.415 458.321 505.988 453.467 505.988C451.188 505.988 449.504 506.83 448.414 508.514V506.434C448.414 506.137 448.811 504.997 449.603 503.016C450.99 500.044 452.872 497.914 455.25 496.626V460.667H452.724C452.03 461.063 451.238 461.36 450.346 461.558C450.247 461.657 449.801 461.806 449.009 462.004L448.86 462.301H448.563L446.928 463.193V462.153C446.928 461.756 446.978 461.459 447.077 461.261V460.815L447.226 460.518C447.226 460.122 447.275 459.825 447.374 459.626V458.586C447.374 458.289 447.374 457.992 447.374 457.695C447.473 457.398 447.572 457.051 447.671 456.655V455.763L447.523 455.317V453.98C447.126 452.89 446.928 451.107 446.928 448.63C448.216 449.324 449.256 449.819 450.049 450.116C450.94 450.414 451.634 450.612 452.129 450.711C452.327 450.612 452.971 450.562 454.061 450.562H455.25V443.875L455.101 443.578V441.944C455.002 441.845 454.903 441.696 454.804 441.498C454.705 441.3 454.606 441.102 454.507 440.904C454.507 440.606 454.457 440.359 454.358 440.161V440.012C454.16 439.814 454.061 439.418 454.061 438.823L455.101 438.526L455.25 438.823H455.993V438.972C461.54 438.972 466.79 435.901 471.744 429.759V431.691L471.595 431.839C471.496 432.037 471.397 432.335 471.298 432.731C471.298 433.127 471.199 433.622 471.001 434.217V434.365C471.001 434.663 470.951 434.91 470.852 435.108C470.456 436.693 470.258 437.882 470.258 438.675V450.562H474.864L475.161 450.711C476.746 450.711 478.48 450.017 480.362 448.63V450.265C480.263 450.463 480.214 450.76 480.214 451.157C479.916 451.652 479.768 452.89 479.768 454.871H479.916C479.916 456.952 480.164 459.726 480.659 463.193L479.025 462.301L478.876 462.153H478.728C477.638 461.756 476.4 461.459 475.013 461.261C473.626 460.964 472.041 460.766 470.258 460.667V494.843C470.951 495.537 471.744 495.884 472.635 495.884L473.081 496.032C473.378 496.131 473.576 496.23 473.675 496.329C473.973 496.626 474.27 496.775 474.567 496.775C474.666 496.874 474.765 496.973 474.864 497.072C475.062 497.072 475.211 497.122 475.31 497.221H475.161C475.459 497.419 475.805 497.716 476.201 498.112C476.697 498.41 477.242 498.707 477.836 499.004L479.322 497.518L482.294 500.936L468.475 513.269Z" fill="#C5E3FE"/>
<path fill-rule="evenodd" clip-rule="evenodd" d="M474.202 316.303C474.155 337.188 473.92 341.762 472.639 346.697C470.911 353.356 467.76 355.468 458.636 356.085C456.804 356.209 456.576 356.251 457.627 356.274C459.757 356.319 462.721 356.682 464.469 357.111C469.467 358.337 471.894 361.287 473.066 367.561C473.96 372.347 474.029 374.001 474.151 393.703C474.236 407.32 474.311 411.49 474.419 408.62C474.502 406.43 474.57 398.6 474.571 391.22C474.572 383.841 474.662 376.543 474.771 375.003C475.666 362.34 477.98 358.313 485.169 356.906C486.324 356.68 488.439 356.427 489.869 356.344L492.469 356.193L489.823 356.047C479.995 355.505 476.786 352.647 475.384 343.185C474.697 338.555 474.574 335.21 474.546 320.403C474.531 312.593 474.456 304.538 474.38 302.503C474.296 300.255 474.226 305.67 474.202 316.303Z" fill="#C5E3FE"/>
<path fill-rule="evenodd" clip-rule="evenodd" d="M195.202 209.303C195.155 230.188 194.92 234.762 193.639 239.697C191.911 246.356 188.76 248.468 179.636 249.085C177.804 249.209 177.576 249.251 178.627 249.274C180.757 249.319 183.721 249.682 185.469 250.111C190.467 251.337 192.894 254.287 194.066 260.561C194.96 265.347 195.029 267.001 195.151 286.703C195.236 300.32 195.311 304.49 195.419 301.62C195.502 299.43 195.57 291.6 195.571 284.22C195.572 276.841 195.662 269.543 195.771 268.003C196.666 255.34 198.98 251.313 206.169 249.906C207.324 249.68 209.439 249.427 210.869 249.344L213.469 249.193L210.823 249.047C200.995 248.505 197.786 245.647 196.384 236.185C195.697 231.555 195.574 228.21 195.546 213.403C195.531 205.593 195.456 197.538 195.38 195.503C195.296 193.255 195.226 198.67 195.202 209.303Z" fill="#C5E3FE"/>
<path d="M196 555.76C195.947 556.147 195.747 556.473 195.4 556.74V562.46C195.4 562.527 195.427 562.607 195.48 562.7C195.547 562.793 195.633 562.9 195.74 563.02C195.513 562.953 195.293 562.9 195.08 562.86C194.867 562.82 194.64 562.8 194.4 562.8C193.133 562.8 192.053 563.147 191.16 563.84C190.413 563.147 189.62 562.8 188.78 562.8H188.76L188.74 562.82H188.62L188.58 562.84H188.28C188.4 562.267 188.713 561.873 189.22 561.66L189.2 552.96V552.98C189.107 552.74 189.013 552.553 188.92 552.42H188.9L188.84 552.36V552.34L188.82 552.32V552.06L188.96 552.2H189L189.02 552.22C189.46 552.22 189.9 552.1 190.34 551.86C190.407 551.807 190.553 551.7 190.78 551.54C191.02 551.38 191.327 551.167 191.7 550.9C191.553 551.287 191.453 551.587 191.4 551.8C191.347 552.013 191.32 552.147 191.32 552.2V556.32L193.8 554.66C194.227 555.407 194.787 555.78 195.48 555.78H195.54C195.553 555.78 195.593 555.76 195.66 555.72L195.64 555.74C195.667 555.713 195.713 555.7 195.78 555.7C195.793 555.687 195.82 555.68 195.86 555.68C195.873 555.68 195.88 555.68 195.88 555.68C195.893 555.667 195.907 555.66 195.92 555.66L196 555.76ZM193.24 562.16V557.12H193.22C193.167 557.12 193.127 557.113 193.1 557.1C193.06 557.1 193.027 557.087 193 557.06C192.64 556.887 192.413 556.72 192.32 556.56L191.32 557.2L191.36 561.44C191.787 561.56 192.253 561.82 192.76 562.22V562.26L192.9 562.22C192.967 562.207 193.08 562.187 193.24 562.16ZM200.425 563.84C199.732 563.24 198.912 562.827 197.965 562.6C198.272 562.107 198.592 561.773 198.925 561.6V553.44L198.805 552.82C198.805 552.807 198.798 552.8 198.785 552.8C198.785 552.787 198.785 552.773 198.785 552.76V552.78C198.772 552.753 198.765 552.707 198.765 552.64L198.725 552.58L198.705 552.56C198.705 552.52 198.698 552.487 198.685 552.46L198.665 552.42V552.16C198.745 552.2 198.805 552.227 198.845 552.24C198.885 552.24 198.925 552.24 198.965 552.24C199.432 552.24 200.165 551.84 201.165 551.04L201.265 551.12C201.212 551.227 201.165 551.353 201.125 551.5C201.085 551.647 201.038 551.813 200.985 552C200.892 552.373 200.845 552.66 200.845 552.86V561.4C201.005 561.48 201.218 561.62 201.485 561.82L201.465 561.8H201.485L201.525 561.82C201.592 561.887 201.632 561.933 201.645 561.96L201.705 562.02L202.005 561.74L202.405 562.26L200.425 563.84ZM210.71 557.82C210.55 557.9 210.23 558.08 209.75 558.36C209.283 558.627 208.643 559 207.83 559.48C207.71 559.547 207.577 559.633 207.43 559.74V561.24C207.843 561.307 208.223 561.393 208.57 561.5C208.93 561.607 209.263 561.733 209.57 561.88L210.05 561.38L210.55 561.84L208.73 563.84L208.53 563.74C208.25 563.593 207.977 563.453 207.71 563.32C207.443 563.2 207.137 563.107 206.79 563.04C206.203 562.92 205.697 562.86 205.27 562.86C205.11 562.86 204.95 562.873 204.79 562.9C204.63 562.913 204.47 562.933 204.31 562.96C204.337 562.893 204.363 562.84 204.39 562.8C204.417 562.747 204.443 562.707 204.47 562.68V562.7C204.563 562.553 204.637 562.433 204.69 562.34C204.757 562.247 204.797 562.193 204.81 562.18C204.903 562.06 205.083 561.9 205.35 561.7V556.86C205.35 556.66 205.243 556.327 205.03 555.86V555.58L205.21 555.76H205.33L205.35 555.78H205.41L205.47 555.8H205.55C206.603 555.8 207.79 555.36 209.11 554.48C209.177 554.72 209.263 554.98 209.37 555.26C209.477 555.54 209.623 555.853 209.81 556.2C209.983 556.507 210.143 556.793 210.29 557.06C210.45 557.313 210.597 557.533 210.73 557.72L210.71 557.82ZM207.59 556.24L207.43 556.28V558.84L208.51 558.14C208.457 558.06 208.39 557.96 208.31 557.84C208.243 557.707 208.163 557.54 208.07 557.34C207.977 557.167 207.89 556.987 207.81 556.8C207.73 556.613 207.657 556.427 207.59 556.24ZM220.308 554.88C219.961 555.947 219.228 557.053 218.108 558.2L219.988 558.16C219.988 558.173 219.981 558.2 219.968 558.24C219.968 558.28 219.968 558.307 219.968 558.32C219.955 558.347 219.948 558.38 219.948 558.42L219.928 558.44V558.48L219.888 558.52V558.56L219.868 558.6C219.868 558.627 219.861 558.647 219.848 558.66C219.848 558.673 219.848 558.687 219.848 558.7V558.68C219.835 558.72 219.821 558.767 219.808 558.82L219.788 558.9V562.3C219.788 562.327 219.795 562.347 219.808 562.36V562.42L219.828 562.46V562.44C219.841 562.453 219.848 562.467 219.848 562.48L219.868 562.58L219.848 562.54L219.828 562.52C219.828 562.533 219.841 562.56 219.868 562.6C219.908 562.667 219.948 562.733 219.988 562.8L220.068 562.96C219.921 562.96 219.835 562.953 219.808 562.94H219.828C219.815 562.927 219.795 562.92 219.768 562.92C219.608 562.92 219.475 562.92 219.368 562.92C219.261 562.907 219.175 562.88 219.108 562.84C218.908 562.84 218.788 562.833 218.748 562.82H218.628C217.615 562.82 216.781 563.167 216.128 563.86L215.548 563.28C215.441 563.187 215.341 563.113 215.248 563.06C215.155 563.02 215.048 563 214.928 563C214.848 562.96 214.735 562.94 214.588 562.94C213.975 562.94 213.548 563.233 213.308 563.82H212.728C212.835 563.353 213.021 562.88 213.288 562.4C213.555 561.907 213.915 561.38 214.368 560.82L214.448 560.74C214.488 560.7 214.535 560.647 214.588 560.58C214.655 560.513 214.728 560.44 214.808 560.36L213.488 560.3L213.628 560.16L213.608 560.22C213.728 560.06 213.788 559.893 213.788 559.72L213.808 559.68L213.788 556.2C213.788 556.187 213.781 556.18 213.768 556.18C213.768 556.167 213.768 556.153 213.768 556.14V556.16C213.755 556.147 213.748 556.113 213.748 556.06L213.688 555.92V555.9C213.661 555.873 213.648 555.833 213.648 555.78V555.6C213.781 555.72 213.921 555.78 214.068 555.78C214.161 555.833 214.395 555.86 214.768 555.86C214.781 555.873 214.848 555.88 214.968 555.88C215.581 555.88 216.175 555.727 216.748 555.42C216.801 555.393 217.068 555.14 217.548 554.66C217.975 555.153 218.375 555.4 218.748 555.4C219.135 555.4 219.448 555.207 219.688 554.82L220.228 554.78L220.308 554.88ZM217.728 562.14V559.62L217.688 559.58H216.668L215.628 560.62C215.535 560.713 215.428 560.833 215.308 560.98C215.188 561.113 215.041 561.267 214.868 561.44C215.028 561.413 215.168 561.393 215.288 561.38C215.408 561.353 215.501 561.34 215.568 561.34C216.261 561.34 216.855 561.647 217.348 562.26L217.428 562.22L217.488 562.2C217.515 562.2 217.561 562.187 217.628 562.16H217.708L217.728 562.14ZM218.388 556.84C218.161 556.933 217.921 556.98 217.668 556.98C217.281 556.98 216.841 556.787 216.348 556.4C216.308 556.413 216.281 556.427 216.268 556.44H216.188C216.108 556.48 216.035 556.5 215.968 556.5V559.02H216.188C216.295 558.953 216.441 558.827 216.628 558.64C216.828 558.453 217.081 558.207 217.388 557.9C217.841 557.42 218.175 557.067 218.388 556.84ZM229.896 554.88C229.55 555.947 228.816 557.053 227.696 558.2L229.576 558.16C229.576 558.173 229.57 558.2 229.556 558.24C229.556 558.28 229.556 558.307 229.556 558.32C229.543 558.347 229.536 558.38 229.536 558.42L229.516 558.44V558.48L229.476 558.52V558.56L229.456 558.6C229.456 558.627 229.45 558.647 229.436 558.66C229.436 558.673 229.436 558.687 229.436 558.7V558.68C229.423 558.72 229.41 558.767 229.396 558.82L229.376 558.9V562.3C229.376 562.327 229.383 562.347 229.396 562.36V562.42L229.416 562.46V562.44C229.43 562.453 229.436 562.467 229.436 562.48L229.456 562.58L229.436 562.54L229.416 562.52C229.416 562.533 229.43 562.56 229.456 562.6C229.496 562.667 229.536 562.733 229.576 562.8L229.656 562.96C229.51 562.96 229.423 562.953 229.396 562.94H229.416C229.403 562.927 229.383 562.92 229.356 562.92C229.196 562.92 229.063 562.92 228.956 562.92C228.85 562.907 228.763 562.88 228.696 562.84C228.496 562.84 228.376 562.833 228.336 562.82H228.216C227.203 562.82 226.37 563.167 225.716 563.86L225.136 563.28C225.03 563.187 224.93 563.113 224.836 563.06C224.743 563.02 224.636 563 224.516 563C224.436 562.96 224.323 562.94 224.176 562.94C223.563 562.94 223.136 563.233 222.896 563.82H222.316C222.423 563.353 222.61 562.88 222.876 562.4C223.143 561.907 223.503 561.38 223.956 560.82L224.036 560.74C224.076 560.7 224.123 560.647 224.176 560.58C224.243 560.513 224.316 560.44 224.396 560.36L223.076 560.3L223.216 560.16L223.196 560.22C223.316 560.06 223.376 559.893 223.376 559.72L223.396 559.68L223.376 556.2C223.376 556.187 223.37 556.18 223.356 556.18C223.356 556.167 223.356 556.153 223.356 556.14V556.16C223.343 556.147 223.336 556.113 223.336 556.06L223.276 555.92V555.9C223.25 555.873 223.236 555.833 223.236 555.78V555.6C223.37 555.72 223.51 555.78 223.656 555.78C223.75 555.833 223.983 555.86 224.356 555.86C224.37 555.873 224.436 555.88 224.556 555.88C225.17 555.88 225.763 555.727 226.336 555.42C226.39 555.393 226.656 555.14 227.136 554.66C227.563 555.153 227.963 555.4 228.336 555.4C228.723 555.4 229.036 555.207 229.276 554.82L229.816 554.78L229.896 554.88ZM227.316 562.14V559.62L227.276 559.58H226.256L225.216 560.62C225.123 560.713 225.016 560.833 224.896 560.98C224.776 561.113 224.63 561.267 224.456 561.44C224.616 561.413 224.756 561.393 224.876 561.38C224.996 561.353 225.09 561.34 225.156 561.34C225.85 561.34 226.443 561.647 226.936 562.26L227.016 562.22L227.076 562.2C227.103 562.2 227.15 562.187 227.216 562.16H227.296L227.316 562.14ZM227.976 556.84C227.75 556.933 227.51 556.98 227.256 556.98C226.87 556.98 226.43 556.787 225.936 556.4C225.896 556.413 225.87 556.427 225.856 556.44H225.776C225.696 556.48 225.623 556.5 225.556 556.5V559.02H225.776C225.883 558.953 226.03 558.827 226.216 558.64C226.416 558.453 226.67 558.207 226.976 557.9C227.43 557.42 227.763 557.067 227.976 556.84ZM238.245 557.82C238.085 557.9 237.765 558.08 237.285 558.36C236.818 558.627 236.178 559 235.365 559.48C235.245 559.547 235.111 559.633 234.965 559.74V561.24C235.378 561.307 235.758 561.393 236.105 561.5C236.465 561.607 236.798 561.733 237.105 561.88L237.585 561.38L238.085 561.84L236.265 563.84L236.065 563.74C235.785 563.593 235.511 563.453 235.245 563.32C234.978 563.2 234.671 563.107 234.325 563.04C233.738 562.92 233.231 562.86 232.805 562.86C232.645 562.86 232.485 562.873 232.325 562.9C232.165 562.913 232.005 562.933 231.845 562.96C231.871 562.893 231.898 562.84 231.925 562.8C231.951 562.747 231.978 562.707 232.005 562.68V562.7C232.098 562.553 232.171 562.433 232.225 562.34C232.291 562.247 232.331 562.193 232.345 562.18C232.438 562.06 232.618 561.9 232.885 561.7V556.86C232.885 556.66 232.778 556.327 232.565 555.86V555.58L232.745 555.76H232.865L232.885 555.78H232.945L233.005 555.8H233.085C234.138 555.8 235.325 555.36 236.645 554.48C236.711 554.72 236.798 554.98 236.905 555.26C237.011 555.54 237.158 555.853 237.345 556.2C237.518 556.507 237.678 556.793 237.825 557.06C237.985 557.313 238.131 557.533 238.265 557.72L238.245 557.82ZM235.125 556.24L234.965 556.28V558.84L236.045 558.14C235.991 558.06 235.925 557.96 235.845 557.84C235.778 557.707 235.698 557.54 235.605 557.34C235.511 557.167 235.425 556.987 235.345 556.8C235.265 556.613 235.191 556.427 235.125 556.24ZM247.942 555.52V555.82L247.902 555.86L247.882 555.9C247.856 555.927 247.829 555.953 247.802 555.98C247.789 556.007 247.769 556.033 247.742 556.06V556.1C247.662 556.207 247.616 556.3 247.602 556.38V562.1C247.602 562.127 247.609 562.147 247.622 562.16V562.2L247.642 562.26V562.24C247.656 562.253 247.662 562.267 247.662 562.28L247.682 562.38L247.702 562.4C247.702 562.453 247.709 562.487 247.722 562.5L247.742 562.54V562.56L247.762 562.58C247.762 562.607 247.769 562.633 247.782 562.66L247.922 562.94C247.496 562.687 247.009 562.56 246.462 562.56C245.329 562.56 244.409 562.993 243.702 563.86L243.522 563.7C243.496 563.673 243.469 563.647 243.442 563.62C243.429 563.593 243.409 563.567 243.382 563.54C242.836 562.9 242.189 562.58 241.442 562.58C241.002 562.58 240.609 562.707 240.262 562.96C240.382 562.24 240.742 561.727 241.342 561.42V556.64C241.342 556.427 241.209 556.133 240.942 555.76H241.182L241.222 555.78H241.462L241.502 555.8H241.562C242.549 555.8 243.376 555.567 244.042 555.1L243.202 554.18C242.976 553.94 242.742 553.707 242.502 553.48C242.262 553.253 242.022 553.047 241.782 552.86C241.729 552.82 241.649 552.767 241.542 552.7C241.449 552.62 241.342 552.527 241.222 552.42C241.049 552.273 240.749 551.953 240.322 551.46V551.18C240.442 551.3 240.562 551.36 240.682 551.36C240.696 551.373 240.769 551.38 240.902 551.38C241.249 551.38 241.596 551.333 241.942 551.24C242.289 551.147 242.629 551.013 242.962 550.84C243.056 551.12 243.229 551.433 243.482 551.78V551.76L243.982 552.26L246.062 554.32L246.102 554.38L246.562 554.86C246.616 554.913 246.676 554.973 246.742 555.04C246.809 555.107 246.889 555.18 246.982 555.26C247.009 555.287 247.036 555.313 247.062 555.34C247.102 555.367 247.136 555.393 247.162 555.42H247.142C247.356 555.62 247.569 555.72 247.782 555.72L247.942 555.52ZM245.382 561.94L245.402 561.92V556.44L244.602 555.62C244.242 555.967 243.842 556.187 243.402 556.28V561.16L243.542 561.2C243.582 561.213 243.649 561.233 243.742 561.26C243.836 561.273 243.969 561.307 244.142 561.36C244.516 561.547 244.836 561.773 245.102 562.04L245.142 562H245.162L245.202 561.96H245.262L245.282 561.94H245.382ZM247.742 556.12V556.1C247.742 556.087 247.756 556.067 247.782 556.04L247.742 556.12ZM247.722 556.08V556.06V556.08ZM264.484 555.76C264.43 556.147 264.23 556.473 263.884 556.74V562.46C263.884 562.527 263.91 562.607 263.964 562.7C264.03 562.793 264.117 562.9 264.224 563.02C263.997 562.953 263.777 562.9 263.564 562.86C263.35 562.82 263.124 562.8 262.884 562.8C261.617 562.8 260.537 563.147 259.644 563.84C258.897 563.147 258.104 562.8 257.264 562.8H257.244L257.224 562.82H257.104L257.064 562.84H256.764C256.884 562.267 257.197 561.873 257.704 561.66L257.684 552.96V552.98C257.59 552.74 257.497 552.553 257.404 552.42H257.384L257.324 552.36V552.34L257.304 552.32V552.06L257.444 552.2H257.484L257.504 552.22C257.944 552.22 258.384 552.1 258.824 551.86C258.89 551.807 259.037 551.7 259.264 551.54C259.504 551.38 259.81 551.167 260.184 550.9C260.037 551.287 259.937 551.587 259.884 551.8C259.83 552.013 259.804 552.147 259.804 552.2V556.32L262.284 554.66C262.71 555.407 263.27 555.78 263.964 555.78H264.024C264.037 555.78 264.077 555.76 264.144 555.72L264.124 555.74C264.15 555.713 264.197 555.7 264.264 555.7C264.277 555.687 264.304 555.68 264.344 555.68C264.357 555.68 264.364 555.68 264.364 555.68C264.377 555.667 264.39 555.66 264.404 555.66L264.484 555.76ZM261.724 562.16V557.12H261.704C261.65 557.12 261.61 557.113 261.584 557.1C261.544 557.1 261.51 557.087 261.484 557.06C261.124 556.887 260.897 556.72 260.804 556.56L259.804 557.2L259.844 561.44C260.27 561.56 260.737 561.82 261.244 562.22V562.26L261.384 562.22C261.45 562.207 261.564 562.187 261.724 562.16ZM272.809 557.82C272.649 557.9 272.329 558.08 271.849 558.36C271.382 558.627 270.742 559 269.929 559.48C269.809 559.547 269.675 559.633 269.529 559.74V561.24C269.942 561.307 270.322 561.393 270.669 561.5C271.029 561.607 271.362 561.733 271.669 561.88L272.149 561.38L272.649 561.84L270.829 563.84L270.629 563.74C270.349 563.593 270.075 563.453 269.809 563.32C269.542 563.2 269.235 563.107 268.889 563.04C268.302 562.92 267.795 562.86 267.369 562.86C267.209 562.86 267.049 562.873 266.889 562.9C266.729 562.913 266.569 562.933 266.409 562.96C266.435 562.893 266.462 562.84 266.489 562.8C266.515 562.747 266.542 562.707 266.569 562.68V562.7C266.662 562.553 266.735 562.433 266.789 562.34C266.855 562.247 266.895 562.193 266.909 562.18C267.002 562.06 267.182 561.9 267.449 561.7V556.86C267.449 556.66 267.342 556.327 267.129 555.86V555.58L267.309 555.76H267.429L267.449 555.78H267.509L267.569 555.8H267.649C268.702 555.8 269.889 555.36 271.209 554.48C271.275 554.72 271.362 554.98 271.469 555.26C271.575 555.54 271.722 555.853 271.909 556.2C272.082 556.507 272.242 556.793 272.389 557.06C272.549 557.313 272.695 557.533 272.829 557.72L272.809 557.82ZM269.689 556.24L269.529 556.28V558.84L270.609 558.14C270.555 558.06 270.489 557.96 270.409 557.84C270.342 557.707 270.262 557.54 270.169 557.34C270.075 557.167 269.989 556.987 269.909 556.8C269.829 556.613 269.755 556.427 269.689 556.24Z" fill="#C5E3FE"/>
<path d="M420.18 563.44C419.487 562.787 418.813 562.46 418.16 562.46C417.853 562.46 417.627 562.573 417.48 562.8V562.52C417.48 562.48 417.533 562.327 417.64 562.06C417.827 561.66 418.08 561.373 418.4 561.2V556.36H418.06C417.967 556.413 417.86 556.453 417.74 556.48C417.727 556.493 417.667 556.513 417.56 556.54L417.54 556.58H417.5L417.28 556.7V556.56C417.28 556.507 417.287 556.467 417.3 556.44V556.38L417.32 556.34C417.32 556.287 417.327 556.247 417.34 556.22V556.08C417.34 556.04 417.34 556 417.34 555.96C417.353 555.92 417.367 555.873 417.38 555.82V555.7L417.36 555.64V555.46C417.307 555.313 417.28 555.073 417.28 554.74C417.453 554.833 417.593 554.9 417.7 554.94C417.82 554.98 417.913 555.007 417.98 555.02C418.007 555.007 418.093 555 418.24 555H418.4V554.1L418.38 554.06V553.84C418.367 553.827 418.353 553.807 418.34 553.78C418.327 553.753 418.313 553.727 418.3 553.7C418.3 553.66 418.293 553.627 418.28 553.6V553.58C418.253 553.553 418.24 553.5 418.24 553.42L418.38 553.38L418.4 553.42H418.5V553.44C419.247 553.44 419.953 553.027 420.62 552.2V552.46L420.6 552.48C420.587 552.507 420.573 552.547 420.56 552.6C420.56 552.653 420.547 552.72 420.52 552.8V552.82C420.52 552.86 420.513 552.893 420.5 552.92C420.447 553.133 420.42 553.293 420.42 553.4V555H421.04L421.08 555.02C421.293 555.02 421.527 554.927 421.78 554.74V554.96C421.767 554.987 421.76 555.027 421.76 555.08C421.72 555.147 421.7 555.313 421.7 555.58H421.72C421.72 555.86 421.753 556.233 421.82 556.7L421.6 556.58L421.58 556.56H421.56C421.413 556.507 421.247 556.467 421.06 556.44C420.873 556.4 420.66 556.373 420.42 556.36V560.96C420.513 561.053 420.62 561.1 420.74 561.1L420.8 561.12C420.84 561.133 420.867 561.147 420.88 561.16C420.92 561.2 420.96 561.22 421 561.22C421.013 561.233 421.027 561.247 421.04 561.26C421.067 561.26 421.087 561.267 421.1 561.28H421.08C421.12 561.307 421.167 561.347 421.22 561.4C421.287 561.44 421.36 561.48 421.44 561.52L421.64 561.32L422.04 561.78L420.18 563.44ZM432.077 555.56C432.077 555.6 432.07 555.653 432.057 555.72C431.91 556.227 431.677 556.573 431.357 556.76L431.377 561.96V561.94C431.483 562.247 431.63 562.52 431.817 562.76V562.74L431.857 562.78V562.8L431.897 562.84L431.797 562.98C431.543 562.847 431.197 562.78 430.757 562.78C430.063 562.78 429.697 562.893 429.657 563.12L429.797 563.26H429.677C429.703 563.3 429.75 563.353 429.817 563.42C429.897 563.487 429.99 563.567 430.097 563.66C430.75 564.193 431.077 564.733 431.077 565.28C431.077 565.787 430.837 566.187 430.357 566.48C430.17 566.6 430.037 566.66 429.957 566.66L429.917 566.68H429.797L429.777 566.7H429.697C429.297 566.7 429.017 566.507 428.857 566.12C429.283 565.96 429.497 565.733 429.497 565.44C429.497 565.2 429.423 564.993 429.277 564.82C429.237 564.807 429.21 564.74 429.197 564.62L429.217 564.64C428.963 564.267 428.837 563.86 428.837 563.42C428.837 563.113 428.917 562.913 429.077 562.82V562.8C429.223 562.653 429.297 562.493 429.297 562.32V557.14C429.163 557.14 428.977 557.06 428.737 556.9C428.47 556.727 428.31 556.613 428.257 556.56L428.237 556.54L427.357 557.2V561.34C427.41 561.353 427.47 561.373 427.537 561.4C427.603 561.427 427.683 561.453 427.777 561.48C427.99 561.587 428.17 561.7 428.317 561.82C428.477 561.94 428.61 562.067 428.717 562.2L426.877 563.88C426.13 563.16 425.45 562.8 424.837 562.8H424.737C424.71 562.8 424.67 562.807 424.617 562.82C424.563 562.833 424.483 562.867 424.377 562.92C424.31 562.947 424.237 562.967 424.157 562.98C424.077 562.993 424.023 563 423.997 563C424.183 562.267 424.603 561.76 425.257 561.48V553.1C425.257 552.847 425.13 552.447 424.877 551.9C425.263 551.9 425.65 551.82 426.037 551.66C426.423 551.5 426.83 551.267 427.257 550.96C427.283 550.947 427.43 550.827 427.697 550.6L427.677 550.62L427.837 550.64C427.81 550.72 427.777 550.807 427.737 550.9C427.71 550.993 427.69 551.06 427.677 551.1L427.617 551.22C427.563 551.327 427.51 551.527 427.457 551.82C427.443 551.833 427.437 551.847 427.437 551.86V551.88C427.41 552.027 427.39 552.147 427.377 552.24C427.363 552.333 427.357 552.4 427.357 552.44V556.2L429.877 554.28C430.237 555.013 430.617 555.38 431.017 555.38C431.03 555.393 431.07 555.4 431.137 555.4C431.31 555.4 431.643 555.247 432.137 554.94V555.22C432.137 555.26 432.13 555.293 432.117 555.32C432.117 555.347 432.11 555.38 432.097 555.42C432.083 555.46 432.077 555.507 432.077 555.56ZM440.452 557.82C440.292 557.9 439.972 558.08 439.492 558.36C439.026 558.627 438.386 559 437.572 559.48C437.452 559.547 437.319 559.633 437.172 559.74V561.24C437.586 561.307 437.966 561.393 438.312 561.5C438.672 561.607 439.006 561.733 439.312 561.88L439.792 561.38L440.292 561.84L438.472 563.84L438.272 563.74C437.992 563.593 437.719 563.453 437.452 563.32C437.186 563.2 436.879 563.107 436.532 563.04C435.946 562.92 435.439 562.86 435.012 562.86C434.852 562.86 434.692 562.873 434.532 562.9C434.372 562.913 434.212 562.933 434.052 562.96C434.079 562.893 434.106 562.84 434.132 562.8C434.159 562.747 434.186 562.707 434.212 562.68V562.7C434.306 562.553 434.379 562.433 434.432 562.34C434.499 562.247 434.539 562.193 434.552 562.18C434.646 562.06 434.826 561.9 435.092 561.7V556.86C435.092 556.66 434.986 556.327 434.772 555.86V555.58L434.952 555.76H435.072L435.092 555.78H435.152L435.212 555.8H435.292C436.346 555.8 437.532 555.36 438.852 554.48C438.919 554.72 439.006 554.98 439.112 555.26C439.219 555.54 439.366 555.853 439.552 556.2C439.726 556.507 439.886 556.793 440.032 557.06C440.192 557.313 440.339 557.533 440.472 557.72L440.452 557.82ZM437.332 556.24L437.172 556.28V558.84L438.252 558.14C438.199 558.06 438.132 557.96 438.052 557.84C437.986 557.707 437.906 557.54 437.812 557.34C437.719 557.167 437.632 556.987 437.552 556.8C437.472 556.613 437.399 556.427 437.332 556.24ZM457.365 555.56C457.365 555.6 457.358 555.653 457.345 555.72C457.198 556.227 456.965 556.573 456.645 556.76L456.665 561.96V561.94C456.772 562.247 456.918 562.52 457.105 562.76V562.74L457.145 562.78V562.8L457.185 562.84L457.085 562.98C456.832 562.847 456.485 562.78 456.045 562.78C455.352 562.78 454.985 562.893 454.945 563.12L455.085 563.26H454.965C454.992 563.3 455.038 563.353 455.105 563.42C455.185 563.487 455.278 563.567 455.385 563.66C456.038 564.193 456.365 564.733 456.365 565.28C456.365 565.787 456.125 566.187 455.645 566.48C455.458 566.6 455.325 566.66 455.245 566.66L455.205 566.68H455.085L455.065 566.7H454.985C454.585 566.7 454.305 566.507 454.145 566.12C454.572 565.96 454.785 565.733 454.785 565.44C454.785 565.2 454.712 564.993 454.565 564.82C454.525 564.807 454.498 564.74 454.485 564.62L454.505 564.64C454.252 564.267 454.125 563.86 454.125 563.42C454.125 563.113 454.205 562.913 454.365 562.82V562.8C454.512 562.653 454.585 562.493 454.585 562.32V557.14C454.452 557.14 454.265 557.06 454.025 556.9C453.758 556.727 453.598 556.613 453.545 556.56L453.525 556.54L452.645 557.2V561.34C452.698 561.353 452.758 561.373 452.825 561.4C452.892 561.427 452.972 561.453 453.065 561.48C453.278 561.587 453.458 561.7 453.605 561.82C453.765 561.94 453.898 562.067 454.005 562.2L452.165 563.88C451.418 563.16 450.738 562.8 450.125 562.8H450.025C449.998 562.8 449.958 562.807 449.905 562.82C449.852 562.833 449.772 562.867 449.665 562.92C449.598 562.947 449.525 562.967 449.445 562.98C449.365 562.993 449.312 563 449.285 563C449.472 562.267 449.892 561.76 450.545 561.48V553.1C450.545 552.847 450.418 552.447 450.165 551.9C450.552 551.9 450.938 551.82 451.325 551.66C451.712 551.5 452.118 551.267 452.545 550.96C452.572 550.947 452.718 550.827 452.985 550.6L452.965 550.62L453.125 550.64C453.098 550.72 453.065 550.807 453.025 550.9C452.998 550.993 452.978 551.06 452.965 551.1L452.905 551.22C452.852 551.327 452.798 551.527 452.745 551.82C452.732 551.833 452.725 551.847 452.725 551.86V551.88C452.698 552.027 452.678 552.147 452.665 552.24C452.652 552.333 452.645 552.4 452.645 552.44V556.2L455.165 554.28C455.525 555.013 455.905 555.38 456.305 555.38C456.318 555.393 456.358 555.4 456.425 555.4C456.598 555.4 456.932 555.247 457.425 554.94V555.22C457.425 555.26 457.418 555.293 457.405 555.32C457.405 555.347 457.398 555.38 457.385 555.42C457.372 555.46 457.365 555.507 457.365 555.56ZM466.381 561.56C466.461 561.947 466.614 562.193 466.841 562.3C465.401 562.513 464.247 563.093 463.381 564.04C462.607 563.24 461.261 562.74 459.341 562.54C459.287 562.54 459.261 562.52 459.261 562.48C459.261 562.4 459.341 562.26 459.501 562.06C459.727 561.753 459.894 561.547 460.001 561.44V556.38C459.787 556.113 459.681 555.9 459.681 555.74V555.72C461.067 555.64 462.187 555.24 463.041 554.52C464.574 555.28 465.814 555.707 466.761 555.8C466.507 556.093 466.381 556.3 466.381 556.42V561.56ZM464.041 556.7C462.961 556.247 462.354 556.02 462.221 556.02C462.194 556.02 462.181 556.027 462.181 556.04V561.3C462.394 561.527 463.014 561.747 464.041 561.96V556.7ZM471.37 563.84C470.677 563.24 469.857 562.827 468.91 562.6C469.217 562.107 469.537 561.773 469.87 561.6V553.44L469.75 552.82C469.75 552.807 469.744 552.8 469.73 552.8C469.73 552.787 469.73 552.773 469.73 552.76V552.78C469.717 552.753 469.71 552.707 469.71 552.64L469.67 552.58L469.65 552.56C469.65 552.52 469.644 552.487 469.63 552.46L469.61 552.42V552.16C469.69 552.2 469.75 552.227 469.79 552.24C469.83 552.24 469.87 552.24 469.91 552.24C470.377 552.24 471.11 551.84 472.11 551.04L472.21 551.12C472.157 551.227 472.11 551.353 472.07 551.5C472.03 551.647 471.984 551.813 471.93 552C471.837 552.373 471.79 552.66 471.79 552.86V561.4C471.95 561.48 472.164 561.62 472.43 561.82L472.41 561.8H472.43L472.47 561.82C472.537 561.887 472.577 561.933 472.59 561.96L472.65 562.02L472.95 561.74L473.35 562.26L471.37 563.84ZM483.495 555.7V555.8L483.475 555.82C483.475 555.913 483.442 556.02 483.375 556.14C483.322 556.247 483.255 556.353 483.175 556.46C483.095 556.567 483.002 556.667 482.895 556.76C482.789 556.84 482.689 556.9 482.595 556.94V562.28C482.595 562.973 482.015 563.453 480.855 563.72C480.695 563.747 480.542 563.767 480.395 563.78C480.262 563.807 480.142 563.82 480.035 563.82H479.915C479.902 563.82 479.842 563.827 479.735 563.84C478.322 563.947 477.615 564.267 477.615 564.8C477.615 565 477.742 565.1 477.995 565.1C478.115 565.1 478.522 564.907 479.215 564.52C479.882 564.147 480.482 563.96 481.015 563.96C481.482 563.96 481.882 564.107 482.215 564.4C482.549 564.693 482.715 565.06 482.715 565.5C482.715 565.887 482.569 566.207 482.275 566.46C481.995 566.713 481.649 566.84 481.235 566.84C480.862 566.84 480.622 566.787 480.515 566.68V566C480.729 566.12 480.935 566.18 481.135 566.18H481.155L481.195 566.16H481.255C481.335 566.16 481.429 566.127 481.535 566.06C481.642 565.993 481.695 565.92 481.695 565.84C481.695 565.707 481.609 565.64 481.435 565.64L481.395 565.62H481.375C481.069 565.62 480.655 565.78 480.135 566.1C479.829 566.3 479.562 566.453 479.335 566.56C479.122 566.667 478.955 566.733 478.835 566.76C478.769 566.773 478.689 566.78 478.595 566.78C478.502 566.793 478.382 566.8 478.235 566.8C478.009 566.8 477.789 566.753 477.575 566.66C477.362 566.58 477.175 566.467 477.015 566.32C476.855 566.173 476.722 566 476.615 565.8C476.522 565.613 476.475 565.407 476.475 565.18V565.08H476.495C476.522 564.4 476.862 563.9 477.515 563.58C477.249 563.46 477.009 563.293 476.795 563.08C476.475 562.787 476.315 562.487 476.315 562.18V556.96C476.315 556.653 475.995 556.467 475.355 556.4V556.26L477.495 554.58C477.589 554.633 477.689 554.707 477.795 554.8C477.902 554.893 478.002 555 478.095 555.12C478.322 555.427 478.435 555.653 478.435 555.8L478.455 555.84V555.96L478.475 555.98V556.76L481.475 554.74C481.889 555.3 482.342 555.58 482.835 555.58H482.875L482.895 555.56C483.122 555.56 483.329 555.487 483.515 555.34V555.66L483.495 555.7ZM480.395 562.6V557.14C480.342 557.127 480.289 557.107 480.235 557.08C480.182 557.053 480.122 557.027 480.055 557L479.715 556.84L478.495 557.68V562.48C478.495 562.747 478.729 562.927 479.195 563.02H479.275C479.289 563.02 479.302 563.02 479.315 563.02C479.329 563.033 479.349 563.04 479.375 563.04C479.389 563.04 479.395 563.04 479.395 563.04C479.409 563.053 479.422 563.06 479.435 563.06H479.555L479.595 563.04C479.782 563.04 479.962 563.007 480.135 562.94C480.309 562.86 480.395 562.747 480.395 562.6Z" fill="#C5E3FE"/>
</svg>
