<svg width="671" height="605" viewBox="0 0 671 605" fill="none" xmlns="http://www.w3.org/2000/svg">
<path fill-rule="evenodd" clip-rule="evenodd" d="M120.338 56.3537C78.5987 80.9335 50.0687 97.7057 39.4227 103.919C32.379 108.032 26.0338 112.145 25.3236 113.06C24.6122 113.975 23.3641 114.724 22.5503 114.724C21.7353 114.724 19.3288 115.799 17.2006 117.115C13.9488 119.125 13.4925 119.914 14.3389 122.063C14.8931 123.47 27.6847 149.616 42.7665 180.168L70.1882 235.715L74.015 234.448C76.1211 233.75 78.4636 232.409 79.2204 231.466C79.9783 230.523 81.1624 230.1 81.8517 230.526C82.5409 230.951 86.6356 229.937 90.9515 228.271C102.766 223.711 112.463 220.063 127.906 214.368L141.877 209.216L144.419 201.137C151.367 179.053 156.054 146.155 154.814 128.181C153.852 114.236 149.112 94.8265 142.858 79.2139C137.235 65.1799 130.894 52.7713 129.07 52.2381C128.43 52.0506 124.501 53.9029 120.338 56.3537ZM28.0188 122.442C27.6707 122.788 26.8022 121.98 26.0873 120.645C25.1862 118.96 25.1687 118.216 26.0291 118.216C27.4413 118.216 28.9781 121.482 28.0188 122.442ZM32.5955 130.671C31.7048 131.562 29.5766 128.994 29.544 126.99C29.5347 126.372 30.4125 126.753 31.4941 127.836C32.5769 128.918 33.0728 130.194 32.5955 130.671ZM36.0521 138.858C35.768 139.14 34.952 138.28 34.2371 136.945C33.5223 135.608 33.4233 134.516 34.0182 134.516C35.215 134.516 36.8659 138.043 36.0521 138.858ZM40.0048 146.323C40.0048 148.221 37.9988 146.355 37.3433 143.849C37.0057 142.558 37.1489 141.502 37.6611 141.502C38.6263 141.502 40.0048 144.337 40.0048 146.323ZM43.6221 155.473C42.5021 155.473 41.1458 152.641 41.2064 150.429C41.2261 149.682 42.012 150.087 42.9527 151.329C44.8935 153.895 45.1485 155.473 43.6221 155.473ZM46.371 161.945C45.4315 160.701 44.6618 159.197 44.6618 158.6C44.6618 158.004 45.4478 158.168 46.4083 158.965C47.3688 159.763 48.1383 161.267 48.1174 162.309C48.0859 163.902 47.8077 163.844 46.371 161.945ZM50.4832 170.026C49.8428 169.63 49.327 168.42 49.3364 167.338C49.3527 165.641 49.511 165.61 50.4832 167.115C51.9571 169.395 51.9571 170.936 50.4832 170.026ZM54.054 178.223C53.3705 177.802 52.8279 176.57 52.8489 175.487C52.8815 173.758 53.0922 173.792 54.5825 175.762C56.3929 178.155 56.1054 179.491 54.054 178.223ZM58.7692 186.908C58.2033 186.908 57.4664 185.86 57.1311 184.579C56.4128 181.829 58.0647 181.419 59.0904 184.092C60.0288 186.536 59.9858 186.908 58.7692 186.908ZM62.9465 194.625C62.5984 194.972 61.7299 194.164 61.015 192.829C60.1139 191.144 60.0963 190.4 60.9567 190.4C62.369 190.4 63.9058 193.666 62.9465 194.625ZM66.9073 203.207C65.7873 203.207 64.4309 200.376 64.4914 198.164C64.5112 197.416 65.2971 197.821 66.2378 199.064C68.1787 201.63 68.4336 203.207 66.9073 203.207ZM71.0963 210.925C70.7482 211.272 69.8796 210.464 69.1648 209.129C68.2637 207.444 68.2461 206.7 69.1065 206.7C70.5187 206.7 72.0557 209.966 71.0963 210.925ZM73.8462 218.972C73.1628 218.551 72.6226 217.057 72.6447 215.654C72.6855 213.194 72.7437 213.207 74.2968 216.012C76.0199 219.126 75.8534 220.213 73.8462 218.972ZM77.8059 225.979C76.8663 224.735 76.1131 223.164 76.134 222.486C76.1538 221.807 76.9396 222.271 77.8804 223.513C78.8199 224.756 79.5733 226.328 79.5523 227.006C79.5325 227.684 78.7466 227.221 77.8059 225.979Z" fill="white"/>
<path fill-rule="evenodd" clip-rule="evenodd" d="M235.6 18.0008C232.078 19.1895 221.076 22.6264 211.15 25.6371C201.225 28.6491 189.175 32.3467 184.373 33.8556C175.981 36.4915 165.887 39.607 142.75 46.7043C136.828 48.5218 131.981 50.4695 131.981 51.033C131.981 51.5965 133.766 55.2861 135.949 59.2329C144.448 74.6022 152.772 98.8665 155.386 115.888C156.233 121.4 156.479 131.704 156.054 143.83C155.35 163.962 152.668 180.205 146.576 201.212C143.693 211.151 143.641 211.941 144.725 229.154C147.976 280.804 148.597 327.306 147.187 413.355C146.411 460.741 145.343 516.8 144.815 537.931C144.102 566.428 144.2 576.776 145.194 577.996C146.214 579.247 146.186 579.758 145.079 580.13C144.179 580.433 143.624 582.802 143.624 586.344V592.069H335.726H527.828V586.247C527.828 582.72 527.314 580.426 526.522 580.426C525.56 580.426 525.563 580.006 526.532 578.839C527.514 577.656 527.369 550.995 525.97 474.347C524.014 367.229 524.267 286.922 526.714 237.929L528.09 210.364L523.904 194.851C513.267 155.441 512.687 121.819 522.154 93.3258C526.792 79.3664 533.026 64.3556 537.325 56.8054L540.803 50.6954L537.517 49.445C534.407 48.2621 518.034 43.1278 498.722 37.2785C490.186 34.6939 477.479 30.7762 446.912 21.3084C425.22 14.5883 427.444 14.5488 419.807 21.7928C400.128 40.4616 375.93 49.9957 344.458 51.4801C309.219 53.1415 277.98 42.8856 252.865 21.4085C249.233 18.3023 245.304 15.7794 244.133 15.8003C242.961 15.8224 239.122 16.8121 235.6 18.0008ZM152.356 580.426C150.755 580.426 149.445 579.902 149.445 579.262C149.445 578.622 150.755 578.098 152.356 578.098C153.956 578.098 155.266 578.622 155.266 579.262C155.266 579.902 153.956 580.426 152.356 580.426ZM161.087 580.426C159.807 580.426 158.759 579.902 158.759 579.262C158.759 578.622 159.807 578.098 161.087 578.098C162.368 578.098 163.416 578.622 163.416 579.262C163.416 579.902 162.368 580.426 161.087 580.426ZM169.819 580.426C168.219 580.426 166.909 579.902 166.909 579.262C166.909 578.622 168.219 578.098 169.819 578.098C171.42 578.098 172.73 578.622 172.73 579.262C172.73 579.902 171.42 580.426 169.819 580.426ZM178.551 580.426C177.271 580.426 176.223 579.902 176.223 579.262C176.223 578.622 177.271 578.098 178.551 578.098C179.832 578.098 180.88 578.622 180.88 579.262C180.88 579.902 179.832 580.426 178.551 580.426ZM187.283 580.426C185.682 580.426 184.373 579.902 184.373 579.262C184.373 578.622 185.682 578.098 187.283 578.098C188.884 578.098 190.194 578.622 190.194 579.262C190.194 579.902 188.884 580.426 187.283 580.426ZM196.015 580.426C194.734 580.426 193.687 579.902 193.687 579.262C193.687 578.622 194.734 578.098 196.015 578.098C197.296 578.098 198.344 578.622 198.344 579.262C198.344 579.902 197.296 580.426 196.015 580.426ZM204.678 580.426C202.989 580.426 202.01 579.922 202.419 579.262C202.814 578.622 204.154 578.098 205.398 578.098C206.641 578.098 207.658 578.622 207.658 579.262C207.658 579.902 206.316 580.426 204.678 580.426ZM213.479 580.426C212.198 580.426 211.15 579.902 211.15 579.262C211.15 578.622 212.198 578.098 213.479 578.098C214.76 578.098 215.807 578.622 215.807 579.262C215.807 579.902 214.76 580.426 213.479 580.426ZM222.211 580.426C220.61 580.426 219.3 579.902 219.3 579.262C219.3 578.622 220.61 578.098 222.211 578.098C223.812 578.098 225.122 578.622 225.122 579.262C225.122 579.902 223.812 580.426 222.211 580.426ZM230.943 580.426C229.662 580.426 228.614 579.902 228.614 579.262C228.614 578.622 229.662 578.098 230.943 578.098C232.223 578.098 233.271 578.622 233.271 579.262C233.271 579.902 232.223 580.426 230.943 580.426ZM239.606 580.426C237.917 580.426 236.938 579.922 237.346 579.262C237.742 578.622 239.082 578.098 240.326 578.098C241.569 578.098 242.585 578.622 242.585 579.262C242.585 579.902 241.244 580.426 239.606 580.426ZM249.057 580.426C247.419 580.426 246.078 579.902 246.078 579.262C246.078 578.622 247.094 578.098 248.338 578.098C249.581 578.098 250.921 578.622 251.317 579.262C251.726 579.922 250.747 580.426 249.057 580.426ZM257.07 580.426C255.381 580.426 254.401 579.922 254.81 579.262C255.206 578.622 256.546 578.098 257.789 578.098C259.033 578.098 260.049 578.622 260.049 579.262C260.049 579.902 258.708 580.426 257.07 580.426ZM266.521 580.426C264.883 580.426 263.542 579.902 263.542 579.262C263.542 578.622 264.558 578.098 265.802 578.098C267.045 578.098 268.385 578.622 268.781 579.262C269.19 579.922 268.211 580.426 266.521 580.426ZM275.185 580.426C273.904 580.426 272.856 579.902 272.856 579.262C272.856 578.622 273.904 578.098 275.185 578.098C276.465 578.098 277.513 578.622 277.513 579.262C277.513 579.902 276.465 580.426 275.185 580.426ZM283.985 580.426C282.347 580.426 281.006 579.902 281.006 579.262C281.006 578.622 282.022 578.098 283.266 578.098C284.509 578.098 285.849 578.622 286.245 579.262C286.654 579.922 285.674 580.426 283.985 580.426ZM291.998 580.426C290.308 580.426 289.329 579.922 289.738 579.262C290.134 578.622 291.474 578.098 292.717 578.098C293.961 578.098 294.977 578.622 294.977 579.262C294.977 579.902 293.636 580.426 291.998 580.426ZM301.449 580.426C299.811 580.426 298.47 579.902 298.47 579.262C298.47 578.622 299.486 578.098 300.729 578.098C301.973 578.098 303.313 578.622 303.709 579.262C304.117 579.922 303.138 580.426 301.449 580.426ZM310.112 580.426C308.832 580.426 307.784 579.902 307.784 579.262C307.784 578.622 308.832 578.098 310.112 578.098C311.393 578.098 312.441 578.622 312.441 579.262C312.441 579.902 311.393 580.426 310.112 580.426ZM318.913 580.426C317.275 580.426 315.934 579.902 315.934 579.262C315.934 578.622 316.95 578.098 318.193 578.098C319.437 578.098 320.777 578.622 321.173 579.262C321.581 579.922 320.602 580.426 318.913 580.426ZM327.576 580.426C326.295 580.426 325.248 579.902 325.248 579.262C325.248 578.622 326.295 578.098 327.576 578.098C328.857 578.098 329.905 578.622 329.905 579.262C329.905 579.902 328.857 580.426 327.576 580.426ZM336.308 580.426C334.572 580.426 333.57 579.924 333.979 579.262C334.375 578.622 335.423 578.098 336.308 578.098C337.193 578.098 338.241 578.622 338.637 579.262C339.046 579.924 338.044 580.426 336.308 580.426ZM345.04 580.426C343.759 580.426 342.711 579.902 342.711 579.262C342.711 578.622 343.759 578.098 345.04 578.098C346.321 578.098 347.368 578.622 347.368 579.262C347.368 579.902 346.321 580.426 345.04 580.426ZM353.772 580.426C352.171 580.426 350.861 579.902 350.861 579.262C350.861 578.622 352.171 578.098 353.772 578.098C355.373 578.098 356.682 578.622 356.682 579.262C356.682 579.902 355.373 580.426 353.772 580.426ZM362.504 580.426C361.223 580.426 360.175 579.902 360.175 579.262C360.175 578.622 361.223 578.098 362.504 578.098C363.784 578.098 364.832 578.622 364.832 579.262C364.832 579.902 363.784 580.426 362.504 580.426ZM371.167 580.426C369.478 580.426 368.499 579.922 368.907 579.262C369.303 578.622 370.643 578.098 371.887 578.098C373.13 578.098 374.146 578.622 374.146 579.262C374.146 579.902 372.805 580.426 371.167 580.426ZM379.968 580.426C378.687 580.426 377.639 579.902 377.639 579.262C377.639 578.622 378.687 578.098 379.968 578.098C381.248 578.098 382.296 578.622 382.296 579.262C382.296 579.902 381.248 580.426 379.968 580.426ZM388.7 580.426C387.099 580.426 385.789 579.902 385.789 579.262C385.789 578.622 387.099 578.098 388.7 578.098C390.3 578.098 391.61 578.622 391.61 579.262C391.61 579.902 390.3 580.426 388.7 580.426ZM397.431 580.426C396.151 580.426 395.103 579.902 395.103 579.262C395.103 578.622 396.151 578.098 397.431 578.098C398.712 578.098 399.76 578.622 399.76 579.262C399.76 579.902 398.712 580.426 397.431 580.426ZM406.095 580.426C404.405 580.426 403.426 579.922 403.835 579.262C404.231 578.622 405.571 578.098 406.814 578.098C408.058 578.098 409.074 578.622 409.074 579.262C409.074 579.902 407.733 580.426 406.095 580.426ZM414.895 580.426C413.615 580.426 412.567 579.902 412.567 579.262C412.567 578.622 413.615 578.098 414.895 578.098C416.176 578.098 417.224 578.622 417.224 579.262C417.224 579.902 416.176 580.426 414.895 580.426ZM423.558 580.426C421.869 580.426 420.89 579.922 421.299 579.262C421.694 578.622 423.035 578.098 424.278 578.098C425.521 578.098 426.538 578.622 426.538 579.262C426.538 579.902 425.197 580.426 423.558 580.426ZM433.01 580.426C431.372 580.426 430.031 579.902 430.031 579.262C430.031 578.622 431.047 578.098 432.29 578.098C433.534 578.098 434.874 578.622 435.27 579.262C435.678 579.922 434.699 580.426 433.01 580.426ZM441.022 580.426C439.333 580.426 438.354 579.922 438.763 579.262C439.158 578.622 440.498 578.098 441.742 578.098C442.985 578.098 444.002 578.622 444.002 579.262C444.002 579.902 442.66 580.426 441.022 580.426ZM450.474 580.426C448.836 580.426 447.494 579.902 447.494 579.262C447.494 578.622 448.511 578.098 449.754 578.098C450.998 578.098 452.338 578.622 452.734 579.262C453.142 579.922 452.163 580.426 450.474 580.426ZM458.486 580.426C456.797 580.426 455.818 579.922 456.226 579.262C456.622 578.622 457.962 578.098 459.206 578.098C460.449 578.098 461.466 578.622 461.466 579.262C461.466 579.902 460.124 580.426 458.486 580.426ZM467.938 580.426C466.3 580.426 464.958 579.902 464.958 579.262C464.958 578.622 465.975 578.098 467.218 578.098C468.462 578.098 469.802 578.622 470.197 579.262C470.606 579.922 469.627 580.426 467.938 580.426ZM476.601 580.426C475.32 580.426 474.272 579.902 474.272 579.262C474.272 578.622 475.32 578.098 476.601 578.098C477.882 578.098 478.929 578.622 478.929 579.262C478.929 579.902 477.882 580.426 476.601 580.426ZM485.401 580.426C483.763 580.426 482.422 579.902 482.422 579.262C482.422 578.622 483.439 578.098 484.682 578.098C485.925 578.098 487.265 578.622 487.661 579.262C488.07 579.922 487.091 580.426 485.401 580.426ZM493.414 580.426C491.725 580.426 490.745 579.922 491.154 579.262C491.55 578.622 492.89 578.098 494.133 578.098C495.377 578.098 496.393 578.622 496.393 579.262C496.393 579.902 495.052 580.426 493.414 580.426ZM502.797 580.426C501.061 580.426 500.058 579.924 500.468 579.262C500.864 578.622 501.912 578.098 502.797 578.098C503.682 578.098 504.729 578.622 505.125 579.262C505.535 579.924 504.533 580.426 502.797 580.426ZM511.529 580.426C510.248 580.426 509.2 579.902 509.2 579.262C509.2 578.622 510.248 578.098 511.529 578.098C512.809 578.098 513.857 578.622 513.857 579.262C513.857 579.902 512.809 580.426 511.529 580.426ZM520.329 580.426C518.691 580.426 517.35 579.902 517.35 579.262C517.35 578.622 518.366 578.098 519.61 578.098C520.853 578.098 522.193 578.622 522.589 579.262C522.998 579.922 522.018 580.426 520.329 580.426Z" fill="white"/>
<path fill-rule="evenodd" clip-rule="evenodd" d="M534.851 66.116C519.373 98.6348 514.799 124.535 518.566 158.322C519.898 170.271 526.833 201.461 529.231 206.291C530.493 208.832 534.253 210.634 552.278 217.341C564.124 221.749 577.301 226.722 581.561 228.391C585.821 230.062 589.881 231.072 590.584 230.638C591.287 230.203 591.862 230.323 591.862 230.904C591.862 231.862 601.215 236.161 601.864 235.502C602.635 234.722 658.225 121.262 658.225 120.468C658.225 118.909 651.61 114.724 649.147 114.724C647.873 114.724 646.566 114.031 646.241 113.185C645.916 112.338 637.346 106.761 627.197 100.792C604.909 87.685 590.671 79.2767 564.344 63.6757C553.371 57.1733 543.774 51.8538 543.016 51.8538C542.259 51.8538 538.585 58.2724 534.851 66.116ZM645.463 121.675C644.088 123.85 642.794 122.67 643.768 120.129C644.172 119.077 644.971 118.216 645.543 118.216C646.87 118.216 646.841 119.498 645.463 121.675ZM641.872 128.795C640.427 131.495 638.916 130.985 639.998 128.163C640.378 127.174 641.247 126.366 641.93 126.366C642.79 126.366 642.773 127.11 641.872 128.795ZM636.473 138.767C636.153 138.447 636.25 137.058 636.686 135.68C637.123 134.303 637.743 133.438 638.063 133.758C638.384 134.078 638.287 135.467 637.85 136.845C637.414 138.222 636.793 139.087 636.473 138.767ZM631.768 146.869C631.488 146.588 631.913 145.135 632.712 143.641C633.632 141.923 634.348 141.474 634.663 142.417C635.174 143.951 632.683 147.783 631.768 146.869ZM629.738 153.795C627.992 156.103 627.388 154.81 628.661 151.493C629.391 149.591 631.447 148.926 631.447 150.593C631.447 151.111 630.677 152.552 629.738 153.795ZM624.457 162.458C623.596 162.458 623.614 161.714 624.515 160.03C625.23 158.694 626.098 157.886 626.446 158.233C627.406 159.192 625.869 162.458 624.457 162.458ZM620.803 170.608C620.208 170.608 620.307 169.516 621.022 168.179C621.737 166.844 622.553 165.984 622.837 166.266C623.651 167.081 622 170.608 620.803 170.608ZM618.586 176.529C617.104 179.299 615.882 178.904 616.99 176.014C617.394 174.961 618.212 174.101 618.805 174.101C619.4 174.101 619.301 175.193 618.586 176.529ZM612.814 186.908C611.954 186.908 611.971 186.164 612.872 184.479C613.587 183.144 614.456 182.336 614.804 182.682C615.763 183.642 614.226 186.908 612.814 186.908ZM610.536 193.859C609.161 196.034 607.866 194.854 608.841 192.313C609.245 191.261 610.043 190.4 610.615 190.4C611.942 190.4 611.913 191.682 610.536 193.859ZM606.944 200.979C605.499 203.679 603.988 203.169 605.071 200.347C605.45 199.358 606.319 198.55 607.002 198.55C607.863 198.55 607.845 199.294 606.944 200.979ZM601.123 211.357C600.539 211.357 600.659 210.045 601.39 208.442C602.12 206.837 602.944 205.751 603.218 206.025C604.04 206.848 602.268 211.357 601.123 211.357ZM596.841 219.053C596.56 218.772 596.985 217.319 597.785 215.825C598.705 214.107 599.42 213.658 599.735 214.601C600.246 216.135 597.756 219.967 596.841 219.053ZM595.264 225.498C593.703 228.416 592.537 227.539 593.586 224.235C594.011 222.896 594.846 222.103 595.442 222.471C596.094 222.874 596.023 224.08 595.264 225.498Z" fill="white"/>
<path d="M250.86 13.5312L248.074 14.6454L252.606 18.7017C277.364 40.8598 312.362 51.9959 349.115 49.4101C375.392 47.5612 399.053 37.948 417.515 21.6193C423.837 16.0285 424.397 13.9724 419.843 13.0713C417.268 12.5614 415.73 13.3007 411.985 16.8458C401.41 26.8549 385.905 34.5798 367.161 39.1786C357.803 41.4745 353.144 41.8878 336.89 41.8599C319.673 41.8296 316.412 41.492 305.455 38.5976C290.341 34.6066 274.666 27.1984 263.396 18.7191C258.68 15.1716 254.557 12.3029 254.234 12.3425C253.91 12.3832 252.392 12.9188 250.86 13.5312Z" fill="white"/>
<path fill-rule="evenodd" clip-rule="evenodd" d="M249.571 11.6626C247.33 12.5439 237.375 15.7107 227.45 18.6993C217.525 21.6891 202.069 26.4207 193.104 29.216C184.14 32.0114 167.374 37.1365 155.848 40.606C129.36 48.5788 130.075 48.2644 106.101 62.4358C95.0416 68.9731 78.3962 78.7959 69.1113 84.2632C59.8263 89.7318 45.4187 98.2238 37.0942 103.136C28.7698 108.048 19.4697 113.5 16.4286 115.252C13.3876 117.004 10.8984 118.674 10.8984 118.963C10.8984 120.183 68.9797 238.135 69.5804 238.135C70.3349 238.135 104.668 225.349 130.235 215.547C135.998 213.337 141.027 211.883 141.413 212.316C141.797 212.749 143.052 233.798 144.201 259.091C146.677 313.573 146.701 356.605 144.314 466.329C143.347 510.833 142.431 557.723 142.281 570.53L142.006 593.815L335.535 594.11C515.085 594.383 529.117 594.265 529.806 592.468C530.215 591.403 529.927 564.812 529.167 533.379C526.094 406.317 525.297 332.56 526.568 292.819C527.715 256.984 530.022 212.456 530.778 211.566C530.952 211.363 533.634 212.259 536.738 213.559C539.842 214.859 549.716 218.589 558.681 221.848C574.514 227.604 578.394 229.059 594.099 235.133C598.211 236.724 602.009 237.758 602.537 237.432C603.066 237.104 608.667 226.258 614.985 213.328C621.304 200.398 634.192 174.221 643.627 155.156C653.064 136.092 660.509 119.781 660.175 118.909C659.84 118.036 656.775 115.784 653.365 113.903C649.955 112.023 636.686 104.279 623.879 96.6963C611.072 89.1135 595.093 79.7063 588.369 75.7921C581.646 71.8767 574.835 67.8496 573.234 66.8413C556.387 56.2326 540.995 48.2889 531.903 45.511C526.14 43.7506 512.518 39.543 501.632 36.162C490.747 32.781 476.601 28.4209 470.197 26.4707C437.329 16.4663 430.056 14.2309 423.781 12.2051L416.948 10L410.769 15.5011C385.483 38.0108 343.89 45.908 303.127 35.9408C289.638 32.6413 269.772 22.3877 259.135 13.232C254.777 9.48191 255.018 9.52149 249.571 11.6626ZM248.074 14.6454L250.86 13.5312C252.392 12.9188 253.91 12.3832 254.234 12.3425C254.557 12.3029 258.68 15.1716 263.396 18.7191C274.666 27.1984 290.341 34.6066 305.455 38.5976C316.412 41.492 319.673 41.8296 336.89 41.8599C353.144 41.8878 357.803 41.4745 367.161 39.1786C385.905 34.5798 401.41 26.8549 411.985 16.8458C415.73 13.3007 417.268 12.5614 419.843 13.0713C424.397 13.9724 423.837 16.0285 417.515 21.6193C399.053 37.948 375.392 47.5612 349.115 49.4101C312.362 51.9959 277.364 40.8598 252.606 18.7017L248.074 14.6454ZM211.15 25.6371C221.076 22.6264 232.078 19.1895 235.6 18.0008C239.122 16.8121 242.961 15.8224 244.133 15.8003C245.304 15.7794 249.233 18.3023 252.865 21.4085C277.98 42.8856 309.219 53.1415 344.458 51.4801C375.93 49.9957 400.128 40.4616 419.807 21.7928C427.444 14.5488 425.22 14.5883 446.912 21.3084C477.479 30.7762 490.186 34.6939 498.722 37.2785C518.034 43.1278 534.407 48.2621 537.517 49.445L540.803 50.6954L537.325 56.8054C533.026 64.3556 526.792 79.3664 522.154 93.3258C512.687 121.819 513.267 155.441 523.904 194.851L528.09 210.364L526.714 237.929C524.267 286.922 524.014 367.229 525.97 474.347C527.369 550.995 527.514 577.656 526.532 578.839C525.563 580.006 525.56 580.426 526.522 580.426C527.314 580.426 527.828 582.72 527.828 586.247V592.069H335.726H143.624V586.344C143.624 582.802 144.179 580.433 145.079 580.13C146.186 579.758 146.214 579.247 145.194 577.996C144.2 576.776 144.102 566.428 144.815 537.931C145.343 516.8 146.411 460.741 147.187 413.355C148.597 327.306 147.976 280.804 144.725 229.154C143.641 211.941 143.693 211.151 146.576 201.212C152.668 180.205 155.35 163.962 156.054 143.83C156.479 131.704 156.233 121.4 155.386 115.888C152.772 98.8665 144.448 74.6022 135.949 59.2329C133.766 55.2861 131.981 51.5965 131.981 51.033C131.981 50.4695 136.828 48.5218 142.75 46.7043C165.887 39.607 175.981 36.4915 184.373 33.8556C189.175 32.3467 201.225 28.6491 211.15 25.6371ZM39.4227 103.919C50.0687 97.7057 78.5987 80.9335 120.338 56.3537C124.501 53.9029 128.43 52.0506 129.07 52.2381C130.894 52.7713 137.235 65.1799 142.858 79.2139C149.112 94.8265 153.852 114.236 154.814 128.181C156.054 146.155 151.367 179.053 144.419 201.137L141.877 209.216L127.906 214.368C112.463 220.063 102.766 223.711 90.9515 228.271C86.6356 229.937 82.5409 230.951 81.8517 230.526C81.1624 230.1 79.9783 230.523 79.2204 231.466C78.4636 232.409 76.1211 233.75 74.015 234.448L70.1882 235.715L42.7665 180.168C27.6847 149.616 14.8931 123.47 14.3389 122.063C13.4925 119.914 13.9488 119.125 17.2006 117.115C19.3288 115.799 21.7353 114.724 22.5503 114.724C23.3641 114.724 24.6122 113.975 25.3236 113.06C26.0338 112.145 32.379 108.032 39.4227 103.919ZM518.566 158.322C514.799 124.535 519.373 98.6348 534.851 66.116C538.585 58.2724 542.259 51.8538 543.016 51.8538C543.774 51.8538 553.371 57.1733 564.344 63.6757C590.671 79.2767 604.909 87.685 627.197 100.792C637.346 106.761 645.916 112.338 646.241 113.185C646.566 114.031 647.873 114.724 649.147 114.724C651.61 114.724 658.225 118.909 658.225 120.468C658.225 121.262 602.635 234.722 601.864 235.502C601.215 236.161 591.862 231.862 591.862 230.904C591.862 230.323 591.287 230.203 590.584 230.638C589.881 231.072 585.821 230.062 581.561 228.391C577.301 226.722 564.124 221.749 552.278 217.341C534.253 210.634 530.493 208.832 529.231 206.291C526.833 201.461 519.898 170.271 518.566 158.322Z" fill="black"/>
<path fill-rule="evenodd" clip-rule="evenodd" d="M28.0188 122.442C27.6707 122.788 26.8022 121.98 26.0873 120.645C25.1862 118.96 25.1687 118.216 26.0291 118.216C27.4413 118.216 28.9781 121.482 28.0188 122.442ZM645.463 121.675C644.088 123.85 642.794 122.67 643.768 120.129C644.172 119.077 644.971 118.216 645.543 118.216C646.87 118.216 646.841 119.498 645.463 121.675ZM32.5955 130.671C31.7048 131.562 29.5766 128.994 29.544 126.99C29.5347 126.372 30.4125 126.753 31.4941 127.836C32.5769 128.918 33.0728 130.194 32.5955 130.671ZM641.872 128.795C640.427 131.495 638.916 130.985 639.998 128.163C640.378 127.174 641.247 126.366 641.93 126.366C642.79 126.366 642.773 127.11 641.872 128.795ZM636.473 138.767C636.153 138.447 636.25 137.058 636.686 135.68C637.123 134.303 637.743 133.438 638.063 133.758C638.384 134.078 638.287 135.467 637.85 136.845C637.414 138.222 636.793 139.087 636.473 138.767ZM631.768 146.869C631.488 146.588 631.913 145.135 632.712 143.641C633.632 141.923 634.348 141.474 634.663 142.417C635.174 143.951 632.683 147.783 631.768 146.869ZM43.6221 155.473C42.5021 155.473 41.1458 152.641 41.2064 150.429C41.2261 149.682 42.012 150.087 42.9527 151.329C44.8935 153.895 45.1485 155.473 43.6221 155.473ZM629.738 153.795C627.992 156.103 627.388 154.81 628.661 151.493C629.391 149.591 631.447 148.926 631.447 150.593C631.447 151.111 630.677 152.552 629.738 153.795ZM46.371 161.945C45.4315 160.701 44.6618 159.197 44.6618 158.6C44.6618 158.004 45.4478 158.168 46.4083 158.965C47.3688 159.763 48.1383 161.267 48.1174 162.309C48.0859 163.902 47.8077 163.844 46.371 161.945ZM624.457 162.458C623.596 162.458 623.614 161.714 624.515 160.03C625.23 158.694 626.098 157.886 626.446 158.233C627.406 159.192 625.869 162.458 624.457 162.458ZM50.4832 170.026C49.8428 169.63 49.327 168.42 49.3364 167.338C49.3527 165.641 49.511 165.61 50.4832 167.115C51.9571 169.395 51.9571 170.936 50.4832 170.026ZM620.803 170.608C620.208 170.608 620.307 169.516 621.022 168.179C621.737 166.844 622.553 165.984 622.837 166.266C623.651 167.081 622 170.608 620.803 170.608ZM54.054 178.223C53.3705 177.802 52.8279 176.57 52.8489 175.487C52.8815 173.758 53.0922 173.792 54.5825 175.762C56.3929 178.155 56.1054 179.491 54.054 178.223ZM618.586 176.529C617.104 179.299 615.882 178.904 616.99 176.014C617.394 174.961 618.212 174.101 618.805 174.101C619.4 174.101 619.301 175.193 618.586 176.529ZM58.7692 186.908C58.2033 186.908 57.4664 185.86 57.1311 184.579C56.4128 181.829 58.0647 181.419 59.0904 184.092C60.0288 186.536 59.9858 186.908 58.7692 186.908ZM612.814 186.908C611.954 186.908 611.971 186.164 612.872 184.479C613.587 183.144 614.456 182.336 614.804 182.682C615.763 183.642 614.226 186.908 612.814 186.908ZM62.9465 194.625C62.5984 194.972 61.7299 194.164 61.015 192.829C60.1139 191.144 60.0963 190.4 60.9567 190.4C62.369 190.4 63.9058 193.666 62.9465 194.625ZM610.536 193.859C609.161 196.034 607.866 194.854 608.841 192.313C609.245 191.261 610.043 190.4 610.615 190.4C611.942 190.4 611.913 191.682 610.536 193.859ZM66.9073 203.207C65.7873 203.207 64.4309 200.376 64.4914 198.164C64.5112 197.416 65.2971 197.821 66.2378 199.064C68.1787 201.63 68.4336 203.207 66.9073 203.207ZM606.944 200.979C605.499 203.679 603.988 203.169 605.071 200.347C605.45 199.358 606.319 198.55 607.002 198.55C607.863 198.55 607.845 199.294 606.944 200.979ZM601.123 211.357C600.539 211.357 600.659 210.045 601.39 208.442C602.12 206.837 602.944 205.751 603.218 206.025C604.04 206.848 602.268 211.357 601.123 211.357ZM71.0963 210.925C70.7482 211.272 69.8796 210.464 69.1648 209.129C68.2637 207.444 68.2461 206.7 69.1065 206.7C70.5187 206.7 72.0557 209.966 71.0963 210.925ZM73.8462 218.972C73.1628 218.551 72.6226 217.057 72.6447 215.654C72.6855 213.194 72.7437 213.207 74.2968 216.012C76.0199 219.126 75.8534 220.213 73.8462 218.972ZM596.841 219.053C596.56 218.772 596.985 217.319 597.785 215.825C598.705 214.107 599.42 213.658 599.735 214.601C600.246 216.135 597.756 219.967 596.841 219.053ZM77.8059 225.979C76.8663 224.735 76.1131 223.164 76.134 222.486C76.1538 221.807 76.9396 222.271 77.8804 223.513C78.8199 224.756 79.5733 226.328 79.5523 227.006C79.5325 227.684 78.7466 227.221 77.8059 225.979ZM595.264 225.498C593.703 228.416 592.537 227.539 593.586 224.235C594.011 222.896 594.846 222.103 595.442 222.471C596.094 222.874 596.023 224.08 595.264 225.498ZM152.356 580.426C150.755 580.426 149.445 579.902 149.445 579.262C149.445 578.622 150.755 578.098 152.356 578.098C153.956 578.098 155.266 578.622 155.266 579.262C155.266 579.902 153.956 580.426 152.356 580.426ZM161.087 580.426C159.807 580.426 158.759 579.902 158.759 579.262C158.759 578.622 159.807 578.098 161.087 578.098C162.368 578.098 163.416 578.622 163.416 579.262C163.416 579.902 162.368 580.426 161.087 580.426ZM169.819 580.426C168.219 580.426 166.909 579.902 166.909 579.262C166.909 578.622 168.219 578.098 169.819 578.098C171.42 578.098 172.73 578.622 172.73 579.262C172.73 579.902 171.42 580.426 169.819 580.426ZM178.551 580.426C177.271 580.426 176.223 579.902 176.223 579.262C176.223 578.622 177.271 578.098 178.551 578.098C179.832 578.098 180.88 578.622 180.88 579.262C180.88 579.902 179.832 580.426 178.551 580.426ZM187.283 580.426C185.682 580.426 184.373 579.902 184.373 579.262C184.373 578.622 185.682 578.098 187.283 578.098C188.884 578.098 190.194 578.622 190.194 579.262C190.194 579.902 188.884 580.426 187.283 580.426ZM196.015 580.426C194.734 580.426 193.687 579.902 193.687 579.262C193.687 578.622 194.734 578.098 196.015 578.098C197.296 578.098 198.344 578.622 198.344 579.262C198.344 579.902 197.296 580.426 196.015 580.426ZM204.678 580.426C202.989 580.426 202.01 579.922 202.419 579.262C202.814 578.622 204.154 578.098 205.398 578.098C206.641 578.098 207.658 578.622 207.658 579.262C207.658 579.902 206.316 580.426 204.678 580.426ZM213.479 580.426C212.198 580.426 211.15 579.902 211.15 579.262C211.15 578.622 212.198 578.098 213.479 578.098C214.76 578.098 215.807 578.622 215.807 579.262C215.807 579.902 214.76 580.426 213.479 580.426ZM222.211 580.426C220.61 580.426 219.3 579.902 219.3 579.262C219.3 578.622 220.61 578.098 222.211 578.098C223.812 578.098 225.122 578.622 225.122 579.262C225.122 579.902 223.812 580.426 222.211 580.426ZM230.943 580.426C229.662 580.426 228.614 579.902 228.614 579.262C228.614 578.622 229.662 578.098 230.943 578.098C232.223 578.098 233.271 578.622 233.271 579.262C233.271 579.902 232.223 580.426 230.943 580.426ZM239.606 580.426C237.917 580.426 236.938 579.922 237.346 579.262C237.742 578.622 239.082 578.098 240.326 578.098C241.569 578.098 242.585 578.622 242.585 579.262C242.585 579.902 241.244 580.426 239.606 580.426ZM249.057 580.426C247.419 580.426 246.078 579.902 246.078 579.262C246.078 578.622 247.094 578.098 248.338 578.098C249.581 578.098 250.921 578.622 251.317 579.262C251.726 579.922 250.747 580.426 249.057 580.426ZM257.07 580.426C255.381 580.426 254.401 579.922 254.81 579.262C255.206 578.622 256.546 578.098 257.789 578.098C259.033 578.098 260.049 578.622 260.049 579.262C260.049 579.902 258.708 580.426 257.07 580.426ZM266.521 580.426C264.883 580.426 263.542 579.902 263.542 579.262C263.542 578.622 264.558 578.098 265.802 578.098C267.045 578.098 268.385 578.622 268.781 579.262C269.19 579.922 268.211 580.426 266.521 580.426ZM275.185 580.426C273.904 580.426 272.856 579.902 272.856 579.262C272.856 578.622 273.904 578.098 275.185 578.098C276.465 578.098 277.513 578.622 277.513 579.262C277.513 579.902 276.465 580.426 275.185 580.426ZM283.985 580.426C282.347 580.426 281.006 579.902 281.006 579.262C281.006 578.622 282.022 578.098 283.266 578.098C284.509 578.098 285.849 578.622 286.245 579.262C286.654 579.922 285.674 580.426 283.985 580.426ZM291.998 580.426C290.308 580.426 289.329 579.922 289.738 579.262C290.134 578.622 291.474 578.098 292.717 578.098C293.961 578.098 294.977 578.622 294.977 579.262C294.977 579.902 293.636 580.426 291.998 580.426ZM301.449 580.426C299.811 580.426 298.47 579.902 298.47 579.262C298.47 578.622 299.486 578.098 300.729 578.098C301.973 578.098 303.313 578.622 303.709 579.262C304.117 579.922 303.138 580.426 301.449 580.426ZM310.112 580.426C308.832 580.426 307.784 579.902 307.784 579.262C307.784 578.622 308.832 578.098 310.112 578.098C311.393 578.098 312.441 578.622 312.441 579.262C312.441 579.902 311.393 580.426 310.112 580.426ZM318.913 580.426C317.275 580.426 315.934 579.902 315.934 579.262C315.934 578.622 316.95 578.098 318.193 578.098C319.437 578.098 320.777 578.622 321.173 579.262C321.581 579.922 320.602 580.426 318.913 580.426ZM327.576 580.426C326.295 580.426 325.248 579.902 325.248 579.262C325.248 578.622 326.295 578.098 327.576 578.098C328.857 578.098 329.905 578.622 329.905 579.262C329.905 579.902 328.857 580.426 327.576 580.426ZM336.308 580.426C334.572 580.426 333.57 579.924 333.979 579.262C334.375 578.622 335.423 578.098 336.308 578.098C337.193 578.098 338.241 578.622 338.637 579.262C339.046 579.924 338.044 580.426 336.308 580.426ZM345.04 580.426C343.759 580.426 342.711 579.902 342.711 579.262C342.711 578.622 343.759 578.098 345.04 578.098C346.321 578.098 347.368 578.622 347.368 579.262C347.368 579.902 346.321 580.426 345.04 580.426ZM353.772 580.426C352.171 580.426 350.861 579.902 350.861 579.262C350.861 578.622 352.171 578.098 353.772 578.098C355.373 578.098 356.682 578.622 356.682 579.262C356.682 579.902 355.373 580.426 353.772 580.426ZM362.504 580.426C361.223 580.426 360.175 579.902 360.175 579.262C360.175 578.622 361.223 578.098 362.504 578.098C363.784 578.098 364.832 578.622 364.832 579.262C364.832 579.902 363.784 580.426 362.504 580.426ZM371.167 580.426C369.478 580.426 368.499 579.922 368.907 579.262C369.303 578.622 370.643 578.098 371.887 578.098C373.13 578.098 374.146 578.622 374.146 579.262C374.146 579.902 372.805 580.426 371.167 580.426ZM379.968 580.426C378.687 580.426 377.639 579.902 377.639 579.262C377.639 578.622 378.687 578.098 379.968 578.098C381.248 578.098 382.296 578.622 382.296 579.262C382.296 579.902 381.248 580.426 379.968 580.426ZM388.7 580.426C387.099 580.426 385.789 579.902 385.789 579.262C385.789 578.622 387.099 578.098 388.7 578.098C390.3 578.098 391.61 578.622 391.61 579.262C391.61 579.902 390.3 580.426 388.7 580.426ZM397.431 580.426C396.151 580.426 395.103 579.902 395.103 579.262C395.103 578.622 396.151 578.098 397.431 578.098C398.712 578.098 399.76 578.622 399.76 579.262C399.76 579.902 398.712 580.426 397.431 580.426ZM406.095 580.426C404.405 580.426 403.426 579.922 403.835 579.262C404.231 578.622 405.571 578.098 406.814 578.098C408.058 578.098 409.074 578.622 409.074 579.262C409.074 579.902 407.733 580.426 406.095 580.426ZM414.895 580.426C413.615 580.426 412.567 579.902 412.567 579.262C412.567 578.622 413.615 578.098 414.895 578.098C416.176 578.098 417.224 578.622 417.224 579.262C417.224 579.902 416.176 580.426 414.895 580.426ZM423.558 580.426C421.869 580.426 420.89 579.922 421.299 579.262C421.694 578.622 423.035 578.098 424.278 578.098C425.521 578.098 426.538 578.622 426.538 579.262C426.538 579.902 425.197 580.426 423.558 580.426ZM433.01 580.426C431.372 580.426 430.031 579.902 430.031 579.262C430.031 578.622 431.047 578.098 432.29 578.098C433.534 578.098 434.874 578.622 435.27 579.262C435.678 579.922 434.699 580.426 433.01 580.426ZM441.022 580.426C439.333 580.426 438.354 579.922 438.763 579.262C439.158 578.622 440.498 578.098 441.742 578.098C442.985 578.098 444.002 578.622 444.002 579.262C444.002 579.902 442.66 580.426 441.022 580.426ZM450.474 580.426C448.836 580.426 447.494 579.902 447.494 579.262C447.494 578.622 448.511 578.098 449.754 578.098C450.998 578.098 452.338 578.622 452.734 579.262C453.142 579.922 452.163 580.426 450.474 580.426ZM458.486 580.426C456.797 580.426 455.818 579.922 456.226 579.262C456.622 578.622 457.962 578.098 459.206 578.098C460.449 578.098 461.466 578.622 461.466 579.262C461.466 579.902 460.124 580.426 458.486 580.426ZM467.938 580.426C466.3 580.426 464.958 579.902 464.958 579.262C464.958 578.622 465.975 578.098 467.218 578.098C468.462 578.098 469.802 578.622 470.197 579.262C470.606 579.922 469.627 580.426 467.938 580.426ZM476.601 580.426C475.32 580.426 474.272 579.902 474.272 579.262C474.272 578.622 475.32 578.098 476.601 578.098C477.882 578.098 478.929 578.622 478.929 579.262C478.929 579.902 477.882 580.426 476.601 580.426ZM485.401 580.426C483.763 580.426 482.422 579.902 482.422 579.262C482.422 578.622 483.439 578.098 484.682 578.098C485.925 578.098 487.265 578.622 487.661 579.262C488.07 579.922 487.091 580.426 485.401 580.426ZM493.414 580.426C491.725 580.426 490.745 579.922 491.154 579.262C491.55 578.622 492.89 578.098 494.133 578.098C495.377 578.098 496.393 578.622 496.393 579.262C496.393 579.902 495.052 580.426 493.414 580.426ZM502.797 580.426C501.061 580.426 500.058 579.924 500.468 579.262C500.864 578.622 501.912 578.098 502.797 578.098C503.682 578.098 504.729 578.622 505.125 579.262C505.535 579.924 504.533 580.426 502.797 580.426ZM511.529 580.426C510.248 580.426 509.2 579.902 509.2 579.262C509.2 578.622 510.248 578.098 511.529 578.098C512.809 578.098 513.857 578.622 513.857 579.262C513.857 579.902 512.809 580.426 511.529 580.426ZM520.329 580.426C518.691 580.426 517.35 579.902 517.35 579.262C517.35 578.622 518.366 578.098 519.61 578.098C520.853 578.098 522.193 578.622 522.589 579.262C522.998 579.922 522.018 580.426 520.329 580.426Z" fill="black"/>
<path d="M34.2371 136.945C34.952 138.28 35.768 139.14 36.0521 138.858C36.8659 138.043 35.215 134.516 34.0182 134.516C33.4233 134.516 33.5223 135.608 34.2371 136.945Z" fill="black"/>
<path d="M37.3433 143.849C37.9988 146.355 40.0048 148.221 40.0048 146.323C40.0048 144.337 38.6263 141.502 37.6611 141.502C37.1489 141.502 37.0057 142.558 37.3433 143.849Z" fill="black"/>
<path d="M242.219 367.56H235.063V365.955H258.924V367.56H251.741V385H242.219V367.56ZM271.41 365.955H289.611C290.5 365.955 291.316 366.182 292.06 366.635C292.822 367.071 293.42 367.669 293.856 368.431C294.309 369.175 294.536 369.991 294.536 370.88C294.536 372.059 294.173 373.129 293.448 374.09C292.722 375.051 291.806 375.668 290.7 375.94C291.679 376.212 292.477 376.729 293.094 377.491C293.729 378.253 294.046 379.114 294.046 380.076V385H284.932V379.096C284.932 378.516 284.823 378.062 284.605 377.736C284.351 377.355 284.061 377.074 283.735 376.892C283.372 376.693 282.964 376.548 282.51 376.457C282.039 376.366 281.594 376.312 281.177 376.294L280.443 376.267V385H271.41V365.955ZM281.395 374.689C282.048 374.689 282.646 374.534 283.191 374.226C283.753 373.9 284.188 373.464 284.497 372.92C284.823 372.358 284.986 371.759 284.986 371.124C284.986 370.472 284.823 369.873 284.497 369.329C284.188 368.767 283.753 368.322 283.191 367.996C282.646 367.669 282.048 367.506 281.395 367.506H280.443V374.716L281.395 374.689ZM307.062 365.955H315.931V385H307.062V365.955ZM328.632 365.955H336.63L344.575 375.478V365.955H346.207V385H339.814L330.291 372.322V385H328.632V365.955ZM358.89 365.955H367.759V385H358.89V365.955ZM387.425 367.56H380.269V365.955H404.13V367.56H396.947V385H387.425V367.56ZM422.33 376.267L416.426 365.955H427.091L431.009 373.736L434.818 365.955H436.912L431.852 376.267V385H422.33V376.267Z" fill="#134074"/>
<path d="M261.353 394.6H265.565V402.28H270.125V403H261.353V394.6ZM279.553 403.06C278.481 403.06 277.513 402.896 276.649 402.568C275.785 402.24 275.101 401.756 274.597 401.116C274.101 400.468 273.853 399.692 273.853 398.788C273.853 397.892 274.105 397.124 274.609 396.484C275.113 395.844 275.793 395.36 276.649 395.032C277.513 394.696 278.481 394.528 279.553 394.528C280.617 394.528 281.577 394.696 282.433 395.032C283.297 395.36 283.977 395.844 284.473 396.484C284.977 397.124 285.229 397.892 285.229 398.788C285.229 399.692 284.977 400.468 284.473 401.116C283.977 401.756 283.297 402.24 282.433 402.568C281.577 402.896 280.617 403.06 279.553 403.06ZM279.553 402.352C279.889 402.352 280.137 402.2 280.297 401.896C280.433 401.664 280.525 401.252 280.573 400.66C280.597 400.348 280.609 399.724 280.609 398.788C280.609 397.844 280.589 397.176 280.549 396.784C280.525 396.304 280.437 395.94 280.285 395.692C280.125 395.388 279.881 395.236 279.553 395.236C279.217 395.236 278.965 395.388 278.797 395.692C278.661 395.932 278.573 396.296 278.533 396.784C278.501 397.2 278.485 397.868 278.485 398.788C278.485 399.828 278.497 400.452 278.521 400.66C278.553 401.212 278.641 401.624 278.785 401.896C278.953 402.2 279.209 402.352 279.553 402.352ZM297.076 397.612C298.028 397.868 298.74 398.208 299.212 398.632C299.684 399.048 299.92 399.592 299.92 400.264C299.92 400.8 299.752 401.28 299.416 401.704C299.08 402.128 298.584 402.46 297.928 402.7C297.28 402.94 296.492 403.06 295.564 403.06C294.468 403.06 293.5 402.92 292.66 402.64C291.828 402.352 291.176 402.004 290.704 401.596L291.1 401.056C291.516 401.384 292.04 401.664 292.672 401.896C293.304 402.128 293.984 402.244 294.712 402.244C295.184 402.244 295.54 402.176 295.78 402.04C296.028 401.904 296.152 401.712 296.152 401.464C296.152 401.032 295.724 400.696 294.868 400.456L293.308 400C292.46 399.744 291.804 399.388 291.34 398.932C290.884 398.476 290.656 397.936 290.656 397.312C290.656 396.792 290.82 396.32 291.148 395.896C291.476 395.472 291.952 395.14 292.576 394.9C293.208 394.652 293.964 394.528 294.844 394.528C295.684 394.528 296.456 394.624 297.16 394.816C297.872 395.008 298.452 395.24 298.9 395.512L298.504 396.064C298.128 395.848 297.676 395.664 297.148 395.512C296.628 395.36 296.08 395.284 295.504 395.284C295 395.284 294.612 395.364 294.34 395.524C294.076 395.676 293.944 395.888 293.944 396.16C293.944 396.368 294.044 396.552 294.244 396.712C294.444 396.864 294.824 397.016 295.384 397.168L297.076 397.612ZM318.534 394.6H322.038L325.758 403H321.222L319.962 400.216H317.322L316.242 403H315.366L318.534 394.6ZM319.626 399.484L318.534 397.048L317.586 399.484H319.626ZM331.152 394.6H334.68L338.184 398.8V394.6H338.904V403H336.084L331.884 397.408V403H331.152V394.6ZM344.498 398.788C344.498 397.372 344.846 396.32 345.542 395.632C345.99 395.184 346.49 394.888 347.042 394.744C347.594 394.6 348.318 394.528 349.214 394.528C350.046 394.528 350.714 394.588 351.218 394.708C351.73 394.82 352.15 395.064 352.478 395.44C352.75 395.752 352.962 396.132 353.114 396.58C353.274 397.02 353.366 397.452 353.39 397.876H352.706C352.674 397.516 352.586 397.148 352.442 396.772C352.306 396.388 352.09 396.06 351.794 395.788C351.498 395.508 351.122 395.368 350.666 395.368C350.242 395.368 349.89 395.556 349.61 395.932C349.37 396.26 349.198 396.696 349.094 397.24C348.998 397.72 348.95 398.236 348.95 398.788C348.95 399.692 349.062 400.448 349.286 401.056C349.582 401.832 350.042 402.22 350.666 402.22V398.896H354.338V403C353.186 403 351.882 403.016 350.426 403.048L349.214 403.06C348.334 403.06 347.618 402.976 347.066 402.808C346.522 402.632 346.054 402.348 345.662 401.956C344.886 401.18 344.498 400.124 344.498 398.788ZM359.93 394.6H368.654V395.308H364.154V398.416H366.362V399.136H364.154V402.28H368.654V403H359.93V394.6ZM374.26 394.6H378.472V402.28H383.032V403H374.26V394.6ZM388.637 394.6H397.361V395.308H392.861V398.416H395.069V399.136H392.861V402.28H397.361V403H388.637V394.6ZM408.87 397.612C409.822 397.868 410.534 398.208 411.006 398.632C411.478 399.048 411.714 399.592 411.714 400.264C411.714 400.8 411.546 401.28 411.21 401.704C410.874 402.128 410.378 402.46 409.722 402.7C409.074 402.94 408.286 403.06 407.358 403.06C406.262 403.06 405.294 402.92 404.454 402.64C403.622 402.352 402.97 402.004 402.498 401.596L402.894 401.056C403.31 401.384 403.834 401.664 404.466 401.896C405.098 402.128 405.778 402.244 406.506 402.244C406.978 402.244 407.334 402.176 407.574 402.04C407.822 401.904 407.946 401.712 407.946 401.464C407.946 401.032 407.518 400.696 406.662 400.456L405.102 400C404.254 399.744 403.598 399.388 403.134 398.932C402.678 398.476 402.45 397.936 402.45 397.312C402.45 396.792 402.614 396.32 402.942 395.896C403.27 395.472 403.746 395.14 404.37 394.9C405.002 394.652 405.758 394.528 406.638 394.528C407.478 394.528 408.25 394.624 408.954 394.816C409.666 395.008 410.246 395.24 410.694 395.512L410.298 396.064C409.922 395.848 409.47 395.664 408.942 395.512C408.422 395.36 407.874 395.284 407.298 395.284C406.794 395.284 406.406 395.364 406.134 395.524C405.87 395.676 405.738 395.888 405.738 396.16C405.738 396.368 405.838 396.552 406.038 396.712C406.238 396.864 406.618 397.016 407.178 397.168L408.87 397.612Z" fill="#134074"/>
<path d="M221.414 142.158C221.414 142.158 227.069 154.789 234.045 154.789H291.789V168.752H245.162C240.397 168.752 236.534 165.485 236.534 165.485V191.071C236.534 194.759 232.836 199.751 232.836 199.751C232.836 199.751 236.534 204.743 236.534 208.431V241.456C236.534 241.456 247.793 230.75 252.558 230.75H291.789V245.015H244.872C237.896 245.015 221.414 275.692 221.414 275.692V212.534C221.414 207.167 216 199.902 216 199.902C216 199.902 221.414 192.638 221.414 187.271V142.158Z" fill="#134074"/>
<path d="M291.789 154.789H306.088V168.752H291.789V154.789Z" fill="#134074"/>
<path d="M394.647 84.4135C394.647 84.4135 382.015 90.0689 382.015 97.0451V154.789H367.718V107.64C367.718 102.847 370.933 98.9605 370.933 98.9605H345.532C341.866 98.9605 336.903 95.2406 336.903 95.2406C336.903 95.2406 331.941 98.9605 328.275 98.9605H302.873C302.873 98.9605 306.088 102.847 306.088 107.64V154.789H291.789V97.0451C291.789 90.0689 279.158 84.4135 279.158 84.4135H324.271C329.638 84.4135 336.902 79 336.902 79C336.902 79 344.167 84.4135 349.534 84.4135H394.647Z" fill="#134074"/>
<path d="M367.718 154.789H382.015V168.752H367.718V154.789Z" fill="#134074"/>
<path d="M437.955 154.789C443.593 154.789 450.586 142.158 450.586 142.158V187.271C450.586 192.638 456 199.902 456 199.902C456 199.902 450.586 207.167 450.586 212.534V275.457C450.586 275.457 434.104 245.015 427.128 245.015H382.015V230.75H420.038C424.803 230.75 436.062 241.456 436.062 241.456V208.431C436.062 204.743 439.759 199.751 439.759 199.751C439.759 199.751 436.062 194.759 436.062 191.071V165.485C436.062 165.485 431.284 168.752 427.433 168.752H382.015V154.789H437.955Z" fill="#134074"/>
<path d="M367.718 230.75H382.015V245.015H367.718V230.75Z" fill="#134074"/>
<path d="M382.015 319C382.015 324.638 394.647 331.632 394.647 331.632H349.534C344.167 331.632 336.902 337.045 336.902 337.045C336.902 337.045 329.638 331.632 324.271 331.632H279.158C279.158 331.632 291.789 325.976 291.789 319V278.398C291.789 270.162 286.376 265.767 286.376 265.767C286.376 265.767 291.789 260.855 291.789 253.135V245.015H306.088V256.734C306.088 262.039 302.39 265.414 302.39 265.414C302.39 265.414 306.088 268.434 306.088 274.094V308.405C306.088 313.199 302.873 317.085 302.873 317.085H328.275C331.941 317.085 336.903 320.805 336.903 320.805C336.903 320.805 341.866 317.085 345.532 317.085H370.933C370.933 317.085 367.718 312.279 367.718 308.405V274.094C367.718 268.768 371.416 265.414 371.416 265.414C371.416 265.414 367.718 262.088 367.718 256.734V245.015H382.015V253.135C382.015 260.926 387.429 265.767 387.429 265.767C387.429 265.767 382.015 270.648 382.015 278.398V319Z" fill="#134074"/>
<path d="M291.789 230.75H306.088V245.015H291.789V230.75Z" fill="#134074"/>
</svg>
