<svg width="50" height="50" viewBox="0 0 50 50" fill="none" xmlns="http://www.w3.org/2000/svg">
<path d="M12.5 6.25C12.5 9.56521 13.817 12.7446 16.1612 15.0888C18.5054 17.433 21.6848 18.75 25 18.75C28.3152 18.75 31.4946 17.433 33.8388 15.0888C36.183 12.7446 37.5 9.56521 37.5 6.25" stroke="black" stroke-width="4" stroke-linecap="round" stroke-linejoin="round"/>
<path d="M12.5 31.25C12.5 34.5652 13.817 37.7446 16.1612 40.0888C18.5054 42.433 21.6848 43.75 25 43.75C28.3152 43.75 31.4946 42.433 33.8388 40.0888C36.183 37.7446 37.5 34.5652 37.5 31.25C37.5 27.9348 36.183 24.7554 33.8388 22.4112C31.4946 20.067 28.3152 18.75 25 18.75C21.6848 18.75 18.5054 20.067 16.1612 22.4112C13.817 24.7554 12.5 27.9348 12.5 31.25Z" stroke="black" stroke-width="4" stroke-linecap="round" stroke-linejoin="round"/>
</svg>
