<svg width="8" height="13" viewBox="0 0 8 13" fill="none" xmlns="http://www.w3.org/2000/svg">
<path d="M6.39038 0.0769072C6.51223 0.127676 6.62284 0.20207 6.7158 0.295798C6.80953 0.388761 6.88392 0.499362 6.93469 0.621222C6.98546 0.743081 7.0116 0.873786 7.0116 1.0058C7.0116 1.13781 6.98546 1.26852 6.93469 1.39038C6.88392 1.51223 6.80953 1.62284 6.7158 1.7158L2.4158 6.0058L6.7158 10.2958C6.80953 10.3888 6.88392 10.4994 6.93469 10.6212C6.98546 10.7431 7.0116 10.8738 7.0116 11.0058C7.0116 11.1378 6.98546 11.2685 6.93469 11.3904C6.88392 11.5122 6.80953 11.6228 6.7158 11.7158C6.62284 11.8095 6.51223 11.8839 6.39038 11.9347C6.26852 11.9855 6.13781 12.0116 6.0058 12.0116C5.87379 12.0116 5.74308 11.9855 5.62122 11.9347C5.49936 11.8839 5.38876 11.8095 5.2958 11.7158L0.295798 6.7158C0.20207 6.62284 0.127676 6.51223 0.0769069 6.39038C0.0261382 6.26852 0 6.13781 0 6.0058C0 5.87379 0.0261382 5.74308 0.0769069 5.62122C0.127676 5.49936 0.20207 5.38876 0.295798 5.2958L5.2958 0.295798C5.38876 0.20207 5.49936 0.127676 5.62122 0.0769072C5.74308 0.0261385 5.87379 0 6.0058 0C6.13781 0 6.26852 0.0261385 6.39038 0.0769072Z" fill="black"/>
</svg>
