<svg width="8" height="13" viewBox="0 0 8 13" fill="none" xmlns="http://www.w3.org/2000/svg">
<path d="M0.621344 0.0769072C0.499485 0.127676 0.388884 0.20207 0.29592 0.295798C0.202192 0.388761 0.127798 0.499362 0.0770292 0.621222C0.0262604 0.743081 0.00012207 0.873786 0.00012207 1.0058C0.00012207 1.13781 0.0262604 1.26852 0.0770292 1.39038C0.127798 1.51223 0.202192 1.62284 0.29592 1.7158L4.59592 6.0058L0.29592 10.2958C0.202192 10.3888 0.127798 10.4994 0.0770292 10.6212C0.0262604 10.7431 0.00012207 10.8738 0.00012207 11.0058C0.00012207 11.1378 0.0262604 11.2685 0.0770292 11.3904C0.127798 11.5122 0.202192 11.6228 0.29592 11.7158C0.388884 11.8095 0.499485 11.8839 0.621344 11.9347C0.743203 11.9855 0.873909 12.0116 1.00592 12.0116C1.13793 12.0116 1.26864 11.9855 1.3905 11.9347C1.51236 11.8839 1.62296 11.8095 1.71592 11.7158L6.71592 6.7158C6.80965 6.62284 6.88404 6.51223 6.93481 6.39038C6.98558 6.26852 7.01172 6.13781 7.01172 6.0058C7.01172 5.87379 6.98558 5.74308 6.93481 5.62122C6.88404 5.49936 6.80965 5.38876 6.71592 5.2958L1.71592 0.295798C1.62296 0.20207 1.51236 0.127676 1.3905 0.0769072C1.26864 0.0261385 1.13793 0 1.00592 0C0.873909 0 0.743203 0.0261385 0.621344 0.0769072Z" fill="black"/>
</svg>
