<svg width="50" height="50" viewBox="0 0 50 50" fill="none" xmlns="http://www.w3.org/2000/svg">
<path d="M24.9994 8.3331C13.541 8.3331 4.16602 15.7914 4.16602 24.9998C4.16602 29.4164 7.60352 33.0623 11.9994 33.3331H12.4993C14.7095 33.3331 16.8291 32.4551 18.3919 30.8923C19.9547 29.3295 20.8327 27.2099 20.8327 24.9998C20.8327 22.7896 19.9547 20.67 18.3919 19.1072C16.8291 17.5444 14.7095 16.6664 12.4993 16.6664H11.9994C15.5062 13.3545 20.177 11.558 24.9994 11.6664C28.6869 11.6248 32.291 12.6456 35.416 14.5831L38.0202 11.9789C34.12 9.53868 29.5997 8.27298 24.9994 8.3331ZM12.4993 20.8331C13.6044 20.8331 14.6642 21.2721 15.4456 22.0535C16.227 22.8349 16.666 23.8947 16.666 24.9998C16.666 27.3123 14.7493 29.1664 12.4993 29.1664C11.4628 29.1716 10.4616 28.7903 9.69112 28.0969C8.92066 27.4035 8.43632 26.4478 8.33268 25.4164V24.5831C8.43632 23.5518 8.92066 22.5961 9.69112 21.9027C10.4616 21.2092 11.4628 20.8279 12.4993 20.8331ZM37.9994 16.6664H37.4994C35.2892 16.6664 33.1696 17.5444 31.6068 19.1072C30.044 20.67 29.166 22.7896 29.166 24.9998C29.166 27.2099 30.044 29.3295 31.6068 30.8923C33.1696 32.4551 35.2892 33.3331 37.4994 33.3331H37.9994C34.4925 36.6451 29.8217 38.4415 24.9994 38.3331C21.3119 38.3748 17.7077 37.3539 14.5827 35.4164L11.9994 37.9998C15.8952 40.4373 20.3952 41.6664 24.9994 41.6664C36.4577 41.6664 45.8327 34.2081 45.8327 24.9998C45.8327 20.5831 42.3952 16.9373 37.9994 16.6664ZM37.4994 29.1664C36.3943 29.1664 35.3345 28.7274 34.5531 27.946C33.7717 27.1646 33.3327 26.1048 33.3327 24.9998C33.3327 22.6873 35.2494 20.8331 37.4994 20.8331C38.5359 20.8279 39.5371 21.2092 40.3076 21.9027C41.078 22.5961 41.5624 23.5518 41.666 24.5831V25.4164C41.5624 26.4478 41.078 27.4035 40.3076 28.0969C39.5371 28.7903 38.5359 29.1716 37.4994 29.1664Z" fill="black"/>
</svg>
