<svg width="669" height="605" viewBox="0 0 669 605" fill="none" xmlns="http://www.w3.org/2000/svg">
<path fill-rule="evenodd" clip-rule="evenodd" d="M239.247 16.186C238.973 16.4608 231.944 18.7637 223.628 21.3029C215.311 23.8422 202.221 27.8635 194.536 30.2386C186.852 32.6137 176.636 35.7478 171.833 37.202C152.784 42.9709 136.166 48.1786 133.182 49.3137L130.04 50.5094L136.843 64.2418C149.982 90.7624 156.462 118.525 155.132 142.6C154.155 160.278 151.426 177.085 146.669 194.71L142.501 210.156L144.069 241.862C146.03 281.489 146.045 404.436 144.102 504.594C142.967 563.142 142.979 577.483 144.165 578.321C145.338 579.15 145.342 579.482 144.182 579.953C143.295 580.314 142.727 582.779 142.727 586.268V591.992H334.829H526.932V586.171C526.932 582.643 526.417 580.35 525.625 580.35C524.712 580.35 524.682 579.911 525.524 578.894C526.346 577.902 526.415 564.848 525.742 537.854C521.747 377.681 521.775 291.501 525.841 228.638C526.649 216.139 526.637 209.494 525.803 207.3C523.992 202.535 518.048 178.162 516.27 168.203C515.304 162.789 514.731 150.845 514.763 136.768C514.813 114.803 514.939 113.611 518.634 100.103C522.875 84.5977 528.557 70.0165 534.589 59.1564C536.781 55.2095 538.574 51.52 538.574 50.9565C538.574 50.393 533.727 48.4452 527.805 46.6278C504.669 39.5305 494.575 36.415 486.183 33.7791C481.38 32.2702 469.33 28.5714 459.405 25.5594C449.479 22.5487 438.285 19.0687 434.528 17.8264C430.772 16.5853 427.556 15.7261 427.384 15.9182C427.212 16.1103 426.212 21.7418 425.163 28.4316C420.434 58.5812 405.949 86.6969 388.045 100.479C379.701 106.903 367.36 112.823 356.95 115.395C344.062 118.579 323.357 118.338 310.38 114.852C286.167 108.35 267.373 91.2351 255.54 64.9136C251.288 55.4587 245.567 33.9456 244.48 23.331C243.854 17.228 243.298 15.6854 241.723 15.6854C240.636 15.6854 239.523 15.9101 239.247 16.186ZM150.877 580.35C149.596 580.35 148.548 579.826 148.548 579.185C148.548 578.545 149.596 578.021 150.877 578.021C152.158 578.021 153.205 578.545 153.205 579.185C153.205 579.826 152.158 580.35 150.877 580.35ZM159.609 580.35C158.008 580.35 156.698 579.826 156.698 579.185C156.698 578.545 158.008 578.021 159.609 578.021C161.21 578.021 162.519 578.545 162.519 579.185C162.519 579.826 161.21 580.35 159.609 580.35ZM168.341 580.35C167.06 580.35 166.012 579.826 166.012 579.185C166.012 578.545 167.06 578.021 168.341 578.021C169.621 578.021 170.669 578.545 170.669 579.185C170.669 579.826 169.621 580.35 168.341 580.35ZM177.073 580.35C175.472 580.35 174.162 579.826 174.162 579.185C174.162 578.545 175.472 578.021 177.073 578.021C178.673 578.021 179.983 578.545 179.983 579.185C179.983 579.826 178.673 580.35 177.073 580.35ZM185.805 580.35C184.524 580.35 183.476 579.826 183.476 579.185C183.476 578.545 184.524 578.021 185.805 578.021C187.085 578.021 188.133 578.545 188.133 579.185C188.133 579.826 187.085 580.35 185.805 580.35ZM194.536 580.35C192.936 580.35 191.626 579.826 191.626 579.185C191.626 578.545 192.936 578.021 194.536 578.021C196.137 578.021 197.447 578.545 197.447 579.185C197.447 579.826 196.137 580.35 194.536 580.35ZM203.268 580.35C201.988 580.35 200.94 579.826 200.94 579.185C200.94 578.545 201.988 578.021 203.268 578.021C204.549 578.021 205.597 578.545 205.597 579.185C205.597 579.826 204.549 580.35 203.268 580.35ZM212 580.35C210.399 580.35 209.09 579.826 209.09 579.185C209.09 578.545 210.399 578.021 212 578.021C213.601 578.021 214.911 578.545 214.911 579.185C214.911 579.826 213.601 580.35 212 580.35ZM220.732 580.35C219.452 580.35 218.404 579.826 218.404 579.185C218.404 578.545 219.452 578.021 220.732 578.021C222.013 578.021 223.061 578.545 223.061 579.185C223.061 579.826 222.013 580.35 220.732 580.35ZM229.395 580.35C227.706 580.35 226.727 579.845 227.136 579.185C227.531 578.545 228.872 578.021 230.115 578.021C231.358 578.021 232.375 578.545 232.375 579.185C232.375 579.826 231.034 580.35 229.395 580.35ZM238.847 580.35C237.209 580.35 235.868 579.826 235.868 579.185C235.868 578.545 236.884 578.021 238.127 578.021C239.371 578.021 240.711 578.545 241.107 579.185C241.515 579.845 240.536 580.35 238.847 580.35ZM246.928 580.35C245.327 580.35 244.017 579.826 244.017 579.185C244.017 578.545 245.327 578.021 246.928 578.021C248.529 578.021 249.839 578.545 249.839 579.185C249.839 579.826 248.529 580.35 246.928 580.35ZM255.66 580.35C254.379 580.35 253.331 579.826 253.331 579.185C253.331 578.545 254.379 578.021 255.66 578.021C256.941 578.021 257.988 578.545 257.988 579.185C257.988 579.826 256.941 580.35 255.66 580.35ZM264.974 580.35C263.693 580.35 262.645 579.826 262.645 579.185C262.645 578.545 263.693 578.021 264.974 578.021C266.255 578.021 267.302 578.545 267.302 579.185C267.302 579.826 266.255 580.35 264.974 580.35ZM273.775 580.35C272.136 580.35 270.795 579.826 270.795 579.185C270.795 578.545 271.812 578.021 273.055 578.021C274.298 578.021 275.639 578.545 276.034 579.185C276.443 579.845 275.464 580.35 273.775 580.35ZM281.787 580.35C280.098 580.35 279.118 579.845 279.527 579.185C279.923 578.545 281.263 578.021 282.506 578.021C283.75 578.021 284.766 578.545 284.766 579.185C284.766 579.826 283.425 580.35 281.787 580.35ZM291.238 580.35C289.6 580.35 288.259 579.826 288.259 579.185C288.259 578.545 289.275 578.021 290.519 578.021C291.762 578.021 293.102 578.545 293.498 579.185C293.907 579.845 292.928 580.35 291.238 580.35ZM299.902 580.35C298.621 580.35 297.573 579.826 297.573 579.185C297.573 578.545 298.621 578.021 299.902 578.021C301.182 578.021 302.23 578.545 302.23 579.185C302.23 579.826 301.182 580.35 299.902 580.35ZM308.702 580.35C307.064 580.35 305.723 579.826 305.723 579.185C305.723 578.545 306.739 578.021 307.983 578.021C309.226 578.021 310.566 578.545 310.962 579.185C311.371 579.845 310.392 580.35 308.702 580.35ZM317.365 580.35C316.085 580.35 315.037 579.826 315.037 579.185C315.037 578.545 316.085 578.021 317.365 578.021C318.646 578.021 319.694 578.545 319.694 579.185C319.694 579.826 318.646 580.35 317.365 580.35ZM326.097 580.35C324.362 580.35 323.359 579.848 323.769 579.185C324.165 578.545 325.213 578.021 326.097 578.021C326.982 578.021 328.03 578.545 328.426 579.185C328.836 579.848 327.833 580.35 326.097 580.35ZM334.829 580.35C333.549 580.35 332.501 579.826 332.501 579.185C332.501 578.545 333.549 578.021 334.829 578.021C336.11 578.021 337.158 578.545 337.158 579.185C337.158 579.826 336.11 580.35 334.829 580.35ZM343.561 580.35C341.96 580.35 340.651 579.826 340.651 579.185C340.651 578.545 341.96 578.021 343.561 578.021C345.162 578.021 346.472 578.545 346.472 579.185C346.472 579.826 345.162 580.35 343.561 580.35ZM352.293 580.35C351.012 580.35 349.965 579.826 349.965 579.185C349.965 578.545 351.012 578.021 352.293 578.021C353.574 578.021 354.622 578.545 354.622 579.185C354.622 579.826 353.574 580.35 352.293 580.35ZM361.025 580.35C359.289 580.35 358.287 579.848 358.697 579.185C359.092 578.545 360.14 578.021 361.025 578.021C361.91 578.021 362.958 578.545 363.354 579.185C363.763 579.848 362.761 580.35 361.025 580.35ZM369.757 580.35C368.476 580.35 367.428 579.826 367.428 579.185C367.428 578.545 368.476 578.021 369.757 578.021C371.038 578.021 372.086 578.545 372.086 579.185C372.086 579.826 371.038 580.35 369.757 580.35ZM378.489 580.35C376.888 580.35 375.578 579.826 375.578 579.185C375.578 578.545 376.888 578.021 378.489 578.021C380.09 578.021 381.4 578.545 381.4 579.185C381.4 579.826 380.09 580.35 378.489 580.35ZM387.221 580.35C385.94 580.35 384.892 579.826 384.892 579.185C384.892 578.545 385.94 578.021 387.221 578.021C388.502 578.021 389.549 578.545 389.549 579.185C389.549 579.826 388.502 580.35 387.221 580.35ZM395.884 580.35C394.195 580.35 393.216 579.845 393.624 579.185C394.02 578.545 395.36 578.021 396.604 578.021C397.847 578.021 398.863 578.545 398.863 579.185C398.863 579.826 397.522 580.35 395.884 580.35ZM404.685 580.35C403.404 580.35 402.356 579.826 402.356 579.185C402.356 578.545 403.404 578.021 404.685 578.021C405.965 578.021 407.013 578.545 407.013 579.185C407.013 579.826 405.965 580.35 404.685 580.35ZM413.348 580.35C411.659 580.35 410.679 579.845 411.088 579.185C411.484 578.545 412.824 578.021 414.067 578.021C415.311 578.021 416.327 578.545 416.327 579.185C416.327 579.826 414.986 580.35 413.348 580.35ZM422.799 580.35C421.161 580.35 419.82 579.826 419.82 579.185C419.82 578.545 420.836 578.021 422.08 578.021C423.323 578.021 424.663 578.545 425.059 579.185C425.468 579.845 424.489 580.35 422.799 580.35ZM430.812 580.35C429.122 580.35 428.143 579.845 428.552 579.185C428.948 578.545 430.288 578.021 431.531 578.021C432.775 578.021 433.791 578.545 433.791 579.185C433.791 579.826 432.45 580.35 430.812 580.35ZM440.263 580.35C438.625 580.35 437.284 579.826 437.284 579.185C437.284 578.545 438.3 578.021 439.544 578.021C440.787 578.021 442.127 578.545 442.523 579.185C442.932 579.845 441.952 580.35 440.263 580.35ZM448.276 580.35C446.586 580.35 445.607 579.845 446.016 579.185C446.412 578.545 447.752 578.021 448.995 578.021C450.238 578.021 451.255 578.545 451.255 579.185C451.255 579.826 449.914 580.35 448.276 580.35ZM457.727 580.35C456.089 580.35 454.748 579.826 454.748 579.185C454.748 578.545 455.764 578.021 457.008 578.021C458.251 578.021 459.591 578.545 459.987 579.185C460.395 579.845 459.416 580.35 457.727 580.35ZM465.739 580.35C464.05 580.35 463.071 579.845 463.48 579.185C463.875 578.545 465.215 578.021 466.459 578.021C467.702 578.021 468.719 578.545 468.719 579.185C468.719 579.826 467.378 580.35 465.739 580.35ZM475.191 580.35C473.553 580.35 472.212 579.826 472.212 579.185C472.212 578.545 473.228 578.021 474.471 578.021C475.715 578.021 477.055 578.545 477.451 579.185C477.859 579.845 476.88 580.35 475.191 580.35ZM483.272 580.35C481.536 580.35 480.534 579.848 480.943 579.185C481.339 578.545 482.387 578.021 483.272 578.021C484.157 578.021 485.205 578.545 485.6 579.185C486.01 579.848 485.008 580.35 483.272 580.35ZM492.586 580.35C490.85 580.35 489.848 579.848 490.257 579.185C490.653 578.545 491.701 578.021 492.586 578.021C493.471 578.021 494.519 578.545 494.914 579.185C495.324 579.848 494.322 580.35 492.586 580.35ZM501.318 580.35C500.037 580.35 498.989 579.826 498.989 579.185C498.989 578.545 500.037 578.021 501.318 578.021C502.599 578.021 503.646 578.545 503.646 579.185C503.646 579.826 502.599 580.35 501.318 580.35ZM510.119 580.35C508.48 580.35 507.139 579.826 507.139 579.185C507.139 578.545 508.156 578.021 509.399 578.021C510.642 578.021 511.983 578.545 512.378 579.185C512.787 579.845 511.808 580.35 510.119 580.35ZM518.131 580.35C516.442 580.35 515.462 579.845 515.871 579.185C516.267 578.545 517.607 578.021 518.85 578.021C520.094 578.021 521.11 578.545 521.11 579.185C521.11 579.826 519.769 580.35 518.131 580.35Z" fill="white"/>
<path d="M257.594 32.276C259.239 41.0208 264.406 55.3795 269.431 65.1663C276.653 79.2328 288.662 91.5495 301.066 97.6071C313.193 103.531 324.408 105.71 338.904 104.962C370.254 103.342 391.839 87.3814 404.798 56.2364C407.988 48.5721 413.301 28.4922 412.141 28.4922C411.886 28.4922 408.443 30.8731 404.49 33.7826C384.76 48.3067 358.943 55.1408 329.121 53.7344C304.265 52.5609 284.276 46.3752 266.612 34.3903C261.83 31.1467 257.686 28.4922 257.4 28.4922C257.115 28.4922 257.203 30.1955 257.594 32.276Z" fill="white"/>
<path fill-rule="evenodd" clip-rule="evenodd" d="M106.053 63.6679C83.1556 77.271 69.0809 85.5885 43.3578 100.716C33.209 106.685 24.6389 112.262 24.3141 113.108C23.9892 113.954 22.6818 114.647 21.4081 114.647C18.955 114.647 12.3304 118.83 12.3304 120.38C12.3304 121.161 67.9248 234.637 68.6943 235.426C69.3382 236.086 78.693 231.784 78.693 230.827C78.693 230.246 79.2681 230.126 79.9713 230.562C80.6745 230.996 84.7343 229.985 88.9943 228.315C93.2543 226.645 106.431 221.673 118.278 217.265C136.303 210.557 140.062 208.755 141.324 206.215C143.872 201.083 150.751 169.616 152.165 156.629C153.746 142.094 152.857 117.073 150.405 107.079C145.52 87.1707 130.735 51.6993 127.382 51.8425C126.537 51.8786 116.939 57.2004 106.053 63.6679ZM26.8475 122.639C26.1641 123.323 24.023 120.607 23.9904 119.013C23.9811 118.533 24.441 118.14 25.0126 118.14C26.3038 118.14 27.7649 121.721 26.8475 122.639ZM30.615 130.515C30.2669 130.862 29.3984 130.054 28.6835 128.718C27.7824 127.034 27.7649 126.29 28.6253 126.29C30.0376 126.29 31.5744 129.555 30.615 130.515ZM33.287 137.932C32.6664 136.972 32.1588 135.4 32.1588 134.44C32.1588 132.888 32.2834 132.888 33.287 134.44C33.9075 135.4 34.4152 136.972 34.4152 137.932C34.4152 139.484 34.2906 139.484 33.287 137.932ZM37.3619 146.082C36.4014 145.285 35.6318 143.78 35.6528 142.738C35.6842 141.146 35.9625 141.204 37.3991 143.103C39.624 146.045 39.6007 147.94 37.3619 146.082ZM40.8174 153.718C39.8778 152.475 39.1083 151.035 39.1083 150.517C39.1083 148.85 41.1643 149.514 41.8943 151.417C43.1669 154.734 42.5626 156.026 40.8174 153.718ZM45.0076 161.847C44.3241 161.426 43.7816 160.194 43.8026 159.111C43.8352 157.382 44.0459 157.416 45.5361 159.386C47.3465 161.779 47.059 163.115 45.0076 161.847ZM50.093 170.413C49.363 171.144 47.2848 168.187 47.3128 166.457C47.3233 165.816 48.0963 166.302 49.0289 167.536C49.9626 168.77 50.4423 170.065 50.093 170.413ZM53.7837 178.366C53.4996 178.649 52.6835 177.788 51.9686 176.453C51.2538 175.116 51.1548 174.024 51.7498 174.024C52.9466 174.024 54.5975 177.551 53.7837 178.366ZM56.6501 186.297C55.9667 185.875 55.4242 184.643 55.4451 183.561C55.4777 181.832 55.6884 181.865 57.1787 183.835C58.9891 186.228 58.7015 187.565 56.6501 186.297ZM61.7752 194.822C61.0918 195.507 58.9507 192.791 58.9181 191.197C58.9088 190.717 59.3687 190.324 59.9403 190.324C61.2315 190.324 62.6926 193.905 61.7752 194.822ZM65.5427 202.699C65.1946 203.046 64.3261 202.238 63.6112 200.902C62.7101 199.218 62.6926 198.474 63.553 198.474C64.9652 198.474 66.502 201.739 65.5427 202.699ZM69.8027 211.245C69.0192 212.028 67.0819 208.703 67.1098 206.623C67.1226 205.61 67.8095 206.099 68.7432 207.785C69.6281 209.386 70.1054 210.943 69.8027 211.245ZM72.2896 218.266C71.3291 217.468 70.5595 215.964 70.5804 214.922C70.6119 213.329 70.8901 213.388 72.3268 215.287C74.5517 218.229 74.5284 220.124 72.2896 218.266ZM75.7823 225.954C74.8626 224.738 74.4213 223.242 74.8009 222.627C75.6333 221.281 77.5008 223.929 77.474 226.416C77.4589 227.759 77.0688 227.652 75.7823 225.954Z" fill="white"/>
<path fill-rule="evenodd" clip-rule="evenodd" d="M540.061 53.1791C537.877 55.8918 531.718 68.8698 527.084 80.5228C517.252 105.252 513.808 128.423 516.389 152.485C517.952 167.049 522.383 189.13 526.136 201.061L528.678 209.139L542.649 214.291C558.092 219.987 567.789 223.634 579.604 228.195C583.92 229.861 588.014 230.875 588.703 230.45C589.393 230.024 590.577 230.446 591.335 231.389C592.092 232.332 594.434 233.674 596.54 234.371L600.367 235.639L627.789 180.091C642.87 149.54 655.662 123.393 656.216 121.987C657.063 119.837 656.606 119.048 653.355 117.039C651.226 115.723 648.82 114.647 648.005 114.647C647.191 114.647 645.943 113.899 645.232 112.983C644.103 111.53 635.115 106.048 610.758 91.9546C607.236 89.9172 590.938 80.3167 574.538 70.622C558.139 60.926 543.947 52.6959 542.999 52.3327C542.051 51.9694 540.729 52.3501 540.061 53.1791ZM644.468 120.569C643.023 123.268 641.512 122.759 642.594 119.936C642.974 118.948 643.843 118.14 644.526 118.14C645.387 118.14 645.369 118.884 644.468 120.569ZM638.576 130.947C637.114 130.947 637.283 129.337 638.913 127.707C639.671 126.949 640.47 126.506 640.687 126.725C641.399 127.435 639.642 130.947 638.576 130.947ZM636.318 136.868C634.836 139.638 633.613 139.243 634.722 136.352C635.126 135.3 635.943 134.44 636.537 134.44C637.132 134.44 637.033 135.532 636.318 136.868ZM631.574 146.752C630.386 147.485 630.243 145.91 631.257 143.267C631.646 142.254 632.383 141.425 632.894 141.425C634.064 141.425 632.956 145.897 631.574 146.752ZM628.267 154.198C626.64 156.771 625.507 154.802 627.004 152.003C627.719 150.668 628.548 149.575 628.845 149.575C629.761 149.575 629.409 152.392 628.267 154.198ZM622.678 162.631C622.404 161.81 622.829 160.358 623.621 159.403C625.688 156.913 626.34 158.208 624.628 161.406C623.708 163.124 622.992 163.574 622.678 162.631ZM619.435 170.282C619.115 169.962 619.192 168.816 619.606 167.737C620.021 166.658 620.622 166.036 620.942 166.356C621.262 166.677 621.185 167.822 620.771 168.902C620.356 169.981 619.755 170.602 619.435 170.282ZM615.41 178.681C614.55 178.681 614.567 177.937 615.469 176.253C616.183 174.917 617.052 174.109 617.4 174.456C618.359 175.415 616.823 178.681 615.41 178.681ZM611.786 186.831C610.569 186.831 610.526 186.46 611.465 184.016C612.49 181.343 614.142 181.753 613.424 184.503C613.089 185.783 612.352 186.831 611.786 186.831ZM609.54 192.752C608.095 195.452 606.584 194.942 607.667 192.12C608.046 191.132 608.915 190.324 609.598 190.324C610.459 190.324 610.441 191.068 609.54 192.752ZM604.982 201.933C603.355 204.506 602.222 202.537 603.719 199.738C604.434 198.403 605.263 197.309 605.56 197.309C606.476 197.309 606.124 200.127 604.982 201.933ZM601.39 209.052C599.946 211.752 598.434 211.242 599.517 208.42C599.897 207.431 600.765 206.623 601.449 206.623C602.309 206.623 602.292 207.367 601.39 209.052ZM596.896 218.622C595.376 220.143 595.164 218.458 596.461 215.16C597.27 213.102 597.316 213.104 597.735 215.188C597.975 216.376 597.596 217.922 596.896 218.622ZM591.359 227.197C591.039 226.877 591.386 225.477 592.13 224.087C592.874 222.697 593.745 221.822 594.065 222.142C594.385 222.462 594.038 223.861 593.294 225.251C592.55 226.642 591.679 227.517 591.359 227.197Z" fill="white"/>
<path fill-rule="evenodd" clip-rule="evenodd" d="M164.848 37.2742C178.343 33.1946 223.216 19.3761 238.778 14.5083C246.462 12.1053 252.846 10.0772 252.963 10.0015C253.081 9.9258 257.01 12.7736 261.695 16.3292C276.386 27.4805 294.25 35.0435 314.089 38.5118C328.277 40.9928 353.227 40.1371 367.428 36.6827C380.606 33.4787 401.119 23.1878 409.102 15.7773C414.888 10.4055 415.494 10.126 418.998 11.2076C421.051 11.8422 427.708 13.8668 433.791 15.7075C445.534 19.2608 458.242 23.1727 480.943 30.2199C488.628 32.6055 498.844 35.7478 503.646 37.202L505.174 37.6645C531.485 45.6319 538.863 47.8659 545.589 51.3545C548.21 52.7138 550.733 54.2637 554.238 56.4174L554.765 56.7417C558.987 59.3345 572.92 67.5786 585.727 75.0601C641.578 107.69 657.97 117.346 658.866 118.148C659.391 118.618 653.429 132.038 645.618 147.969C637.806 163.9 624.675 190.688 616.44 207.497C608.204 224.305 601.164 238.058 600.797 238.058C600.43 238.058 597.674 237.059 594.674 235.839C589.101 233.572 576.184 228.745 555.456 221.186C549.052 218.85 540.67 215.696 536.828 214.176C532.986 212.657 529.515 211.776 529.115 212.22C528.372 213.044 526.311 256.09 524.617 306.167C524.087 321.814 524.164 356.908 524.789 385.919C527.054 490.857 528.822 592.599 528.396 593.448C528.155 593.928 441.002 594.321 334.725 594.321C159.622 594.321 141.423 594.148 140.783 592.48C140.395 591.467 140.68 565.403 141.417 534.558C144.335 412.486 145.186 331.004 143.957 291.472C142.873 256.667 140.612 212.357 139.878 211.56C139.724 211.393 137.029 212.29 133.887 213.553C130.745 214.815 116.648 220.078 102.56 225.247C88.4727 230.417 74.9767 235.496 72.569 236.534C70.1613 237.573 67.9562 238.189 67.6698 237.902C67.3834 237.615 60.6412 224.043 52.687 207.74C44.7316 191.438 31.8736 165.291 24.1127 149.638C16.3517 133.984 10.0019 120.506 10.0019 119.685C10.0019 119.638 10.0014 119.592 10.0009 119.548C9.9993 119.401 9.99788 119.27 10.015 119.14C10.1681 117.986 11.8046 117.027 28.0744 107.501L29.7942 106.494C37.7985 101.807 46.705 96.5616 49.5866 94.8397C52.4681 93.1166 59.279 89.0941 64.7219 85.9005C70.1648 82.7081 83.2627 74.9786 93.8283 68.7266C104.394 62.4733 116.444 55.3481 120.606 52.8915C124.811 50.4093 134.382 46.5335 142.145 44.1701C149.829 41.8299 160.045 38.7272 164.848 37.2742ZM239.247 16.186C238.973 16.4608 231.944 18.7637 223.628 21.3029C215.311 23.8422 202.221 27.8635 194.536 30.2386C186.852 32.6137 176.636 35.7478 171.833 37.202C152.784 42.9709 136.166 48.1786 133.182 49.3137L130.04 50.5094L136.843 64.2418C149.982 90.7624 156.462 118.525 155.132 142.6C154.155 160.278 151.426 177.085 146.669 194.71L142.501 210.156L144.069 241.862C146.03 281.489 146.045 404.436 144.102 504.594C142.967 563.142 142.979 577.483 144.165 578.321C145.338 579.15 145.342 579.482 144.182 579.953C143.295 580.314 142.727 582.779 142.727 586.268V591.992H334.829H526.932V586.171C526.932 582.643 526.417 580.35 525.625 580.35C524.712 580.35 524.682 579.911 525.524 578.894C526.346 577.902 526.415 564.848 525.742 537.854C521.747 377.681 521.775 291.501 525.841 228.638C526.649 216.139 526.637 209.494 525.803 207.3C523.992 202.535 518.048 178.162 516.27 168.203C515.304 162.789 514.731 150.845 514.763 136.768C514.813 114.803 514.939 113.611 518.634 100.103C522.875 84.5977 528.557 70.0165 534.589 59.1564C536.781 55.2095 538.574 51.52 538.574 50.9565C538.574 50.393 533.727 48.4452 527.805 46.6278C504.669 39.5305 494.575 36.415 486.183 33.7791C481.38 32.2702 469.33 28.5714 459.405 25.5594C449.479 22.5487 438.285 19.0687 434.528 17.8264C430.772 16.5853 427.556 15.7261 427.384 15.9182C427.212 16.1103 426.212 21.7418 425.163 28.4316C420.434 58.5812 405.949 86.6969 388.045 100.479C379.701 106.903 367.36 112.823 356.95 115.395C344.062 118.579 323.357 118.338 310.38 114.852C286.167 108.35 267.373 91.2351 255.54 64.9136C251.288 55.4587 245.567 33.9456 244.48 23.331C243.854 17.228 243.298 15.6854 241.723 15.6854C240.636 15.6854 239.523 15.9101 239.247 16.186ZM150.877 580.35C149.596 580.35 148.548 579.826 148.548 579.185C148.548 578.545 149.596 578.021 150.877 578.021C152.158 578.021 153.205 578.545 153.205 579.185C153.205 579.826 152.158 580.35 150.877 580.35ZM159.609 580.35C158.008 580.35 156.698 579.826 156.698 579.185C156.698 578.545 158.008 578.021 159.609 578.021C161.21 578.021 162.519 578.545 162.519 579.185C162.519 579.826 161.21 580.35 159.609 580.35ZM168.341 580.35C167.06 580.35 166.012 579.826 166.012 579.185C166.012 578.545 167.06 578.021 168.341 578.021C169.621 578.021 170.669 578.545 170.669 579.185C170.669 579.826 169.621 580.35 168.341 580.35ZM177.073 580.35C175.472 580.35 174.162 579.826 174.162 579.185C174.162 578.545 175.472 578.021 177.073 578.021C178.673 578.021 179.983 578.545 179.983 579.185C179.983 579.826 178.673 580.35 177.073 580.35ZM185.805 580.35C184.524 580.35 183.476 579.826 183.476 579.185C183.476 578.545 184.524 578.021 185.805 578.021C187.085 578.021 188.133 578.545 188.133 579.185C188.133 579.826 187.085 580.35 185.805 580.35ZM194.536 580.35C192.936 580.35 191.626 579.826 191.626 579.185C191.626 578.545 192.936 578.021 194.536 578.021C196.137 578.021 197.447 578.545 197.447 579.185C197.447 579.826 196.137 580.35 194.536 580.35ZM203.268 580.35C201.988 580.35 200.94 579.826 200.94 579.185C200.94 578.545 201.988 578.021 203.268 578.021C204.549 578.021 205.597 578.545 205.597 579.185C205.597 579.826 204.549 580.35 203.268 580.35ZM212 580.35C210.399 580.35 209.09 579.826 209.09 579.185C209.09 578.545 210.399 578.021 212 578.021C213.601 578.021 214.911 578.545 214.911 579.185C214.911 579.826 213.601 580.35 212 580.35ZM220.732 580.35C219.452 580.35 218.404 579.826 218.404 579.185C218.404 578.545 219.452 578.021 220.732 578.021C222.013 578.021 223.061 578.545 223.061 579.185C223.061 579.826 222.013 580.35 220.732 580.35ZM229.395 580.35C227.706 580.35 226.727 579.845 227.136 579.185C227.531 578.545 228.872 578.021 230.115 578.021C231.358 578.021 232.375 578.545 232.375 579.185C232.375 579.826 231.034 580.35 229.395 580.35ZM238.847 580.35C237.209 580.35 235.868 579.826 235.868 579.185C235.868 578.545 236.884 578.021 238.127 578.021C239.371 578.021 240.711 578.545 241.107 579.185C241.515 579.845 240.536 580.35 238.847 580.35ZM246.928 580.35C245.327 580.35 244.017 579.826 244.017 579.185C244.017 578.545 245.327 578.021 246.928 578.021C248.529 578.021 249.839 578.545 249.839 579.185C249.839 579.826 248.529 580.35 246.928 580.35ZM255.66 580.35C254.379 580.35 253.331 579.826 253.331 579.185C253.331 578.545 254.379 578.021 255.66 578.021C256.941 578.021 257.988 578.545 257.988 579.185C257.988 579.826 256.941 580.35 255.66 580.35ZM264.974 580.35C263.693 580.35 262.645 579.826 262.645 579.185C262.645 578.545 263.693 578.021 264.974 578.021C266.255 578.021 267.302 578.545 267.302 579.185C267.302 579.826 266.255 580.35 264.974 580.35ZM273.775 580.35C272.136 580.35 270.795 579.826 270.795 579.185C270.795 578.545 271.812 578.021 273.055 578.021C274.298 578.021 275.639 578.545 276.034 579.185C276.443 579.845 275.464 580.35 273.775 580.35ZM281.787 580.35C280.098 580.35 279.118 579.845 279.527 579.185C279.923 578.545 281.263 578.021 282.506 578.021C283.75 578.021 284.766 578.545 284.766 579.185C284.766 579.826 283.425 580.35 281.787 580.35ZM291.238 580.35C289.6 580.35 288.259 579.826 288.259 579.185C288.259 578.545 289.275 578.021 290.519 578.021C291.762 578.021 293.102 578.545 293.498 579.185C293.907 579.845 292.928 580.35 291.238 580.35ZM299.902 580.35C298.621 580.35 297.573 579.826 297.573 579.185C297.573 578.545 298.621 578.021 299.902 578.021C301.182 578.021 302.23 578.545 302.23 579.185C302.23 579.826 301.182 580.35 299.902 580.35ZM308.702 580.35C307.064 580.35 305.723 579.826 305.723 579.185C305.723 578.545 306.739 578.021 307.983 578.021C309.226 578.021 310.566 578.545 310.962 579.185C311.371 579.845 310.392 580.35 308.702 580.35ZM317.365 580.35C316.085 580.35 315.037 579.826 315.037 579.185C315.037 578.545 316.085 578.021 317.365 578.021C318.646 578.021 319.694 578.545 319.694 579.185C319.694 579.826 318.646 580.35 317.365 580.35ZM326.097 580.35C324.362 580.35 323.359 579.848 323.769 579.185C324.165 578.545 325.213 578.021 326.097 578.021C326.982 578.021 328.03 578.545 328.426 579.185C328.836 579.848 327.833 580.35 326.097 580.35ZM334.829 580.35C333.549 580.35 332.501 579.826 332.501 579.185C332.501 578.545 333.549 578.021 334.829 578.021C336.11 578.021 337.158 578.545 337.158 579.185C337.158 579.826 336.11 580.35 334.829 580.35ZM343.561 580.35C341.96 580.35 340.651 579.826 340.651 579.185C340.651 578.545 341.96 578.021 343.561 578.021C345.162 578.021 346.472 578.545 346.472 579.185C346.472 579.826 345.162 580.35 343.561 580.35ZM352.293 580.35C351.012 580.35 349.965 579.826 349.965 579.185C349.965 578.545 351.012 578.021 352.293 578.021C353.574 578.021 354.622 578.545 354.622 579.185C354.622 579.826 353.574 580.35 352.293 580.35ZM361.025 580.35C359.289 580.35 358.287 579.848 358.697 579.185C359.092 578.545 360.14 578.021 361.025 578.021C361.91 578.021 362.958 578.545 363.354 579.185C363.763 579.848 362.761 580.35 361.025 580.35ZM369.757 580.35C368.476 580.35 367.428 579.826 367.428 579.185C367.428 578.545 368.476 578.021 369.757 578.021C371.038 578.021 372.086 578.545 372.086 579.185C372.086 579.826 371.038 580.35 369.757 580.35ZM378.489 580.35C376.888 580.35 375.578 579.826 375.578 579.185C375.578 578.545 376.888 578.021 378.489 578.021C380.09 578.021 381.4 578.545 381.4 579.185C381.4 579.826 380.09 580.35 378.489 580.35ZM387.221 580.35C385.94 580.35 384.892 579.826 384.892 579.185C384.892 578.545 385.94 578.021 387.221 578.021C388.502 578.021 389.549 578.545 389.549 579.185C389.549 579.826 388.502 580.35 387.221 580.35ZM395.884 580.35C394.195 580.35 393.216 579.845 393.624 579.185C394.02 578.545 395.36 578.021 396.604 578.021C397.847 578.021 398.863 578.545 398.863 579.185C398.863 579.826 397.522 580.35 395.884 580.35ZM404.685 580.35C403.404 580.35 402.356 579.826 402.356 579.185C402.356 578.545 403.404 578.021 404.685 578.021C405.965 578.021 407.013 578.545 407.013 579.185C407.013 579.826 405.965 580.35 404.685 580.35ZM413.348 580.35C411.659 580.35 410.679 579.845 411.088 579.185C411.484 578.545 412.824 578.021 414.067 578.021C415.311 578.021 416.327 578.545 416.327 579.185C416.327 579.826 414.986 580.35 413.348 580.35ZM422.799 580.35C421.161 580.35 419.82 579.826 419.82 579.185C419.82 578.545 420.836 578.021 422.08 578.021C423.323 578.021 424.663 578.545 425.059 579.185C425.468 579.845 424.489 580.35 422.799 580.35ZM430.812 580.35C429.122 580.35 428.143 579.845 428.552 579.185C428.948 578.545 430.288 578.021 431.531 578.021C432.775 578.021 433.791 578.545 433.791 579.185C433.791 579.826 432.45 580.35 430.812 580.35ZM440.263 580.35C438.625 580.35 437.284 579.826 437.284 579.185C437.284 578.545 438.3 578.021 439.544 578.021C440.787 578.021 442.127 578.545 442.523 579.185C442.932 579.845 441.952 580.35 440.263 580.35ZM448.276 580.35C446.586 580.35 445.607 579.845 446.016 579.185C446.412 578.545 447.752 578.021 448.995 578.021C450.238 578.021 451.255 578.545 451.255 579.185C451.255 579.826 449.914 580.35 448.276 580.35ZM457.727 580.35C456.089 580.35 454.748 579.826 454.748 579.185C454.748 578.545 455.764 578.021 457.008 578.021C458.251 578.021 459.591 578.545 459.987 579.185C460.395 579.845 459.416 580.35 457.727 580.35ZM465.739 580.35C464.05 580.35 463.071 579.845 463.48 579.185C463.875 578.545 465.215 578.021 466.459 578.021C467.702 578.021 468.719 578.545 468.719 579.185C468.719 579.826 467.378 580.35 465.739 580.35ZM475.191 580.35C473.553 580.35 472.212 579.826 472.212 579.185C472.212 578.545 473.228 578.021 474.471 578.021C475.715 578.021 477.055 578.545 477.451 579.185C477.859 579.845 476.88 580.35 475.191 580.35ZM483.272 580.35C481.536 580.35 480.534 579.848 480.943 579.185C481.339 578.545 482.387 578.021 483.272 578.021C484.157 578.021 485.205 578.545 485.6 579.185C486.01 579.848 485.008 580.35 483.272 580.35ZM492.586 580.35C490.85 580.35 489.848 579.848 490.257 579.185C490.653 578.545 491.701 578.021 492.586 578.021C493.471 578.021 494.519 578.545 494.914 579.185C495.324 579.848 494.322 580.35 492.586 580.35ZM501.318 580.35C500.037 580.35 498.989 579.826 498.989 579.185C498.989 578.545 500.037 578.021 501.318 578.021C502.599 578.021 503.646 578.545 503.646 579.185C503.646 579.826 502.599 580.35 501.318 580.35ZM510.119 580.35C508.48 580.35 507.139 579.826 507.139 579.185C507.139 578.545 508.156 578.021 509.399 578.021C510.642 578.021 511.983 578.545 512.378 579.185C512.787 579.845 511.808 580.35 510.119 580.35ZM518.131 580.35C516.442 580.35 515.462 579.845 515.871 579.185C516.267 578.545 517.607 578.021 518.85 578.021C520.094 578.021 521.11 578.545 521.11 579.185C521.11 579.826 519.769 580.35 518.131 580.35ZM43.3578 100.716C69.0809 85.5885 83.1556 77.271 106.053 63.6679C116.939 57.2004 126.537 51.8786 127.382 51.8425C130.735 51.6993 145.52 87.1707 150.405 107.079C152.857 117.073 153.746 142.094 152.165 156.629C150.751 169.616 143.872 201.083 141.324 206.215C140.062 208.755 136.303 210.557 118.278 217.265C106.431 221.673 93.2543 226.645 88.9943 228.315C84.7343 229.985 80.6745 230.996 79.9713 230.562C79.2681 230.126 78.693 230.246 78.693 230.827C78.693 231.784 69.3382 236.086 68.6943 235.426C67.9248 234.637 12.3304 121.161 12.3304 120.38C12.3304 118.83 18.955 114.647 21.4081 114.647C22.6818 114.647 23.9892 113.954 24.3141 113.108C24.6389 112.262 33.209 106.685 43.3578 100.716ZM23.9904 119.013C24.023 120.607 26.1641 123.323 26.8475 122.639C27.7649 121.721 26.3038 118.14 25.0126 118.14C24.441 118.14 23.9811 118.533 23.9904 119.013ZM28.6835 128.718C29.3984 130.054 30.2669 130.862 30.615 130.515C31.5744 129.555 30.0376 126.29 28.6253 126.29C27.7649 126.29 27.7824 127.034 28.6835 128.718ZM32.1588 134.44C32.1588 135.4 32.6664 136.972 33.287 137.932C34.2906 139.484 34.4152 139.484 34.4152 137.932C34.4152 136.972 33.9075 135.4 33.287 134.44C32.2834 132.888 32.1588 132.888 32.1588 134.44ZM35.6528 142.738C35.6318 143.78 36.4014 145.285 37.3619 146.082C39.6007 147.94 39.624 146.045 37.3991 143.103C35.9625 141.204 35.6842 141.146 35.6528 142.738ZM39.1083 150.517C39.1083 151.035 39.8778 152.475 40.8174 153.718C42.5626 156.026 43.1669 154.734 41.8943 151.417C41.1643 149.514 39.1083 148.85 39.1083 150.517ZM43.8026 159.111C43.7816 160.194 44.3241 161.426 45.0076 161.847C47.059 163.115 47.3465 161.779 45.5361 159.386C44.0459 157.416 43.8352 157.382 43.8026 159.111ZM47.3128 166.457C47.2848 168.187 49.363 171.144 50.093 170.413C50.4423 170.065 49.9626 168.77 49.0289 167.536C48.0963 166.302 47.3233 165.816 47.3128 166.457ZM51.9686 176.453C52.6835 177.788 53.4996 178.649 53.7837 178.366C54.5975 177.551 52.9466 174.024 51.7498 174.024C51.1548 174.024 51.2538 175.116 51.9686 176.453ZM55.4451 183.561C55.4242 184.643 55.9667 185.875 56.6501 186.297C58.7015 187.565 58.9891 186.228 57.1787 183.835C55.6884 181.865 55.4777 181.832 55.4451 183.561ZM58.9181 191.197C58.9507 192.791 61.0918 195.507 61.7752 194.822C62.6926 193.905 61.2315 190.324 59.9403 190.324C59.3687 190.324 58.9088 190.717 58.9181 191.197ZM63.6112 200.902C64.3261 202.238 65.1946 203.046 65.5427 202.699C66.502 201.739 64.9652 198.474 63.553 198.474C62.6926 198.474 62.7101 199.218 63.6112 200.902ZM67.1098 206.623C67.0819 208.703 69.0192 212.028 69.8027 211.245C70.1054 210.943 69.6281 209.386 68.7432 207.785C67.8095 206.099 67.1226 205.61 67.1098 206.623ZM70.5804 214.922C70.5595 215.964 71.3291 217.468 72.2896 218.266C74.5284 220.124 74.5517 218.229 72.3268 215.287C70.8901 213.388 70.6119 213.329 70.5804 214.922ZM74.8009 222.627C74.4213 223.242 74.8626 224.738 75.7823 225.954C77.0688 227.652 77.4589 227.759 77.474 226.416C77.5008 223.929 75.6333 221.281 74.8009 222.627ZM540.061 53.1791C537.877 55.8918 531.718 68.8698 527.084 80.5228C517.252 105.252 513.808 128.423 516.389 152.485C517.952 167.049 522.383 189.13 526.136 201.061L528.678 209.139L542.649 214.291C558.092 219.987 567.789 223.634 579.604 228.195C583.92 229.861 588.014 230.875 588.703 230.45C589.393 230.024 590.577 230.446 591.335 231.389C592.092 232.332 594.434 233.674 596.54 234.371L600.367 235.639L627.789 180.091C642.87 149.54 655.662 123.393 656.216 121.987C657.063 119.837 656.606 119.048 653.355 117.039C651.226 115.723 648.82 114.647 648.005 114.647C647.191 114.647 645.943 113.899 645.232 112.983C644.103 111.53 635.115 106.048 610.758 91.9546C607.236 89.9172 590.938 80.3167 574.538 70.622C558.139 60.926 543.947 52.6959 542.999 52.3327C542.051 51.9694 540.729 52.3501 540.061 53.1791ZM644.468 120.569C643.023 123.268 641.512 122.759 642.594 119.936C642.974 118.948 643.843 118.14 644.526 118.14C645.387 118.14 645.369 118.884 644.468 120.569ZM638.576 130.947C637.114 130.947 637.283 129.337 638.913 127.707C639.671 126.949 640.47 126.506 640.687 126.725C641.399 127.435 639.642 130.947 638.576 130.947ZM636.318 136.868C634.836 139.638 633.613 139.243 634.722 136.352C635.126 135.3 635.943 134.44 636.537 134.44C637.132 134.44 637.033 135.532 636.318 136.868ZM631.574 146.752C630.386 147.485 630.243 145.91 631.257 143.267C631.646 142.254 632.383 141.425 632.894 141.425C634.064 141.425 632.956 145.897 631.574 146.752ZM628.267 154.198C626.64 156.771 625.507 154.802 627.004 152.003C627.719 150.668 628.548 149.575 628.845 149.575C629.761 149.575 629.409 152.392 628.267 154.198ZM622.678 162.631C622.404 161.81 622.829 160.358 623.621 159.403C625.688 156.913 626.34 158.208 624.628 161.406C623.708 163.124 622.992 163.574 622.678 162.631ZM619.435 170.282C619.115 169.962 619.192 168.816 619.606 167.737C620.021 166.658 620.622 166.036 620.942 166.356C621.262 166.677 621.185 167.822 620.771 168.902C620.356 169.981 619.755 170.602 619.435 170.282ZM615.41 178.681C614.55 178.681 614.567 177.937 615.469 176.253C616.183 174.917 617.052 174.109 617.4 174.456C618.359 175.415 616.823 178.681 615.41 178.681ZM611.786 186.831C610.569 186.831 610.526 186.46 611.465 184.016C612.49 181.343 614.142 181.753 613.424 184.503C613.089 185.783 612.352 186.831 611.786 186.831ZM609.54 192.752C608.095 195.452 606.584 194.942 607.667 192.12C608.046 191.132 608.915 190.324 609.598 190.324C610.459 190.324 610.441 191.068 609.54 192.752ZM604.982 201.933C603.355 204.506 602.222 202.537 603.719 199.738C604.434 198.403 605.263 197.309 605.56 197.309C606.476 197.309 606.124 200.127 604.982 201.933ZM601.39 209.052C599.946 211.752 598.434 211.242 599.517 208.42C599.897 207.431 600.765 206.623 601.449 206.623C602.309 206.623 602.292 207.367 601.39 209.052ZM596.896 218.622C595.376 220.143 595.164 218.458 596.461 215.16C597.27 213.102 597.316 213.104 597.735 215.188C597.975 216.376 597.596 217.922 596.896 218.622ZM591.359 227.197C591.039 226.877 591.386 225.477 592.13 224.087C592.874 222.697 593.745 221.822 594.065 222.142C594.385 222.462 594.038 223.861 593.294 225.251C592.55 226.642 591.679 227.517 591.359 227.197ZM269.431 65.1663C264.406 55.3795 259.239 41.0208 257.594 32.276C257.203 30.1955 257.115 28.4922 257.4 28.4922C257.686 28.4922 261.83 31.1467 266.612 34.3903C284.276 46.3752 304.265 52.5609 329.121 53.7344C358.943 55.1408 384.76 48.3067 404.49 33.7826C408.443 30.8731 411.886 28.4922 412.141 28.4922C413.301 28.4922 407.988 48.5721 404.798 56.2364C391.839 87.3814 370.254 103.342 338.904 104.962C324.408 105.71 313.193 103.531 301.066 97.6071C288.662 91.5495 276.653 79.2328 269.431 65.1663ZM248.797 13.5036C246.112 14.5316 246.035 14.882 246.722 22.9864C247.644 33.8699 252.088 51.2813 256.885 62.804C267.468 88.2255 287.046 106.611 310.38 113.042C320.918 115.945 347.501 115.986 358.077 113.116C381.997 106.624 401.101 89.7169 412.312 65.1185C417.62 53.469 423.012 34.2273 423.989 23.4486L424.755 14.9973L420.62 13.7283L416.484 12.4592L415.687 20.1841C415.248 24.4336 413.439 33.7104 411.667 40.7995C399.927 87.7354 368.183 111.479 323.897 106.447C287.584 102.321 262.428 73.2415 254.949 26.7458C253.816 19.7021 252.596 13.6014 252.237 13.1869C251.878 12.7736 250.33 12.9168 248.797 13.5036ZM262.354 29.1092C256.233 24.2555 255.66 23.4079 255.66 19.2084V14.6154L265.847 21.4356C278.04 29.5994 289.274 34.629 304.403 38.6969C314.358 41.3735 317.844 41.717 335.411 41.7484C353.201 41.7798 356.44 41.4643 367.428 38.634C382.375 34.7838 395.668 28.5376 406.316 20.3587L414.349 14.187L413.549 19.191C413.143 21.7293 412.962 23.1701 412.348 24.3935C411.424 26.2339 409.52 27.5822 404.396 31.4343C395.397 38.1986 388.222 41.8741 375.817 46.0701C361.715 50.8401 350.231 52.1708 329.187 51.4758C314.154 50.9786 309.127 50.3383 300.484 47.8165C287.285 43.9651 271.037 35.9947 262.354 29.1092Z" fill="black"/>
<path d="M248.797 13.5036C246.112 14.5316 246.035 14.882 246.722 22.9864C247.644 33.8699 252.088 51.2813 256.885 62.804C267.468 88.2255 287.046 106.611 310.38 113.042C320.918 115.945 347.501 115.986 358.077 113.116C381.997 106.624 401.101 89.7169 412.312 65.1185C417.62 53.469 423.012 34.2273 423.989 23.4486L424.755 14.9973L420.62 13.7283L416.484 12.4592L415.687 20.1841C415.248 24.4336 413.439 33.7104 411.667 40.7995C399.927 87.7354 368.183 111.479 323.897 106.447C287.584 102.321 262.428 73.2415 254.949 26.7458C253.816 19.7021 252.596 13.6014 252.237 13.1869C251.878 12.7736 250.33 12.9168 248.797 13.5036Z" fill="white"/>
<path d="M255.66 19.2084C255.66 23.4079 256.233 24.2555 262.354 29.1092C271.037 35.9947 287.285 43.9651 300.484 47.8165C309.127 50.3383 314.154 50.9786 329.187 51.4758C350.231 52.1708 361.715 50.8401 375.817 46.0701C388.222 41.8741 395.397 38.1986 404.396 31.4343C409.52 27.5822 411.424 26.2339 412.348 24.3935C412.962 23.1701 413.143 21.7293 413.549 19.191L414.349 14.187L406.316 20.3587C395.668 28.5376 382.375 34.7838 367.428 38.634C356.44 41.4643 353.201 41.7798 335.411 41.7484C317.844 41.717 314.358 41.3735 304.403 38.6969C289.274 34.629 278.04 29.5994 265.847 21.4356L255.66 14.6154V19.2084Z" fill="white"/>
<rect x="178.351" y="580.351" width="48.298" height="13.298" fill="black"/>
<rect x="178.351" y="580.351" width="48.298" height="13.298" stroke="#0B2545" stroke-width="0.701974"/>
<path d="M184.96 590V584.651H184.086V583.7H186.76V584.651H185.886V590H184.96ZM190.275 590V583.7H191.2C191.755 583.7 192.163 583.854 192.426 584.163C192.689 584.469 192.82 584.92 192.82 585.517C192.82 585.871 192.757 586.179 192.632 586.439C192.509 586.696 192.359 586.884 192.182 587.004L192.812 590H191.886L191.363 587.343H191.2V590H190.275ZM191.2 586.486C191.372 586.486 191.507 586.449 191.607 586.374C191.707 586.297 191.779 586.189 191.822 586.049C191.865 585.909 191.886 585.743 191.886 585.551C191.886 585.251 191.836 585.021 191.736 584.861C191.639 584.699 191.46 584.617 191.2 584.617V586.486ZM196.424 590V583.7H197.35V590H196.424ZM201.125 590V583.7H201.991L202.848 586.983L202.925 587.274H202.977V583.7H203.825V590H203.045L202.102 586.717L202.025 586.426H201.974V590H201.125ZM207.593 590V583.7H208.518V590H207.593ZM212.911 590V584.651H212.037V583.7H214.711V584.651H213.837V590H212.911ZM218.954 590V587.317L218.011 583.7H218.92L219.374 585.714L219.404 585.989H219.43L219.46 585.714L219.914 583.7H220.823L219.88 587.317V590H218.954Z" fill="#EEF4ED"/>
<path d="M316.96 73V67.6514H316.086V66.7H318.76V67.6514H317.886V73H316.96ZM322.275 73V66.7H323.2C323.755 66.7 324.163 66.8543 324.426 67.1629C324.689 67.4686 324.82 67.92 324.82 68.5171C324.82 68.8714 324.757 69.1786 324.632 69.4386C324.509 69.6957 324.359 69.8843 324.182 70.0043L324.812 73H323.886L323.363 70.3429H323.2V73H322.275ZM323.2 69.4857C323.372 69.4857 323.507 69.4486 323.607 69.3743C323.707 69.2971 323.779 69.1886 323.822 69.0486C323.865 68.9086 323.886 68.7429 323.886 68.5514C323.886 68.2514 323.836 68.0214 323.736 67.8614C323.639 67.6986 323.46 67.6171 323.2 67.6171V69.4857ZM328.424 73V66.7H329.35V73H328.424ZM333.125 73V66.7H333.991L334.848 69.9829L334.925 70.2743H334.977V66.7H335.825V73H335.045L334.102 69.7171L334.025 69.4257H333.974V73H333.125ZM339.593 73V66.7H340.518V73H339.593ZM344.911 73V67.6514H344.037V66.7H346.711V67.6514H345.837V73H344.911ZM350.954 73V70.3171L350.011 66.7H350.92L351.374 68.7143L351.404 68.9886H351.43L351.46 68.7143L351.914 66.7H352.823L351.88 70.3171V73H350.954Z" fill="black"/>
<path d="M322.218 78.0208C322.138 78.0208 322.07 78.003 322.013 77.9674C321.958 77.931 321.915 77.8815 321.885 77.8189C321.857 77.7564 321.843 77.6856 321.843 77.6066V76.4784C321.843 76.4002 321.857 76.3299 321.887 76.2674C321.917 76.2048 321.961 76.1553 322.017 76.1189C322.074 76.0824 322.14 76.0641 322.218 76.0641C322.276 76.0641 322.328 76.075 322.374 76.0967C322.42 76.1184 322.459 76.1484 322.491 76.1866C322.524 76.2239 322.549 76.2678 322.567 76.3182C322.584 76.3677 322.593 76.4211 322.593 76.4784V76.7416H322.33V76.4784C322.33 76.4385 322.321 76.405 322.305 76.3781C322.288 76.3512 322.261 76.3377 322.223 76.3377C322.188 76.3377 322.163 76.3516 322.147 76.3794C322.132 76.4072 322.124 76.4402 322.124 76.4784V77.6066C322.124 77.6448 322.132 77.6778 322.149 77.7056C322.166 77.7334 322.191 77.7473 322.223 77.7473C322.262 77.7473 322.289 77.7338 322.305 77.7069C322.321 77.68 322.33 77.6465 322.33 77.6066V77.3434H322.593V77.6066C322.593 77.6847 322.578 77.7551 322.547 77.8176C322.517 77.8801 322.473 77.9297 322.417 77.9661C322.361 78.0026 322.295 78.0208 322.218 78.0208ZM322.763 78V76.085H323.026V78H322.763ZM323.494 78.0182C323.389 78.0182 323.307 77.9831 323.247 77.9127C323.187 77.8415 323.157 77.7516 323.157 77.6431V76.9292C323.157 76.8206 323.187 76.7311 323.247 76.6608C323.307 76.5896 323.389 76.554 323.494 76.554C323.599 76.554 323.681 76.5896 323.741 76.6608C323.801 76.7311 323.832 76.8206 323.832 76.9292V77.6431C323.832 77.7516 323.801 77.8415 323.741 77.9127C323.681 77.9831 323.599 78.0182 323.494 78.0182ZM323.494 77.789C323.528 77.789 323.552 77.7755 323.565 77.7486C323.578 77.7208 323.584 77.6856 323.584 77.6431V76.9292C323.584 76.8857 323.578 76.8506 323.565 76.8236C323.552 76.7967 323.528 76.7833 323.494 76.7833C323.461 76.7833 323.437 76.7967 323.424 76.8236C323.411 76.8506 323.405 76.8857 323.405 76.9292V77.6431C323.405 77.6865 323.411 77.7217 323.424 77.7486C323.437 77.7755 323.461 77.789 323.494 77.789ZM324.319 78.0208C324.236 78.0208 324.173 78.0026 324.13 77.9661C324.087 77.9297 324.057 77.8775 324.04 77.8098C324.025 77.7421 324.017 77.6613 324.017 77.5675V76.8119H323.884V76.5748H324.017V76.2231H324.28V76.5748H324.461V76.8119H324.28V77.6053C324.28 77.6609 324.288 77.7021 324.305 77.729C324.321 77.7551 324.348 77.7681 324.385 77.7681C324.402 77.7681 324.416 77.7668 324.428 77.7642C324.441 77.7616 324.452 77.7586 324.46 77.7551V77.9961C324.442 78.003 324.423 78.0087 324.402 78.013C324.382 78.0182 324.355 78.0208 324.319 78.0208ZM324.539 78V76.085H324.802V76.6725C324.825 76.6491 324.858 76.6234 324.902 76.5957C324.947 76.5679 324.989 76.554 325.029 76.554C325.072 76.554 325.109 76.5666 325.138 76.5917C325.168 76.6169 325.19 76.6508 325.205 76.6934C325.219 76.735 325.227 76.7815 325.227 76.8328V78H324.964V76.8875C324.964 76.8614 324.958 76.8406 324.945 76.8249C324.934 76.8084 324.921 76.8002 324.905 76.8002C324.887 76.8002 324.865 76.8106 324.84 76.8315C324.815 76.8514 324.802 76.874 324.802 76.8992V78H324.539ZM325.684 78.0208C325.579 78.0208 325.496 77.9848 325.435 77.9127C325.375 77.8398 325.345 77.7507 325.345 77.6457V76.9292C325.345 76.818 325.375 76.7277 325.435 76.6582C325.495 76.5887 325.579 76.554 325.687 76.554C325.757 76.554 325.817 76.57 325.868 76.6022C325.919 76.6343 325.958 76.6782 325.985 76.7337C326.012 76.7885 326.025 76.851 326.025 76.9213V77.3356H325.59V77.6457C325.59 77.6813 325.598 77.7143 325.614 77.7447C325.63 77.7742 325.654 77.789 325.687 77.789C325.72 77.789 325.744 77.7751 325.758 77.7473C325.773 77.7195 325.78 77.6856 325.78 77.6457V77.4893H326.025V77.6535C326.025 77.7638 325.995 77.8528 325.935 77.9205C325.876 77.9874 325.792 78.0208 325.684 78.0208ZM325.59 77.1298H325.78V76.9292C325.78 76.8901 325.773 76.8562 325.759 76.8275C325.746 76.798 325.722 76.7833 325.687 76.7833C325.654 76.7833 325.629 76.7984 325.614 76.8288C325.598 76.8584 325.59 76.8918 325.59 76.9292V77.1298ZM326.473 78.0208C326.411 78.0208 326.358 78.0104 326.312 77.9896C326.265 77.9687 326.227 77.9392 326.197 77.901C326.166 77.8619 326.143 77.8159 326.128 77.7629C326.113 77.7099 326.106 77.6509 326.106 77.5857H326.351C326.351 77.6439 326.36 77.6947 326.378 77.7382C326.397 77.7807 326.429 77.802 326.473 77.802C326.511 77.802 326.536 77.7859 326.547 77.7538C326.559 77.7217 326.564 77.6847 326.564 77.6431C326.564 77.5944 326.545 77.5449 326.507 77.4945C326.47 77.4433 326.431 77.3977 326.39 77.3578C326.319 77.2883 326.261 77.2197 326.214 77.1519C326.168 77.0842 326.145 77.0047 326.145 76.9135C326.145 76.8058 326.173 76.719 326.229 76.653C326.286 76.587 326.366 76.554 326.47 76.554C326.533 76.554 326.586 76.5622 326.628 76.5787C326.672 76.5952 326.706 76.62 326.732 76.653C326.758 76.686 326.777 76.7264 326.788 76.7741C326.8 76.8219 326.807 76.877 326.807 76.9396H326.562C326.562 76.8944 326.557 76.8553 326.547 76.8223C326.538 76.7893 326.514 76.7728 326.476 76.7728C326.444 76.7728 326.422 76.7863 326.409 76.8132C326.396 76.8393 326.39 76.8727 326.39 76.9135C326.39 76.9613 326.401 77.0038 326.424 77.0412C326.447 77.0777 326.486 77.1224 326.539 77.1754C326.607 77.2414 326.669 77.3117 326.724 77.3864C326.781 77.4611 326.809 77.5423 326.809 77.63C326.809 77.6873 326.801 77.7399 326.786 77.7877C326.771 77.8354 326.749 77.8767 326.719 77.9114C326.691 77.9462 326.655 77.9731 326.614 77.9922C326.573 78.0113 326.526 78.0208 326.473 78.0208ZM327.716 78.0208C327.636 78.0208 327.568 78.003 327.512 77.9674C327.456 77.931 327.413 77.8815 327.384 77.8189C327.355 77.7564 327.341 77.6856 327.341 77.6066V76.4784C327.341 76.4002 327.356 76.3299 327.385 76.2674C327.416 76.2048 327.459 76.1553 327.516 76.1189C327.572 76.0824 327.639 76.0641 327.716 76.0641C327.774 76.0641 327.826 76.075 327.872 76.0967C327.918 76.1184 327.958 76.1484 327.99 76.1866C328.023 76.2239 328.048 76.2678 328.065 76.3182C328.083 76.3677 328.091 76.4211 328.091 76.4784V76.7416H327.828V76.4784C327.828 76.4385 327.82 76.405 327.803 76.3781C327.787 76.3512 327.76 76.3377 327.721 76.3377C327.687 76.3377 327.661 76.3516 327.646 76.3794C327.63 76.4072 327.622 76.4402 327.622 76.4784V77.6066C327.622 77.6448 327.631 77.6778 327.647 77.7056C327.664 77.7334 327.689 77.7473 327.721 77.7473C327.76 77.7473 327.788 77.7338 327.803 77.7069C327.82 77.68 327.828 77.6465 327.828 77.6066V77.3434H328.091V77.6066C328.091 77.6847 328.076 77.7551 328.046 77.8176C328.015 77.8801 327.972 77.9297 327.915 77.9661C327.86 78.0026 327.793 78.0208 327.716 78.0208ZM328.573 78.0182C328.468 78.0182 328.385 77.9831 328.326 77.9127C328.266 77.8415 328.236 77.7516 328.236 77.6431V76.9292C328.236 76.8206 328.266 76.7311 328.326 76.6608C328.385 76.5896 328.468 76.554 328.573 76.554C328.677 76.554 328.759 76.5896 328.819 76.6608C328.88 76.7311 328.91 76.8206 328.91 76.9292V77.6431C328.91 77.7516 328.88 77.8415 328.819 77.9127C328.759 77.9831 328.677 78.0182 328.573 78.0182ZM328.573 77.789C328.607 77.789 328.63 77.7755 328.643 77.7486C328.656 77.7208 328.663 77.6856 328.663 77.6431V76.9292C328.663 76.8857 328.656 76.8506 328.643 76.8236C328.63 76.7967 328.607 76.7833 328.573 76.7833C328.539 76.7833 328.516 76.7967 328.503 76.8236C328.49 76.8506 328.483 76.8857 328.483 76.9292V77.6431C328.483 77.6865 328.49 77.7217 328.503 77.7486C328.516 77.7755 328.539 77.789 328.573 77.789ZM329.027 78V76.5748H329.29V76.6947C329.322 76.6643 329.357 76.6334 329.396 76.6022C329.435 76.57 329.471 76.554 329.504 76.554C329.547 76.554 329.584 76.5679 329.613 76.5957C329.643 76.6234 329.665 76.6586 329.68 76.7012C329.695 76.7437 329.702 76.7876 329.702 76.8328V78H329.439V76.8849C329.439 76.8571 329.434 76.8375 329.425 76.8262C329.415 76.815 329.399 76.8093 329.376 76.8093C329.357 76.8093 329.341 76.8163 329.327 76.8301C329.314 76.8432 329.302 76.8588 329.29 76.877V78H329.027ZM330.154 78.0195C330.039 78.0195 329.954 77.9835 329.899 77.9114C329.845 77.8393 329.818 77.739 329.818 77.6105V76.963C329.818 76.8336 329.845 76.7333 329.899 76.6621C329.954 76.59 330.039 76.554 330.154 76.554C330.27 76.554 330.355 76.59 330.41 76.6621C330.465 76.7342 330.493 76.8345 330.493 76.963V77.0751H330.23V76.9292C330.23 76.8892 330.225 76.8558 330.214 76.8288C330.204 76.8019 330.184 76.7885 330.154 76.7885C330.125 76.7885 330.105 76.8024 330.096 76.8301C330.086 76.8571 330.081 76.8901 330.081 76.9292V77.6444C330.081 77.6834 330.086 77.7169 330.096 77.7447C330.105 77.7716 330.125 77.785 330.154 77.785C330.184 77.785 330.204 77.7716 330.214 77.7447C330.225 77.7177 330.23 77.6843 330.23 77.6444V77.4984H330.493V77.6105C330.493 77.739 330.465 77.8393 330.41 77.9114C330.355 77.9835 330.27 78.0195 330.154 78.0195ZM330.936 78.0208C330.83 78.0208 330.748 77.9848 330.687 77.9127C330.627 77.8398 330.597 77.7507 330.597 77.6457V76.9292C330.597 76.818 330.627 76.7277 330.687 76.6582C330.747 76.5887 330.83 76.554 330.938 76.554C331.009 76.554 331.069 76.57 331.119 76.6022C331.17 76.6343 331.21 76.6782 331.236 76.7337C331.263 76.7885 331.277 76.851 331.277 76.9213V77.3356H330.842V77.6457C330.842 77.6813 330.85 77.7143 330.865 77.7447C330.882 77.7742 330.906 77.789 330.938 77.789C330.972 77.789 330.996 77.7751 331.01 77.7473C331.025 77.7195 331.032 77.6856 331.032 77.6457V77.4893H331.277V77.6535C331.277 77.7638 331.247 77.8528 331.187 77.9205C331.128 77.9874 331.044 78.0208 330.936 78.0208ZM330.842 77.1298H331.032V76.9292C331.032 76.8901 331.025 76.8562 331.011 76.8275C330.998 76.798 330.974 76.7833 330.938 76.7833C330.905 76.7833 330.881 76.7984 330.865 76.8288C330.85 76.8584 330.842 76.8918 330.842 76.9292V77.1298ZM331.585 78.0208C331.525 78.0208 331.472 77.99 331.428 77.9283C331.383 77.8667 331.361 77.7725 331.361 77.6457C331.361 77.5232 331.387 77.4246 331.439 77.3499C331.492 77.2752 331.571 77.2105 331.677 77.1558C331.71 77.1385 331.737 77.1228 331.76 77.1089C331.783 77.095 331.796 77.082 331.802 77.0699V76.9135C331.802 76.8779 331.797 76.8475 331.789 76.8223C331.781 76.7963 331.761 76.7833 331.729 76.7833C331.699 76.7833 331.679 76.7971 331.669 76.8249C331.658 76.8519 331.653 76.8857 331.653 76.9266V76.9943H331.39V76.9344C331.39 76.8562 331.405 76.7889 331.436 76.7324C331.467 76.6751 331.509 76.6313 331.562 76.6009C331.616 76.5696 331.677 76.554 331.744 76.554C331.809 76.554 331.866 76.5692 331.914 76.5996C331.961 76.6291 331.998 76.6703 332.024 76.7233C332.051 76.7754 332.065 76.8354 332.065 76.9031V77.7525C332.065 77.8159 332.066 77.8654 332.07 77.901C332.073 77.9357 332.078 77.9687 332.083 78H331.825C331.814 77.9861 331.807 77.9657 331.804 77.9388C331.802 77.9118 331.802 77.894 331.802 77.8854H331.783C331.762 77.9253 331.734 77.9579 331.7 77.9831C331.667 78.0083 331.629 78.0208 331.585 78.0208ZM331.692 77.7629C331.723 77.7629 331.748 77.7525 331.769 77.7316C331.791 77.7108 331.802 77.6882 331.802 77.6639V77.3252C331.738 77.3521 331.692 77.3929 331.662 77.4476C331.634 77.5015 331.619 77.5623 331.619 77.63C331.619 77.6596 331.625 77.6891 331.636 77.7186C331.647 77.7481 331.666 77.7629 331.692 77.7629ZM332.226 78V76.085H332.489V78H332.226ZM333.074 78V76.085H333.431L333.584 77.0777L333.597 77.1793H333.603L333.616 77.0777L333.769 76.085H334.126V78H333.866V76.7155H333.85L333.84 76.7963L333.673 78H333.527L333.36 76.7963L333.35 76.7155H333.334V78H333.074ZM334.495 78.0208C334.451 78.0208 334.415 78.0069 334.385 77.9792C334.356 77.9514 334.334 77.9162 334.319 77.8736C334.304 77.8302 334.297 77.7864 334.297 77.7421V76.5748H334.56V77.69C334.56 77.7169 334.565 77.7364 334.574 77.7486C334.585 77.7599 334.601 77.7655 334.622 77.7655C334.641 77.7655 334.658 77.759 334.671 77.746C334.684 77.7321 334.697 77.716 334.708 77.6978V76.5748H334.972V78H334.708V77.8801C334.677 77.9097 334.642 77.9405 334.603 77.9726C334.564 78.0048 334.528 78.0208 334.495 78.0208ZM335.424 78.0195C335.308 78.0195 335.223 77.9835 335.168 77.9114C335.115 77.8393 335.088 77.739 335.088 77.6105V76.963C335.088 76.8336 335.115 76.7333 335.168 76.6621C335.223 76.59 335.308 76.554 335.424 76.554C335.539 76.554 335.624 76.59 335.679 76.6621C335.735 76.7342 335.763 76.8345 335.763 76.963V77.0751H335.499V76.9292C335.499 76.8892 335.494 76.8558 335.484 76.8288C335.473 76.8019 335.453 76.7885 335.424 76.7885C335.394 76.7885 335.375 76.8024 335.365 76.8301C335.356 76.8571 335.351 76.8901 335.351 76.9292V77.6444C335.351 77.6834 335.356 77.7169 335.365 77.7447C335.375 77.7716 335.394 77.785 335.424 77.785C335.453 77.785 335.473 77.7716 335.484 77.7447C335.494 77.7177 335.499 77.6843 335.499 77.6444V77.4984H335.763V77.6105C335.763 77.739 335.735 77.8393 335.679 77.9114C335.624 77.9835 335.539 78.0195 335.424 78.0195ZM335.879 78V76.085H336.142V76.6725C336.165 76.6491 336.198 76.6234 336.243 76.5957C336.287 76.5679 336.329 76.554 336.369 76.554C336.413 76.554 336.449 76.5666 336.479 76.5917C336.508 76.6169 336.53 76.6508 336.545 76.6934C336.56 76.735 336.567 76.7815 336.567 76.8328V78H336.304V76.8875C336.304 76.8614 336.298 76.8406 336.286 76.8249C336.274 76.8084 336.261 76.8002 336.245 76.8002C336.227 76.8002 336.205 76.8106 336.18 76.8315C336.155 76.8514 336.142 76.874 336.142 76.8992V78H335.879ZM337.502 78.0208C337.424 78.0208 337.356 78.0026 337.3 77.9661C337.244 77.9297 337.201 77.8801 337.171 77.8176C337.141 77.7551 337.127 77.6847 337.127 77.6066V76.4784C337.127 76.3994 337.141 76.329 337.171 76.2674C337.201 76.2048 337.244 76.1553 337.3 76.1189C337.356 76.0824 337.424 76.0641 337.502 76.0641C337.58 76.0641 337.647 76.0824 337.702 76.1189C337.759 76.1553 337.802 76.2048 337.831 76.2674C337.862 76.3299 337.877 76.4002 337.877 76.4784V77.6066C337.877 77.6847 337.862 77.7551 337.831 77.8176C337.802 77.8801 337.759 77.9297 337.702 77.9661C337.647 78.0026 337.58 78.0208 337.502 78.0208ZM337.502 77.7473C337.537 77.7473 337.561 77.7329 337.575 77.7043C337.589 77.6748 337.596 77.6422 337.596 77.6066V76.4784C337.596 76.4428 337.588 76.4107 337.574 76.382C337.559 76.3525 337.535 76.3377 337.502 76.3377C337.47 76.3377 337.446 76.3525 337.43 76.382C337.415 76.4107 337.408 76.4428 337.408 76.4784V77.6066C337.408 77.6422 337.415 77.6748 337.43 77.7043C337.445 77.7329 337.469 77.7473 337.502 77.7473ZM338.115 78V76.8119H337.982V76.5748H338.115V76.4966C338.115 76.362 338.146 76.2583 338.209 76.1853C338.272 76.1115 338.355 76.0746 338.457 76.0746C338.479 76.0746 338.5 76.0767 338.519 76.0811C338.538 76.0854 338.554 76.0911 338.566 76.098V76.3273C338.549 76.3143 338.523 76.3078 338.488 76.3078C338.463 76.3078 338.438 76.3208 338.414 76.3468C338.39 76.3729 338.378 76.4115 338.378 76.4628V76.5748H338.537V76.8119H338.378V78H338.115ZM339.308 78V77.1845L339.021 76.085H339.297L339.435 76.6973L339.444 76.7806H339.452L339.461 76.6973L339.599 76.085H339.876L339.589 77.1845V78H339.308ZM340.305 78.0182C340.2 78.0182 340.118 77.9831 340.058 77.9127C339.998 77.8415 339.968 77.7516 339.968 77.6431V76.9292C339.968 76.8206 339.998 76.7311 340.058 76.6608C340.118 76.5896 340.2 76.554 340.305 76.554C340.409 76.554 340.492 76.5896 340.551 76.6608C340.612 76.7311 340.643 76.8206 340.643 76.9292V77.6431C340.643 77.7516 340.612 77.8415 340.551 77.9127C340.492 77.9831 340.409 78.0182 340.305 78.0182ZM340.305 77.789C340.339 77.789 340.363 77.7755 340.376 77.7486C340.389 77.7208 340.395 77.6856 340.395 77.6431V76.9292C340.395 76.8857 340.389 76.8506 340.376 76.8236C340.363 76.7967 340.339 76.7833 340.305 76.7833C340.271 76.7833 340.248 76.7967 340.235 76.8236C340.222 76.8506 340.215 76.8857 340.215 76.9292V77.6431C340.215 77.6865 340.222 77.7217 340.235 77.7486C340.248 77.7755 340.271 77.789 340.305 77.789ZM340.957 78.0208C340.914 78.0208 340.878 78.0069 340.848 77.9792C340.819 77.9514 340.796 77.9162 340.782 77.8736C340.767 77.8302 340.759 77.7864 340.759 77.7421V76.5748H341.023V77.69C341.023 77.7169 341.027 77.7364 341.037 77.7486C341.047 77.7599 341.063 77.7655 341.085 77.7655C341.104 77.7655 341.12 77.759 341.133 77.746C341.147 77.7321 341.16 77.716 341.171 77.6978V76.5748H341.434V78H341.171V77.8801C341.14 77.9097 341.105 77.9405 341.066 77.9726C341.027 78.0048 340.99 78.0208 340.957 78.0208ZM341.563 78V76.5748H341.827V76.7337C341.832 76.699 341.848 76.6682 341.875 76.6413C341.902 76.6143 341.934 76.5931 341.973 76.5774C342.012 76.5618 342.051 76.554 342.09 76.554V76.8458C342.079 76.8414 342.066 76.8388 342.053 76.838C342.041 76.8362 342.029 76.8354 342.017 76.8354C341.96 76.8354 341.913 76.851 341.879 76.8823C341.844 76.9135 341.827 76.9561 341.827 77.0099V78H341.563ZM342.623 78V76.085H342.909C343.007 76.085 343.091 76.1024 343.161 76.1371C343.232 76.171 343.287 76.2244 343.325 76.2973C343.364 76.3703 343.384 76.4645 343.384 76.58C343.384 76.6721 343.372 76.7524 343.347 76.821C343.324 76.8896 343.278 76.9457 343.209 76.9891C343.279 77.0273 343.329 77.0881 343.359 77.1715C343.389 77.254 343.405 77.3495 343.405 77.4581C343.405 77.5649 343.387 77.6591 343.352 77.7408C343.319 77.8224 343.268 77.8862 343.201 77.9323C343.135 77.9774 343.054 78 342.956 78H342.623ZM342.904 77.7212C342.989 77.7212 343.045 77.696 343.072 77.6457C343.099 77.5944 343.113 77.5215 343.113 77.4268C343.113 77.3304 343.099 77.2574 343.072 77.2079C343.045 77.1576 342.989 77.1324 342.904 77.1324V77.7212ZM342.904 76.8744C342.983 76.8744 343.038 76.8527 343.067 76.8093C343.098 76.7659 343.113 76.7016 343.113 76.6165C343.113 76.5305 343.097 76.4671 343.066 76.4263C343.035 76.3846 342.982 76.3638 342.904 76.3638V76.8744ZM343.859 78.0208C343.753 78.0208 343.671 77.9848 343.61 77.9127C343.55 77.8398 343.52 77.7507 343.52 77.6457V76.9292C343.52 76.818 343.55 76.7277 343.61 76.6582C343.67 76.5887 343.753 76.554 343.861 76.554C343.931 76.554 343.992 76.57 344.042 76.6022C344.093 76.6343 344.133 76.6782 344.159 76.7337C344.186 76.7885 344.2 76.851 344.2 76.9213V77.3356H343.765V77.6457C343.765 77.6813 343.773 77.7143 343.788 77.7447C343.805 77.7742 343.829 77.789 343.861 77.789C343.895 77.789 343.919 77.7751 343.933 77.7473C343.948 77.7195 343.955 77.6856 343.955 77.6457V77.4893H344.2V77.6535C344.2 77.7638 344.17 77.8528 344.11 77.9205C344.051 77.9874 343.967 78.0208 343.859 78.0208ZM343.765 77.1298H343.955V76.9292C343.955 76.8901 343.948 76.8562 343.934 76.8275C343.921 76.798 343.897 76.7833 343.861 76.7833C343.828 76.7833 343.804 76.7984 343.788 76.8288C343.773 76.8584 343.765 76.8918 343.765 76.9292V77.1298ZM344.508 78.0208C344.448 78.0208 344.395 77.99 344.351 77.9283C344.306 77.8667 344.284 77.7725 344.284 77.6457C344.284 77.5232 344.31 77.4246 344.362 77.3499C344.415 77.2752 344.494 77.2105 344.6 77.1558C344.633 77.1385 344.66 77.1228 344.683 77.1089C344.705 77.095 344.719 77.082 344.725 77.0699V76.9135C344.725 76.8779 344.72 76.8475 344.712 76.8223C344.704 76.7963 344.684 76.7833 344.652 76.7833C344.622 76.7833 344.602 76.7971 344.592 76.8249C344.581 76.8519 344.576 76.8857 344.576 76.9266V76.9943H344.313V76.9344C344.313 76.8562 344.328 76.7889 344.359 76.7324C344.39 76.6751 344.432 76.6313 344.485 76.6009C344.539 76.5696 344.6 76.554 344.667 76.554C344.732 76.554 344.789 76.5692 344.837 76.5996C344.884 76.6291 344.921 76.6703 344.947 76.7233C344.974 76.7754 344.988 76.8354 344.988 76.9031V77.7525C344.988 77.8159 344.989 77.8654 344.993 77.901C344.996 77.9357 345.001 77.9687 345.006 78H344.748C344.737 77.9861 344.73 77.9657 344.727 77.9388C344.725 77.9118 344.725 77.894 344.725 77.8854H344.706C344.685 77.9253 344.657 77.9579 344.623 77.9831C344.59 78.0083 344.552 78.0208 344.508 78.0208ZM344.615 77.7629C344.646 77.7629 344.671 77.7525 344.692 77.7316C344.714 77.7108 344.725 77.6882 344.725 77.6639V77.3252C344.661 77.3521 344.615 77.3929 344.585 77.4476C344.557 77.5015 344.542 77.5623 344.542 77.63C344.542 77.6596 344.548 77.6891 344.559 77.7186C344.57 77.7481 344.589 77.7629 344.615 77.7629ZM345.334 78.0208C345.29 78.0208 345.254 78.0069 345.224 77.9792C345.195 77.9514 345.173 77.9162 345.158 77.8736C345.143 77.8302 345.136 77.7864 345.136 77.7421V76.5748H345.399V77.69C345.399 77.7169 345.404 77.7364 345.413 77.7486C345.424 77.7599 345.44 77.7655 345.462 77.7655C345.481 77.7655 345.497 77.759 345.51 77.746C345.524 77.7321 345.536 77.716 345.547 77.6978V76.5748H345.811V78H345.547V77.8801C345.516 77.9097 345.481 77.9405 345.442 77.9726C345.403 78.0048 345.367 78.0208 345.334 78.0208ZM346.31 78.0208C346.228 78.0208 346.165 78.0026 346.121 77.9661C346.078 77.9297 346.048 77.8775 346.031 77.8098C346.016 77.7421 346.008 77.6613 346.008 77.5675V76.8119H345.875V76.5748H346.008V76.2231H346.271V76.5748H346.452V76.8119H346.271V77.6053C346.271 77.6609 346.279 77.7021 346.296 77.729C346.312 77.7551 346.339 77.7681 346.377 77.7681C346.393 77.7681 346.407 77.7668 346.42 77.7642C346.433 77.7616 346.443 77.7586 346.451 77.7551V77.9961C346.433 78.003 346.414 78.0087 346.394 78.013C346.374 78.0182 346.346 78.0208 346.31 78.0208ZM346.581 78.5107C346.57 78.5107 346.556 78.5102 346.541 78.5094C346.525 78.5085 346.51 78.5068 346.495 78.5042V78.271C346.498 78.2718 346.505 78.2727 346.516 78.2736C346.527 78.2753 346.534 78.2762 346.538 78.2762C346.587 78.2762 346.626 78.2632 346.655 78.2371C346.686 78.211 346.707 78.1763 346.719 78.1329C346.723 78.1199 346.726 78.1047 346.726 78.0873C346.726 78.0699 346.727 78.0547 346.727 78.0417L346.485 76.5748H346.742L346.847 77.4633L346.852 77.5623H346.862L346.868 77.4633L346.972 76.5748H347.23L346.977 78.1068C346.967 78.1833 346.946 78.2519 346.912 78.3127C346.879 78.3743 346.835 78.4225 346.779 78.4573C346.723 78.4929 346.657 78.5107 346.581 78.5107Z" fill="black"/>
<path d="M333.94 85V81.17H334.503V84.4789H335.248V85H333.94Z" fill="black"/>
<path fill-rule="evenodd" clip-rule="evenodd" d="M324.905 87.4248C325.134 87.5982 325.185 87.576 325.185 87.3014V87.0546H326.707H328.229V87.3014C328.229 87.5837 328.28 87.6018 328.548 87.4138C328.706 87.3037 328.753 87.2994 328.809 87.3899C328.857 87.4678 328.782 87.5569 328.553 87.6934L328.229 87.8865V88.6171V89.3476L328.551 89.5286C328.746 89.6385 328.856 89.753 328.831 89.8198C328.796 89.9104 328.747 89.9084 328.554 89.8085C328.239 89.6458 328.229 89.6497 328.229 89.934V90.1808H326.707H325.185V89.9252C325.185 89.714 325.16 89.6798 325.041 89.7288C324.536 89.9368 324.442 89.8035 324.897 89.5226L325.185 89.3447V88.6082V87.8717L324.897 87.7018C324.739 87.6084 324.609 87.5007 324.609 87.4626C324.609 87.3268 324.752 87.3085 324.905 87.4248ZM326.295 87.7595C325.893 87.9682 325.894 88.0104 326.31 88.2437L326.707 88.4665L327.063 88.2747C327.259 88.1692 327.437 88.0557 327.458 88.0225C327.518 87.9285 326.978 87.631 326.748 87.6313C326.635 87.6314 326.431 87.6891 326.295 87.7595ZM326.008 89.2459C326.009 89.1945 326.148 89.0707 326.317 88.9709L326.322 88.9678C326.504 88.8603 326.6 88.8039 326.697 88.8017C326.804 88.7993 326.912 88.8628 327.14 88.9965L327.146 89L327.518 89.2177L327.333 89.3675C327.048 89.5984 326.646 89.6422 326.303 89.4798C326.141 89.4025 326.008 89.2973 326.008 89.2459ZM325.761 88.6177C325.761 88.7987 325.778 88.9467 325.799 88.9467C325.886 88.9467 326.419 88.6657 326.419 88.6201C326.419 88.5539 325.964 88.2886 325.851 88.2886C325.801 88.2886 325.761 88.434 325.761 88.6177ZM325.484 89.1685C325.455 89.1973 325.432 88.9556 325.432 88.6314C325.432 88.3071 325.461 88.0418 325.496 88.0418C325.572 88.0418 325.561 89.0918 325.484 89.1685ZM325.432 87.5373C325.432 87.8655 325.632 87.9205 325.952 87.6803C326.448 87.3073 327.042 87.3084 327.487 87.6832C327.688 87.8523 327.758 87.8709 327.902 87.794C328.013 87.7344 328.065 87.6378 328.049 87.522C328.024 87.3473 327.988 87.3419 326.727 87.3199L325.432 87.2972V87.5373ZM326.971 88.6054L327.209 88.453C327.575 88.2187 327.653 88.2475 327.653 88.6177C327.653 88.7987 327.625 88.9466 327.591 88.9464C327.557 88.9463 327.404 88.8695 327.25 88.7758L326.971 88.6054ZM327.895 88.0829C327.851 88.4542 327.901 89.1527 327.972 89.1766C328.034 89.1973 328.064 89.0173 328.064 88.6245C328.064 88.2909 328.029 88.0418 327.982 88.0418C327.937 88.0418 327.898 88.0603 327.895 88.0829ZM325.432 89.6961C325.432 89.563 325.478 89.4354 325.534 89.4125C325.591 89.3898 325.65 89.3681 325.666 89.3646C325.681 89.361 325.797 89.4312 325.922 89.5206C326.472 89.912 326.909 89.9236 327.443 89.561C327.685 89.397 327.776 89.3744 327.909 89.4454C328.014 89.5013 328.065 89.5997 328.049 89.7133C328.024 89.8881 327.988 89.8934 326.727 89.9155L325.432 89.9382V89.6961Z" fill="black"/>
<path fill-rule="evenodd" clip-rule="evenodd" d="M331.488 88.0964C331.518 88.0964 331.685 87.8498 331.858 87.5482L332.173 87L332.441 87.4715C332.588 87.7308 332.747 87.9822 332.795 88.0303C332.857 88.0917 333.059 88.0154 333.481 87.7722C334.156 87.383 334.218 87.3607 334.265 87.4873C334.283 87.5369 334.001 87.7503 333.637 87.9615C333.274 88.1727 332.976 88.3652 332.976 88.3894C332.976 88.4135 333.102 88.6292 333.255 88.8684C333.431 89.1446 333.672 89.3848 333.913 89.5261C334.122 89.6486 334.293 89.778 334.293 89.8138C334.293 89.959 334.181 89.9731 333.995 89.8514C333.884 89.7784 333.799 89.7604 333.799 89.8097C333.799 89.8575 333.836 89.9195 333.881 89.9474C333.927 89.9754 333.964 90.0516 333.964 90.1168C333.964 90.2165 333.675 90.2354 332.154 90.2354C331.158 90.2354 330.344 90.2156 330.344 90.1914C330.344 90.1671 330.407 90.0513 330.484 89.9339L330.624 89.7205L330.368 89.8525C330.163 89.9589 330.105 89.9634 330.071 89.8757C330.046 89.8087 330.188 89.675 330.443 89.5281C330.747 89.3522 330.928 89.1656 331.13 88.8203L331.404 88.3513L330.714 87.9547C330.257 87.6927 330.044 87.525 330.083 87.4602C330.126 87.3909 330.332 87.4695 330.788 87.7293C331.142 87.9312 331.457 88.0964 331.488 88.0964ZM331.581 89.1496C331.268 89.3319 330.986 89.568 330.895 89.7239L330.74 89.9886H332.146C332.92 89.9886 333.552 89.9718 333.552 89.9513C333.552 89.7326 333.267 89.4317 332.802 89.1603C332.498 88.9824 332.218 88.8376 332.181 88.8385C332.143 88.8393 331.873 88.9794 331.581 89.1496ZM331.657 88.8266C331.323 89.03 331.272 89.0032 331.457 88.7206C331.61 88.4877 331.645 88.4745 331.818 88.5841C331.909 88.6418 331.874 88.6946 331.657 88.8266ZM332.057 87.6985C331.733 88.1989 331.725 88.246 331.95 88.3935C332.131 88.5114 332.191 88.5158 332.363 88.4235C332.613 88.29 332.614 88.2194 332.373 87.8219L332.182 87.5062L332.057 87.6985ZM332.495 88.7026C332.479 88.6919 332.491 88.6437 332.521 88.5955C332.617 88.4399 332.773 88.5017 332.922 88.7545C333.002 88.8903 333.046 89.0014 333.019 89.0014C332.981 89.0014 332.704 88.8434 332.495 88.7026Z" fill="black"/>
<path fill-rule="evenodd" clip-rule="evenodd" d="M335.769 88.3295C335.636 87.8523 335.527 87.4359 335.527 87.404C335.527 87.2719 335.758 87.3587 335.797 87.5052C335.852 87.7177 336.329 87.8041 336.725 87.6735C336.967 87.5937 337.094 87.5949 337.352 87.6799C337.609 87.7648 337.753 87.7662 338.062 87.6871C338.355 87.6119 338.515 87.6105 338.718 87.6813C339.079 87.807 339.564 87.7119 339.618 87.5052C339.658 87.3522 339.888 87.2746 339.888 87.4141C339.888 87.4515 339.78 87.868 339.648 88.3396C339.516 88.8112 339.367 89.3544 339.316 89.5468L339.223 89.8964H337.707H336.192L336.101 89.5468C336.052 89.3544 335.902 88.8067 335.769 88.3295ZM336.731 87.9304C336.647 87.9815 336.434 88.004 336.258 87.9804C336.082 87.9569 335.939 87.9588 335.939 87.9846C335.939 88.0105 336.037 88.3957 336.156 88.8406L336.373 89.6496H337.704H339.035L339.256 88.8686C339.377 88.4391 339.476 88.0596 339.476 88.0254C339.476 87.9651 338.918 87.9191 338.324 87.9304C337.61 87.944 337.362 87.9352 337.132 87.8881C336.996 87.8603 336.816 87.8794 336.731 87.9304ZM336.592 89.1148L336.889 88.6418C337.052 88.3817 337.22 88.1688 337.261 88.1688C337.338 88.1688 337.368 88.3834 337.34 88.7306C337.331 88.836 337.392 88.9737 337.474 89.0365C337.609 89.1388 337.611 89.151 337.487 89.1533C337.41 89.1548 337.332 89.2386 337.312 89.3411L337.276 89.5262L337.216 89.3455C337.172 89.2145 337.079 89.158 336.874 89.1399L336.592 89.1148ZM337.817 89.3489C337.622 89.1726 337.608 88.4855 337.796 88.298C337.867 88.2269 337.994 88.1688 338.078 88.1688C338.331 88.1688 338.489 88.4005 338.489 88.7733C338.489 89.3663 338.154 89.6536 337.817 89.3489ZM338.902 88.7035C338.689 88.7035 338.596 88.5199 338.687 88.2815C338.715 88.2087 338.812 88.1681 338.921 88.1836C339.066 88.2042 339.106 88.2632 339.106 88.4567C339.106 88.6647 339.074 88.7035 338.902 88.7035ZM337.006 88.9914C336.848 88.9914 336.846 88.9818 336.975 88.7858C337.049 88.6726 337.124 88.5801 337.141 88.5801C337.158 88.5801 337.173 88.6726 337.173 88.7858C337.173 88.9374 337.129 88.9914 337.006 88.9914ZM337.881 88.4634C337.786 88.7098 337.831 89.1361 337.963 89.2456C338.211 89.4509 338.402 89.0011 338.273 88.5184C338.216 88.3055 337.955 88.269 337.881 88.4634ZM339.05 88.4704C339.01 88.6768 338.818 88.7051 338.818 88.5047C338.818 88.4036 338.871 88.3333 338.947 88.3333C339.024 88.3333 339.066 88.3892 339.05 88.4704Z" fill="black"/>
<path fill-rule="evenodd" clip-rule="evenodd" d="M341.744 87.3106C341.666 87.3252 341.602 87.3715 341.602 87.4134C341.602 87.4564 342.082 87.4897 342.702 87.4897H343.802L343.856 87.8238C343.885 88.0075 343.891 88.1867 343.869 88.2221C343.848 88.2575 343.359 88.2948 342.784 88.3048C341.622 88.3252 341.356 88.4063 341.198 88.7894C341.143 88.9203 341.11 89.2275 341.124 89.472L341.15 89.9166L342.774 89.9389C344.284 89.9596 344.399 89.9508 344.396 89.8155C344.394 89.7354 344.309 89.135 344.206 88.4813L344.019 87.293L342.952 87.2884C342.365 87.2861 341.822 87.2959 341.744 87.3106ZM341.357 89.3201C341.358 88.8599 341.401 88.776 341.727 88.6043C341.918 88.5038 342.19 88.48 342.956 88.4966L343.94 88.518L343.996 88.806C344.026 88.9643 344.076 89.2328 344.106 89.4024L344.16 89.7109H342.758H341.355L341.357 89.3201ZM342.605 89.1145C342.62 89.1937 342.687 89.2584 342.754 89.2584C342.82 89.2584 342.887 89.1937 342.903 89.1145C342.922 89.0135 342.878 88.9705 342.754 88.9705C342.63 88.9705 342.586 89.0135 342.605 89.1145Z" fill="black"/>
<path d="M330.412 93.2354V91.6095H330.146V91.3203H330.959V91.6095H330.693V93.2354H330.412ZM331.089 93.2354V91.3203H331.371C331.539 91.3203 331.663 91.3672 331.743 91.461C331.823 91.554 331.863 91.6912 331.863 91.8727C331.863 91.9804 331.844 92.0738 331.806 92.1528C331.768 92.2309 331.723 92.2883 331.669 92.3247L331.86 93.2354H331.579L331.42 92.4277H331.371V93.2354H331.089ZM331.371 92.1671C331.423 92.1671 331.464 92.1558 331.494 92.1332C331.525 92.1098 331.546 92.0768 331.559 92.0342C331.572 91.9917 331.579 91.9413 331.579 91.8831C331.579 91.7919 331.564 91.722 331.533 91.6734C331.504 91.6239 331.45 91.5991 331.371 91.5991V92.1671ZM332.02 93.2354V91.3203H332.302V93.2354H332.02ZM332.511 93.2354V91.3203H332.775L333.035 92.3182L333.059 92.4068H333.074V91.3203H333.332V93.2354H333.095L332.808 92.2375L332.785 92.1489H332.769V93.2354H332.511ZM333.539 93.2354V91.3203H333.821V93.2354H333.539ZM334.218 93.2354V91.6095H333.952V91.3203H334.765V91.6095H334.499V93.2354H334.218ZM335.117 93.2354V92.4198L334.83 91.3203H335.107L335.245 91.9326L335.254 92.016H335.262L335.271 91.9326L335.409 91.3203H335.685L335.398 92.4198V93.2354H335.117ZM335.793 93.2354V92.9461H336.066V93.2354H335.793ZM336.239 93.2354V91.3203H336.502L336.763 92.3182L336.786 92.4068H336.802V91.3203H337.06V93.2354H336.823L336.536 92.2375L336.513 92.1489H336.497V93.2354H336.239ZM337.267 93.2354V91.3203H337.91V91.6095H337.548V92.1254H337.809V92.4068H337.548V92.9461H337.91V93.2354H337.267ZM338.307 93.2354V91.6095H338.041V91.3203H338.854V91.6095H338.588V93.2354H338.307Z" fill="black"/>
<path d="M278.749 225V211.049H276.469V208.568H283.444V211.049H281.164V225H278.749ZM295.965 225V208.568H298.379C299.825 208.568 300.891 208.97 301.576 209.775C302.262 210.572 302.605 211.75 302.605 213.307C302.605 214.232 302.441 215.033 302.113 215.711C301.792 216.381 301.401 216.873 300.939 217.186L302.582 225H300.168L298.804 218.069H298.379V225H295.965ZM298.379 215.834C298.826 215.834 299.18 215.737 299.441 215.543C299.702 215.342 299.888 215.059 300 214.694C300.112 214.328 300.168 213.896 300.168 213.397C300.168 212.614 300.037 212.014 299.777 211.597C299.523 211.172 299.058 210.96 298.379 210.96V215.834ZM315.358 225V208.568H317.772V225H315.358ZM330.973 225V208.568H333.231L335.467 217.13L335.668 217.891H335.802V208.568H338.016V225H335.981L333.522 216.437L333.321 215.677H333.186V225H330.973ZM351.195 225V208.568H353.61V225H351.195ZM368.421 225V211.049H366.14V208.568H373.116V211.049H370.835V225H368.421ZM387.536 225V218.002L385.077 208.568H387.447L388.632 213.822L388.71 214.537H388.777L388.855 213.822L390.04 208.568H392.41L389.951 218.002V225H387.536ZM298.498 246V233.089H300.395V244.243H302.907V246H298.498ZM307.174 246.141C306.647 246.141 306.193 246.018 305.813 245.772C305.438 245.526 305.148 245.192 304.943 244.77C304.744 244.349 304.644 243.875 304.644 243.348V235.741C304.644 235.209 304.744 234.734 304.943 234.319C305.148 233.897 305.438 233.563 305.813 233.317C306.193 233.071 306.647 232.948 307.174 232.948C307.701 232.948 308.152 233.071 308.526 233.317C308.907 233.563 309.197 233.897 309.396 234.319C309.601 234.74 309.703 235.214 309.703 235.741V243.348C309.703 243.875 309.601 244.349 309.396 244.77C309.197 245.192 308.907 245.526 308.526 245.772C308.152 246.018 307.701 246.141 307.174 246.141ZM307.174 244.296C307.408 244.296 307.572 244.199 307.666 244.006C307.759 243.807 307.806 243.588 307.806 243.348V235.741C307.806 235.501 307.756 235.285 307.657 235.092C307.557 234.892 307.396 234.793 307.174 234.793C306.957 234.793 306.796 234.892 306.691 235.092C306.591 235.285 306.541 235.501 306.541 235.741V243.348C306.541 243.588 306.591 243.807 306.691 244.006C306.79 244.199 306.951 244.296 307.174 244.296ZM314.365 246.141C313.844 246.141 313.411 246.056 313.065 245.886C312.72 245.71 312.448 245.458 312.249 245.13C312.05 244.803 311.906 244.407 311.818 243.945C311.736 243.482 311.695 242.961 311.695 242.381L313.557 242.206C313.557 242.487 313.566 242.759 313.584 243.023C313.607 243.28 313.645 243.514 313.698 243.725C313.756 243.93 313.838 244.094 313.944 244.217C314.055 244.34 314.196 244.401 314.365 244.401C314.646 244.401 314.845 244.273 314.963 244.015C315.08 243.752 315.138 243.435 315.138 243.066C315.138 242.698 315.042 242.314 314.848 241.916C314.655 241.518 314.424 241.14 314.155 240.783C313.698 240.174 313.297 239.609 312.951 239.088C312.612 238.567 312.345 238.054 312.152 237.551C311.965 237.047 311.871 236.52 311.871 235.97C311.871 235.537 311.927 235.138 312.038 234.775C312.149 234.406 312.31 234.087 312.521 233.818C312.738 233.543 312.998 233.329 313.303 233.177C313.607 233.025 313.955 232.948 314.348 232.948C314.834 232.948 315.244 233.03 315.577 233.194C315.917 233.358 316.189 233.593 316.394 233.897C316.605 234.202 316.757 234.565 316.851 234.986C316.95 235.402 317 235.864 317 236.374L315.138 236.55C315.138 236.333 315.127 236.116 315.103 235.9C315.086 235.677 315.05 235.475 314.998 235.294C314.945 235.112 314.869 234.966 314.769 234.854C314.67 234.743 314.541 234.688 314.383 234.688C314.137 234.688 313.967 234.793 313.874 235.004C313.78 235.209 313.733 235.501 313.733 235.882C313.733 236.374 313.865 236.848 314.128 237.305C314.392 237.762 314.746 238.294 315.191 238.903C315.724 239.624 316.157 240.285 316.491 240.888C316.83 241.491 317 242.159 317 242.891C317 243.353 316.95 243.784 316.851 244.182C316.751 244.574 316.593 244.917 316.377 245.21C316.166 245.502 315.894 245.731 315.56 245.895C315.232 246.059 314.834 246.141 314.365 246.141ZM322.44 246L324.39 233.089H326.709L328.659 246H326.814L326.463 243.365H324.636L324.285 246H322.44ZM324.899 241.363H326.199L325.655 237.024L325.602 236.339H325.497L325.444 237.024L324.899 241.363ZM330.717 246V233.089H332.491L334.248 239.817L334.406 240.414H334.511V233.089H336.25V246H334.652L332.719 239.272L332.561 238.675H332.456V246H330.717ZM340.844 246.141C340.323 246.141 339.898 246.018 339.571 245.772C339.243 245.526 339 245.192 338.842 244.77C338.689 244.349 338.613 243.875 338.613 243.348V235.741C338.613 235.22 338.716 234.749 338.921 234.327C339.126 233.906 339.418 233.572 339.799 233.326C340.18 233.074 340.627 232.948 341.143 232.948C341.535 232.948 341.886 233.022 342.197 233.168C342.513 233.309 342.779 233.508 342.996 233.765C343.218 234.023 343.385 234.322 343.497 234.661C343.614 234.995 343.672 235.355 343.672 235.741V237.726H341.775V235.741C341.775 235.484 341.728 235.261 341.635 235.074C341.541 234.887 341.377 234.793 341.143 234.793C340.914 234.793 340.75 234.892 340.651 235.092C340.557 235.285 340.51 235.501 340.51 235.741V243.506C340.51 243.757 340.56 243.98 340.66 244.173C340.759 244.361 340.92 244.454 341.143 244.454C341.377 244.454 341.541 244.361 341.635 244.173C341.728 243.98 341.775 243.757 341.775 243.506V241.345H341.02V239.571H343.672V246H342.548L342.32 245.297C342.156 245.561 341.945 245.769 341.687 245.921C341.436 246.067 341.154 246.141 340.844 246.141ZM346.136 246V233.089H350.475V235.039H348.034V238.517H349.79V240.414H348.034V244.05H350.475V246H346.136ZM352.937 246V233.089H354.834V244.243H357.346V246H352.937ZM359.172 246V233.089H363.51V235.039H361.069V238.517H362.825V240.414H361.069V244.05H363.51V246H359.172ZM368.256 246.141C367.735 246.141 367.301 246.056 366.956 245.886C366.61 245.71 366.338 245.458 366.139 245.13C365.94 244.803 365.797 244.407 365.709 243.945C365.627 243.482 365.586 242.961 365.586 242.381L367.448 242.206C367.448 242.487 367.457 242.759 367.474 243.023C367.498 243.28 367.536 243.514 367.588 243.725C367.647 243.93 367.729 244.094 367.834 244.217C367.945 244.34 368.086 244.401 368.256 244.401C368.537 244.401 368.736 244.273 368.853 244.015C368.97 243.752 369.029 243.435 369.029 243.066C369.029 242.698 368.932 242.314 368.739 241.916C368.546 241.518 368.314 241.14 368.045 240.783C367.588 240.174 367.187 239.609 366.842 239.088C366.502 238.567 366.236 238.054 366.043 237.551C365.855 237.047 365.761 236.52 365.761 235.97C365.761 235.537 365.817 235.138 365.928 234.775C366.04 234.406 366.201 234.087 366.411 233.818C366.628 233.543 366.889 233.329 367.193 233.177C367.498 233.025 367.846 232.948 368.238 232.948C368.724 232.948 369.134 233.03 369.468 233.194C369.807 233.358 370.08 233.593 370.285 233.897C370.495 234.202 370.648 234.565 370.741 234.986C370.841 235.402 370.891 235.864 370.891 236.374L369.029 236.55C369.029 236.333 369.017 236.116 368.994 235.9C368.976 235.677 368.941 235.475 368.888 235.294C368.835 235.112 368.759 234.966 368.66 234.854C368.56 234.743 368.431 234.688 368.273 234.688C368.027 234.688 367.858 234.793 367.764 235.004C367.67 235.209 367.623 235.501 367.623 235.882C367.623 236.374 367.755 236.848 368.019 237.305C368.282 237.762 368.636 238.294 369.081 238.903C369.614 239.624 370.048 240.285 370.381 240.888C370.721 241.491 370.891 242.159 370.891 242.891C370.891 243.353 370.841 243.784 370.741 244.182C370.642 244.574 370.484 244.917 370.267 245.21C370.056 245.502 369.784 245.731 369.45 245.895C369.122 246.059 368.724 246.141 368.256 246.141Z" fill="black"/>
</svg>
