<svg width="32" height="33" viewBox="0 0 32 33" fill="none" xmlns="http://www.w3.org/2000/svg">
<path d="M10.1836 3.51123H21.1502C25.328 3.51123 28.7224 6.90568 28.7224 11.0835V22.0501C28.7224 24.0584 27.9247 25.9844 26.5046 27.4045C25.0845 28.8246 23.1585 29.6223 21.1502 29.6223H10.1836C6.00577 29.6223 2.61133 26.2279 2.61133 22.0501V11.0835C2.61133 9.07517 3.40911 7.14915 4.82918 5.72908C6.24925 4.30902 8.17527 3.51123 10.1836 3.51123ZM9.92244 6.12234C8.67592 6.12234 7.48046 6.61752 6.59904 7.49894C5.71762 8.38036 5.22244 9.57582 5.22244 10.8223V22.3112C5.22244 24.9093 7.32438 27.0112 9.92244 27.0112H21.4113C22.6578 27.0112 23.8533 26.5161 24.7347 25.6346C25.6162 24.7532 26.1113 23.5577 26.1113 22.3112V10.8223C26.1113 8.22429 24.0094 6.12234 21.4113 6.12234H9.92244ZM22.5211 8.08068C22.9539 8.08068 23.369 8.25261 23.675 8.55866C23.9811 8.86471 24.153 9.2798 24.153 9.71262C24.153 10.1454 23.9811 10.5605 23.675 10.8666C23.369 11.1726 22.9539 11.3446 22.5211 11.3446C22.0882 11.3446 21.6731 11.1726 21.3671 10.8666C21.061 10.5605 20.8891 10.1454 20.8891 9.71262C20.8891 9.2798 21.061 8.86471 21.3671 8.55866C21.6731 8.25261 22.0882 8.08068 22.5211 8.08068ZM15.6669 10.039C17.3982 10.039 19.0585 10.7268 20.2827 11.951C21.5069 13.1751 22.1947 14.8355 22.1947 16.5668C22.1947 18.2981 21.5069 19.9584 20.2827 21.1826C19.0585 22.4068 17.3982 23.0946 15.6669 23.0946C13.9356 23.0946 12.2752 22.4068 11.051 21.1826C9.82685 19.9584 9.13911 18.2981 9.13911 16.5668C9.13911 14.8355 9.82685 13.1751 11.051 11.951C12.2752 10.7268 13.9356 10.039 15.6669 10.039ZM15.6669 12.6501C14.6281 12.6501 13.6319 13.0628 12.8974 13.7973C12.1629 14.5318 11.7502 15.528 11.7502 16.5668C11.7502 17.6056 12.1629 18.6018 12.8974 19.3363C13.6319 20.0708 14.6281 20.4835 15.6669 20.4835C16.7056 20.4835 17.7019 20.0708 18.4364 19.3363C19.1709 18.6018 19.5836 17.6056 19.5836 16.5668C19.5836 15.528 19.1709 14.5318 18.4364 13.7973C17.7019 13.0628 16.7056 12.6501 15.6669 12.6501Z" fill="white"/>
</svg>
