<svg width="50" height="50" viewBox="0 0 50 50" fill="none" xmlns="http://www.w3.org/2000/svg">
<path d="M13.541 34.375C16.9928 34.375 19.791 31.5768 19.791 28.125C19.791 24.6732 16.9928 21.875 13.541 21.875C10.0892 21.875 7.29102 24.6732 7.29102 28.125C7.29102 31.5768 10.0892 34.375 13.541 34.375Z" stroke="black" stroke-width="4"/>
<path d="M13.541 21.8752C13.541 16.146 15.6243 5.2085 24.9993 5.2085C29.6868 5.2085 38.2493 7.63766 34.9327 21.4179C34.641 22.6325 33.4931 24.9741 33.4931 24.9741L31.8223 28.7262C30.0941 32.2064 27.8618 41.0981 34.9327 44.3866C37.0764 45.3835 41.6837 44.7397 42.7077 40.2095" stroke="black" stroke-width="4" stroke-linecap="round" stroke-linejoin="round"/>
</svg>
