<svg width="137" height="144" viewBox="0 0 137 144" fill="none" xmlns="http://www.w3.org/2000/svg">
<path fill-rule="evenodd" clip-rule="evenodd" d="M65.5356 2.23447C63.6426 2.77647 61.0496 4.04245 59.7736 5.04645C58.4976 6.04945 52.3966 8.99044 46.2156 11.5804C40.0346 14.1704 33.2266 17.1804 31.0856 18.2694C25.3866 21.1694 17.4526 28.9475 15.3206 33.7245C14.2996 36.0115 11.9246 40.1715 10.0436 42.9675C7.95361 46.0715 6.19862 50.2915 5.53462 53.8075C4.93562 56.9735 3.55162 61.3645 2.45862 63.5645C1.36662 65.7645 0.47361 68.0744 0.47461 68.6974C0.47761 69.6724 3.43761 71.0074 5.69261 71.0504C7.68061 71.0884 13.9396 64.0774 15.9236 59.5894C17.2226 56.6534 19.4096 53.7105 21.0786 52.6525C25.4966 49.8515 27.4306 46.9255 27.4556 43.0055C27.4676 41.0485 28.0406 38.6975 28.7276 37.7815C30.6286 35.2505 38.0346 33.0645 44.7086 33.0645C52.2966 33.0645 61.8996 30.6345 66.7066 27.4975C71.1966 24.5675 71.5576 24.5474 76.2676 26.9814C80.8646 29.3584 86.5426 35.2555 93.8106 45.2025C96.8796 49.4035 100.673 53.9015 102.239 55.1995L105.088 57.5584L101.879 61.7614C97.4826 67.5214 96.8406 72.2385 99.4156 79.8805C101.985 87.5055 101.98 88.6265 99.3466 95.7765C96.7276 102.888 89.4996 110.378 83.5296 112.166C79.8146 113.28 79.2506 113.199 77.1886 111.262C73.2366 107.549 54.0106 99.0645 49.5506 99.0645C46.0856 99.0645 45.3126 98.6454 43.9636 96.0364C42.3626 92.9404 42.6796 87.6154 44.6976 83.7144C46.4396 80.3484 43.5946 69.7215 39.8616 65.6465L36.5796 62.0645H27.2086C17.9016 62.0645 17.8086 62.0894 13.6486 65.6494C9.46862 69.2274 9.46062 69.2484 9.79662 75.3994C10.1056 81.0584 9.89262 81.8234 7.20662 84.7144C4.16762 87.9844 4.05861 92.0645 7.00961 92.0645C9.08861 92.0645 10.6826 95.7595 10.8386 100.94C10.9736 105.402 11.0786 105.549 14.5726 106.115C16.5496 106.436 19.0246 106.388 20.0726 106.007C22.3156 105.193 25.1386 106.474 28.1316 109.664L30.2856 111.96L28.0046 113.454C26.7496 114.277 25.4126 116.185 25.0336 117.696C24.6546 119.206 23.4746 121.664 22.4116 123.157C21.3476 124.651 20.4776 126.47 20.4776 127.201C20.4776 128.916 24.7086 122.561 26.4496 118.23C27.7076 115.101 31.6646 112.443 33.4356 113.538C33.8696 113.806 33.1566 116.136 31.8516 118.714C30.5456 121.293 29.4776 123.947 29.4776 124.611C29.4776 125.275 28.8026 126.379 27.9776 127.064C26.3406 128.422 25.9816 130.064 27.3206 130.064C27.7836 130.064 28.9086 128.489 29.8206 126.564C30.7316 124.639 32.2596 121.421 33.2166 119.413C34.3386 117.057 36.1496 115.263 38.3246 114.355C42.3066 112.691 42.0106 111.531 37.9926 113.058C35.8336 113.879 34.9846 113.793 34.1036 112.661C33.4846 111.865 31.1126 109.68 28.8326 107.805L24.6866 104.397L28.1516 101.633C32.9826 97.7784 31.6276 97.3014 26.3376 100.995C21.9746 104.041 20.3366 104.519 15.2676 104.222C12.8626 104.082 12.5816 103.699 12.7676 100.814C12.8836 99.0264 13.4276 97.2395 13.9776 96.8425C14.5706 96.4145 14.0426 95.4624 12.6796 94.5024C10.8566 93.2184 10.6236 92.5935 11.5526 91.4745C12.7956 89.9765 12.3236 89.7345 8.72762 90.0255C5.81962 90.2605 5.93862 89.2894 9.29662 85.3684C11.1626 83.1884 12.4626 82.4374 13.3836 83.0064C14.1346 83.4704 14.3996 84.3814 13.9806 85.0594C13.4256 85.9574 13.8526 86.0775 15.6026 85.5145C16.9086 85.0945 18.5206 84.7454 19.1846 84.7404C20.9396 84.7264 21.4326 82.7204 20.1166 80.9474C18.1706 78.3274 13.8366 75.9895 12.1356 76.6425C10.7086 77.1895 10.6486 76.8714 11.6456 74.0114C12.7036 70.9764 12.8706 70.8814 14.1286 72.6024C14.8706 73.6164 15.4776 74.7995 15.4776 75.2295C15.4776 76.7725 22.0396 79.4235 25.2276 79.1695C28.6716 78.8955 29.6526 80.3994 26.7556 81.5114C25.6716 81.9274 25.4296 82.4304 26.1016 82.8684C26.6886 83.2514 27.4826 84.8415 27.8646 86.4025C28.4716 88.8815 28.7656 89.0715 30.1796 87.9025C31.6406 86.6955 31.6686 86.7744 30.4596 88.7144C29.6336 90.0424 28.5196 90.6405 27.5496 90.2775C26.1586 89.7575 26.1456 89.8965 27.4356 91.4795C28.8226 93.1835 28.9806 93.1614 30.7246 91.0074C31.7326 89.7624 32.9206 88.0944 33.3656 87.3004C34.0646 86.0504 34.5816 86.0675 37.2046 87.4235C40.3056 89.0265 41.4776 90.8405 41.4776 94.0355C41.4776 97.6785 44.8736 100.317 50.5556 101.088C56.2246 101.857 74.1646 109.777 76.4346 112.513C81.1296 118.169 96.9966 108.348 100.862 97.3925C103.3 90.4845 103.741 85.4785 102.184 82.4055C98.1086 74.3595 99.3446 66.2234 105.488 60.6744C107.682 58.6924 109.478 56.8015 109.478 56.4745C109.478 56.1465 106.956 53.1085 103.874 49.7215C100.791 46.3355 96.8116 41.3145 95.0306 38.5645C90.7306 31.9265 83.5586 25.4764 77.1726 22.5024C71.0796 19.6654 67.2586 19.4154 65.3496 21.7274C62.7486 24.8784 55.6336 27.1355 45.5376 28.0125C29.7596 29.3825 22.4776 34.0165 22.4776 42.6865C22.4776 46.6595 22.1366 47.2545 18.5726 49.5045C15.8796 51.2045 13.8696 53.6575 12.0936 57.4105C9.68161 62.5085 4.58461 68.0645 2.31961 68.0645C1.76661 68.0645 2.21362 66.6025 3.31262 64.8145C4.41062 63.0265 6.04862 58.6395 6.95162 55.0645C7.85362 51.4895 10.0866 46.0895 11.9136 43.0645C13.7396 40.0395 16.1626 35.7215 17.2966 33.4695C21.0716 25.9775 29.1816 20.3474 46.2006 13.4074C51.8236 11.1144 57.6736 8.36147 59.2006 7.29047C63.6596 4.16147 68.7776 2.84746 71.8916 4.03146C73.3776 4.59646 79.1276 6.20846 84.6706 7.61346C95.0156 10.2355 102.546 13.4635 108.181 17.6915C111.739 20.3605 119.746 30.3644 121.624 34.4854C122.321 36.0154 123.394 36.9265 124.154 36.6355C126.305 35.8095 131.23 45.7155 133.522 55.4785C135.922 65.7015 135.638 70.1494 131.81 82.3524C130.467 86.6354 128.717 93.5364 127.923 97.6874C126.025 107.609 124.014 111.902 117.978 118.921C109.668 128.584 98.2546 136.051 91.7596 136.074C90.2296 136.079 86.5026 137.242 83.4776 138.659C76.5516 141.902 69.0026 142.753 62.7536 140.995C60.1266 140.256 56.4266 139.631 54.5316 139.607C51.6766 139.571 50.5296 138.835 47.8366 135.307C44.8716 131.424 44.6836 130.766 45.6956 127.807C46.8626 124.395 48.3446 122.864 49.6796 123.689C50.1186 123.96 50.4776 123.674 50.4776 123.053C50.4776 122.433 49.4656 122.069 48.2286 122.244C46.6106 122.474 45.6156 123.676 44.6846 126.527C43.9716 128.707 42.2386 131.999 40.8326 133.843C37.6346 138.036 38.3516 139.191 41.6896 135.224L44.1506 132.299L46.5646 136.22C47.8916 138.377 49.8776 140.311 50.9776 140.518C52.0776 140.724 55.6776 141.41 58.9776 142.042C70.7296 144.292 71.8816 144.294 78.0126 142.067C81.2936 140.875 86.2276 139.435 88.9776 138.867C99.3166 136.73 106.681 132.632 115.342 124.197C124.19 115.578 128.079 107.985 130.516 94.5645C131.116 91.2645 132.446 85.8645 133.472 82.5645C137.351 70.0915 137.557 64.4214 134.554 52.7874C131.786 42.0674 130.097 38.8975 123.06 31.2205C119.704 27.5595 115.887 23.0555 114.577 21.2115C109.939 14.6815 100.06 9.72147 82.4776 5.09647C76.7026 3.57647 71.3026 2.08947 70.4776 1.79047C69.6526 1.49147 67.4286 1.69147 65.5356 2.23447ZM65.6826 23.5454C61.3226 27.2144 55.4106 28.9974 44.5376 29.9244C30.4166 31.1274 24.4776 34.8795 24.4776 42.5965C24.4776 46.3345 23.9926 47.1604 19.6446 50.8264C16.4526 53.5174 14.0946 56.6275 12.7006 59.9835C9.91362 66.6885 10.8456 66.5485 13.8266 59.8145C15.3326 56.4145 17.7946 53.2195 20.8146 50.7475C24.8766 47.4225 25.4776 46.4414 25.4776 43.1324C25.4776 35.4174 32.9486 31.0645 46.1906 31.0645C53.4416 31.0645 63.8116 27.9845 67.2146 24.8205C69.2286 22.9485 69.8486 22.8595 73.4236 23.9305C79.5396 25.7625 85.3346 30.8084 91.9446 40.0584C98.9776 49.9004 104.599 56.0645 106.542 56.0645C107.297 56.0645 105.404 53.4775 102.335 50.3145C99.2656 47.1515 95.2916 42.3854 93.5046 39.7224C88.0826 31.6434 84.4156 28.0605 78.5646 25.1265C69.8936 20.7785 69.0886 20.6794 65.6826 23.5454ZM63.2306 62.1574C61.7286 64.7864 60.9536 65.1935 57.7306 65.0445C51.3346 64.7485 51.2796 64.8084 54.0696 69.0244L56.6906 72.9845L54.5836 76.3925C51.5066 81.3715 51.8406 82.0645 57.3166 82.0645C61.5086 82.0645 62.3086 82.3995 63.2956 84.5645C64.7636 87.7855 65.6216 87.7135 68.2576 84.1485C70.0966 81.6615 71.0446 81.2514 74.6956 81.3694C79.4386 81.5214 79.5016 81.3814 76.8886 76.5294C75.0816 73.1734 75.0866 73.0845 77.2666 70.1355C80.5256 65.7275 80.0966 65.0645 73.9776 65.0645C70.9526 65.0645 68.4676 64.7275 68.4556 64.3145C68.4436 63.9015 67.6556 62.5594 66.7056 61.3304L64.9776 59.0974L63.2306 62.1574ZM64.4776 63.5055C64.4776 64.3625 64.9276 65.0645 65.4776 65.0645C66.0276 65.0645 66.4776 64.6414 66.4776 64.1234C66.4776 63.6054 66.0276 62.9045 65.4776 62.5645C64.9276 62.2245 64.4776 62.6485 64.4776 63.5055ZM32.4576 64.8145C33.7626 67.5065 32.0906 67.9465 30.5576 65.3145C29.7536 63.9345 29.5286 63.8815 29.4926 65.0645C29.4526 66.3775 29.3306 66.3814 28.5166 65.0934C28.0046 64.2844 27.3676 63.8415 27.1006 64.1085C26.8326 64.3755 27.4896 65.7125 28.5596 67.0795C29.9196 68.8175 30.3036 69.0015 29.8356 67.6905C29.1826 65.8575 29.2326 65.8575 32.0346 67.6905C33.9316 68.9315 34.6046 69.0844 34.0246 68.1444C33.3636 67.0714 33.5556 66.8884 34.8136 67.3944C38.8726 69.0284 39.7456 69.0584 36.9776 67.4684C35.3276 66.5214 33.3906 65.0305 32.6726 64.1555C31.5646 62.8055 31.5326 62.9055 32.4576 64.8145ZM35.7036 64.6435C36.6536 65.6345 37.6456 66.2305 37.9086 65.9675C38.1716 65.7045 37.3946 64.8935 36.1826 64.1645C34.0756 62.8995 34.0546 62.9215 35.7036 64.6435ZM20.7346 66.0645C20.9596 66.8895 21.6856 67.5645 22.3476 67.5645C23.0096 67.5645 23.9776 68.2395 24.4986 69.0645C25.0206 69.8895 25.4396 70.1145 25.4306 69.5645C25.4216 69.0145 24.7536 67.6904 23.9456 66.6234C22.8926 65.2314 22.4736 65.0904 22.4626 66.1234C22.4496 67.3424 22.2836 67.3335 21.3866 66.0645C20.4436 64.7315 20.3706 64.7315 20.7346 66.0645ZM6.34961 67.8145C5.10661 69.4005 5.14162 69.4354 6.72762 68.1924C8.39362 66.8854 8.92261 66.0645 8.09961 66.0645C7.89261 66.0645 7.10461 66.8525 6.34961 67.8145ZM16.4776 66.7065C16.4776 67.2435 17.1776 68.5554 18.0326 69.6234C19.4996 71.4534 19.5196 71.4215 18.3976 69.0645C16.9396 66.0035 16.4776 65.4365 16.4776 66.7065ZM26.3626 67.6595C27.5736 70.1485 33.7896 75.0774 35.6606 75.0334C36.3846 75.0164 35.1886 73.9035 33.0026 72.5605C30.8156 71.2175 28.1986 69.0935 27.1856 67.8415C25.5316 65.7975 25.4476 65.7785 26.3626 67.6595ZM20.0416 69.3575C20.4176 70.3435 20.9766 70.8985 21.2846 70.5905C21.5926 70.2835 21.2856 69.4765 20.6016 68.7975C19.6136 67.8175 19.4996 67.9325 20.0416 69.3575ZM57.4776 69.1234C57.4776 69.7054 57.9276 69.9045 58.4776 69.5645C59.0276 69.2245 59.4776 68.7485 59.4776 68.5055C59.4776 68.2625 59.0276 68.0645 58.4776 68.0645C57.9276 68.0645 57.4776 68.5414 57.4776 69.1234ZM60.4136 69.6425C59.3136 70.9665 59.4906 71.9275 61.5196 75.6425C62.8486 78.0745 64.6206 80.0545 65.4566 80.0435C66.2936 80.0315 68.1606 78.3435 69.6056 76.2935C72.0286 72.8565 72.1166 72.3885 70.7336 70.3145C68.9096 67.5785 62.4736 67.1585 60.4136 69.6425ZM71.6696 69.1395C71.8666 69.7305 72.4556 70.2144 72.9776 70.2144C73.4996 70.2144 74.0886 69.7305 74.2856 69.1395C74.4826 68.5485 73.8946 68.0645 72.9776 68.0645C72.0606 68.0645 71.4726 68.5485 71.6696 69.1395ZM36.2456 70.2325C36.8276 70.8145 37.8926 71.0924 38.6146 70.8524C39.3636 70.6024 38.9096 70.1494 37.5576 69.7954C35.8946 69.3604 35.5036 69.4905 36.2456 70.2325ZM29.9776 74.4734C32.1776 76.4324 34.7876 78.0414 35.7776 78.0494C36.7666 78.0574 39.0166 78.7615 40.7776 79.6125C43.6776 81.0155 43.7946 81.0155 42.0236 79.6035C40.9496 78.7465 38.5516 77.6264 36.6956 77.1144C34.8396 76.6014 31.6686 74.9965 29.6496 73.5475L25.9776 70.9114L29.9776 74.4734ZM34.4776 71.5754C34.4776 72.3214 41.7376 75.1384 42.2746 74.6014C42.5436 74.3314 42.1366 73.8895 41.3706 73.6175C40.6046 73.3465 38.7396 72.6714 37.2276 72.1184C35.7156 71.5664 34.4776 71.3214 34.4776 71.5754ZM39.4776 76.5645C40.8526 77.3505 42.4276 77.9934 42.9776 77.9934C43.5276 77.9934 42.8526 77.3505 41.4776 76.5645C40.1026 75.7785 38.5276 75.1355 37.9776 75.1355C37.4276 75.1355 38.1026 75.7785 39.4776 76.5645ZM55.4776 78.0645C54.5156 79.8625 54.7176 80.0645 57.4776 80.0645C60.2376 80.0645 60.4396 79.8625 59.4776 78.0645C58.8886 76.9645 57.9886 76.0645 57.4776 76.0645C56.9666 76.0645 56.0666 76.9645 55.4776 78.0645ZM72.0846 77.6465C71.1896 79.9795 71.2556 80.0645 73.9776 80.0645C76.7076 80.0645 77.1416 79.1285 75.2776 77.2645C73.6646 75.6515 72.8106 75.7535 72.0846 77.6465ZM31.2466 78.0815C32.5196 79.5065 40.5586 82.3165 41.2846 81.5905C41.4976 81.3775 39.7156 80.6435 37.3246 79.9585C34.9336 79.2745 32.3026 78.2524 31.4776 77.6874C30.2326 76.8354 30.1926 76.9025 31.2466 78.0815ZM11.7696 79.3145C12.0216 80.0025 12.7516 80.4454 13.3936 80.3004C14.0346 80.1564 15.5526 80.5185 16.7686 81.1075C18.8836 82.1315 18.8766 82.0895 16.6166 80.1205C14.0086 77.8495 11.0516 77.3575 11.7696 79.3145ZM28.6426 81.9415C27.6216 82.5885 27.7806 82.9104 29.3186 83.3124C30.7486 83.6864 31.1746 83.4384 30.7956 82.4514C30.1736 80.8314 30.3346 80.8695 28.6426 81.9415ZM34.4776 81.8954C35.3026 82.4054 37.1026 83.1235 38.4776 83.4915C40.2146 83.9565 40.5196 83.8775 39.4776 83.2335C38.6526 82.7235 36.8526 82.0055 35.4776 81.6375C33.7406 81.1725 33.4356 81.2514 34.4776 81.8954ZM28.4776 85.0645C28.4776 85.6145 28.9546 86.0645 29.5366 86.0645C30.1186 86.0645 30.3176 85.6145 29.9776 85.0645C29.6376 84.5145 29.1616 84.0645 28.9186 84.0645C28.6756 84.0645 28.4776 84.5145 28.4776 85.0645ZM39.2106 86.1884C39.8896 86.8724 40.6966 87.1795 41.0036 86.8715C41.3116 86.5635 40.7566 86.0044 39.7706 85.6284C38.3456 85.0864 38.2306 85.2004 39.2106 86.1884Z" fill="black"/>
</svg>
