<svg width="565" height="552" viewBox="0 0 565 552" fill="none" xmlns="http://www.w3.org/2000/svg">
<g clip-path="url(#clip0_1437_3517)">
<path fill-rule="evenodd" clip-rule="evenodd" d="M1.03029 1.62725C1.55329 2.09525 10.7553 7.77525 21.4803 14.2492C32.2053 20.7232 41.9523 26.6242 43.1393 27.3622C49.4793 31.3022 54.5793 38.9012 54.6573 44.5232C54.6963 47.3202 53.4773 50.4162 50.0643 56.1892C47.5083 60.5122 45.6073 64.2372 45.8383 64.4692C46.0703 64.7002 50.2463 63.6962 55.1203 62.2382C71.7203 57.2712 76.3383 56.5362 82.9803 57.8062C90.9003 59.3202 95.0023 61.9852 98.9403 68.1752C103.983 76.0992 104.781 79.6292 104.073 90.8712C103.73 96.3192 103.628 100.777 103.846 100.777C104.064 100.777 107.108 99.7082 110.611 98.4012C114.114 97.0952 120.456 95.2152 124.705 94.2242C131.547 92.6292 133.371 92.5672 140.667 93.6842C151.011 95.2682 170.591 100.861 177.561 104.223C183.569 107.122 183.48 107.097 183.48 105.86C183.48 105.356 179.65 101.953 174.97 98.2982C158.288 85.2722 148.18 74.4792 141.702 62.7772C137.791 55.7132 135.715 49.4642 133.562 38.2772L131.829 29.2772L117.905 28.6682C93.8983 27.6172 65.8673 21.1422 16.2663 5.18825C2.56829 0.782248 -0.79071 -0.00275165 1.03029 1.62725ZM550.98 3.81725C513.471 15.5522 502.195 18.9092 488.48 22.4242C465.726 28.2552 460.154 29.0942 445.291 28.9312L431.602 28.7802L431.013 33.5292C428.362 54.9102 418.545 74.6792 404.084 87.7542C398.463 92.8382 393.797 96.1322 386.98 99.8332C383.68 101.624 380.08 103.743 378.98 104.541C375.337 107.184 384.027 105.167 395.42 100.726C408.317 95.6982 420.155 92.7932 427.783 92.7842C434.931 92.7752 446.201 95.2542 453.354 98.4082C456.31 99.7112 459.01 100.777 459.354 100.777C459.698 100.777 459.98 94.8142 459.98 87.5272C459.98 75.8042 460.233 73.8052 462.171 70.1822C464.791 65.2872 470.167 60.3642 475.267 58.1912C483.06 54.8702 501.008 57.7993 515.679 64.7853C517.713 65.7533 519.592 66.3322 519.853 66.0712C520.114 65.8092 518.808 63.6042 516.95 61.1702C515.092 58.7362 512.788 54.2573 511.83 51.2183C510.343 46.5003 510.267 45.0212 511.316 41.1022C513.445 33.1402 517.918 29.1112 535.48 19.3322C550.296 11.0822 564.401 2.41125 564.444 1.52725C564.508 0.200248 560.197 0.933248 550.98 3.81725ZM256.48 106.367C254.555 106.596 248.48 107.266 242.98 107.855C203.332 112.106 161.968 126.649 130.307 147.468L123.634 151.856L117.307 146.869C113.827 144.126 102.205 134.927 91.4803 126.426C80.7553 117.925 71.6973 111.144 71.3513 111.357C71.0053 111.571 77.1523 124.683 85.0113 140.495C96.3323 163.274 99.0973 169.624 98.3243 171.068C96.9863 173.569 94.7673 174.247 92.1663 172.949C88.0423 170.889 65.7293 158.319 50.6993 149.588C46.1453 146.942 42.2723 144.777 42.0933 144.777C41.9143 144.777 37.7653 142.471 32.8733 139.652C18.8663 131.579 1.36529 122.559 0.80229 123.122C0.52029 123.404 2.46929 126.317 5.13429 129.595C7.79929 132.873 13.1303 139.496 16.9803 144.313C20.8303 149.13 26.2493 155.818 29.0213 159.174C31.7943 162.531 37.3943 169.327 41.4653 174.277C45.5363 179.227 49.3423 183.732 49.9233 184.287C51.7373 186.022 62.8913 199.079 66.1923 203.332C68.2623 205.999 69.0543 207.848 68.5073 208.734C67.4533 210.439 62.7653 209.477 45.4803 204.012C15.5923 194.563 2.30229 190.622 1.85129 191.073C0.68929 192.235 17.3883 206.419 41.4373 224.696C47.5303 229.326 52.9183 233.601 53.4103 234.196C53.9613 234.861 53.3843 237.459 51.9103 240.952C48.4393 249.175 44.7343 262.532 42.2573 275.744C39.2753 291.651 39.0233 334.757 41.8023 353.695C44.0583 369.076 48.6053 387.277 50.1913 387.277C50.8393 387.277 59.1573 380.67 68.6753 372.594C78.1933 364.518 88.1183 356.285 90.7303 354.298C93.3433 352.311 95.4803 350.358 95.4803 349.959C95.4803 349.559 93.9163 348.39 92.0043 347.36C84.8803 343.523 84.8413 342.946 91.1853 335.209C94.3113 331.397 97.6823 327.689 98.6753 326.97C99.6683 326.252 100.48 325.139 100.48 324.497C100.48 323.856 97.7093 320.535 94.3213 317.117L88.1623 310.903L94.5063 303.59C97.9963 299.568 103.041 293.988 105.719 291.191L110.588 286.104L107.469 282.765C104.306 279.379 101.014 273.909 101.717 273.207C102.337 272.586 113.983 279.761 118.024 283.253L121.735 286.46L118.357 288.785C111.259 293.672 105.48 298.216 105.48 298.911C105.48 299.756 115.301 307.31 120.73 310.64C122.793 311.905 124.48 313.312 124.48 313.767C124.48 314.221 122.456 315.872 119.982 317.435C117.508 318.998 115.483 320.581 115.482 320.952C115.481 321.324 119.305 324.659 123.98 328.364C128.655 332.069 132.47 335.59 132.457 336.188C132.434 337.263 129.059 341.304 121.375 349.455C119.209 351.753 117.806 353.86 118.256 354.139C120.217 355.351 162.299 363.027 163.201 362.337C163.323 362.244 162.049 357.467 160.371 351.722C156.842 339.643 155.331 323.007 156.605 310.252C160.357 272.68 191.064 236.4 232.98 220.014C265.161 207.433 298.862 206 330.806 215.852C345.44 220.365 355.545 225.483 369.932 235.666C384.84 246.218 396.06 258.064 407.45 275.277C421.921 297.148 426.719 313.287 429.448 349.277C429.948 355.877 430.204 362.627 430.017 364.277C429.83 365.927 429.378 371.552 429.012 376.777C427.301 401.201 421.403 421.364 410.394 440.426C403.58 452.225 402.38 453.758 390.98 465.221C375.315 480.973 358.799 490.832 334.96 498.66C309.344 507.07 278.117 511.151 256.72 508.884C175.661 500.295 124.23 445.193 108.528 350.116C107.453 343.605 106.266 335.436 105.89 331.963C105.515 328.491 104.854 326.016 104.421 326.463C103.009 327.924 100.594 339.024 98.9123 351.777C93.6473 391.703 103.897 435.292 126.73 470.08C134.955 482.612 142.415 491.525 154.107 502.789C181.161 528.853 211.278 544.288 246.901 550.344C260.651 552.682 300.759 551.863 316.98 548.913C343.97 544.004 362.225 538.372 381.48 529.013C430.658 505.108 463.238 468.142 479.957 417.277C483.869 405.375 487.932 386.12 489.452 372.277C492.165 347.573 489.547 307.923 483.509 282.277C482.991 280.077 481.877 275.352 481.032 271.777C478.774 262.218 474.117 246.548 470.442 236.145L467.217 227.013L489.848 204.637C502.296 192.33 512.48 181.671 512.48 180.951C512.48 179.178 511.574 179.508 487.528 190.038C463.021 200.769 453.353 204.769 451.914 204.774C451.328 204.775 449.826 202.958 448.577 200.735C446.638 197.286 446.501 196.443 447.642 194.99C448.378 194.053 453.65 187.885 459.358 181.282C465.066 174.679 472.041 166.607 474.858 163.344C477.675 160.081 483.355 153.506 487.48 148.733C497.729 136.873 498.69 135.653 498.179 135.143C497.935 134.899 488.115 140.475 476.358 147.535C464.6 154.595 449.199 163.671 442.133 167.704L429.286 175.038L426.815 172.567L424.344 170.096L427.555 164.686C432.959 155.585 444.48 135.58 444.48 135.298C444.48 135.153 446.928 130.711 449.92 125.427C452.912 120.144 455.049 115.629 454.669 115.394C453.951 114.95 442.487 123.565 419.224 142.027C411.774 147.939 405.411 152.777 405.084 152.777C404.758 152.777 401.675 150.497 398.235 147.711C386.412 138.135 367.292 127.057 350.817 120.238C327.9 110.751 308.026 106.819 280.48 106.321C269.205 106.117 258.405 106.138 256.48 106.367ZM275.204 252.027C273.688 255.022 270.255 261.194 264.5 271.277C263.244 273.477 259.974 279.327 257.234 284.277C254.493 289.227 251.917 293.727 251.509 294.277C251.102 294.827 249.414 297.752 247.758 300.777C246.103 303.802 241.763 311.582 238.114 318.066C234.465 324.551 231.48 330.03 231.48 330.243C231.48 330.908 242.162 336.777 243.372 336.777C244.004 336.777 245.949 334.752 247.693 332.277L250.865 327.777H278.47H306.074L309.98 331.777C312.128 333.977 314.376 335.777 314.975 335.777C315.574 335.777 318.018 333.785 320.407 331.351C323.542 328.157 324.561 326.43 324.068 325.145C323.415 323.444 306.955 295.646 301.644 287.277C300.249 285.077 295.309 276.977 290.667 269.277C286.025 261.577 281.34 253.814 280.255 252.027C279.17 250.24 277.96 248.777 277.566 248.777C277.173 248.777 276.11 250.24 275.204 252.027ZM62.9473 271.32C58.6393 273.446 56.0673 278.659 56.7633 283.85C58.6183 297.68 77.2763 297.571 79.0273 283.72C79.7313 278.155 77.0053 273.312 71.9903 271.217C67.7213 269.433 66.7473 269.444 62.9473 271.32ZM174.48 313.277C174.48 314.102 174.93 314.777 175.48 314.777C176.03 314.777 176.48 315.263 176.48 315.858C176.48 316.452 177.987 319.264 179.83 322.108C181.672 324.951 186.665 333.015 190.924 340.027C195.184 347.039 199.026 352.777 199.464 352.777C199.901 352.777 202.671 348.938 205.619 344.246C208.568 339.554 214.24 330.666 218.225 324.496C222.21 318.326 225.472 312.94 225.475 312.527C225.478 312.114 214.005 311.777 199.98 311.777C177.98 311.777 174.48 311.983 174.48 313.277ZM331.698 314.09C337.219 324.051 355.093 352.516 355.621 352.19C355.986 351.964 359.089 347.167 362.518 341.529C365.946 335.89 371.165 327.403 374.116 322.669C377.066 317.934 379.48 313.547 379.48 312.919C379.48 312.094 372.666 311.777 354.948 311.777H330.416L331.698 314.09ZM219.739 351.027C218.905 352.085 203.077 380.061 192.723 398.777C191.05 401.802 186.968 408.985 183.653 414.74C180.338 420.495 177.844 425.557 178.112 425.99C178.379 426.423 198.596 426.777 223.039 426.777H267.48V420.277V413.777L262.73 413.752L257.98 413.728L253.083 405.502C246.384 394.249 234.152 372.98 232.129 369.067C230.557 366.026 230.573 365.672 232.431 362.364L234.393 358.871L227.889 354.324C224.311 351.823 221.236 349.777 221.055 349.777C220.873 349.777 220.281 350.34 219.739 351.027ZM332.98 352.857C327.012 357.369 327.076 357.211 329.036 362.662L330.845 367.694L325.949 378.395C319.997 391.407 311.78 405.933 307.453 411.095C304.424 414.709 303.978 414.899 299.116 414.641L293.98 414.368V420.322V426.277L338.48 426.538C362.955 426.681 383.54 426.584 384.225 426.321C385.036 426.01 381.049 418.589 372.804 405.06C365.837 393.629 357.922 380.452 355.215 375.777C346.343 360.456 339.322 349.776 338.141 349.805C337.502 349.82 335.18 351.194 332.98 352.857ZM253.392 441.612C254.296 443.302 274.154 475.355 276.417 478.777C277.248 480.033 277.774 479.802 279.655 477.353C281.531 474.909 298.475 447.242 301.595 441.527C302.493 439.881 301.054 439.777 277.48 439.777C253.47 439.777 252.451 439.855 253.392 441.612Z" fill="#FE0000"/>
</g>
<defs>
<clipPath id="clip0_1437_3517">
<rect width="564" height="551" fill="white" transform="translate(0.480286 0.777222)"/>
</clipPath>
</defs>
</svg>
