<svg width="50" height="50" viewBox="0 0 50 50" fill="none" xmlns="http://www.w3.org/2000/svg">
<path d="M6.25 8.3335C7.35507 8.3335 8.41488 8.77248 9.19628 9.55388C9.97768 10.3353 10.4167 11.3951 10.4167 12.5002M10.4167 12.5002V31.2502M10.4167 12.5002C10.4167 11.3951 10.8557 10.3353 11.6371 9.55388C12.4185 8.77248 13.4783 8.3335 14.5833 8.3335C15.6884 8.3335 16.7482 8.77248 17.5296 9.55388C18.311 10.3353 18.75 11.3951 18.75 12.5002M18.75 12.5002V31.2502M18.75 12.5002C18.75 11.3951 19.189 10.3353 19.9704 9.55388C20.7518 8.77248 21.8116 8.3335 22.9167 8.3335C24.0217 8.3335 25.0815 8.77248 25.8629 9.55388C26.6443 10.3353 27.0833 11.3951 27.0833 12.5002V33.3335C27.0833 34.9911 27.7418 36.5808 28.9139 37.7529C30.086 38.925 31.6757 39.5835 33.3333 39.5835H43.75M43.75 39.5835L37.5 33.3335M43.75 39.5835L37.5 45.8335" stroke="black" stroke-width="3" stroke-linecap="round" stroke-linejoin="round"/>
</svg>
