<svg width="671" height="605" viewBox="0 0 671 605" fill="none" xmlns="http://www.w3.org/2000/svg">
<path fill-rule="evenodd" clip-rule="evenodd" d="M120.338 56.3537C78.5987 80.9335 50.0687 97.7058 39.4227 103.919C32.379 108.032 26.0338 112.145 25.3236 113.06C24.6122 113.975 23.3641 114.724 22.5503 114.724C21.7353 114.724 19.3288 115.799 17.2006 117.115C13.9488 119.125 13.4925 119.914 14.3389 122.063C14.8931 123.47 27.6847 149.616 42.7665 180.168L70.1882 235.715L74.015 234.448C76.1211 233.75 78.4636 232.409 79.2204 231.466C79.9783 230.523 81.1624 230.1 81.8517 230.526C82.5409 230.951 86.6356 229.937 90.9515 228.271C102.766 223.711 112.463 220.063 127.906 214.368L141.877 209.216L144.419 201.137C151.367 179.054 156.054 146.155 154.814 128.181C153.852 114.236 149.112 94.8265 142.858 79.2139C137.235 65.1799 130.894 52.7713 129.07 52.2381C128.43 52.0506 124.501 53.9029 120.338 56.3537ZM28.0188 122.442C27.6707 122.788 26.8022 121.98 26.0873 120.645C25.1862 118.96 25.1687 118.216 26.0291 118.216C27.4413 118.216 28.9781 121.482 28.0188 122.442ZM32.5955 130.671C31.7048 131.562 29.5766 128.994 29.544 126.99C29.5347 126.372 30.4125 126.753 31.4941 127.836C32.5769 128.918 33.0728 130.194 32.5955 130.671ZM36.0521 138.858C35.768 139.14 34.952 138.28 34.2371 136.945C33.5223 135.608 33.4233 134.516 34.0182 134.516C35.215 134.516 36.8659 138.043 36.0521 138.858ZM40.0048 146.323C40.0048 148.221 37.9988 146.355 37.3433 143.849C37.0057 142.558 37.1489 141.502 37.6611 141.502C38.6263 141.502 40.0048 144.337 40.0048 146.323ZM43.6221 155.473C42.5021 155.473 41.1458 152.641 41.2064 150.429C41.2261 149.682 42.012 150.087 42.9527 151.329C44.8935 153.895 45.1485 155.473 43.6221 155.473ZM46.371 161.945C45.4315 160.701 44.6618 159.197 44.6618 158.6C44.6618 158.004 45.4477 158.168 46.4083 158.965C47.3688 159.763 48.1383 161.267 48.1174 162.309C48.0859 163.902 47.8077 163.844 46.371 161.945ZM50.4832 170.026C49.8428 169.63 49.327 168.42 49.3364 167.338C49.3527 165.641 49.511 165.61 50.4832 167.115C51.9571 169.395 51.9571 170.936 50.4832 170.026ZM54.054 178.223C53.3705 177.802 52.8279 176.57 52.8489 175.487C52.8815 173.758 53.0922 173.792 54.5825 175.762C56.3929 178.155 56.1054 179.491 54.054 178.223ZM58.7692 186.908C58.2033 186.908 57.4664 185.86 57.1311 184.579C56.4128 181.829 58.0647 181.419 59.0904 184.092C60.0288 186.536 59.9858 186.908 58.7692 186.908ZM62.9465 194.625C62.5984 194.972 61.7299 194.164 61.015 192.829C60.1139 191.144 60.0963 190.4 60.9567 190.4C62.369 190.4 63.9058 193.666 62.9465 194.625ZM66.9073 203.207C65.7873 203.207 64.4309 200.376 64.4914 198.164C64.5112 197.416 65.2971 197.821 66.2378 199.064C68.1787 201.63 68.4336 203.207 66.9073 203.207ZM71.0963 210.925C70.7482 211.272 69.8796 210.464 69.1648 209.129C68.2637 207.444 68.2461 206.7 69.1065 206.7C70.5187 206.7 72.0557 209.966 71.0963 210.925ZM73.8462 218.972C73.1628 218.551 72.6226 217.057 72.6447 215.654C72.6855 213.194 72.7437 213.207 74.2968 216.012C76.0199 219.126 75.8534 220.213 73.8462 218.972ZM77.8059 225.979C76.8663 224.735 76.1131 223.164 76.134 222.486C76.1538 221.807 76.9396 222.271 77.8804 223.513C78.8199 224.756 79.5733 226.328 79.5523 227.006C79.5325 227.684 78.7466 227.221 77.8059 225.979Z" fill="#484848"/>
<path fill-rule="evenodd" clip-rule="evenodd" d="M235.6 18.0008C232.078 19.1895 221.076 22.6264 211.15 25.6371C201.225 28.6491 189.175 32.3467 184.373 33.8556C175.981 36.4915 165.887 39.607 142.75 46.7043C136.828 48.5217 131.981 50.4695 131.981 51.033C131.981 51.5965 133.766 55.2861 135.949 59.2329C144.448 74.6022 152.772 98.8665 155.386 115.888C156.233 121.4 156.479 131.704 156.054 143.83C155.35 163.962 152.668 180.205 146.576 201.212C143.693 211.151 143.641 211.941 144.725 229.154C147.976 280.804 148.597 327.306 147.187 413.355C146.411 460.741 145.343 516.8 144.815 537.931C144.102 566.428 144.2 576.776 145.194 577.996C146.214 579.247 146.186 579.758 145.079 580.13C144.179 580.433 143.624 582.802 143.624 586.344V592.069H335.726H527.828V586.247C527.828 582.72 527.314 580.426 526.522 580.426C525.56 580.426 525.564 580.006 526.532 578.839C527.514 577.656 527.369 550.995 525.97 474.347C524.014 367.229 524.267 286.922 526.714 237.929L528.09 210.364L523.904 194.851C513.267 155.441 512.687 121.819 522.154 93.3258C526.792 79.3664 533.026 64.3556 537.325 56.8054L540.803 50.6954L537.517 49.445C534.407 48.2621 518.034 43.1277 498.722 37.2785C490.186 34.6939 477.479 30.7762 446.912 21.3084C425.22 14.5883 427.444 14.5488 419.807 21.7928C400.128 40.4616 375.93 49.9957 344.458 51.4801C309.219 53.1415 277.98 42.8856 252.865 21.4085C249.233 18.3023 245.304 15.7794 244.133 15.8003C242.961 15.8224 239.122 16.8121 235.6 18.0008ZM152.356 580.426C150.755 580.426 149.445 579.902 149.445 579.262C149.445 578.622 150.755 578.098 152.356 578.098C153.956 578.098 155.266 578.622 155.266 579.262C155.266 579.902 153.956 580.426 152.356 580.426ZM161.087 580.426C159.807 580.426 158.759 579.902 158.759 579.262C158.759 578.622 159.807 578.098 161.087 578.098C162.368 578.098 163.416 578.622 163.416 579.262C163.416 579.902 162.368 580.426 161.087 580.426ZM169.819 580.426C168.219 580.426 166.909 579.902 166.909 579.262C166.909 578.622 168.219 578.098 169.819 578.098C171.42 578.098 172.73 578.622 172.73 579.262C172.73 579.902 171.42 580.426 169.819 580.426ZM178.551 580.426C177.271 580.426 176.223 579.902 176.223 579.262C176.223 578.622 177.271 578.098 178.551 578.098C179.832 578.098 180.88 578.622 180.88 579.262C180.88 579.902 179.832 580.426 178.551 580.426ZM187.283 580.426C185.682 580.426 184.373 579.902 184.373 579.262C184.373 578.622 185.682 578.098 187.283 578.098C188.884 578.098 190.194 578.622 190.194 579.262C190.194 579.902 188.884 580.426 187.283 580.426ZM196.015 580.426C194.734 580.426 193.687 579.902 193.687 579.262C193.687 578.622 194.734 578.098 196.015 578.098C197.296 578.098 198.344 578.622 198.344 579.262C198.344 579.902 197.296 580.426 196.015 580.426ZM204.678 580.426C202.989 580.426 202.01 579.922 202.419 579.262C202.814 578.622 204.154 578.098 205.398 578.098C206.641 578.098 207.658 578.622 207.658 579.262C207.658 579.902 206.316 580.426 204.678 580.426ZM213.479 580.426C212.198 580.426 211.15 579.902 211.15 579.262C211.15 578.622 212.198 578.098 213.479 578.098C214.76 578.098 215.807 578.622 215.807 579.262C215.807 579.902 214.76 580.426 213.479 580.426ZM222.211 580.426C220.61 580.426 219.3 579.902 219.3 579.262C219.3 578.622 220.61 578.098 222.211 578.098C223.812 578.098 225.122 578.622 225.122 579.262C225.122 579.902 223.812 580.426 222.211 580.426ZM230.943 580.426C229.662 580.426 228.614 579.902 228.614 579.262C228.614 578.622 229.662 578.098 230.943 578.098C232.223 578.098 233.271 578.622 233.271 579.262C233.271 579.902 232.223 580.426 230.943 580.426ZM239.606 580.426C237.917 580.426 236.938 579.922 237.346 579.262C237.742 578.622 239.082 578.098 240.326 578.098C241.569 578.098 242.585 578.622 242.585 579.262C242.585 579.902 241.244 580.426 239.606 580.426ZM249.057 580.426C247.419 580.426 246.078 579.902 246.078 579.262C246.078 578.622 247.094 578.098 248.338 578.098C249.581 578.098 250.921 578.622 251.317 579.262C251.726 579.922 250.747 580.426 249.057 580.426ZM257.07 580.426C255.381 580.426 254.401 579.922 254.81 579.262C255.206 578.622 256.546 578.098 257.789 578.098C259.033 578.098 260.049 578.622 260.049 579.262C260.049 579.902 258.708 580.426 257.07 580.426ZM266.521 580.426C264.883 580.426 263.542 579.902 263.542 579.262C263.542 578.622 264.558 578.098 265.802 578.098C267.045 578.098 268.385 578.622 268.781 579.262C269.19 579.922 268.211 580.426 266.521 580.426ZM275.185 580.426C273.904 580.426 272.856 579.902 272.856 579.262C272.856 578.622 273.904 578.098 275.185 578.098C276.465 578.098 277.513 578.622 277.513 579.262C277.513 579.902 276.465 580.426 275.185 580.426ZM283.985 580.426C282.347 580.426 281.006 579.902 281.006 579.262C281.006 578.622 282.022 578.098 283.266 578.098C284.509 578.098 285.849 578.622 286.245 579.262C286.654 579.922 285.674 580.426 283.985 580.426ZM291.998 580.426C290.308 580.426 289.329 579.922 289.738 579.262C290.134 578.622 291.474 578.098 292.717 578.098C293.961 578.098 294.977 578.622 294.977 579.262C294.977 579.902 293.636 580.426 291.998 580.426ZM301.449 580.426C299.811 580.426 298.47 579.902 298.47 579.262C298.47 578.622 299.486 578.098 300.729 578.098C301.973 578.098 303.313 578.622 303.709 579.262C304.117 579.922 303.138 580.426 301.449 580.426ZM310.112 580.426C308.832 580.426 307.784 579.902 307.784 579.262C307.784 578.622 308.832 578.098 310.112 578.098C311.393 578.098 312.441 578.622 312.441 579.262C312.441 579.902 311.393 580.426 310.112 580.426ZM318.913 580.426C317.275 580.426 315.934 579.902 315.934 579.262C315.934 578.622 316.95 578.098 318.193 578.098C319.437 578.098 320.777 578.622 321.173 579.262C321.581 579.922 320.602 580.426 318.913 580.426ZM327.576 580.426C326.295 580.426 325.248 579.902 325.248 579.262C325.248 578.622 326.295 578.098 327.576 578.098C328.857 578.098 329.905 578.622 329.905 579.262C329.905 579.902 328.857 580.426 327.576 580.426ZM336.308 580.426C334.572 580.426 333.57 579.924 333.979 579.262C334.375 578.622 335.423 578.098 336.308 578.098C337.193 578.098 338.241 578.622 338.637 579.262C339.046 579.924 338.044 580.426 336.308 580.426ZM345.04 580.426C343.759 580.426 342.711 579.902 342.711 579.262C342.711 578.622 343.759 578.098 345.04 578.098C346.321 578.098 347.368 578.622 347.368 579.262C347.368 579.902 346.321 580.426 345.04 580.426ZM353.772 580.426C352.171 580.426 350.861 579.902 350.861 579.262C350.861 578.622 352.171 578.098 353.772 578.098C355.373 578.098 356.682 578.622 356.682 579.262C356.682 579.902 355.373 580.426 353.772 580.426ZM362.504 580.426C361.223 580.426 360.175 579.902 360.175 579.262C360.175 578.622 361.223 578.098 362.504 578.098C363.784 578.098 364.832 578.622 364.832 579.262C364.832 579.902 363.784 580.426 362.504 580.426ZM371.167 580.426C369.478 580.426 368.499 579.922 368.907 579.262C369.303 578.622 370.643 578.098 371.887 578.098C373.13 578.098 374.146 578.622 374.146 579.262C374.146 579.902 372.805 580.426 371.167 580.426ZM379.968 580.426C378.687 580.426 377.639 579.902 377.639 579.262C377.639 578.622 378.687 578.098 379.968 578.098C381.248 578.098 382.296 578.622 382.296 579.262C382.296 579.902 381.248 580.426 379.968 580.426ZM388.7 580.426C387.099 580.426 385.789 579.902 385.789 579.262C385.789 578.622 387.099 578.098 388.7 578.098C390.3 578.098 391.61 578.622 391.61 579.262C391.61 579.902 390.3 580.426 388.7 580.426ZM397.431 580.426C396.151 580.426 395.103 579.902 395.103 579.262C395.103 578.622 396.151 578.098 397.431 578.098C398.712 578.098 399.76 578.622 399.76 579.262C399.76 579.902 398.712 580.426 397.431 580.426ZM406.095 580.426C404.405 580.426 403.426 579.922 403.835 579.262C404.231 578.622 405.571 578.098 406.814 578.098C408.058 578.098 409.074 578.622 409.074 579.262C409.074 579.902 407.733 580.426 406.095 580.426ZM414.895 580.426C413.615 580.426 412.567 579.902 412.567 579.262C412.567 578.622 413.615 578.098 414.895 578.098C416.176 578.098 417.224 578.622 417.224 579.262C417.224 579.902 416.176 580.426 414.895 580.426ZM423.558 580.426C421.869 580.426 420.89 579.922 421.299 579.262C421.694 578.622 423.035 578.098 424.278 578.098C425.521 578.098 426.538 578.622 426.538 579.262C426.538 579.902 425.197 580.426 423.558 580.426ZM433.01 580.426C431.372 580.426 430.031 579.902 430.031 579.262C430.031 578.622 431.047 578.098 432.29 578.098C433.534 578.098 434.874 578.622 435.27 579.262C435.678 579.922 434.699 580.426 433.01 580.426ZM441.022 580.426C439.333 580.426 438.354 579.922 438.763 579.262C439.158 578.622 440.498 578.098 441.742 578.098C442.985 578.098 444.002 578.622 444.002 579.262C444.002 579.902 442.66 580.426 441.022 580.426ZM450.474 580.426C448.836 580.426 447.494 579.902 447.494 579.262C447.494 578.622 448.511 578.098 449.754 578.098C450.998 578.098 452.338 578.622 452.734 579.262C453.142 579.922 452.163 580.426 450.474 580.426ZM458.486 580.426C456.797 580.426 455.818 579.922 456.226 579.262C456.622 578.622 457.962 578.098 459.206 578.098C460.449 578.098 461.466 578.622 461.466 579.262C461.466 579.902 460.124 580.426 458.486 580.426ZM467.938 580.426C466.3 580.426 464.958 579.902 464.958 579.262C464.958 578.622 465.975 578.098 467.218 578.098C468.462 578.098 469.802 578.622 470.197 579.262C470.606 579.922 469.627 580.426 467.938 580.426ZM476.601 580.426C475.32 580.426 474.272 579.902 474.272 579.262C474.272 578.622 475.32 578.098 476.601 578.098C477.882 578.098 478.929 578.622 478.929 579.262C478.929 579.902 477.882 580.426 476.601 580.426ZM485.401 580.426C483.763 580.426 482.422 579.902 482.422 579.262C482.422 578.622 483.439 578.098 484.682 578.098C485.925 578.098 487.265 578.622 487.661 579.262C488.07 579.922 487.091 580.426 485.401 580.426ZM493.414 580.426C491.725 580.426 490.745 579.922 491.154 579.262C491.55 578.622 492.89 578.098 494.133 578.098C495.377 578.098 496.393 578.622 496.393 579.262C496.393 579.902 495.052 580.426 493.414 580.426ZM502.797 580.426C501.061 580.426 500.058 579.924 500.468 579.262C500.864 578.622 501.912 578.098 502.797 578.098C503.682 578.098 504.729 578.622 505.125 579.262C505.535 579.924 504.533 580.426 502.797 580.426ZM511.529 580.426C510.248 580.426 509.2 579.902 509.2 579.262C509.2 578.622 510.248 578.098 511.529 578.098C512.809 578.098 513.857 578.622 513.857 579.262C513.857 579.902 512.809 580.426 511.529 580.426ZM520.329 580.426C518.691 580.426 517.35 579.902 517.35 579.262C517.35 578.622 518.366 578.098 519.61 578.098C520.853 578.098 522.193 578.622 522.589 579.262C522.998 579.922 522.018 580.426 520.329 580.426Z" fill="#484848"/>
<path fill-rule="evenodd" clip-rule="evenodd" d="M534.851 66.116C519.373 98.6348 514.799 124.535 518.566 158.322C519.898 170.272 526.833 201.461 529.231 206.291C530.493 208.832 534.253 210.634 552.278 217.341C564.124 221.749 577.301 226.722 581.561 228.391C585.821 230.062 589.881 231.072 590.584 230.638C591.287 230.203 591.862 230.323 591.862 230.904C591.862 231.862 601.215 236.161 601.864 235.502C602.635 234.722 658.225 121.262 658.225 120.468C658.225 118.909 651.61 114.724 649.147 114.724C647.873 114.724 646.566 114.031 646.241 113.185C645.916 112.338 637.346 106.761 627.197 100.792C604.909 87.685 590.671 79.2767 564.344 63.6757C553.371 57.1733 543.774 51.8538 543.016 51.8538C542.259 51.8538 538.585 58.2724 534.851 66.116ZM645.463 121.675C644.088 123.85 642.794 122.67 643.768 120.129C644.172 119.077 644.971 118.216 645.543 118.216C646.87 118.216 646.841 119.498 645.463 121.675ZM641.872 128.795C640.427 131.495 638.916 130.985 639.998 128.163C640.378 127.174 641.247 126.366 641.93 126.366C642.79 126.366 642.773 127.11 641.872 128.795ZM636.473 138.767C636.153 138.447 636.25 137.058 636.686 135.68C637.123 134.303 637.743 133.438 638.063 133.758C638.384 134.078 638.287 135.467 637.85 136.845C637.414 138.222 636.793 139.087 636.473 138.767ZM631.768 146.869C631.488 146.588 631.913 145.135 632.712 143.641C633.632 141.923 634.348 141.474 634.663 142.417C635.174 143.951 632.683 147.783 631.768 146.869ZM629.738 153.795C627.993 156.103 627.388 154.81 628.661 151.493C629.391 149.591 631.447 148.926 631.447 150.593C631.447 151.111 630.677 152.552 629.738 153.795ZM624.457 162.458C623.596 162.458 623.614 161.714 624.515 160.03C625.23 158.694 626.098 157.886 626.446 158.233C627.406 159.192 625.869 162.458 624.457 162.458ZM620.803 170.608C620.208 170.608 620.307 169.516 621.022 168.179C621.737 166.844 622.553 165.984 622.837 166.266C623.651 167.081 622 170.608 620.803 170.608ZM618.586 176.529C617.104 179.299 615.882 178.904 616.99 176.014C617.394 174.961 618.212 174.101 618.805 174.101C619.4 174.101 619.301 175.193 618.586 176.529ZM612.814 186.908C611.954 186.908 611.971 186.164 612.872 184.479C613.587 183.144 614.456 182.336 614.804 182.682C615.763 183.642 614.226 186.908 612.814 186.908ZM610.536 193.859C609.161 196.034 607.866 194.854 608.841 192.313C609.245 191.261 610.043 190.4 610.615 190.4C611.942 190.4 611.913 191.682 610.536 193.859ZM606.944 200.979C605.499 203.679 603.988 203.169 605.071 200.347C605.45 199.358 606.319 198.55 607.002 198.55C607.863 198.55 607.845 199.294 606.944 200.979ZM601.123 211.357C600.539 211.357 600.659 210.045 601.39 208.442C602.12 206.837 602.944 205.751 603.218 206.025C604.04 206.848 602.268 211.357 601.123 211.357ZM596.841 219.053C596.56 218.772 596.985 217.319 597.785 215.825C598.705 214.107 599.42 213.658 599.735 214.601C600.246 216.135 597.756 219.967 596.841 219.053ZM595.264 225.498C593.703 228.416 592.537 227.539 593.586 224.235C594.011 222.896 594.846 222.103 595.442 222.471C596.094 222.874 596.023 224.08 595.264 225.498Z" fill="#484848"/>
<path d="M250.86 13.5312L248.074 14.6454L252.606 18.7017C277.364 40.8598 312.362 51.9959 349.115 49.4101C375.392 47.5612 399.053 37.948 417.515 21.6193C423.837 16.0285 424.397 13.9724 419.843 13.0713C417.268 12.5614 415.73 13.3007 411.985 16.8458C401.41 26.8549 385.905 34.5798 367.161 39.1786C357.803 41.4745 353.144 41.8878 336.89 41.8599C319.673 41.8296 316.412 41.492 305.455 38.5976C290.341 34.6066 274.666 27.1984 263.396 18.7191C258.68 15.1716 254.557 12.3029 254.234 12.3425C253.91 12.3832 252.392 12.9188 250.86 13.5312Z" fill="#484848"/>
<path fill-rule="evenodd" clip-rule="evenodd" d="M249.571 11.6626C247.33 12.5439 237.375 15.7107 227.45 18.6993C217.525 21.6891 202.069 26.4207 193.104 29.216C184.14 32.0114 167.374 37.1365 155.848 40.606C129.36 48.5788 130.075 48.2644 106.101 62.4358C95.0416 68.9731 78.3962 78.7959 69.1113 84.2632C59.8263 89.7318 45.4187 98.2238 37.0942 103.136C28.7698 108.048 19.4697 113.5 16.4286 115.252C13.3876 117.004 10.8984 118.674 10.8984 118.963C10.8984 120.183 68.9797 238.135 69.5804 238.135C70.3349 238.135 104.668 225.349 130.235 215.547C135.998 213.337 141.027 211.883 141.413 212.316C141.797 212.749 143.052 233.798 144.201 259.091C146.677 313.573 146.701 356.605 144.314 466.329C143.347 510.833 142.431 557.723 142.281 570.53L142.006 593.815L335.535 594.11C515.085 594.383 529.117 594.265 529.806 592.468C530.215 591.403 529.927 564.812 529.167 533.379C526.094 406.317 525.297 332.56 526.568 292.819C527.715 256.984 530.022 212.456 530.778 211.566C530.952 211.363 533.634 212.259 536.738 213.559C539.842 214.859 549.716 218.589 558.681 221.848C574.514 227.604 578.394 229.059 594.099 235.133C598.211 236.724 602.009 237.758 602.537 237.432C603.066 237.104 608.667 226.258 614.985 213.328C621.304 200.398 634.192 174.221 643.627 155.156C653.064 136.092 660.509 119.781 660.175 118.909C659.84 118.036 656.775 115.784 653.365 113.903C649.955 112.023 636.686 104.279 623.879 96.6963C611.072 89.1135 595.093 79.7063 588.369 75.7921C581.646 71.8767 574.835 67.8496 573.234 66.8413C556.387 56.2326 540.995 48.2889 531.903 45.511C526.14 43.7506 512.518 39.543 501.632 36.162C490.747 32.781 476.601 28.4209 470.197 26.4707C437.329 16.4663 430.056 14.2309 423.781 12.2051L416.948 10L410.769 15.5011C385.483 38.0108 343.89 45.908 303.127 35.9408C289.638 32.6413 269.772 22.3877 259.135 13.232C254.777 9.48191 255.018 9.52149 249.571 11.6626ZM248.074 14.6454L250.86 13.5312C252.392 12.9188 253.91 12.3832 254.234 12.3425C254.557 12.3029 258.68 15.1716 263.396 18.7191C274.666 27.1984 290.341 34.6066 305.455 38.5976C316.412 41.492 319.673 41.8296 336.89 41.8599C353.144 41.8878 357.803 41.4745 367.161 39.1786C385.905 34.5798 401.41 26.8549 411.985 16.8458C415.73 13.3007 417.268 12.5614 419.843 13.0713C424.397 13.9724 423.837 16.0285 417.515 21.6193C399.053 37.948 375.392 47.5612 349.115 49.4101C312.362 51.9959 277.364 40.8598 252.606 18.7017L248.074 14.6454ZM211.15 25.6371C221.076 22.6264 232.078 19.1895 235.6 18.0008C239.122 16.8121 242.961 15.8224 244.133 15.8003C245.304 15.7794 249.233 18.3023 252.865 21.4085C277.98 42.8856 309.219 53.1415 344.458 51.4801C375.93 49.9957 400.128 40.4616 419.807 21.7928C427.444 14.5488 425.22 14.5883 446.912 21.3084C477.479 30.7762 490.186 34.6939 498.722 37.2785C518.034 43.1277 534.407 48.2621 537.517 49.445L540.803 50.6954L537.325 56.8054C533.026 64.3556 526.792 79.3664 522.154 93.3258C512.687 121.819 513.267 155.441 523.904 194.851L528.09 210.364L526.714 237.929C524.267 286.922 524.014 367.229 525.97 474.347C527.369 550.995 527.514 577.656 526.532 578.839C525.564 580.006 525.56 580.426 526.522 580.426C527.314 580.426 527.828 582.72 527.828 586.247V592.069H335.726H143.624V586.344C143.624 582.802 144.179 580.433 145.079 580.13C146.186 579.758 146.214 579.247 145.194 577.996C144.2 576.776 144.102 566.428 144.815 537.931C145.343 516.8 146.411 460.741 147.187 413.355C148.597 327.306 147.976 280.804 144.725 229.154C143.641 211.941 143.693 211.151 146.576 201.212C152.668 180.205 155.35 163.962 156.054 143.83C156.479 131.704 156.233 121.4 155.386 115.888C152.772 98.8665 144.448 74.6022 135.949 59.2329C133.766 55.2861 131.981 51.5965 131.981 51.033C131.981 50.4695 136.828 48.5217 142.75 46.7043C165.887 39.607 175.981 36.4915 184.373 33.8556C189.175 32.3467 201.225 28.6491 211.15 25.6371ZM39.4227 103.919C50.0687 97.7058 78.5987 80.9335 120.338 56.3537C124.501 53.9029 128.43 52.0506 129.07 52.2381C130.894 52.7713 137.235 65.1799 142.858 79.2139C149.112 94.8265 153.852 114.236 154.814 128.181C156.054 146.155 151.367 179.054 144.419 201.137L141.877 209.216L127.906 214.368C112.463 220.063 102.766 223.711 90.9515 228.271C86.6356 229.937 82.5409 230.951 81.8517 230.526C81.1624 230.1 79.9783 230.523 79.2204 231.466C78.4636 232.409 76.1211 233.75 74.015 234.448L70.1882 235.715L42.7665 180.168C27.6847 149.616 14.8931 123.47 14.3389 122.063C13.4925 119.914 13.9488 119.125 17.2006 117.115C19.3288 115.799 21.7353 114.724 22.5503 114.724C23.3641 114.724 24.6122 113.975 25.3236 113.06C26.0338 112.145 32.379 108.032 39.4227 103.919ZM518.566 158.322C514.799 124.535 519.373 98.6348 534.851 66.116C538.585 58.2724 542.259 51.8538 543.016 51.8538C543.774 51.8538 553.371 57.1733 564.344 63.6757C590.671 79.2767 604.909 87.685 627.197 100.792C637.346 106.761 645.916 112.338 646.241 113.185C646.566 114.031 647.873 114.724 649.147 114.724C651.61 114.724 658.225 118.909 658.225 120.468C658.225 121.262 602.635 234.722 601.864 235.502C601.215 236.161 591.862 231.862 591.862 230.904C591.862 230.323 591.287 230.203 590.584 230.638C589.881 231.072 585.821 230.062 581.561 228.391C577.301 226.722 564.124 221.749 552.278 217.341C534.253 210.634 530.493 208.832 529.231 206.291C526.833 201.461 519.898 170.272 518.566 158.322Z" fill="black"/>
<path fill-rule="evenodd" clip-rule="evenodd" d="M28.0188 122.442C27.6707 122.788 26.8022 121.98 26.0873 120.645C25.1862 118.96 25.1687 118.216 26.0291 118.216C27.4413 118.216 28.9781 121.482 28.0188 122.442ZM645.463 121.675C644.088 123.85 642.794 122.67 643.768 120.129C644.172 119.077 644.971 118.216 645.543 118.216C646.87 118.216 646.841 119.498 645.463 121.675ZM32.5955 130.671C31.7048 131.562 29.5766 128.994 29.544 126.99C29.5347 126.372 30.4125 126.753 31.4941 127.836C32.5769 128.918 33.0728 130.194 32.5955 130.671ZM641.872 128.795C640.427 131.495 638.916 130.985 639.998 128.163C640.378 127.174 641.247 126.366 641.93 126.366C642.79 126.366 642.773 127.11 641.872 128.795ZM636.473 138.767C636.153 138.447 636.25 137.058 636.686 135.68C637.123 134.303 637.743 133.438 638.063 133.758C638.384 134.078 638.287 135.467 637.85 136.845C637.414 138.222 636.793 139.087 636.473 138.767ZM631.768 146.869C631.488 146.588 631.913 145.135 632.712 143.641C633.632 141.923 634.348 141.474 634.663 142.417C635.174 143.951 632.683 147.783 631.768 146.869ZM43.6221 155.473C42.5021 155.473 41.1458 152.641 41.2064 150.429C41.2261 149.682 42.012 150.087 42.9527 151.329C44.8935 153.895 45.1485 155.473 43.6221 155.473ZM629.738 153.795C627.993 156.103 627.388 154.81 628.661 151.493C629.391 149.591 631.447 148.926 631.447 150.593C631.447 151.111 630.677 152.552 629.738 153.795ZM46.371 161.945C45.4315 160.701 44.6618 159.197 44.6618 158.6C44.6618 158.004 45.4477 158.168 46.4083 158.965C47.3688 159.763 48.1383 161.267 48.1174 162.309C48.0859 163.902 47.8077 163.844 46.371 161.945ZM624.457 162.458C623.596 162.458 623.614 161.714 624.515 160.03C625.23 158.694 626.098 157.886 626.446 158.233C627.406 159.192 625.869 162.458 624.457 162.458ZM50.4832 170.026C49.8428 169.63 49.327 168.42 49.3364 167.338C49.3527 165.641 49.511 165.61 50.4832 167.115C51.9571 169.395 51.9571 170.936 50.4832 170.026ZM620.803 170.608C620.208 170.608 620.307 169.516 621.022 168.179C621.737 166.844 622.553 165.984 622.837 166.266C623.651 167.081 622 170.608 620.803 170.608ZM54.054 178.223C53.3705 177.802 52.8279 176.57 52.8489 175.487C52.8815 173.758 53.0922 173.792 54.5825 175.762C56.3929 178.155 56.1054 179.491 54.054 178.223ZM618.586 176.529C617.104 179.299 615.882 178.904 616.99 176.014C617.394 174.961 618.212 174.101 618.805 174.101C619.4 174.101 619.301 175.193 618.586 176.529ZM58.7692 186.908C58.2033 186.908 57.4664 185.86 57.1311 184.579C56.4128 181.829 58.0647 181.419 59.0904 184.092C60.0288 186.536 59.9858 186.908 58.7692 186.908ZM612.814 186.908C611.954 186.908 611.971 186.164 612.872 184.479C613.587 183.144 614.456 182.336 614.804 182.682C615.763 183.642 614.226 186.908 612.814 186.908ZM62.9465 194.625C62.5984 194.972 61.7299 194.164 61.015 192.829C60.1139 191.144 60.0963 190.4 60.9567 190.4C62.369 190.4 63.9058 193.666 62.9465 194.625ZM610.536 193.859C609.161 196.034 607.866 194.854 608.841 192.313C609.245 191.261 610.043 190.4 610.615 190.4C611.942 190.4 611.913 191.682 610.536 193.859ZM66.9073 203.207C65.7873 203.207 64.4309 200.376 64.4914 198.164C64.5112 197.416 65.2971 197.821 66.2378 199.064C68.1787 201.63 68.4336 203.207 66.9073 203.207ZM606.944 200.979C605.499 203.679 603.988 203.169 605.071 200.347C605.45 199.358 606.319 198.55 607.002 198.55C607.863 198.55 607.845 199.294 606.944 200.979ZM601.123 211.357C600.539 211.357 600.659 210.045 601.39 208.442C602.12 206.837 602.944 205.751 603.218 206.025C604.04 206.848 602.268 211.357 601.123 211.357ZM71.0963 210.925C70.7482 211.272 69.8796 210.464 69.1648 209.129C68.2637 207.444 68.2461 206.7 69.1065 206.7C70.5187 206.7 72.0557 209.966 71.0963 210.925ZM73.8462 218.972C73.1628 218.551 72.6226 217.057 72.6447 215.654C72.6855 213.194 72.7437 213.207 74.2968 216.012C76.0199 219.126 75.8534 220.213 73.8462 218.972ZM596.841 219.053C596.56 218.772 596.985 217.319 597.785 215.825C598.705 214.107 599.42 213.658 599.735 214.601C600.246 216.135 597.756 219.967 596.841 219.053ZM77.8059 225.979C76.8663 224.735 76.1131 223.164 76.134 222.486C76.1538 221.807 76.9396 222.271 77.8804 223.513C78.8199 224.756 79.5733 226.328 79.5523 227.006C79.5325 227.684 78.7466 227.221 77.8059 225.979ZM595.264 225.498C593.703 228.416 592.537 227.539 593.586 224.235C594.011 222.896 594.846 222.103 595.442 222.471C596.094 222.874 596.023 224.08 595.264 225.498ZM152.356 580.426C150.755 580.426 149.445 579.902 149.445 579.262C149.445 578.622 150.755 578.098 152.356 578.098C153.956 578.098 155.266 578.622 155.266 579.262C155.266 579.902 153.956 580.426 152.356 580.426ZM161.087 580.426C159.807 580.426 158.759 579.902 158.759 579.262C158.759 578.622 159.807 578.098 161.087 578.098C162.368 578.098 163.416 578.622 163.416 579.262C163.416 579.902 162.368 580.426 161.087 580.426ZM169.819 580.426C168.219 580.426 166.909 579.902 166.909 579.262C166.909 578.622 168.219 578.098 169.819 578.098C171.42 578.098 172.73 578.622 172.73 579.262C172.73 579.902 171.42 580.426 169.819 580.426ZM178.551 580.426C177.271 580.426 176.223 579.902 176.223 579.262C176.223 578.622 177.271 578.098 178.551 578.098C179.832 578.098 180.88 578.622 180.88 579.262C180.88 579.902 179.832 580.426 178.551 580.426ZM187.283 580.426C185.682 580.426 184.373 579.902 184.373 579.262C184.373 578.622 185.682 578.098 187.283 578.098C188.884 578.098 190.194 578.622 190.194 579.262C190.194 579.902 188.884 580.426 187.283 580.426ZM196.015 580.426C194.734 580.426 193.687 579.902 193.687 579.262C193.687 578.622 194.734 578.098 196.015 578.098C197.296 578.098 198.344 578.622 198.344 579.262C198.344 579.902 197.296 580.426 196.015 580.426ZM204.678 580.426C202.989 580.426 202.01 579.922 202.419 579.262C202.814 578.622 204.154 578.098 205.398 578.098C206.641 578.098 207.658 578.622 207.658 579.262C207.658 579.902 206.316 580.426 204.678 580.426ZM213.479 580.426C212.198 580.426 211.15 579.902 211.15 579.262C211.15 578.622 212.198 578.098 213.479 578.098C214.76 578.098 215.807 578.622 215.807 579.262C215.807 579.902 214.76 580.426 213.479 580.426ZM222.211 580.426C220.61 580.426 219.3 579.902 219.3 579.262C219.3 578.622 220.61 578.098 222.211 578.098C223.812 578.098 225.122 578.622 225.122 579.262C225.122 579.902 223.812 580.426 222.211 580.426ZM230.943 580.426C229.662 580.426 228.614 579.902 228.614 579.262C228.614 578.622 229.662 578.098 230.943 578.098C232.223 578.098 233.271 578.622 233.271 579.262C233.271 579.902 232.223 580.426 230.943 580.426ZM239.606 580.426C237.917 580.426 236.938 579.922 237.346 579.262C237.742 578.622 239.082 578.098 240.326 578.098C241.569 578.098 242.585 578.622 242.585 579.262C242.585 579.902 241.244 580.426 239.606 580.426ZM249.057 580.426C247.419 580.426 246.078 579.902 246.078 579.262C246.078 578.622 247.094 578.098 248.338 578.098C249.581 578.098 250.921 578.622 251.317 579.262C251.726 579.922 250.747 580.426 249.057 580.426ZM257.07 580.426C255.381 580.426 254.401 579.922 254.81 579.262C255.206 578.622 256.546 578.098 257.789 578.098C259.033 578.098 260.049 578.622 260.049 579.262C260.049 579.902 258.708 580.426 257.07 580.426ZM266.521 580.426C264.883 580.426 263.542 579.902 263.542 579.262C263.542 578.622 264.558 578.098 265.802 578.098C267.045 578.098 268.385 578.622 268.781 579.262C269.19 579.922 268.211 580.426 266.521 580.426ZM275.185 580.426C273.904 580.426 272.856 579.902 272.856 579.262C272.856 578.622 273.904 578.098 275.185 578.098C276.465 578.098 277.513 578.622 277.513 579.262C277.513 579.902 276.465 580.426 275.185 580.426ZM283.985 580.426C282.347 580.426 281.006 579.902 281.006 579.262C281.006 578.622 282.022 578.098 283.266 578.098C284.509 578.098 285.849 578.622 286.245 579.262C286.654 579.922 285.674 580.426 283.985 580.426ZM291.998 580.426C290.308 580.426 289.329 579.922 289.738 579.262C290.134 578.622 291.474 578.098 292.717 578.098C293.961 578.098 294.977 578.622 294.977 579.262C294.977 579.902 293.636 580.426 291.998 580.426ZM301.449 580.426C299.811 580.426 298.47 579.902 298.47 579.262C298.47 578.622 299.486 578.098 300.729 578.098C301.973 578.098 303.313 578.622 303.709 579.262C304.117 579.922 303.138 580.426 301.449 580.426ZM310.112 580.426C308.832 580.426 307.784 579.902 307.784 579.262C307.784 578.622 308.832 578.098 310.112 578.098C311.393 578.098 312.441 578.622 312.441 579.262C312.441 579.902 311.393 580.426 310.112 580.426ZM318.913 580.426C317.275 580.426 315.934 579.902 315.934 579.262C315.934 578.622 316.95 578.098 318.193 578.098C319.437 578.098 320.777 578.622 321.173 579.262C321.581 579.922 320.602 580.426 318.913 580.426ZM327.576 580.426C326.295 580.426 325.248 579.902 325.248 579.262C325.248 578.622 326.295 578.098 327.576 578.098C328.857 578.098 329.905 578.622 329.905 579.262C329.905 579.902 328.857 580.426 327.576 580.426ZM336.308 580.426C334.572 580.426 333.57 579.924 333.979 579.262C334.375 578.622 335.423 578.098 336.308 578.098C337.193 578.098 338.241 578.622 338.637 579.262C339.046 579.924 338.044 580.426 336.308 580.426ZM345.04 580.426C343.759 580.426 342.711 579.902 342.711 579.262C342.711 578.622 343.759 578.098 345.04 578.098C346.321 578.098 347.368 578.622 347.368 579.262C347.368 579.902 346.321 580.426 345.04 580.426ZM353.772 580.426C352.171 580.426 350.861 579.902 350.861 579.262C350.861 578.622 352.171 578.098 353.772 578.098C355.373 578.098 356.682 578.622 356.682 579.262C356.682 579.902 355.373 580.426 353.772 580.426ZM362.504 580.426C361.223 580.426 360.175 579.902 360.175 579.262C360.175 578.622 361.223 578.098 362.504 578.098C363.784 578.098 364.832 578.622 364.832 579.262C364.832 579.902 363.784 580.426 362.504 580.426ZM371.167 580.426C369.478 580.426 368.499 579.922 368.907 579.262C369.303 578.622 370.643 578.098 371.887 578.098C373.13 578.098 374.146 578.622 374.146 579.262C374.146 579.902 372.805 580.426 371.167 580.426ZM379.968 580.426C378.687 580.426 377.639 579.902 377.639 579.262C377.639 578.622 378.687 578.098 379.968 578.098C381.248 578.098 382.296 578.622 382.296 579.262C382.296 579.902 381.248 580.426 379.968 580.426ZM388.7 580.426C387.099 580.426 385.789 579.902 385.789 579.262C385.789 578.622 387.099 578.098 388.7 578.098C390.3 578.098 391.61 578.622 391.61 579.262C391.61 579.902 390.3 580.426 388.7 580.426ZM397.431 580.426C396.151 580.426 395.103 579.902 395.103 579.262C395.103 578.622 396.151 578.098 397.431 578.098C398.712 578.098 399.76 578.622 399.76 579.262C399.76 579.902 398.712 580.426 397.431 580.426ZM406.095 580.426C404.405 580.426 403.426 579.922 403.835 579.262C404.231 578.622 405.571 578.098 406.814 578.098C408.058 578.098 409.074 578.622 409.074 579.262C409.074 579.902 407.733 580.426 406.095 580.426ZM414.895 580.426C413.615 580.426 412.567 579.902 412.567 579.262C412.567 578.622 413.615 578.098 414.895 578.098C416.176 578.098 417.224 578.622 417.224 579.262C417.224 579.902 416.176 580.426 414.895 580.426ZM423.558 580.426C421.869 580.426 420.89 579.922 421.299 579.262C421.694 578.622 423.035 578.098 424.278 578.098C425.521 578.098 426.538 578.622 426.538 579.262C426.538 579.902 425.197 580.426 423.558 580.426ZM433.01 580.426C431.372 580.426 430.031 579.902 430.031 579.262C430.031 578.622 431.047 578.098 432.29 578.098C433.534 578.098 434.874 578.622 435.27 579.262C435.678 579.922 434.699 580.426 433.01 580.426ZM441.022 580.426C439.333 580.426 438.354 579.922 438.763 579.262C439.158 578.622 440.498 578.098 441.742 578.098C442.985 578.098 444.002 578.622 444.002 579.262C444.002 579.902 442.66 580.426 441.022 580.426ZM450.474 580.426C448.836 580.426 447.494 579.902 447.494 579.262C447.494 578.622 448.511 578.098 449.754 578.098C450.998 578.098 452.338 578.622 452.734 579.262C453.142 579.922 452.163 580.426 450.474 580.426ZM458.486 580.426C456.797 580.426 455.818 579.922 456.226 579.262C456.622 578.622 457.962 578.098 459.206 578.098C460.449 578.098 461.466 578.622 461.466 579.262C461.466 579.902 460.124 580.426 458.486 580.426ZM467.938 580.426C466.3 580.426 464.958 579.902 464.958 579.262C464.958 578.622 465.975 578.098 467.218 578.098C468.462 578.098 469.802 578.622 470.197 579.262C470.606 579.922 469.627 580.426 467.938 580.426ZM476.601 580.426C475.32 580.426 474.272 579.902 474.272 579.262C474.272 578.622 475.32 578.098 476.601 578.098C477.882 578.098 478.929 578.622 478.929 579.262C478.929 579.902 477.882 580.426 476.601 580.426ZM485.401 580.426C483.763 580.426 482.422 579.902 482.422 579.262C482.422 578.622 483.439 578.098 484.682 578.098C485.925 578.098 487.265 578.622 487.661 579.262C488.07 579.922 487.091 580.426 485.401 580.426ZM493.414 580.426C491.725 580.426 490.745 579.922 491.154 579.262C491.55 578.622 492.89 578.098 494.133 578.098C495.377 578.098 496.393 578.622 496.393 579.262C496.393 579.902 495.052 580.426 493.414 580.426ZM502.797 580.426C501.061 580.426 500.058 579.924 500.468 579.262C500.864 578.622 501.912 578.098 502.797 578.098C503.682 578.098 504.729 578.622 505.125 579.262C505.535 579.924 504.533 580.426 502.797 580.426ZM511.529 580.426C510.248 580.426 509.2 579.902 509.2 579.262C509.2 578.622 510.248 578.098 511.529 578.098C512.809 578.098 513.857 578.622 513.857 579.262C513.857 579.902 512.809 580.426 511.529 580.426ZM520.329 580.426C518.691 580.426 517.35 579.902 517.35 579.262C517.35 578.622 518.366 578.098 519.61 578.098C520.853 578.098 522.193 578.622 522.589 579.262C522.998 579.922 522.018 580.426 520.329 580.426Z" fill="black"/>
<path d="M34.2371 136.945C34.952 138.28 35.768 139.14 36.0521 138.858C36.8659 138.043 35.215 134.516 34.0182 134.516C33.4233 134.516 33.5223 135.608 34.2371 136.945Z" fill="black"/>
<path d="M37.3433 143.849C37.9988 146.355 40.0048 148.221 40.0048 146.323C40.0048 144.337 38.6263 141.502 37.6611 141.502C37.1489 141.502 37.0057 142.558 37.3433 143.849Z" fill="black"/>
<path d="M227.185 90.3413L227.779 91.0842C227.086 93.5608 225.55 95.6907 223.173 97.4738C220.795 99.1579 218.368 100.049 215.892 100.149C215.693 100.248 215.149 100.297 214.257 100.297C210.096 100.297 206.976 99.2074 204.896 97.028L204.747 97.3252L204.45 97.4738C204.153 97.771 203.657 97.9691 202.964 98.0682H203.112L202.964 98.2168V115.008L203.112 115.157C209.353 115.157 212.821 114.958 213.514 114.562C213.811 114.562 214.257 114.562 214.851 114.562C215.545 114.463 216.288 114.315 217.08 114.116V115.454L216.932 115.602V116.048L216.783 116.345V117.088C216.486 119.07 216.337 121.051 216.337 123.032V123.775L216.486 124.072V125.558L217.378 126.598H215.446L215.297 126.45C214.505 126.45 212.623 126.153 209.651 125.558H209.056C208.858 125.558 208.66 125.509 208.462 125.41C208.462 125.311 208.412 125.261 208.313 125.261H205.341C204.549 125.261 203.756 125.162 202.964 124.964V161.815C203.558 162.112 204.351 162.261 205.341 162.261C206.134 162.756 206.926 163.004 207.719 163.004C207.917 163.202 208.363 163.499 209.056 163.896C209.75 164.292 210.592 164.837 211.582 165.53L214.851 162.112L217.972 165.084L202.072 180.39C195.336 174.545 189.194 171.622 183.647 171.622H183.349L183.052 171.771C182.557 171.771 182.012 171.821 181.418 171.92C180.922 172.019 180.378 172.167 179.783 172.365C180.972 167.709 183.548 164.49 187.51 162.707V124.667C186.618 124.964 184.835 125.112 182.161 125.112L181.863 125.261H180.823C180.823 123.676 180.873 122.636 180.972 122.14V118.277L180.823 117.831V116.94L180.675 116.642V113.968C181.368 114.265 182.408 114.414 183.795 114.414C183.894 114.513 184.588 114.562 185.876 114.562C185.975 114.661 186.47 114.711 187.361 114.711H187.51L187.361 99.8513V99.9999C187.262 99.8018 187.163 99.5046 187.064 99.1083C186.965 98.7121 186.817 98.2663 186.618 97.771L186.47 97.4738V95.9879C186.965 96.186 187.461 96.285 187.956 96.285H189.442C197.664 96.285 205.639 91.6291 213.366 82.3172C213.564 82.5153 213.861 82.862 214.257 83.3573C214.752 83.7536 215.396 84.447 216.189 85.4376C219.359 88.8058 222.628 90.4899 225.996 90.4899H225.699L225.996 90.3413H227.185ZM226.782 168.205L226.931 168.353C226.732 168.651 226.584 168.799 226.485 168.799C226.485 168.7 226.584 168.502 226.782 168.205ZM276.264 161.964C277.354 165.233 279.236 167.066 281.911 167.462L287.409 168.205L274.184 183.213L262.89 172.663L252.935 183.213C243.821 174.297 235.153 169.344 226.931 168.353L227.376 167.61C227.674 167.313 227.971 166.967 228.268 166.57L229.902 164.193V124.964C228.417 122.983 227.674 121.447 227.674 120.357V120.06C235.896 117.485 243.87 113.918 251.597 109.361C259.72 112.234 267.943 115.008 276.264 117.683V161.964ZM258.878 166.273V125.707C250.755 122.14 246.396 120.357 245.802 120.357V120.506L246.396 120.952V158.695C251.251 161.072 255.411 163.598 258.878 166.273ZM308.284 177.269C303.132 172.415 298.13 169.988 293.276 169.988C290.997 169.988 289.313 170.83 288.223 172.514V170.434C288.223 170.137 288.62 168.997 289.412 167.016C290.799 164.044 292.681 161.914 295.059 160.626V124.667H292.533C291.839 125.063 291.047 125.36 290.155 125.558C290.056 125.657 289.61 125.806 288.818 126.004L288.669 126.301H288.372L286.738 127.193V126.153C286.738 125.756 286.787 125.459 286.886 125.261V124.815L287.035 124.518C287.035 124.122 287.084 123.825 287.183 123.626V122.586C287.183 122.289 287.183 121.992 287.183 121.695C287.282 121.398 287.381 121.051 287.481 120.655V119.763L287.332 119.317V117.98C286.936 116.89 286.738 115.107 286.738 112.63C288.025 113.324 289.066 113.819 289.858 114.116C290.75 114.414 291.443 114.612 291.938 114.711C292.136 114.612 292.78 114.562 293.87 114.562H295.059V107.875L294.91 107.578V105.944C294.811 105.845 294.712 105.696 294.613 105.498C294.514 105.3 294.415 105.102 294.316 104.904C294.316 104.606 294.266 104.359 294.167 104.161V104.012C293.969 103.814 293.87 103.418 293.87 102.823L294.91 102.526L295.059 102.823H295.802V102.972C301.349 102.972 306.6 99.9008 311.553 93.7589V95.6907L311.404 95.8393C311.305 96.0374 311.206 96.3346 311.107 96.7308C311.107 97.1271 311.008 97.6224 310.81 98.2168V98.3654C310.81 98.6626 310.76 98.9102 310.661 99.1083C310.265 100.693 310.067 101.882 310.067 102.675V114.562H314.673L314.971 114.711C316.556 114.711 318.289 114.017 320.171 112.63V114.265C320.072 114.463 320.023 114.76 320.023 115.157C319.726 115.652 319.577 116.89 319.577 118.871H319.726C319.726 120.952 319.973 123.726 320.469 127.193L318.834 126.301L318.685 126.153H318.537C317.447 125.756 316.209 125.459 314.822 125.261C313.435 124.964 311.85 124.766 310.067 124.667V158.843C310.76 159.537 311.553 159.884 312.444 159.884L312.89 160.032C313.187 160.131 313.386 160.23 313.485 160.329C313.782 160.626 314.079 160.775 314.376 160.775C314.475 160.874 314.574 160.973 314.673 161.072C314.871 161.072 315.02 161.122 315.119 161.221H314.971C315.268 161.419 315.614 161.716 316.011 162.112C316.506 162.41 317.051 162.707 317.645 163.004L319.131 161.518L322.103 164.936L308.284 177.269ZM384.786 118.723C384.786 119.02 384.736 119.416 384.637 119.912C383.547 123.676 381.814 126.252 379.436 127.638L379.585 166.273V166.124C380.377 168.403 381.467 170.434 382.854 172.217V172.068L383.151 172.365V172.514L383.448 172.811L382.705 173.851C380.823 172.861 378.247 172.365 374.978 172.365C369.827 172.365 367.103 173.207 366.806 174.892L367.846 175.932H366.954C367.152 176.229 367.499 176.625 367.994 177.12C368.589 177.616 369.282 178.21 370.075 178.904C374.929 182.866 377.356 186.878 377.356 190.94C377.356 194.704 375.573 197.676 372.006 199.855C370.62 200.747 369.629 201.193 369.035 201.193L368.737 201.341H367.846L367.697 201.49H367.103C364.131 201.49 362.051 200.054 360.862 197.181C364.032 195.992 365.617 194.308 365.617 192.129C365.617 190.345 365.072 188.81 363.982 187.522C363.685 187.423 363.487 186.928 363.388 186.036L363.537 186.185C361.654 183.411 360.713 180.39 360.713 177.12C360.713 174.842 361.308 173.356 362.496 172.663V172.514C363.586 171.424 364.131 170.236 364.131 168.948V130.462C363.14 130.462 361.753 129.867 359.97 128.679C357.989 127.391 356.8 126.549 356.404 126.153L356.255 126.004L349.717 130.908V161.667C350.114 161.766 350.559 161.914 351.055 162.112C351.55 162.311 352.144 162.509 352.838 162.707C354.423 163.499 355.76 164.341 356.85 165.233C358.039 166.124 359.029 167.066 359.822 168.056L346.151 180.538C340.603 175.189 335.551 172.514 330.994 172.514H330.251C330.053 172.514 329.756 172.564 329.36 172.663C328.964 172.762 328.369 173.009 327.577 173.406C327.081 173.604 326.537 173.752 325.942 173.851C325.348 173.95 324.952 174 324.753 174C326.14 168.552 329.261 164.787 334.115 162.707V100.446C334.115 98.5635 333.174 95.5916 331.292 91.53C334.164 91.53 337.037 90.9356 339.91 89.7469C342.783 88.5581 345.804 86.8245 348.974 84.5461C349.172 84.447 350.262 83.5554 352.243 81.8714L352.095 82.02L353.284 82.1686C353.085 82.7629 352.838 83.4068 352.541 84.1003C352.342 84.7937 352.194 85.289 352.095 85.5862L351.649 86.4778C351.253 87.2703 350.856 88.7563 350.46 90.9356C350.361 91.0347 350.312 91.1338 350.312 91.2328V91.3814C350.114 92.4711 349.965 93.3627 349.866 94.0561C349.767 94.7496 349.717 95.2449 349.717 95.5421V123.478L368.44 109.213C371.115 114.661 373.938 117.385 376.91 117.385C377.009 117.485 377.306 117.534 377.802 117.534C379.089 117.534 381.566 116.395 385.231 114.116V116.197C385.231 116.494 385.182 116.742 385.083 116.94C385.083 117.138 385.033 117.385 384.934 117.683C384.835 117.98 384.786 118.327 384.786 118.723ZM435.127 135.514C433.938 136.108 431.56 137.446 427.994 139.526C424.527 141.507 419.772 144.281 413.729 147.847C412.837 148.343 411.847 148.987 410.757 149.779V160.924C413.828 161.419 416.651 162.063 419.227 162.855C421.902 163.648 424.378 164.589 426.657 165.679L430.223 161.964L433.938 165.382L420.416 180.241L418.93 179.498C416.849 178.408 414.819 177.368 412.837 176.378C410.856 175.486 408.578 174.793 406.002 174.297C401.643 173.406 397.879 172.96 394.709 172.96C393.52 172.96 392.331 173.059 391.143 173.257C389.954 173.356 388.765 173.505 387.576 173.703C387.774 173.207 387.973 172.811 388.171 172.514C388.369 172.118 388.567 171.821 388.765 171.622V171.771C389.459 170.681 390.003 169.79 390.4 169.096C390.895 168.403 391.192 168.007 391.291 167.908C391.985 167.016 393.322 165.827 395.303 164.341V128.381C395.303 126.896 394.511 124.419 392.926 120.952V118.871L394.263 120.209H395.155L395.303 120.357H395.749L396.195 120.506H396.789C404.615 120.506 413.432 117.237 423.239 110.699C423.734 112.482 424.378 114.414 425.171 116.494C425.963 118.574 427.053 120.902 428.44 123.478C429.728 125.756 430.916 127.886 432.006 129.867C433.195 131.75 434.285 133.384 435.275 134.771L435.127 135.514ZM411.946 123.775L410.757 124.072V143.092L418.781 137.892C418.385 137.297 417.89 136.554 417.295 135.663C416.8 134.672 416.206 133.434 415.512 131.948C414.819 130.66 414.175 129.323 413.58 127.936C412.986 126.549 412.441 125.162 411.946 123.775ZM451.902 109.807C458.043 113.472 461.61 116.098 462.6 117.683H463.046C463.442 117.683 464.037 117.534 464.829 117.237C467.306 116.345 470.971 114.265 475.825 110.996L477.906 109.51C482.958 114.166 487.614 117.088 491.874 118.277C491.576 120.357 490.388 122.19 488.307 123.775C486.425 125.261 483.998 126.153 481.026 126.45C480.333 126.549 479.689 126.598 479.094 126.598C475.825 126.598 472.061 126.004 467.801 124.815C466.91 124.617 466.117 124.518 465.424 124.518C463.74 124.518 462.898 125.112 462.898 126.301V167.016H469.287C462.749 170.88 458.291 174.545 455.914 178.012C454.13 180.687 453.09 182.024 452.793 182.024V181.727L452.645 181.578C452.545 181.281 452.446 180.984 452.347 180.687C451.951 179.795 451.357 178.805 450.564 177.715C448.187 174.446 444.373 171.276 439.122 168.205L438.974 167.313H444.769V128.679C443.085 123.825 440.608 121.298 437.339 121.1L451.902 109.807Z" fill="#C5E3FE"/>
<path d="M303.249 223.327C300.673 231.252 295.225 239.475 286.904 247.994L300.872 247.697C300.872 247.796 300.822 247.994 300.723 248.291C300.723 248.588 300.723 248.787 300.723 248.886C300.624 249.084 300.574 249.331 300.574 249.629L300.426 249.777V250.074L300.129 250.372V250.669L299.98 250.966C299.98 251.164 299.93 251.313 299.831 251.412C299.831 251.511 299.831 251.61 299.831 251.709V251.56C299.732 251.858 299.633 252.204 299.534 252.6L299.386 253.195V278.456C299.386 278.654 299.435 278.803 299.534 278.902V279.347L299.683 279.645V279.496C299.782 279.595 299.831 279.694 299.831 279.793L299.98 280.536L299.831 280.239L299.683 280.09C299.683 280.19 299.782 280.388 299.98 280.685C300.277 281.18 300.574 281.675 300.872 282.171L301.466 283.36C300.376 283.36 299.732 283.31 299.534 283.211H299.683C299.584 283.112 299.435 283.062 299.237 283.062C298.048 283.062 297.058 283.062 296.265 283.062C295.473 282.963 294.829 282.765 294.333 282.468C292.847 282.468 291.956 282.418 291.659 282.319H290.767C283.238 282.319 277.047 284.895 272.193 290.046L267.884 285.737C267.091 285.044 266.348 284.499 265.655 284.103C264.961 283.805 264.169 283.657 263.277 283.657C262.683 283.36 261.841 283.211 260.751 283.211C256.194 283.211 253.024 285.39 251.241 289.749H246.932C247.724 286.282 249.111 282.765 251.092 279.199C253.074 275.534 255.748 271.621 259.116 267.46L259.711 266.866C260.008 266.568 260.355 266.172 260.751 265.677C261.246 265.181 261.791 264.637 262.386 264.042L252.578 263.596L253.618 262.556L253.47 263.002C254.361 261.813 254.807 260.575 254.807 259.287L254.956 258.99L254.807 233.135C254.807 233.036 254.758 232.986 254.659 232.986C254.659 232.887 254.659 232.788 254.659 232.689V232.837C254.56 232.738 254.51 232.491 254.51 232.094L254.064 231.054V230.906C253.866 230.708 253.767 230.41 253.767 230.014V228.677C254.758 229.568 255.798 230.014 256.888 230.014C257.581 230.41 259.315 230.608 262.088 230.608C262.187 230.708 262.683 230.757 263.574 230.757C268.131 230.757 272.54 229.618 276.799 227.339C277.195 227.141 279.177 225.259 282.743 221.693C285.913 225.358 288.885 227.191 291.659 227.191C294.532 227.191 296.86 225.754 298.643 222.882L302.655 222.584L303.249 223.327ZM284.08 277.267V258.544L283.783 258.247H276.205L268.478 265.974C267.785 266.667 266.992 267.559 266.1 268.649C265.209 269.639 264.119 270.779 262.831 272.066C264.02 271.868 265.06 271.72 265.952 271.621C266.843 271.422 267.537 271.323 268.032 271.323C273.183 271.323 277.592 273.602 281.257 278.159L281.851 277.862L282.297 277.713C282.495 277.713 282.842 277.614 283.337 277.416H283.932L284.08 277.267ZM288.984 237.89C287.3 238.583 285.517 238.93 283.635 238.93C280.762 238.93 277.493 237.493 273.827 234.621C273.53 234.72 273.332 234.819 273.233 234.918H272.639C272.044 235.215 271.499 235.364 271.004 235.364V254.086H272.639C273.431 253.591 274.521 252.65 275.908 251.263C277.394 249.876 279.276 248.044 281.554 245.765C284.922 242.199 287.399 239.574 288.984 237.89ZM358.142 272.958C358.736 275.831 359.876 277.663 361.56 278.456C350.861 280.041 342.292 284.35 335.853 291.384C330.107 285.44 320.102 281.725 305.837 280.239C305.44 280.239 305.242 280.09 305.242 279.793C305.242 279.199 305.837 278.159 307.025 276.673C308.71 274.394 309.948 272.859 310.74 272.066V234.472C309.155 232.491 308.363 230.906 308.363 229.717V229.568C318.665 228.974 326.987 226.002 333.327 220.653C344.719 226.299 353.932 229.469 360.965 230.163C359.083 232.342 358.142 233.878 358.142 234.769V272.958ZM340.756 236.849C332.732 233.481 328.225 231.797 327.234 231.797C327.036 231.797 326.937 231.847 326.937 231.946V271.026C328.522 272.71 333.129 274.345 340.756 275.93V236.849ZM420.178 230.311C420.475 230.41 420.624 230.708 420.624 231.203C420.624 231.995 420.029 233.481 418.841 235.661V278.753H424.636C423.645 278.753 419.138 283.36 411.114 292.572C410.717 290.888 406.26 285.985 397.74 277.862H401.158V236.552L395.363 231.649L387.784 237.444V278.159H394.174C387.636 282.022 383.227 285.688 380.949 289.155C379.166 291.73 378.175 293.018 377.977 293.018C377.878 293.018 377.828 292.969 377.828 292.87L377.977 292.572C377.085 288.61 372.479 284.202 364.158 279.347L363.861 278.456H369.656V239.821C368.269 234.373 365.941 231.55 362.672 231.351L375.748 221.544C382.088 225.21 385.753 227.835 386.744 229.42C389.023 229.222 394.124 226.497 402.049 221.247L403.981 219.761C410.717 225.11 416.116 228.627 420.178 230.311Z" fill="#C5E3FE"/>
<path d="M286.964 342.753C286.964 343.05 286.914 343.446 286.815 343.942C285.726 347.706 283.992 350.282 281.615 351.669L281.763 390.303V390.155C282.556 392.433 283.645 394.464 285.032 396.247V396.098L285.329 396.395V396.544L285.627 396.841L284.884 397.881C283.001 396.891 280.426 396.395 277.157 396.395C272.005 396.395 269.281 397.238 268.984 398.922L270.024 399.962H269.133C269.331 400.259 269.677 400.655 270.173 401.151C270.767 401.646 271.461 402.24 272.253 402.934C277.107 406.896 279.534 410.908 279.534 414.97C279.534 418.734 277.751 421.706 274.185 423.885C272.798 424.777 271.807 425.223 271.213 425.223L270.916 425.371H270.024L269.876 425.52H269.281C266.309 425.52 264.229 424.084 263.04 421.211C266.21 420.022 267.795 418.338 267.795 416.159C267.795 414.375 267.25 412.84 266.161 411.552C265.864 411.453 265.665 410.958 265.566 410.066L265.715 410.215C263.833 407.441 262.892 404.42 262.892 401.151C262.892 398.872 263.486 397.386 264.675 396.693V396.544C265.764 395.454 266.309 394.266 266.309 392.978V354.492C265.319 354.492 263.932 353.897 262.149 352.709C260.167 351.421 258.979 350.579 258.582 350.183L258.434 350.034L251.896 354.938V385.697C252.292 385.796 252.738 385.944 253.233 386.142C253.728 386.341 254.323 386.539 255.016 386.737C256.601 387.529 257.938 388.371 259.028 389.263C260.217 390.155 261.208 391.096 262 392.086L248.329 404.568C242.782 399.219 237.73 396.544 233.173 396.544H232.43C232.232 396.544 231.934 396.594 231.538 396.693C231.142 396.792 230.548 397.039 229.755 397.436C229.26 397.634 228.715 397.782 228.12 397.881C227.526 397.98 227.13 398.03 226.932 398.03C228.319 392.582 231.439 388.817 236.293 386.737V324.476C236.293 322.594 235.352 319.622 233.47 315.56C236.343 315.56 239.216 314.966 242.088 313.777C244.961 312.588 247.983 310.855 251.153 308.576C251.351 308.477 252.44 307.585 254.422 305.901L254.273 306.05L255.462 306.199C255.264 306.793 255.016 307.437 254.719 308.13C254.521 308.824 254.372 309.319 254.273 309.616L253.827 310.508C253.431 311.3 253.035 312.786 252.639 314.966C252.54 315.065 252.49 315.164 252.49 315.263V315.411C252.292 316.501 252.143 317.393 252.044 318.086C251.945 318.78 251.896 319.275 251.896 319.572V347.508L270.619 333.243C273.293 338.691 276.117 341.416 279.088 341.416C279.187 341.515 279.485 341.564 279.98 341.564C281.268 341.564 283.744 340.425 287.41 338.146V340.227C287.41 340.524 287.36 340.772 287.261 340.97C287.261 341.168 287.212 341.415 287.113 341.713C287.013 342.01 286.964 342.357 286.964 342.753ZM342.06 387.331C342.654 390.204 343.794 392.037 345.478 392.829C334.779 394.414 326.21 398.723 319.771 405.757C314.025 399.813 304.02 396.098 289.755 394.612C289.358 394.612 289.16 394.464 289.16 394.167C289.16 393.572 289.755 392.532 290.943 391.046C292.628 388.768 293.866 387.232 294.658 386.44V348.845C293.073 346.864 292.281 345.279 292.281 344.09V343.942C302.583 343.347 310.905 340.375 317.245 335.026C328.637 340.673 337.85 343.843 344.883 344.536C343.001 346.715 342.06 348.251 342.06 349.142V387.331ZM324.674 351.223C316.65 347.855 312.143 346.171 311.152 346.171C310.954 346.171 310.855 346.22 310.855 346.319V385.399C312.44 387.084 317.047 388.718 324.674 390.303V351.223ZM367.244 404.271C362.093 399.813 356.001 396.742 348.967 395.058C351.246 391.393 353.623 388.916 356.1 387.628V327.002L355.208 322.395C355.208 322.296 355.159 322.247 355.06 322.247C355.06 322.148 355.06 322.049 355.06 321.95V322.098C354.961 321.9 354.911 321.553 354.911 321.058L354.614 320.612L354.465 320.464C354.465 320.166 354.416 319.919 354.317 319.721L354.168 319.424V317.492C354.763 317.789 355.208 317.987 355.505 318.086C355.803 318.086 356.1 318.086 356.397 318.086C359.864 318.086 365.313 315.114 372.742 309.17L373.485 309.765C373.089 310.557 372.742 311.498 372.445 312.588C372.148 313.678 371.801 314.916 371.405 316.303C370.712 319.077 370.365 321.207 370.365 322.693V386.142C371.554 386.737 373.139 387.777 375.12 389.263L374.971 389.114H375.12L375.417 389.263C375.912 389.758 376.21 390.105 376.309 390.303L376.755 390.749L378.983 388.669L381.955 392.532L367.244 404.271ZM445.444 343.793V344.536L445.295 344.685C445.295 345.378 445.047 346.171 444.552 347.062C444.156 347.855 443.66 348.647 443.066 349.44C442.472 350.232 441.778 350.975 440.986 351.669C440.193 352.263 439.45 352.709 438.757 353.006V392.681C438.757 397.832 434.448 401.398 425.829 403.379C424.64 403.578 423.501 403.726 422.411 403.825C421.421 404.023 420.529 404.122 419.737 404.122H418.845C418.746 404.122 418.3 404.172 417.508 404.271C407.007 405.064 401.757 407.441 401.757 411.404C401.757 412.889 402.698 413.632 404.58 413.632C405.472 413.632 408.493 412.196 413.644 409.323C418.597 406.549 423.055 405.163 427.018 405.163C430.485 405.163 433.457 406.252 435.933 408.432C438.41 410.611 439.648 413.335 439.648 416.604C439.648 419.477 438.559 421.855 436.379 423.737C434.299 425.619 431.723 426.56 428.652 426.56C425.879 426.56 424.095 426.164 423.303 425.371V420.319C424.888 421.211 426.423 421.657 427.909 421.657H428.058L428.355 421.508H428.801C429.395 421.508 430.089 421.26 430.881 420.765C431.674 420.27 432.07 419.725 432.07 419.13C432.07 418.14 431.426 417.645 430.138 417.645L429.841 417.496H429.692C427.414 417.496 424.343 418.685 420.48 421.062C418.201 422.548 416.22 423.687 414.536 424.48C412.951 425.272 411.713 425.768 410.821 425.966C410.326 426.065 409.731 426.114 409.038 426.114C408.344 426.213 407.453 426.263 406.363 426.263C404.679 426.263 403.045 425.916 401.46 425.223C399.875 424.628 398.488 423.786 397.299 422.697C396.11 421.607 395.119 420.319 394.327 418.833C393.634 417.446 393.287 415.911 393.287 414.227V413.484H393.435C393.634 408.432 396.16 404.717 401.014 402.339C399.032 401.448 397.249 400.209 395.664 398.624C393.287 396.445 392.098 394.216 392.098 391.938V353.154C392.098 350.876 389.721 349.489 384.966 348.994V347.954L400.865 335.472C401.559 335.868 402.302 336.413 403.094 337.106C403.887 337.8 404.63 338.592 405.323 339.484C407.007 341.762 407.849 343.446 407.849 344.536L407.998 344.833V345.725L408.146 345.873V351.669L430.435 336.66C433.506 340.821 436.875 342.901 440.54 342.901H440.837L440.986 342.753C442.67 342.753 444.205 342.208 445.592 341.118V343.496L445.444 343.793ZM422.411 395.058V354.492C422.015 354.393 421.619 354.244 421.223 354.046C420.826 353.848 420.381 353.65 419.885 353.452L417.359 352.263L408.295 358.504V394.167C408.295 396.148 410.028 397.485 413.496 398.179H414.09C414.189 398.179 414.288 398.179 414.387 398.179C414.486 398.278 414.635 398.327 414.833 398.327C414.932 398.327 414.982 398.327 414.982 398.327C415.081 398.426 415.18 398.476 415.279 398.476H416.17L416.468 398.327C417.854 398.327 419.192 398.08 420.48 397.584C421.767 396.99 422.411 396.148 422.411 395.058Z" fill="#C5E3FE"/>
<path d="M246.249 462.671C243.673 470.596 238.225 478.818 229.904 487.337L243.872 487.04C243.872 487.139 243.822 487.337 243.723 487.634C243.723 487.932 243.723 488.13 243.723 488.229C243.624 488.427 243.574 488.675 243.574 488.972L243.426 489.12V489.418L243.129 489.715V490.012L242.98 490.309C242.98 490.507 242.93 490.656 242.831 490.755C242.831 490.854 242.831 490.953 242.831 491.052V490.904C242.732 491.201 242.633 491.547 242.534 491.944L242.386 492.538V517.799C242.386 517.997 242.435 518.146 242.534 518.245V518.691L242.683 518.988V518.839C242.782 518.938 242.831 519.037 242.831 519.137L242.98 519.88L242.831 519.582L242.683 519.434C242.683 519.533 242.782 519.731 242.98 520.028C243.277 520.523 243.574 521.019 243.872 521.514L244.466 522.703C243.376 522.703 242.732 522.653 242.534 522.554H242.683C242.584 522.455 242.435 522.406 242.237 522.406C241.048 522.406 240.058 522.406 239.265 522.406C238.473 522.307 237.829 522.108 237.333 521.811C235.847 521.811 234.956 521.762 234.659 521.663H233.767C226.238 521.663 220.047 524.238 215.193 529.39L210.884 525.08C210.091 524.387 209.348 523.842 208.655 523.446C207.961 523.149 207.169 523 206.277 523C205.683 522.703 204.841 522.554 203.751 522.554C199.194 522.554 196.024 524.734 194.241 529.092H189.932C190.724 525.625 192.111 522.108 194.092 518.542C196.074 514.877 198.748 510.964 202.116 506.803L202.711 506.209C203.008 505.912 203.355 505.515 203.751 505.02C204.246 504.525 204.791 503.98 205.386 503.386L195.578 502.94L196.618 501.9L196.47 502.345C197.361 501.157 197.807 499.918 197.807 498.63L197.956 498.333L197.807 472.478C197.807 472.379 197.758 472.329 197.659 472.329C197.659 472.23 197.659 472.131 197.659 472.032V472.181C197.56 472.082 197.51 471.834 197.51 471.438L197.064 470.398V470.249C196.866 470.051 196.767 469.754 196.767 469.357V468.02C197.758 468.912 198.798 469.357 199.888 469.357C200.581 469.754 202.315 469.952 205.088 469.952C205.187 470.051 205.683 470.1 206.574 470.1C211.131 470.1 215.54 468.961 219.799 466.683C220.195 466.485 222.177 464.602 225.743 461.036C228.913 464.701 231.885 466.534 234.659 466.534C237.532 466.534 239.86 465.098 241.643 462.225L245.655 461.928L246.249 462.671ZM227.08 516.61V497.888L226.783 497.59H219.205L211.478 505.317C210.785 506.011 209.992 506.902 209.1 507.992C208.209 508.983 207.119 510.122 205.831 511.41C207.02 511.211 208.06 511.063 208.952 510.964C209.843 510.766 210.537 510.667 211.032 510.667C216.183 510.667 220.592 512.945 224.257 517.502L224.851 517.205L225.297 517.056C225.495 517.056 225.842 516.957 226.337 516.759H226.932L227.08 516.61ZM231.984 477.233C230.3 477.926 228.517 478.273 226.635 478.273C223.762 478.273 220.493 476.837 216.827 473.964C216.53 474.063 216.332 474.162 216.233 474.261H215.639C215.044 474.558 214.499 474.707 214.004 474.707V493.43H215.639C216.431 492.934 217.521 491.993 218.908 490.606C220.394 489.22 222.276 487.387 224.554 485.108C227.922 481.542 230.399 478.917 231.984 477.233ZM306.194 477.381V515.57C306.194 516.165 306.343 516.66 306.64 517.056C306.64 517.552 307.135 518.493 308.126 519.88L308.572 520.771C307.68 520.771 306.888 520.771 306.194 520.771C305.501 520.672 304.906 520.474 304.411 520.177H303.668C296.04 520.177 288.264 523.198 280.339 529.241L279.744 528.795L279.596 528.498L279.744 528.647C279.15 527.953 278.457 527.21 277.664 526.418C276.971 525.724 276.129 524.981 275.138 524.189V536.076C275.138 538.85 276.129 541.723 278.11 544.695C277.515 544.497 276.872 544.348 276.178 544.249C275.485 544.15 274.89 544.1 274.395 544.1C271.423 544.1 267.262 545.388 261.913 547.964V547.815C261.319 548.212 260.477 548.707 259.387 549.301C258.396 549.896 257.406 550.44 256.415 550.936L255.821 550.193C257.406 548.013 258.297 546.082 258.495 544.398C258.594 544.199 258.644 544.051 258.644 543.952C258.644 543.853 258.693 543.556 258.793 543.06V542.466L258.941 542.169V520.325H258.347C257.851 520.523 257.307 520.722 256.712 520.92C256.217 521.019 255.623 521.167 254.929 521.365H255.078L252.997 522.406C252.898 522.406 252.502 522.554 251.809 522.851C251.61 522.95 251.264 523.149 250.768 523.446C250.273 523.743 249.877 523.991 249.58 524.189C249.58 521.415 250.471 518.592 252.254 515.719C254.038 512.846 256.266 510.815 258.941 509.626V480.056C258.941 478.768 258.248 477.728 256.861 476.936C255.573 476.143 254.137 475.747 252.552 475.747L252.403 475.896H251.214L251.066 476.044H249.58V474.855L265.479 458.064C269.64 460.045 272.364 462.621 273.652 465.791C274.147 466.98 274.494 468.466 274.692 470.249C274.989 471.933 275.138 473.964 275.138 476.341L297.279 458.659C297.774 459.451 298.368 460.343 299.062 461.333C299.854 462.324 300.795 463.414 301.885 464.602C304.064 466.98 305.947 468.169 307.532 468.169C307.631 468.268 308.027 468.317 308.72 468.317C309.117 468.317 309.364 468.268 309.463 468.169C310.355 468.169 310.999 467.97 311.395 467.574H311.692L311.989 467.277H313.03V468.466C313.03 470.15 312.287 471.933 310.801 473.815C309.414 475.697 307.878 476.886 306.194 477.381ZM288.957 517.205L289.997 516.759V477.53C288.313 477.53 286.58 476.638 284.797 474.855L275.138 482.582L275.584 508.141C276.277 508.24 277.763 508.784 280.042 509.775C283.905 511.756 286.877 514.233 288.957 517.205ZM337.286 529.092C335.701 528.993 334.116 528.647 332.531 528.052C330.946 527.557 329.46 526.715 328.074 525.526C325.102 523.149 323.616 520.424 323.616 517.353V479.908C322.13 479.809 320.991 478.917 320.198 477.233L318.118 478.422L316.037 475.45L316.483 474.707L316.632 474.855L316.929 474.558L317.226 474.41C318.217 473.518 319.307 472.527 320.495 471.438C321.684 470.249 323.269 468.813 325.25 467.128C326.34 466.435 327.677 465.345 329.262 463.859L329.857 463.414C330.154 463.116 330.451 462.819 330.748 462.522V460.739C334.81 466.485 338.376 469.357 341.447 469.357C342.141 469.357 343.726 468.664 346.202 467.277V469.06C346.004 469.655 345.905 470.348 345.905 471.14C345.112 473.419 344.072 475.301 342.784 476.787C341.497 478.174 340.159 479.165 338.772 479.759V511.41C338.772 512.004 339.02 512.797 339.515 513.787C340.407 515.669 342.438 516.61 345.608 516.61C346.697 516.61 347.985 516.313 349.471 515.719L350.066 516.759L337.286 529.092ZM333.274 459.402H332.086V459.253H330.6L330.303 459.104C326.538 459.104 324.21 457.569 323.319 454.498L320.941 455.687L319.009 452.418C319.802 451.625 320.644 451.031 321.535 450.634C322.427 450.139 323.269 449.693 324.062 449.297L323.764 449.594C324.062 449.396 324.458 449.099 324.953 448.703C325.547 448.207 326.092 447.762 326.588 447.365C327.281 446.87 328.074 446.276 328.965 445.582C329.956 444.889 330.996 444.146 332.086 443.353C334.661 447.118 337.336 449 340.11 449C340.605 448.802 341.001 448.703 341.299 448.703C341.695 448.604 342.141 448.455 342.636 448.257H342.487L342.784 447.96H342.933L343.082 447.811H343.23L343.379 447.663H344.419V449C344.419 450.387 344.072 451.724 343.379 453.012C342.784 454.201 341.942 455.29 340.853 456.281C339.862 457.173 338.673 457.916 337.286 458.51C335.999 459.104 334.661 459.402 333.274 459.402ZM366.418 458.807C372.56 462.472 376.126 465.098 377.117 466.683H377.563C377.959 466.683 378.553 466.534 379.346 466.237C381.822 465.345 385.488 463.265 390.342 459.996L392.422 458.51C397.474 463.166 402.13 466.088 406.39 467.277C406.093 469.357 404.904 471.19 402.824 472.775C400.941 474.261 398.514 475.153 395.542 475.45C394.849 475.549 394.205 475.598 393.611 475.598C390.342 475.598 386.577 475.004 382.318 473.815C381.426 473.617 380.633 473.518 379.94 473.518C378.256 473.518 377.414 474.112 377.414 475.301V516.016H383.804C377.265 519.88 372.808 523.545 370.43 527.012C368.647 529.687 367.607 531.024 367.31 531.024V530.727L367.161 530.578C367.062 530.281 366.963 529.984 366.864 529.687C366.467 528.795 365.873 527.805 365.081 526.715C362.703 523.446 358.889 520.276 353.639 517.205L353.49 516.313H359.285V477.679C357.601 472.825 355.125 470.298 351.856 470.1L366.418 458.807ZM431.319 529.092C429.734 528.993 428.149 528.647 426.564 528.052C424.979 527.557 423.493 526.715 422.106 525.526C419.134 523.149 417.648 520.424 417.648 517.353V479.908C416.162 479.809 415.023 478.917 414.231 477.233L412.15 478.422L410.07 475.45L410.516 474.707L410.664 474.855L410.962 474.558L411.259 474.41C412.249 473.518 413.339 472.527 414.528 471.438C415.717 470.249 417.302 468.813 419.283 467.128C420.372 466.435 421.71 465.345 423.295 463.859L423.889 463.414C424.186 463.116 424.484 462.819 424.781 462.522V460.739C428.842 466.485 432.409 469.357 435.48 469.357C436.173 469.357 437.758 468.664 440.235 467.277V469.06C440.037 469.655 439.937 470.348 439.937 471.14C439.145 473.419 438.105 475.301 436.817 476.787C435.529 478.174 434.192 479.165 432.805 479.759V511.41C432.805 512.004 433.053 512.797 433.548 513.787C434.439 515.669 436.47 516.61 439.64 516.61C440.73 516.61 442.018 516.313 443.504 515.719L444.098 516.759L431.319 529.092ZM427.307 459.402H426.118V459.253H424.632L424.335 459.104C420.571 459.104 418.243 457.569 417.351 454.498L414.974 455.687L413.042 452.418C413.834 451.625 414.676 451.031 415.568 450.634C416.459 450.139 417.302 449.693 418.094 449.297L417.797 449.594C418.094 449.396 418.49 449.099 418.986 448.703C419.58 448.207 420.125 447.762 420.62 447.365C421.314 446.87 422.106 446.276 422.998 445.582C423.988 444.889 425.028 444.146 426.118 443.353C428.694 447.118 431.368 449 434.142 449C434.638 448.802 435.034 448.703 435.331 448.703C435.727 448.604 436.173 448.455 436.668 448.257H436.52L436.817 447.96H436.966L437.114 447.811H437.263L437.411 447.663H438.451V449C438.451 450.387 438.105 451.724 437.411 453.012C436.817 454.201 435.975 455.29 434.885 456.281C433.895 457.173 432.706 457.916 431.319 458.51C430.031 459.104 428.694 459.402 427.307 459.402ZM468.475 526.269C463.323 521.415 458.321 518.988 453.467 518.988C451.188 518.988 449.504 519.83 448.414 521.514V519.434C448.414 519.137 448.811 517.997 449.603 516.016C450.99 513.044 452.872 510.914 455.25 509.626V473.667H452.724C452.03 474.063 451.238 474.36 450.346 474.558C450.247 474.657 449.801 474.806 449.009 475.004L448.86 475.301H448.563L446.928 476.193V475.153C446.928 474.756 446.978 474.459 447.077 474.261V473.815L447.226 473.518C447.226 473.122 447.275 472.825 447.374 472.626V471.586C447.374 471.289 447.374 470.992 447.374 470.695C447.473 470.398 447.572 470.051 447.671 469.655V468.763L447.523 468.317V466.98C447.126 465.89 446.928 464.107 446.928 461.63C448.216 462.324 449.256 462.819 450.049 463.116C450.94 463.414 451.634 463.612 452.129 463.711C452.327 463.612 452.971 463.562 454.061 463.562H455.25V456.875L455.101 456.578V454.944C455.002 454.845 454.903 454.696 454.804 454.498C454.705 454.3 454.606 454.102 454.507 453.904C454.507 453.606 454.457 453.359 454.358 453.161V453.012C454.16 452.814 454.061 452.418 454.061 451.823L455.101 451.526L455.25 451.823H455.993V451.972C461.54 451.972 466.79 448.901 471.744 442.759V444.691L471.595 444.839C471.496 445.037 471.397 445.335 471.298 445.731C471.298 446.127 471.199 446.622 471.001 447.217V447.365C471.001 447.663 470.951 447.91 470.852 448.108C470.456 449.693 470.258 450.882 470.258 451.675V463.562H474.864L475.161 463.711C476.746 463.711 478.48 463.017 480.362 461.63V463.265C480.263 463.463 480.214 463.76 480.214 464.157C479.916 464.652 479.768 465.89 479.768 467.871H479.916C479.916 469.952 480.164 472.726 480.659 476.193L479.025 475.301L478.876 475.153H478.728C477.638 474.756 476.4 474.459 475.013 474.261C473.626 473.964 472.041 473.766 470.258 473.667V507.843C470.951 508.537 471.744 508.884 472.635 508.884L473.081 509.032C473.378 509.131 473.576 509.23 473.675 509.329C473.973 509.626 474.27 509.775 474.567 509.775C474.666 509.874 474.765 509.973 474.864 510.072C475.062 510.072 475.211 510.122 475.31 510.221H475.161C475.459 510.419 475.805 510.716 476.201 511.112C476.697 511.41 477.242 511.707 477.836 512.004L479.322 510.518L482.294 513.936L468.475 526.269Z" fill="#C5E3FE"/>
</svg>
