<svg width="28" height="28" viewBox="0 0 28 28" fill="none" xmlns="http://www.w3.org/2000/svg">
<path d="M9.09968 2.33334H18.8997C22.633 2.33334 25.6663 5.36668 25.6663 9.10001V18.9C25.6663 20.6946 24.9534 22.4158 23.6844 23.6848C22.4154 24.9538 20.6943 25.6667 18.8997 25.6667H9.09968C5.36634 25.6667 2.33301 22.6333 2.33301 18.9V9.10001C2.33301 7.30538 3.04592 5.58425 4.31492 4.31525C5.58392 3.04626 7.30504 2.33334 9.09968 2.33334ZM8.86634 4.66668C7.75243 4.66668 6.68415 5.10918 5.89649 5.89683C5.10884 6.68448 4.66634 7.75277 4.66634 8.86668V19.1333C4.66634 21.455 6.54467 23.3333 8.86634 23.3333H19.133C20.2469 23.3333 21.3152 22.8908 22.1029 22.1032C22.8905 21.3155 23.333 20.2473 23.333 19.1333V8.86668C23.333 6.54501 21.4547 4.66668 19.133 4.66668H8.86634ZM20.1247 6.41668C20.5114 6.41668 20.8824 6.57032 21.1559 6.84381C21.4294 7.1173 21.583 7.48824 21.583 7.87501C21.583 8.26178 21.4294 8.63272 21.1559 8.90621C20.8824 9.1797 20.5114 9.33334 20.1247 9.33334C19.7379 9.33334 19.367 9.1797 19.0935 8.90621C18.82 8.63272 18.6663 8.26178 18.6663 7.87501C18.6663 7.48824 18.82 7.1173 19.0935 6.84381C19.367 6.57032 19.7379 6.41668 20.1247 6.41668ZM13.9997 8.16668C15.5468 8.16668 17.0305 8.78126 18.1245 9.87522C19.2184 10.9692 19.833 12.4529 19.833 14C19.833 15.5471 19.2184 17.0308 18.1245 18.1248C17.0305 19.2188 15.5468 19.8333 13.9997 19.8333C12.4526 19.8333 10.9688 19.2188 9.87489 18.1248C8.78092 17.0308 8.16634 15.5471 8.16634 14C8.16634 12.4529 8.78092 10.9692 9.87489 9.87522C10.9688 8.78126 12.4526 8.16668 13.9997 8.16668ZM13.9997 10.5C13.0714 10.5 12.1812 10.8688 11.5248 11.5251C10.8684 12.1815 10.4997 13.0718 10.4997 14C10.4997 14.9283 10.8684 15.8185 11.5248 16.4749C12.1812 17.1313 13.0714 17.5 13.9997 17.5C14.9279 17.5 15.8182 17.1313 16.4745 16.4749C17.1309 15.8185 17.4997 14.9283 17.4997 14C17.4997 13.0718 17.1309 12.1815 16.4745 11.5251C15.8182 10.8688 14.9279 10.5 13.9997 10.5Z" fill="#C5E3FE"/>
</svg>
