<svg width="205" height="204" viewBox="0 0 205 204" fill="none" xmlns="http://www.w3.org/2000/svg">
<path d="M202.54 122.23C201.514 121.202 200.227 120.472 198.818 120.12C197.408 119.768 195.93 119.806 194.54 120.23C179.286 124.842 163.066 125.228 147.61 121.349C132.153 117.469 118.038 109.469 106.77 98.2006C95.5011 86.932 87.5009 72.8174 83.6214 57.3607C79.742 41.904 80.1286 25.6843 84.7402 10.4301C85.1682 9.04007 85.2092 7.55971 84.8587 6.14818C84.5083 4.73665 83.7797 3.44736 82.7513 2.41895C81.7229 1.39055 80.4336 0.661949 79.0221 0.311511C77.6105 -0.0389263 76.1302 0.00205767 74.7402 0.430055C53.6505 6.8905 35.1356 19.838 21.8302 37.4301C10.1943 52.8786 3.09674 71.2658 1.33484 90.5258C-0.427053 109.786 3.21654 129.156 11.8563 146.459C20.496 163.762 33.7896 178.314 50.2435 188.478C66.6974 198.643 85.6598 204.018 105 204C127.564 204.069 149.526 196.734 167.52 183.12C185.112 169.815 198.06 151.3 204.52 130.21C204.943 128.825 204.983 127.352 204.634 125.946C204.285 124.541 203.562 123.256 202.54 122.23ZM157.9 170.34C140.956 183.103 119.971 189.315 98.8097 187.833C77.6482 186.351 57.7342 177.275 42.7336 162.276C27.7329 147.277 18.6554 127.363 17.1719 106.202C15.6884 85.0407 21.899 64.0557 34.6602 47.1101C42.9742 36.1307 53.7229 27.2305 66.0602 21.1101C65.3574 26.0423 65.0032 31.018 65.0002 36.0001C65.0293 63.5736 75.9958 90.0095 95.4933 109.507C114.991 129.004 141.427 139.971 169 140C173.992 139.998 178.978 139.644 183.92 138.94C177.794 151.28 168.887 162.028 157.9 170.34Z" fill="black"/>
</svg>
